<?xml version="1.0" encoding="UTF-8"?>
<svg width="437px" height="364px" viewBox="0 0 437 364" version="1.1" xmlns="http://www.w3.org/2000/svg" xmlns:xlink="http://www.w3.org/1999/xlink">
    <!-- Generator: Sketch 52.5 (67469) - http://www.bohemiancoding.com/sketch -->
    <title>Artboard Copy 3</title>
    <desc>Created with Sketch.</desc>
    <g id="Artboard-Copy-3" stroke="none" stroke-width="1" fill="none" fill-rule="evenodd">
        <g id="Group" transform="translate(22.000000, 5.000000)" font-family="LucidaGrande, Lucida Grande" font-size="14" font-weight="normal" letter-spacing="1.5">
            <text id="v1" fill="#072733">
                <tspan x="314" y="107">v</tspan>
                <tspan x="322.746094" y="107" font-family="NewPeninimMT-Inclined, New Peninim MT" font-size="10" font-style="italic">1</tspan>
            </text>
            <text id="a1" fill="#E9ECEF">
                <tspan x="191" y="14">a</tspan>
                <tspan x="200.231445" y="14" font-family="NewPeninimMT-Inclined, New Peninim MT" font-size="10" font-style="italic">1</tspan>
            </text>
            <text id="a2" fill="#212529">
                <tspan x="297" y="213">a</tspan>
                <tspan x="306.231445" y="213" font-family="NewPeninimMT-Inclined, New Peninim MT" font-size="10" font-style="italic">2</tspan>
            </text>
            <text id="a3" fill="#212529">
                <tspan x="189" y="244">a</tspan>
                <tspan x="198.231445" y="244" font-family="NewPeninimMT-Inclined, New Peninim MT" font-size="10" font-style="italic">3</tspan>
            </text>
            <text id="a7" fill="#212529">
                <tspan x="158" y="286">a</tspan>
                <tspan x="167.231445" y="286" font-family="NewPeninimMT-Inclined, New Peninim MT" font-size="10" font-style="italic">7</tspan>
            </text>
            <text id="a4" fill="#E9ECEF">
                <tspan x="80" y="213">a</tspan>
                <tspan x="89.2314453" y="213" font-family="NewPeninimMT-Inclined, New Peninim MT" font-size="10" font-style="italic">4</tspan>
            </text>
            <text id="a5" fill="#E9ECEF">
                <tspan x="242" y="104">a</tspan>
                <tspan x="251.231445" y="104" font-family="NewPeninimMT-Inclined, New Peninim MT" font-size="10" font-style="italic">5</tspan>
            </text>
            <text id="a6" fill="#212529">
                <tspan x="378" y="306">a</tspan>
                <tspan x="387.231445" y="306" font-family="NewPeninimMT-Inclined, New Peninim MT" font-size="10" font-style="italic">6</tspan>
            </text>
            <text id="a8" fill="#E9ECEF">
                <tspan x="153" y="184">a</tspan>
                <tspan x="162.231445" y="184" font-family="NewPeninimMT-Inclined, New Peninim MT" font-size="10" font-style="italic">8</tspan>
            </text>
            <text id="a9" fill="#E9ECEF">
                <tspan x="138" y="104">a</tspan>
                <tspan x="147.231445" y="104" font-family="NewPeninimMT-Inclined, New Peninim MT" font-size="10" font-style="italic">9</tspan>
            </text>
            <text id="a10" fill="#212529">
                <tspan x="228" y="188">a</tspan>
                <tspan x="237.231445" y="188" font-family="NewPeninimMT-Inclined, New Peninim MT" font-size="10" font-style="italic">10</tspan>
            </text>
            <text id="a11" fill="#212529">
                <tspan x="224" y="286">a</tspan>
                <tspan x="233.231445" y="286" font-family="NewPeninimMT-Inclined, New Peninim MT" font-size="10" font-style="italic">11</tspan>
            </text>
            <text id="a12" fill="#212529">
                <tspan x="0" y="308">a</tspan>
                <tspan x="9.23144531" y="308" font-family="NewPeninimMT-Inclined, New Peninim MT" font-size="10" font-style="italic">12</tspan>
            </text>
            <text id="c1" fill="#E9ECEF">
                <tspan x="189" y="67">c</tspan>
                <tspan x="197.670898" y="67" font-family="NewPeninimMT-Inclined, New Peninim MT" font-size="10" font-style="italic">1</tspan>
            </text>
            <text id="c3" fill="#212529">
                <tspan x="61" y="266">c</tspan>
                <tspan x="69.6708984" y="266" font-family="NewPeninimMT-Inclined, New Peninim MT" font-size="10" font-style="italic">3</tspan>
            </text>
            <text id="c2" fill="#212529">
                <tspan x="307" y="255">c</tspan>
                <tspan x="315.670898" y="255" font-family="NewPeninimMT-Inclined, New Peninim MT" font-size="10" font-style="italic">2</tspan>
            </text>
            <text id="v2" fill="#E9ECEF">
                <tspan x="144" y="235">v</tspan>
                <tspan x="152.746094" y="235" font-family="NewPeninimMT-Inclined, New Peninim MT" font-size="10" font-style="italic">2</tspan>
            </text>
            <text id="v3" fill="#E9ECEF">
                <tspan x="65" y="107">v</tspan>
                <tspan x="73.7460938" y="107" font-family="NewPeninimMT-Inclined, New Peninim MT" font-size="10" font-style="italic">3</tspan>
            </text>
            <text id="v4" fill="#072733">
                <tspan x="232" y="235">v</tspan>
                <tspan x="240.746094" y="235" font-family="NewPeninimMT-Inclined, New Peninim MT" font-size="10" font-style="italic">4</tspan>
            </text>
            <text id="v5" fill="#E9ECEF">
                <tspan x="191" y="133">v</tspan>
                <tspan x="199.746094" y="133" font-family="NewPeninimMT-Inclined, New Peninim MT" font-size="10" font-style="italic">5</tspan>
            </text>
            <text id="v6" fill="#212529">
                <tspan x="189" y="323">v</tspan>
                <tspan x="197.746094" y="323" font-family="NewPeninimMT-Inclined, New Peninim MT" font-size="10" font-style="italic">6</tspan>
            </text>
        </g>
        <circle id="Oval" stroke="#E9ECEF" stroke-width="2" cx="134" cy="227" r="115"></circle>
        <path d="M104.427567,115.837951 C55.245121,128.887935 19,173.711217 19,227 C19,290.512746 70.4872538,342 134,342 C167.305046,342 197.303344,327.842127 218.30474,305.216533" id="Path" stroke="#FF6B6B" stroke-width="2" stroke-linecap="round"></path>
        <path d="M246.347045,251.672518 C248.084493,243.724551 249,235.469189 249,227 C249,196.801668 237.360245,169.321947 218.322461,148.802563" id="Shape" stroke="#212529" stroke-width="2" stroke-linecap="round"></path>
        <circle id="Oval-Copy" stroke="#E9ECEF" stroke-width="2" cx="302" cy="227" r="115"></circle>
        <path d="M189.95864,253.031146 C194.558333,272.908225 204.311261,290.811736 217.734128,305.258386" id="Shape" stroke="#FF6B6B" stroke-width="2"></path>
        <circle id="Oval-Copy-2" stroke="#E9ECEF" stroke-width="2" cx="217" cy="141" r="115"></circle>
        <path d="M190.021968,252.817992 C198.674934,254.89815 207.708792,256 217,256 C226.917375,256 236.541543,254.744631 245.722264,252.384132" id="Path" stroke="#FF6B6B" stroke-width="2" stroke-linecap="round" stroke-linejoin="round"></path>
        <path d="M246.621141,252.149114 C295.778807,239.082468 332,194.27119 332,141 C332,132.168917 331.004581,123.570326 329.119824,115.310309" id="Oval-Copy-2" stroke="#339AF0" stroke-width="2" stroke-linecap="round"></path>
        <path d="M218.122793,305.412097 C231.934321,290.601142 241.880888,272.138843 246.355951,251.631742" id="Shape" stroke="#339AF0" stroke-width="2" stroke-linecap="round"></path>
        <circle id="Oval" fill="#339AF0" cx="329" cy="115" r="3"></circle>
        <path id="Path" d="M337.4186,118.723355 L343.981249,126.20315 C344.345492,126.618296 344.304226,127.250115 343.88908,127.614357 C343.473934,127.978599 342.842115,127.937334 342.477873,127.522188 L333.397507,117.172818 L332.225029,115.836484 L333.975913,115.528427 L347.535802,113.142653 C348.079732,113.046952 348.598255,113.410314 348.693956,113.954244 C348.789657,114.498174 348.426296,115.016697 347.882366,115.112398 L338.081576,116.836783 L345.77173,119.542678 C389.087665,137.204862 418,179.420036 418,227 C418,291.065031 366.065031,343 302,343 C269.409908,343 238.980997,329.489711 217.179066,306.129697 C216.802239,305.72594 216.82407,305.093151 217.227827,304.716324 C217.631584,304.339497 218.264373,304.361328 218.6412,304.765086 C240.068712,327.723923 269.970113,341 302,341 C364.960461,341 416,289.960461 416,227 C416,180.23995 387.586025,138.752437 345.062342,121.412003 L337.4186,118.723355 Z" fill="#69DB7C" fill-rule="nonzero"></path>
        <text id="X" transform="translate(313.996949, 202.774907) rotate(-48.000000) translate(-313.996949, -202.774907) " font-family="LucidaGrande, Lucida Grande" font-size="14" font-weight="normal" letter-spacing="1.5" fill="#339AF0">
            <tspan x="308.496949" y="208.274907">X</tspan>
        </text>
        <text id="X-Copy-3" transform="translate(393.996949, 294.774907) rotate(-48.000000) translate(-393.996949, -294.774907) " font-family="LucidaGrande, Lucida Grande" font-size="14" font-weight="normal" letter-spacing="1.5" fill="#69DB7C">
            <tspan x="388.496949" y="300.274907">X</tspan>
        </text>
        <text id="X-Copy" transform="translate(235.996949, 278.774907) rotate(-48.000000) translate(-235.996949, -278.774907) " font-family="LucidaGrande, Lucida Grande" font-size="14" font-weight="normal" letter-spacing="1.5" fill="#339AF0">
            <tspan x="230.496949" y="284.274907">X</tspan>
        </text>
        <text id="X-Copy-2" transform="translate(202.070503, 282.759455) rotate(63.000000) translate(-202.070503, -282.759455) " font-family="LucidaGrande, Lucida Grande" font-size="14" font-weight="normal" letter-spacing="1.5" fill="#FF6B6B">
            <tspan x="196.570503" y="288.259455">X</tspan>
        </text>
    </g>
</svg>
