<?xml version="1.0" encoding="UTF-8"?>
<svg width="300px" height="260px" viewBox="0 0 300 260" version="1.1" xmlns="http://www.w3.org/2000/svg" xmlns:xlink="http://www.w3.org/1999/xlink">
    <title>writings-circles-graph-2</title>
    <g id="writings-circles-graph-2" stroke="none" stroke-width="1" fill="none" fill-rule="evenodd">
        <g id="Group" transform="translate(4.500000, 14.600000)" stroke="#1E1B18" stroke-dasharray="5,1" stroke-width="2">
            <path d="M84,230 C130.391919,230 168,192.391919 168,146 C168,99.608081 130.391919,62 84,62 C37.608081,62 0,99.608081 0,146 C0,192.391919 37.608081,230 84,230 Z" id="Oval"></path>
            <path d="M208,230 C254.391919,230 292,192.391919 292,146 C292,99.608081 254.391919,62 208,62 C161.608081,62 124,99.608081 124,146 C124,192.391919 161.608081,230 208,230 Z" id="Oval-Copy"></path>
            <path d="M146,168 C192.391919,168 230,130.391919 230,84 C230,37.608081 192.391919,0 146,0 C99.608081,0 62,37.608081 62,84 C62,130.391919 99.608081,168 146,168 Z" id="Oval-Copy-2"></path>
        </g>
        <path d="M57.3947656,72.3515625 C59.198151,72.3515625 60.4627995,71.7200521 61.1887109,70.4570312 C61.9146224,69.1940104 62.2775781,67.3938802 62.2775781,65.0566406 C62.2775781,62.719401 61.9146224,60.9160156 61.1887109,59.6464844 C60.4627995,58.3769531 59.198151,57.7421875 57.3947656,57.7421875 C55.5913802,57.7421875 54.3267318,58.3769531 53.6008203,59.6464844 C52.8749089,60.9160156 52.5119531,62.719401 52.5119531,65.0566406 C52.5119531,67.3938802 52.8749089,69.1940104 53.6008203,70.4570312 C54.3267318,71.7200521 55.5913802,72.3515625 57.3947656,72.3515625 Z M57.3947656,70.0859375 C56.5679427,70.0859375 56.0210677,69.6546224 55.7541406,68.7919922 C55.4872135,67.929362 55.35375,66.6842448 55.35375,65.0566406 C55.35375,63.3509115 55.4872135,62.0878906 55.7541406,61.2675781 C56.0210677,60.4472656 56.5679427,60.0371094 57.3947656,60.0371094 C58.2215885,60.0371094 58.7635807,60.4472656 59.0207422,61.2675781 C59.2779036,62.0878906 59.4064844,63.3509115 59.4064844,65.0566406 C59.4064844,66.6842448 59.2779036,67.929362 59.0207422,68.7919922 C58.7635807,69.6546224 58.2215885,70.0859375 57.3947656,70.0859375 Z" id="0" fill="#1E1B18" fill-rule="nonzero"></path>
        <path d="M153.455312,86 L153.455312,71.8398438 L151.140859,71.8398438 C151.140859,71.9635417 151.105052,72.1523438 151.033437,72.40625 C150.90974,72.8294271 150.727448,73.1679688 150.486562,73.421875 C150.135,73.7929688 149.679271,74.0403646 149.119375,74.1640625 C148.767812,74.2421875 148.152578,74.3007812 147.273672,74.3398438 L147.273672,74.3398438 L147.273672,76.234375 L150.60375,76.234375 L150.60375,86 L153.455312,86 Z" id="1" fill="#1E1B18" fill-rule="nonzero"></path>
        <path d="M248.209219,72 L248.209219,69.5488281 L242.027578,69.5488281 C242.203359,69.2558594 242.419831,68.9986979 242.676992,68.7773438 C242.934154,68.5559896 243.411042,68.1979167 244.107656,67.703125 L244.107656,67.703125 L245.220937,66.9121094 C246.158437,66.2480469 246.832266,65.6458333 247.242422,65.1054688 C247.867422,64.2916667 248.179922,63.3606771 248.179922,62.3125 C248.179922,60.9453125 247.737214,59.8466797 246.851797,59.0166016 C245.96638,58.1865234 244.774974,57.7714844 243.277578,57.7714844 C241.383047,57.7714844 240.064687,58.4778646 239.3225,59.890625 C238.931875,60.6328125 238.713776,61.6061198 238.668203,62.8105469 L238.668203,62.8105469 L241.373281,62.8105469 C241.405833,62.016276 241.51,61.436849 241.685781,61.0722656 C241.991771,60.4407552 242.567943,60.125 243.414297,60.125 C244.032786,60.125 244.508047,60.3235677 244.840078,60.7207031 C245.172109,61.1178385 245.338125,61.6158854 245.338125,62.2148438 C245.338125,62.9505208 245.048411,63.6276042 244.468984,64.2460938 C244.09138,64.6432292 243.261302,65.3007812 241.97875,66.21875 C240.500885,67.2734375 239.563385,68.2727865 239.16625,69.2167969 C238.756094,70.0566406 238.537995,70.984375 238.511953,72 L238.511953,72 L248.209219,72 Z" id="2" fill="#1E1B18" fill-rule="nonzero"></path>
        <path d="M115.277578,163.351562 C116.905182,163.351562 118.134023,162.897461 118.964102,161.989258 C119.79418,161.081055 120.209219,160.027995 120.209219,158.830078 C120.209219,157.690755 119.854401,156.792318 119.144766,156.134766 C118.669505,155.698568 118.304922,155.480469 118.051016,155.480469 C118.389557,155.35026 118.715078,155.10612 119.027578,154.748047 C119.52237,154.17513 119.769766,153.472005 119.769766,152.638672 C119.769766,151.460286 119.354727,150.521159 118.524648,149.821289 C117.69457,149.121419 116.602448,148.771484 115.248281,148.771484 C114.519115,148.771484 113.90388,148.859375 113.402578,149.035156 C112.901276,149.210938 112.468333,149.464844 112.10375,149.796875 C111.615469,150.265625 111.257396,150.776693 111.029531,151.330078 C110.814688,151.961589 110.694245,152.628906 110.668203,153.332031 L110.668203,153.332031 L113.265859,153.332031 C113.252839,152.635417 113.400951,152.078776 113.710195,151.662109 C114.01944,151.245443 114.502839,151.037109 115.160391,151.037109 C115.733307,151.037109 116.177643,151.20638 116.493398,151.544922 C116.809154,151.883464 116.967031,152.322917 116.967031,152.863281 C116.967031,153.696615 116.657786,154.25 116.039297,154.523438 C115.681224,154.686198 115.049714,154.774089 114.144766,154.787109 L114.144766,154.787109 L114.144766,156.779297 C115.069245,156.779297 115.746328,156.867188 116.176016,157.042969 C116.931224,157.355469 117.308828,157.977214 117.308828,158.908203 C117.308828,159.611328 117.105378,160.150065 116.698477,160.524414 C116.291576,160.898763 115.814688,161.085938 115.267813,161.085938 C114.375885,161.085938 113.760651,160.744141 113.422109,160.060547 C113.239818,159.689453 113.148672,159.220703 113.148672,158.654297 L113.148672,158.654297 L110.414297,158.654297 C110.45987,159.780599 110.687734,160.692057 111.097891,161.388672 C111.879141,162.697266 113.27237,163.351562 115.277578,163.351562 Z" id="3" fill="#1E1B18" fill-rule="nonzero"></path>
        <path d="M188.744375,163 L188.744375,159.953125 L190.345937,159.953125 L190.345937,157.775391 L188.744375,157.775391 L188.744375,148.927734 L185.619375,148.927734 L180.414297,157.521484 L180.414297,159.953125 L186.019766,159.953125 L186.019766,163 L188.744375,163 Z M186.019766,157.775391 L182.474844,157.775391 L186.019766,151.662109 L186.019766,157.775391 Z" id="4" fill="#1E1B18" fill-rule="nonzero"></path>
        <path d="M150.179922,245.371094 C151.853099,245.371094 153.109609,244.856771 153.949453,243.828125 C154.789297,242.799479 155.209219,241.630859 155.209219,240.322266 C155.209219,238.818359 154.773021,237.672526 153.900625,236.884766 C153.028229,236.097005 152.006094,235.703125 150.834219,235.703125 C150.254792,235.703125 149.763255,235.777995 149.359609,235.927734 C149.118724,236.01888 148.783437,236.204427 148.35375,236.484375 L148.35375,236.484375 L148.861562,233.388672 L154.652578,233.388672 L154.652578,231.025391 L146.849844,231.025391 L145.85375,238.847656 L148.35375,238.964844 C148.575104,238.541667 148.90388,238.251953 149.340078,238.095703 C149.587474,238.011068 149.880443,237.96875 150.218984,237.96875 C150.93513,237.96875 151.462474,238.217773 151.801016,238.71582 C152.139557,239.213867 152.308828,239.824219 152.308828,240.546875 C152.308828,241.282552 152.128164,241.892904 151.766836,242.37793 C151.405508,242.862956 150.879792,243.105469 150.189687,243.105469 C149.590729,243.105469 149.135,242.941081 148.8225,242.612305 C148.51,242.283529 148.298411,241.816406 148.187734,241.210938 L148.187734,241.210938 L145.414297,241.210938 C145.511953,242.539062 145.993724,243.564453 146.859609,244.287109 C147.725495,245.009766 148.832266,245.371094 150.179922,245.371094 Z" id="5" fill="#1E1B18" fill-rule="nonzero"></path>
        <circle id="Oval" stroke="#1E1B18" stroke-width="2" fill="#5C7CFA" cx="232" cy="79" r="4"></circle>
        <circle id="Oval-Copy" stroke="#1E1B18" stroke-width="2" fill="#5C7CFA" cx="170" cy="181" r="4"></circle>
        <circle id="Oval-Copy-2" stroke="#1E1B18" stroke-width="2" fill="#5C7CFA" cx="150" cy="104" r="4"></circle>
        <circle id="Oval-Copy-3" stroke="#1E1B18" stroke-width="2" fill="#5C7CFA" cx="131" cy="181" r="4"></circle>
        <circle id="Oval-Copy-4" stroke="#1E1B18" stroke-width="2" fill="#5C7CFA" cx="68" cy="79" r="4"></circle>
        <circle id="Oval-Copy-5" stroke="#1E1B18" stroke-width="2" fill="#5C7CFA" cx="150" cy="216" r="4"></circle>
    </g>
</svg>