<?xml version="1.0" encoding="UTF-8"?>
<svg width="365px" height="294px" viewBox="0 0 365 294" version="1.1"
    xmlns="http://www.w3.org/2000/svg" xmlns:xlink="http://www.w3.org/1999/xlink">
    <title>writings-circles-graph-7</title>
    <g id="writings-circles-graph-7" stroke="none" stroke-width="1" fill="none" fill-rule="evenodd">
        <g id="Group" transform="translate(37.500000, 38.600000)" stroke="#F8F9FA"
            stroke-dasharray="5,1" stroke-width="2">
            <path
                d="M84,230 C130.391919,230 168,192.391919 168,146 C168,99.608081 130.391919,62 84,62 C37.608081,62 0,99.608081 0,146 C0,192.391919 37.608081,230 84,230 Z"
                id="Oval"></path>
            <path
                d="M208,230 C254.391919,230 292,192.391919 292,146 C292,99.608081 254.391919,62 208,62 C161.608081,62 124,99.608081 124,146 C124,192.391919 161.608081,230 208,230 Z"
                id="Oval-Copy"></path>
            <path
                d="M146,168 C192.391919,168 230,130.391919 230,84 C230,37.608081 192.391919,0 146,0 C99.608081,0 62,37.608081 62,84 C62,130.391919 99.608081,168 146,168 Z"
                id="Oval-Copy-2"></path>
        </g>
        <path
            d="M101.559766,103 C101.559766,102.839844 107.760196,82.0253906 116.893457,70.8891652 C135.09063,48.7012724 159.671242,38.6 183.616122,38.6 C195.849187,38.6 210.801827,42.2212598 220.861121,47.1908411 C247.501324,60.3518689 261.929531,87.5527344 265.305271,103.440937 C265.305271,103.440937 220.861121,87.5527344 183,128.310744 C161.5,98 118.600508,98 101.559766,103 Z"
            id="Path-39" fill-opacity="0.225688374" fill="#12B886"></path>
        <path
            d="M265.305214,103.440937 C256.636214,66.2807545 223.3007,38.6 183.5,38.6 C143.489518,38.6 110.012556,66.573323 101.559766,104.029316"
            id="Path" stroke="#12B886" stroke-width="2"></path>
        <path
            d="M183.616122,128.051936 C168.252593,111.185392 146.112472,100.6 121.5,100.6 C114.337448,100.6 107.384275,101.496462 100.746563,103.183307"
            id="Path" stroke="#12B886" stroke-width="2"></path>
        <path
            d="M265.323659,102.952699 C258.967386,101.414878 252.328856,100.6 245.5,100.6 C220.761879,100.6 198.521416,111.293748 183.149111,128.310744"
            id="Path" stroke="#12B886" stroke-width="2"></path>
        <path
            d="M90.3947656,96.3515625 C92.198151,96.3515625 93.4627995,95.7200521 94.1887109,94.4570312 C94.9146224,93.1940104 95.2775781,91.3938802 95.2775781,89.0566406 C95.2775781,86.719401 94.9146224,84.9160156 94.1887109,83.6464844 C93.4627995,82.3769531 92.198151,81.7421875 90.3947656,81.7421875 C88.5913802,81.7421875 87.3267318,82.3769531 86.6008203,83.6464844 C85.8749089,84.9160156 85.5119531,86.719401 85.5119531,89.0566406 C85.5119531,91.3938802 85.8749089,93.1940104 86.6008203,94.4570312 C87.3267318,95.7200521 88.5913802,96.3515625 90.3947656,96.3515625 Z M90.3947656,94.0859375 C89.5679427,94.0859375 89.0210677,93.6546224 88.7541406,92.7919922 C88.4872135,91.929362 88.35375,90.6842448 88.35375,89.0566406 C88.35375,87.3509115 88.4872135,86.0878906 88.7541406,85.2675781 C89.0210677,84.4472656 89.5679427,84.0371094 90.3947656,84.0371094 C91.2215885,84.0371094 91.7635807,84.4472656 92.0207422,85.2675781 C92.2779036,86.0878906 92.4064844,87.3509115 92.4064844,89.0566406 C92.4064844,90.6842448 92.2779036,91.929362 92.0207422,92.7919922 C91.7635807,93.6546224 91.2215885,94.0859375 90.3947656,94.0859375 Z"
            id="0" fill="var(--color-background-shade-1)" fill-rule="nonzero"></path>
        <path
            d="M185.455313,117 L185.455313,102.839844 L183.140859,102.839844 C183.140859,102.963542 183.105052,103.152344 183.033438,103.40625 C182.90974,103.829427 182.727448,104.167969 182.486563,104.421875 C182.135,104.792969 181.679271,105.040365 181.119375,105.164062 C180.767813,105.242188 180.152578,105.300781 179.273672,105.339844 L179.273672,105.339844 L179.273672,107.234375 L182.60375,107.234375 L182.60375,117 L185.455313,117 Z"
            id="1" fill="var(--color-background-shade-1)" fill-rule="nonzero"></path>
        <path
            d="M281.209219,96 L281.209219,93.5488281 L275.027578,93.5488281 C275.203359,93.2558594 275.419831,92.9986979 275.676992,92.7773438 C275.934154,92.5559896 276.411042,92.1979167 277.107656,91.703125 L277.107656,91.703125 L278.220938,90.9121094 C279.158438,90.2480469 279.832266,89.6458333 280.242422,89.1054688 C280.867422,88.2916667 281.179922,87.3606771 281.179922,86.3125 C281.179922,84.9453125 280.737214,83.8466797 279.851797,83.0166016 C278.96638,82.1865234 277.774974,81.7714844 276.277578,81.7714844 C274.383047,81.7714844 273.064688,82.4778646 272.3225,83.890625 C271.931875,84.6328125 271.713776,85.6061198 271.668203,86.8105469 L271.668203,86.8105469 L274.373281,86.8105469 C274.405833,86.016276 274.51,85.436849 274.685781,85.0722656 C274.991771,84.4407552 275.567943,84.125 276.414297,84.125 C277.032786,84.125 277.508047,84.3235677 277.840078,84.7207031 C278.172109,85.1178385 278.338125,85.6158854 278.338125,86.2148438 C278.338125,86.9505208 278.048411,87.6276042 277.468984,88.2460938 C277.09138,88.6432292 276.261302,89.3007812 274.97875,90.21875 C273.500885,91.2734375 272.563385,92.2727865 272.16625,93.2167969 C271.756094,94.0566406 271.537995,94.984375 271.511953,96 L271.511953,96 L281.209219,96 Z"
            id="2" fill="var(--color-background-shade-1)" fill-rule="nonzero"></path>
        <circle id="Oval" stroke="#F8F9FA" stroke-width="2" fill="#5C7CFA" cx="265" cy="103" r="4"></circle>
        <circle id="Oval-Copy-2" stroke="#F8F9FA" stroke-width="2" fill="#5C7CFA" cx="183" cy="128"
            r="4"></circle>
        <circle id="Oval-Copy-4" stroke="#F8F9FA" stroke-width="2" fill="#5C7CFA" cx="101" cy="103"
            r="4"></circle>
        <circle id="Oval-Copy-6" stroke="#F8F9FA" stroke-width="2" fill="#D6336C" cx="185" cy="39"
            r="4"></circle>
        <circle id="Oval-Copy-10" stroke="#F8F9FA" stroke-width="2" fill="#D6336C" cx="148" cy="105"
            r="4"></circle>
        <circle id="Oval-Copy-18" stroke="#F8F9FA" stroke-width="2" fill="#D6336C" cx="218" cy="105"
            r="4"></circle>
        <path
            d="M185.443594,30.3710938 C187.10375,30.3710938 188.327708,29.8665365 189.115469,28.8574219 C189.903229,27.8483073 190.297109,26.6829427 190.297109,25.3613281 C190.297109,24.0332031 189.895091,22.9427083 189.091055,22.0898438 C188.287018,21.2369792 187.256745,20.8105469 186.000234,20.8105469 C185.414297,20.8105469 184.893464,20.9049479 184.437734,21.09375 C183.982005,21.2825521 183.581615,21.5820312 183.236562,21.9921875 C183.314687,20.8984375 183.457917,20.0716146 183.66625,19.5117188 C184.050365,18.4960938 184.694896,17.9882812 185.599844,17.9882812 C186.205312,17.9882812 186.657786,18.2096354 186.957266,18.6523438 C187.133047,18.9257812 187.220937,19.1764323 187.220937,19.4042969 L187.220937,19.4042969 L189.994375,19.4042969 C189.896719,18.2845052 189.457266,17.3876953 188.676016,16.7138672 C187.894766,16.0400391 186.846589,15.703125 185.531484,15.703125 C184.620026,15.703125 183.837148,15.9114583 183.182852,16.328125 C182.528555,16.7447917 181.999583,17.2949219 181.595937,17.9785156 C181.127187,18.7792969 180.811432,19.781901 180.648672,20.9863281 C180.557526,21.6634115 180.511953,22.5423177 180.511953,23.6230469 C180.511953,25.4654948 180.840729,26.969401 181.498281,28.1347656 C182.344635,29.625651 183.65974,30.3710938 185.443594,30.3710938 Z M185.482656,28.1054688 C184.851146,28.1054688 184.330312,27.8645833 183.920156,27.3828125 C183.51,26.9010417 183.304922,26.2792969 183.304922,25.5175781 C183.304922,24.5735677 183.578359,23.889974 184.125234,23.4667969 C184.489818,23.1803385 184.90974,23.0371094 185.385,23.0371094 C185.970937,23.0371094 186.465729,23.2568359 186.869375,23.6962891 C187.273021,24.1357422 187.474844,24.7688802 187.474844,25.5957031 C187.474844,26.3378906 187.297435,26.9417318 186.942617,27.4072266 C186.587799,27.8727214 186.101146,28.1054688 185.482656,28.1054688 Z"
            id="6" fill="var(--color-background-shade-1)" fill-rule="nonzero"></path>
        <path
            d="M149.277578,96 C149.277578,95.1861979 149.437083,94.1445312 149.756094,92.875 C150.075104,91.6054688 150.433177,90.53125 150.830312,89.6523438 C151.331615,88.5325521 151.953359,87.4469401 152.695547,86.3955078 C153.437734,85.3440755 154.017161,84.6132812 154.433828,84.203125 L154.433828,84.203125 L154.433828,82.0253906 L144.433828,82.0253906 L144.394766,84.5253906 L151.455312,84.5253906 C150.765208,85.1959635 149.909089,86.3808594 148.886953,88.0800781 C147.304922,90.8209635 146.471589,93.4609375 146.386953,96 L146.386953,96 L149.277578,96 Z"
            id="7" fill="var(--color-background-shade-1)" fill-rule="nonzero"></path>
        <path
            d="M217.22875,96.3710938 C218.810781,96.3710938 220.042878,95.9527995 220.925039,95.1162109 C221.807201,94.2796224 222.248281,93.265625 222.248281,92.0742188 C222.248281,91.2799479 222.0725,90.5605469 221.720937,89.9160156 C221.369375,89.2714844 220.845286,88.7539062 220.148672,88.3632812 C220.832266,87.9726562 221.276602,87.5120443 221.48168,86.9814453 C221.686758,86.4508464 221.789297,85.9544271 221.789297,85.4921875 C221.789297,84.4635417 221.401927,83.586263 220.627187,82.8603516 C219.852448,82.1344401 218.758698,81.7714844 217.345937,81.7714844 C215.933177,81.7714844 214.839427,82.1344401 214.064687,82.8603516 C213.289948,83.586263 212.902578,84.4635417 212.902578,85.4921875 C212.902578,85.9544271 213.005117,86.4508464 213.210195,86.9814453 C213.415273,87.5120443 213.859609,88.0052083 214.543203,88.4609375 C213.846589,88.7864583 213.317617,89.2714844 212.956289,89.9160156 C212.594961,90.5605469 212.414297,91.2799479 212.414297,92.0742188 C212.414297,93.265625 212.821198,94.2796224 213.635,95.1162109 C214.448802,95.9527995 215.646719,96.3710938 217.22875,96.3710938 Z M217.345937,87.5527344 C216.786042,87.5527344 216.348216,87.389974 216.032461,87.0644531 C215.716706,86.7389323 215.558828,86.3190104 215.558828,85.8046875 C215.558828,85.2447917 215.716706,84.8069661 216.032461,84.4912109 C216.348216,84.1754557 216.786042,84.0175781 217.345937,84.0175781 C217.912344,84.0175781 218.350169,84.1754557 218.659414,84.4912109 C218.968659,84.8069661 219.123281,85.2447917 219.123281,85.8046875 C219.123281,86.3190104 218.968659,86.7389323 218.659414,87.0644531 C218.350169,87.389974 217.912344,87.5527344 217.345937,87.5527344 Z M217.345937,94.0859375 C216.707917,94.0859375 216.208242,93.8938802 215.846914,93.5097656 C215.485586,93.125651 215.304922,92.5852865 215.304922,91.8886719 C215.304922,91.1660156 215.488841,90.617513 215.85668,90.2431641 C216.224518,89.8688151 216.720937,89.6816406 217.345937,89.6816406 C217.970937,89.6816406 218.467357,89.8688151 218.835195,90.2431641 C219.203034,90.617513 219.386953,91.1660156 219.386953,91.8886719 C219.386953,92.5852865 219.206289,93.125651 218.844961,93.5097656 C218.483633,93.8938802 217.983958,94.0859375 217.345937,94.0859375 Z"
            id="8" fill="var(--color-background-shade-1)" fill-rule="nonzero"></path>
    </g>
</svg>
