<?xml version="1.0" encoding="UTF-8"?>
<svg width="365px" height="294px" viewBox="0 0 365 294" version="1.1" xmlns="http://www.w3.org/2000/svg" xmlns:xlink="http://www.w3.org/1999/xlink">
    <title>writings-circles-graph-6</title>
    <g id="writings-circles-graph-6" stroke="none" stroke-width="1" fill="none" fill-rule="evenodd">
        <g id="Group" transform="translate(37.500000, 38.600000)" stroke="#F8F9FA" stroke-dasharray="5,1" stroke-width="2">
            <path d="M84,230 C130.391919,230 168,192.391919 168,146 C168,99.608081 130.391919,62 84,62 C37.608081,62 0,99.608081 0,146 C0,192.391919 37.608081,230 84,230 Z" id="Oval"></path>
            <path d="M208,230 C254.391919,230 292,192.391919 292,146 C292,99.608081 254.391919,62 208,62 C161.608081,62 124,99.608081 124,146 C124,192.391919 161.608081,230 208,230 Z" id="Oval-Copy"></path>
            <path d="M146,168 C192.391919,168 230,130.391919 230,84 C230,37.608081 192.391919,0 146,0 C99.608081,0 62,37.608081 62,84 C62,130.391919 99.608081,168 146,168 Z" id="Oval-Copy-2"></path>
        </g>
        <path d="M265.423128,103.953683 C256.942368,66.5356725 223.483547,38.6 183.5,38.6 C143.332934,38.6 109.750627,66.7927029 101.461675,104.469512" id="Path" stroke="#12B886" stroke-width="2"></path>
        <path d="M202.969046,204.332275 C239.973079,195.550646 267.5,162.289952 267.5,122.6 C267.5,115.936577 266.724126,109.454369 265.25779,103.238789" id="Path" stroke="#D6336C" stroke-width="2"></path>
        <path d="M90.3947656,96.3515625 C92.198151,96.3515625 93.4627995,95.7200521 94.1887109,94.4570312 C94.9146224,93.1940104 95.2775781,91.3938802 95.2775781,89.0566406 C95.2775781,86.719401 94.9146224,84.9160156 94.1887109,83.6464844 C93.4627995,82.3769531 92.198151,81.7421875 90.3947656,81.7421875 C88.5913802,81.7421875 87.3267318,82.3769531 86.6008203,83.6464844 C85.8749089,84.9160156 85.5119531,86.719401 85.5119531,89.0566406 C85.5119531,91.3938802 85.8749089,93.1940104 86.6008203,94.4570312 C87.3267318,95.7200521 88.5913802,96.3515625 90.3947656,96.3515625 Z M90.3947656,94.0859375 C89.5679427,94.0859375 89.0210677,93.6546224 88.7541406,92.7919922 C88.4872135,91.929362 88.35375,90.6842448 88.35375,89.0566406 C88.35375,87.3509115 88.4872135,86.0878906 88.7541406,85.2675781 C89.0210677,84.4472656 89.5679427,84.0371094 90.3947656,84.0371094 C91.2215885,84.0371094 91.7635807,84.4472656 92.0207422,85.2675781 C92.2779036,86.0878906 92.4064844,87.3509115 92.4064844,89.0566406 C92.4064844,90.6842448 92.2779036,91.929362 92.0207422,92.7919922 C91.7635807,93.6546224 91.2215885,94.0859375 90.3947656,94.0859375 Z" id="0" fill="#F8F9FA" fill-rule="nonzero"></path>
        <path d="M281.209219,96 L281.209219,93.5488281 L275.027578,93.5488281 C275.203359,93.2558594 275.419831,92.9986979 275.676992,92.7773438 C275.934154,92.5559896 276.411042,92.1979167 277.107656,91.703125 L278.220938,90.9121094 C279.158438,90.2480469 279.832266,89.6458333 280.242422,89.1054688 C280.867422,88.2916667 281.179922,87.3606771 281.179922,86.3125 C281.179922,84.9453125 280.737214,83.8466797 279.851797,83.0166016 C278.96638,82.1865234 277.774974,81.7714844 276.277578,81.7714844 C274.383047,81.7714844 273.064688,82.4778646 272.3225,83.890625 C271.931875,84.6328125 271.713776,85.6061198 271.668203,86.8105469 L274.373281,86.8105469 C274.405833,86.016276 274.51,85.436849 274.685781,85.0722656 C274.991771,84.4407552 275.567943,84.125 276.414297,84.125 C277.032786,84.125 277.508047,84.3235677 277.840078,84.7207031 C278.172109,85.1178385 278.338125,85.6158854 278.338125,86.2148438 C278.338125,86.9505208 278.048411,87.6276042 277.468984,88.2460938 C277.09138,88.6432292 276.261302,89.3007812 274.97875,90.21875 C273.500885,91.2734375 272.563385,92.2727865 272.16625,93.2167969 C271.756094,94.0566406 271.537995,94.984375 271.511953,96 L281.209219,96 Z" id="2" fill="#F8F9FA" fill-rule="nonzero"></path>
        <path d="M219.744375,192 L219.744375,188.953125 L221.345938,188.953125 L221.345938,186.775391 L219.744375,186.775391 L219.744375,177.927734 L216.619375,177.927734 L211.414297,186.521484 L211.414297,188.953125 L217.019766,188.953125 L217.019766,192 L219.744375,192 Z M217.019766,186.775391 L213.474844,186.775391 L217.019766,180.662109 L217.019766,186.775391 Z" id="4" fill="#F8F9FA" fill-rule="nonzero"></path>
        <circle id="Oval" stroke="#F8F9FA" stroke-width="2" fill="#5C7CFA" cx="265" cy="103" r="4"></circle>
        <circle id="Oval-Copy" stroke="#F8F9FA" stroke-width="2" fill="#5C7CFA" cx="203" cy="205" r="4"></circle>
        <circle id="Oval-Copy-4" stroke="#F8F9FA" stroke-width="2" fill="#5C7CFA" cx="101" cy="103" r="4"></circle>
        <circle id="Oval-Copy-6" stroke="#F8F9FA" stroke-width="2" fill="#D6336C" cx="185" cy="39" r="4"></circle>
        <circle id="Oval-Copy-17" stroke="#F8F9FA" stroke-width="2" fill="#D6336C" cx="256" cy="164" r="4"></circle>
        <path d="M185.443594,30.3710938 C187.10375,30.3710938 188.327708,29.8665365 189.115469,28.8574219 C189.903229,27.8483073 190.297109,26.6829427 190.297109,25.3613281 C190.297109,24.0332031 189.895091,22.9427083 189.091055,22.0898438 C188.287018,21.2369792 187.256745,20.8105469 186.000234,20.8105469 C185.414297,20.8105469 184.893464,20.9049479 184.437734,21.09375 C183.982005,21.2825521 183.581615,21.5820312 183.236562,21.9921875 C183.314687,20.8984375 183.457917,20.0716146 183.66625,19.5117188 C184.050365,18.4960938 184.694896,17.9882812 185.599844,17.9882812 C186.205312,17.9882812 186.657786,18.2096354 186.957266,18.6523438 C187.133047,18.9257812 187.220937,19.1764323 187.220937,19.4042969 L187.220937,19.4042969 L189.994375,19.4042969 C189.896719,18.2845052 189.457266,17.3876953 188.676016,16.7138672 C187.894766,16.0400391 186.846589,15.703125 185.531484,15.703125 C184.620026,15.703125 183.837148,15.9114583 183.182852,16.328125 C182.528555,16.7447917 181.999583,17.2949219 181.595937,17.9785156 C181.127187,18.7792969 180.811432,19.781901 180.648672,20.9863281 C180.557526,21.6634115 180.511953,22.5423177 180.511953,23.6230469 C180.511953,25.4654948 180.840729,26.969401 181.498281,28.1347656 C182.344635,29.625651 183.65974,30.3710938 185.443594,30.3710938 Z M185.482656,28.1054688 C184.851146,28.1054688 184.330312,27.8645833 183.920156,27.3828125 C183.51,26.9010417 183.304922,26.2792969 183.304922,25.5175781 C183.304922,24.5735677 183.578359,23.889974 184.125234,23.4667969 C184.489818,23.1803385 184.90974,23.0371094 185.385,23.0371094 C185.970937,23.0371094 186.465729,23.2568359 186.869375,23.6962891 C187.273021,24.1357422 187.474844,24.7688802 187.474844,25.5957031 C187.474844,26.3378906 187.297435,26.9417318 186.942617,27.4072266 C186.587799,27.8727214 186.101146,28.1054688 185.482656,28.1054688 Z" id="6" fill="#F8F9FA" fill-rule="nonzero"></path>
        <path d="M268.342266,185 L268.342266,170.839844 L266.027812,170.839844 C266.027812,170.963542 265.992005,171.152344 265.920391,171.40625 C265.796693,171.829427 265.614401,172.167969 265.373516,172.421875 C265.021953,172.792969 264.566224,173.040365 264.006328,173.164062 C263.654766,173.242188 263.039531,173.300781 262.160625,173.339844 L262.160625,173.339844 L262.160625,175.234375 L265.490703,175.234375 L265.490703,185 L268.342266,185 Z M277.277578,185.351562 C278.905182,185.351562 280.134023,184.897461 280.964102,183.989258 C281.79418,183.081055 282.209219,182.027995 282.209219,180.830078 C282.209219,179.690755 281.854401,178.792318 281.144766,178.134766 C280.669505,177.698568 280.304922,177.480469 280.051016,177.480469 C280.389557,177.35026 280.715078,177.10612 281.027578,176.748047 C281.52237,176.17513 281.769766,175.472005 281.769766,174.638672 C281.769766,173.460286 281.354727,172.521159 280.524648,171.821289 C279.69457,171.121419 278.602448,170.771484 277.248281,170.771484 C276.519115,170.771484 275.90388,170.859375 275.402578,171.035156 C274.901276,171.210938 274.468333,171.464844 274.10375,171.796875 C273.615469,172.265625 273.257396,172.776693 273.029531,173.330078 C272.814687,173.961589 272.694245,174.628906 272.668203,175.332031 L272.668203,175.332031 L275.265859,175.332031 C275.252839,174.635417 275.400951,174.078776 275.710195,173.662109 C276.01944,173.245443 276.502839,173.037109 277.160391,173.037109 C277.733307,173.037109 278.177643,173.20638 278.493398,173.544922 C278.809154,173.883464 278.967031,174.322917 278.967031,174.863281 C278.967031,175.696615 278.657786,176.25 278.039297,176.523438 C277.681224,176.686198 277.049714,176.774089 276.144766,176.787109 L276.144766,176.787109 L276.144766,178.779297 C277.069245,178.779297 277.746328,178.867188 278.176016,179.042969 C278.931224,179.355469 279.308828,179.977214 279.308828,180.908203 C279.308828,181.611328 279.105378,182.150065 278.698477,182.524414 C278.291576,182.898763 277.814687,183.085938 277.267812,183.085938 C276.375885,183.085938 275.760651,182.744141 275.422109,182.060547 C275.239818,181.689453 275.148672,181.220703 275.148672,180.654297 L275.148672,180.654297 L272.414297,180.654297 C272.45987,181.780599 272.687734,182.692057 273.097891,183.388672 C273.879141,184.697266 275.27237,185.351562 277.277578,185.351562 Z" id="13" fill="#F8F9FA" fill-rule="nonzero"></path>
    </g>
</svg>