<?xml version="1.0" encoding="UTF-8"?>
<svg width="300px" height="260px" viewBox="0 0 300 260" version="1.1" xmlns="http://www.w3.org/2000/svg" xmlns:xlink="http://www.w3.org/1999/xlink">
    <title>circles-graph-4</title>
    <g id="circles-graph-4" stroke="none" stroke-width="1" fill="none" fill-rule="evenodd">
        <g id="Group" transform="translate(32.500000, 45.600000)" stroke="#000000" stroke-dasharray="5,1" stroke-width="2">
            <path d="M84,168 C130.391919,168 168,130.391919 168,84 C168,37.608081 130.391919,0 84,0 C37.608081,0 0,37.608081 0,84 C0,130.391919 37.608081,168 84,168 Z" id="Oval"></path>
            <path d="M146,168 C192.391919,168 230,130.391919 230,84 C230,37.608081 192.391919,0 146,0 C99.608081,0 62,37.608081 62,84 C62,130.391919 99.608081,168 146,168 Z" id="Oval-Copy-2"></path>
        </g>
        <path d="M146.394766,37.3515625 C148.198151,37.3515625 149.462799,36.7200521 150.188711,35.4570312 C150.914622,34.1940104 151.277578,32.3938802 151.277578,30.0566406 C151.277578,27.719401 150.914622,25.9160156 150.188711,24.6464844 C149.462799,23.3769531 148.198151,22.7421875 146.394766,22.7421875 C144.59138,22.7421875 143.326732,23.3769531 142.60082,24.6464844 C141.874909,25.9160156 141.511953,27.719401 141.511953,30.0566406 C141.511953,32.3938802 141.874909,34.1940104 142.60082,35.4570312 C143.326732,36.7200521 144.59138,37.3515625 146.394766,37.3515625 Z M146.394766,35.0859375 C145.567943,35.0859375 145.021068,34.6546224 144.754141,33.7919922 C144.487214,32.929362 144.35375,31.6842448 144.35375,30.0566406 C144.35375,28.3509115 144.487214,27.0878906 144.754141,26.2675781 C145.021068,25.4472656 145.567943,25.0371094 146.394766,25.0371094 C147.221589,25.0371094 147.763581,25.4472656 148.020742,26.2675781 C148.277904,27.0878906 148.406484,28.3509115 148.406484,30.0566406 C148.406484,31.6842448 148.277904,32.929362 148.020742,33.7919922 C147.763581,34.6546224 147.221589,35.0859375 146.394766,35.0859375 Z" id="0" fill="#000000" fill-rule="nonzero"></path>
        <path d="M149.455313,232 L149.455313,217.839844 L147.140859,217.839844 C147.140859,217.963542 147.105052,218.152344 147.033438,218.40625 C146.90974,218.829427 146.727448,219.167969 146.486563,219.421875 C146.135,219.792969 145.679271,220.040365 145.119375,220.164062 C144.767813,220.242188 144.152578,220.300781 143.273672,220.339844 L143.273672,220.339844 L143.273672,222.234375 L146.60375,222.234375 L146.60375,232 L149.455313,232 Z" id="1" fill="#000000" fill-rule="nonzero"></path>
        <circle id="Oval-Copy-2" stroke="#FFFFFF" stroke-width="4" fill="#12B886" cx="147" cy="207" r="7"></circle>
        <circle id="Oval-Copy-4" stroke="#FFFFFF" stroke-width="4" fill="#12B886" cx="147" cy="51" r="7"></circle>
        <circle id="Oval-Copy-5" stroke="#FFFFFF" stroke-width="4" fill="#D6336C" cx="33" cy="126" r="7"></circle>
        <circle id="Oval-Copy-6" stroke="#FFFFFF" stroke-width="4" fill="#D6336C" cx="94" cy="126" r="7"></circle>
        <circle id="Oval-Copy-7" stroke="#FFFFFF" stroke-width="4" fill="#D6336C" cx="201" cy="126" r="7"></circle>
        <circle id="Oval-Copy-8" stroke="#FFFFFF" stroke-width="4" fill="#D6336C" cx="263" cy="126" r="7"></circle>
        <path d="M22.2092187,133 L22.2092187,130.548828 L16.0275781,130.548828 C16.2033594,130.255859 16.4198307,129.998698 16.6769922,129.777344 C16.9341536,129.55599 17.4110417,129.197917 18.1076562,128.703125 L18.1076562,128.703125 L19.2209375,127.912109 C20.1584375,127.248047 20.8322656,126.645833 21.2424219,126.105469 C21.8674219,125.291667 22.1799219,124.360677 22.1799219,123.3125 C22.1799219,121.945312 21.7372135,120.84668 20.8517969,120.016602 C19.9663802,119.186523 18.774974,118.771484 17.2775781,118.771484 C15.3830469,118.771484 14.0646875,119.477865 13.3225,120.890625 C12.931875,121.632812 12.713776,122.60612 12.6682031,123.810547 L12.6682031,123.810547 L15.3732812,123.810547 C15.4058333,123.016276 15.51,122.436849 15.6857812,122.072266 C15.9917708,121.440755 16.5679427,121.125 17.4142969,121.125 C18.0327865,121.125 18.5080469,121.323568 18.8400781,121.720703 C19.1721094,122.117839 19.338125,122.615885 19.338125,123.214844 C19.338125,123.950521 19.0484115,124.627604 18.4689844,125.246094 C18.0913802,125.643229 17.2613021,126.300781 15.97875,127.21875 C14.5008854,128.273438 13.5633854,129.272786 13.16625,130.216797 C12.7560937,131.056641 12.5379948,131.984375 12.5119531,133 L12.5119531,133 L22.2092187,133 Z" id="2" fill="#000000" fill-rule="nonzero"></path>
        <path d="M78.2775781,133.351562 C79.9051823,133.351562 81.1340234,132.897461 81.9641016,131.989258 C82.7941797,131.081055 83.2092188,130.027995 83.2092188,128.830078 C83.2092188,127.690755 82.854401,126.792318 82.1447656,126.134766 C81.6695052,125.698568 81.3049219,125.480469 81.0510156,125.480469 C81.3895573,125.35026 81.7150781,125.10612 82.0275781,124.748047 C82.5223698,124.17513 82.7697656,123.472005 82.7697656,122.638672 C82.7697656,121.460286 82.3547266,120.521159 81.5246484,119.821289 C80.6945703,119.121419 79.6024479,118.771484 78.2482813,118.771484 C77.5191146,118.771484 76.9038802,118.859375 76.4025781,119.035156 C75.901276,119.210938 75.4683333,119.464844 75.10375,119.796875 C74.6154688,120.265625 74.2573958,120.776693 74.0295313,121.330078 C73.8146875,121.961589 73.6942448,122.628906 73.6682031,123.332031 L73.6682031,123.332031 L76.2658594,123.332031 C76.2528385,122.635417 76.4009505,122.078776 76.7101953,121.662109 C77.0194401,121.245443 77.5028385,121.037109 78.1603906,121.037109 C78.7333073,121.037109 79.1776432,121.20638 79.4933984,121.544922 C79.8091536,121.883464 79.9670313,122.322917 79.9670313,122.863281 C79.9670313,123.696615 79.6577865,124.25 79.0392969,124.523438 C78.681224,124.686198 78.0497135,124.774089 77.1447656,124.787109 L77.1447656,124.787109 L77.1447656,126.779297 C78.0692448,126.779297 78.7463281,126.867188 79.1760156,127.042969 C79.931224,127.355469 80.3088281,127.977214 80.3088281,128.908203 C80.3088281,129.611328 80.1053776,130.150065 79.6984766,130.524414 C79.2915755,130.898763 78.8146875,131.085938 78.2678125,131.085938 C77.3758854,131.085938 76.760651,130.744141 76.4221094,130.060547 C76.2398177,129.689453 76.1486719,129.220703 76.1486719,128.654297 L76.1486719,128.654297 L73.4142969,128.654297 C73.4598698,129.780599 73.6877344,130.692057 74.0978906,131.388672 C74.8791406,132.697266 76.2723698,133.351562 78.2775781,133.351562 Z" id="3" fill="#000000" fill-rule="nonzero"></path>
        <path d="M220.744375,133 L220.744375,129.953125 L222.345937,129.953125 L222.345937,127.775391 L220.744375,127.775391 L220.744375,118.927734 L217.619375,118.927734 L212.414297,127.521484 L212.414297,129.953125 L218.019766,129.953125 L218.019766,133 L220.744375,133 Z M218.019766,127.775391 L214.474844,127.775391 L218.019766,121.662109 L218.019766,127.775391 Z" id="4" fill="#000000" fill-rule="nonzero"></path>
        <path d="M279.179922,133.371094 C280.853099,133.371094 282.109609,132.856771 282.949453,131.828125 C283.789297,130.799479 284.209219,129.630859 284.209219,128.322266 C284.209219,126.818359 283.773021,125.672526 282.900625,124.884766 C282.028229,124.097005 281.006094,123.703125 279.834219,123.703125 C279.254792,123.703125 278.763255,123.777995 278.359609,123.927734 C278.118724,124.01888 277.783437,124.204427 277.35375,124.484375 L277.35375,124.484375 L277.861562,121.388672 L283.652578,121.388672 L283.652578,119.025391 L275.849844,119.025391 L274.85375,126.847656 L277.35375,126.964844 C277.575104,126.541667 277.90388,126.251953 278.340078,126.095703 C278.587474,126.011068 278.880443,125.96875 279.218984,125.96875 C279.93513,125.96875 280.462474,126.217773 280.801016,126.71582 C281.139557,127.213867 281.308828,127.824219 281.308828,128.546875 C281.308828,129.282552 281.128164,129.892904 280.766836,130.37793 C280.405508,130.862956 279.879792,131.105469 279.189687,131.105469 C278.590729,131.105469 278.135,130.941081 277.8225,130.612305 C277.51,130.283529 277.298411,129.816406 277.187734,129.210938 L277.187734,129.210938 L274.414297,129.210938 C274.511953,130.539062 274.993724,131.564453 275.859609,132.287109 C276.725495,133.009766 277.832266,133.371094 279.179922,133.371094 Z" id="5" fill="#000000" fill-rule="nonzero"></path>
    </g>
</svg>