<?xml version="1.0" encoding="UTF-8"?>
<svg width="300px" height="300px" viewBox="0 0 300 300" version="1.1" xmlns="http://www.w3.org/2000/svg" xmlns:xlink="http://www.w3.org/1999/xlink">
    <!-- Generator: Sketch 57.1 (83088) - https://sketch.com -->
    <title>writings-tiling-3</title>
    <desc>Created with Sketch.</desc>
    <g id="writings-tiling-3" stroke="none" stroke-width="1" fill="none" fill-rule="evenodd">
        <g id="12-6,4_m30_r30(1c)_1581673583482" transform="translate(-168.000000, -206.000000)" fill-rule="nonzero" stroke="#212529">
            <polygon id="two-26299" fill="#AE3EC9" points="347.324 365.929 338.395 381.395 322.929 390.324 305.07 390.324 289.604 381.395 280.675 365.929 280.675 348.07 289.604 332.604 305.07 323.675 322.929 323.675 338.395 332.604 347.324 348.07"></polygon>
            <polygon id="two-26300" fill="#B147CB" points="322.929 323.675 305.07 323.675 296.141 308.209 305.07 292.743 322.929 292.743 331.858 308.209"></polygon>
            <polygon id="two-26301" fill="#B147CB" points="338.395 332.604 322.929 323.675 331.858 308.209 347.324 317.138"></polygon>
            <polygon id="two-26302" fill="#B54FCD" points="338.395 332.604 347.324 348.07 365.182 348.07 374.112 332.604 365.182 317.138 347.324 317.138"></polygon>
            <polygon id="two-26303" fill="#B858D0" points="347.324 365.929 338.395 381.395 347.324 396.861 365.182 396.861 374.112 381.395 365.182 365.929"></polygon>
            <polygon id="two-26304" fill="#B858D0" points="347.324 348.07 347.324 365.929 365.182 365.929 365.182 348.07"></polygon>
            <polygon id="two-26305" fill="#BB60D2" points="289.604 381.395 280.675 365.929 262.817 365.929 253.887 381.395 262.817 396.861 280.675 396.861"></polygon>
            <polygon id="two-26306" fill="#BB60D2" points="305.07 390.324 289.604 381.395 280.675 396.861 296.141 405.79"></polygon>
            <polygon id="two-26307" fill="#BB60D2" points="305.07 390.324 322.929 390.324 331.858 405.79 322.929 421.256 305.07 421.256 296.141 405.79"></polygon>
            <polygon id="two-26308" fill="#BB60D2" points="322.929 390.324 338.395 381.395 347.324 396.861 331.858 405.79"></polygon>
            <polygon id="two-26309" fill="#BF69D4" points="280.675 348.07 280.675 365.929 262.817 365.929 262.817 348.07"></polygon>
            <polygon id="two-26310" fill="#BF69D4" points="280.675 348.07 289.604 332.604 280.675 317.138 262.817 317.138 253.887 332.604 262.817 348.07"></polygon>
            <polygon id="two-26311" fill="#BF69D4" points="289.604 332.604 305.07 323.675 296.141 308.209 280.675 317.138"></polygon>
            <polygon id="two-26312" fill="#C271D6" points="322.929 274.885 331.858 259.419 347.324 250.49 365.182 250.49 380.648 259.419 389.578 274.885 389.578 292.743 380.648 308.209 365.182 317.138 347.324 317.138 331.858 308.209 322.929 292.743"></polygon>
            <polygon id="two-26313" fill="#C271D6" points="322.929 274.885 331.858 259.419 322.929 243.953 305.07 243.953 296.141 259.419 305.07 274.885"></polygon>
            <polygon id="two-26314" fill="#C271D6" points="322.929 292.743 322.929 274.885 305.07 274.885 305.07 292.743"></polygon>
            <polygon id="two-26315" fill="#C271D6" points="380.648 259.419 389.578 274.885 407.436 274.885 416.365 259.419 407.436 243.953 389.578 243.953"></polygon>
            <polygon id="two-26316" fill="#C271D6" points="365.182 250.49 380.648 259.419 389.578 243.953 374.112 235.024"></polygon>
            <polygon id="two-26317" fill="#C271D6" points="365.182 250.49 347.324 250.49 338.395 235.024 347.324 219.558 365.182 219.558 374.112 235.024"></polygon>
            <polygon id="two-26318" fill="#C271D6" points="347.324 250.49 331.858 259.419 322.929 243.953 338.395 235.024"></polygon>
            <polygon id="two-26319" fill="#C271D6" points="389.578 292.743 389.578 274.885 407.436 274.885 407.436 292.743"></polygon>
            <polygon id="two-26320" fill="#C271D6" points="389.578 292.743 380.648 308.209 389.578 323.675 407.436 323.675 416.365 308.209 407.436 292.743"></polygon>
            <polygon id="two-26321" fill="#C271D6" points="380.648 308.209 365.182 317.138 374.112 332.604 389.578 323.675"></polygon>
            <polygon id="two-26322" fill="#C982DB" points="389.578 390.324 407.436 390.324 422.902 381.395 431.831 365.929 431.831 348.07 422.902 332.604 407.436 323.675 389.578 323.675 374.112 332.604 365.182 348.07 365.182 365.929 374.112 381.395"></polygon>
            <polygon id="two-26323" fill="#C982DB" points="389.578 390.324 407.436 390.324 416.365 405.79 407.436 421.256 389.578 421.256 380.648 405.79"></polygon>
            <polygon id="two-26324" fill="#C982DB" points="374.112 381.395 389.578 390.324 380.648 405.79 365.182 396.861"></polygon>
            <polygon id="two-26325" fill="#C982DB" points="431.831 348.07 422.902 332.604 431.831 317.138 449.69 317.138 458.619 332.604 449.69 348.07"></polygon>
            <polygon id="two-26326" fill="#C982DB" points="431.831 365.929 431.831 348.07 449.69 348.07 449.69 365.929"></polygon>
            <polygon id="two-26327" fill="#C982DB" points="431.831 365.929 422.902 381.395 431.831 396.861 449.69 396.861 458.619 381.395 449.69 365.929"></polygon>
            <polygon id="two-26328" fill="#C982DB" points="422.902 381.395 407.436 390.324 416.365 405.79 431.831 396.861"></polygon>
            <polygon id="two-26329" fill="#C982DB" points="407.436 323.675 422.902 332.604 431.831 317.138 416.365 308.209"></polygon>
            <polygon id="two-26330" fill="#CC8BDD" points="247.351 405.79 238.421 421.256 238.421 439.114 247.351 454.58 262.817 463.509 280.675 463.509 296.141 454.58 305.07 439.114 305.07 421.256 296.141 405.79 280.675 396.861 262.817 396.861"></polygon>
            <polygon id="two-26331" fill="#CC8BDD" points="247.351 405.79 238.421 421.256 220.563 421.256 211.634 405.79 220.563 390.324 238.421 390.324"></polygon>
            <polygon id="two-26332" fill="#CC8BDD" points="262.817 396.861 247.351 405.79 238.421 390.324 253.887 381.395"></polygon>
            <polygon id="two-26333" fill="#CC8BDD" points="262.817 463.509 280.675 463.509 289.604 478.975 280.675 494.441 262.817 494.441 253.887 478.975"></polygon>
            <polygon id="two-26334" fill="#CC8BDD" points="247.351 454.58 262.817 463.509 253.887 478.975 238.421 470.046"></polygon>
            <polygon id="two-26335" fill="#CC8BDD" points="247.351 454.58 238.421 439.114 220.563 439.114 211.634 454.58 220.563 470.046 238.421 470.046"></polygon>
            <polygon id="two-26336" fill="#CC8BDD" points="238.421 439.114 238.421 421.256 220.563 421.256 220.563 439.114"></polygon>
            <polygon id="two-26337" fill="#CC8BDD" points="296.141 454.58 280.675 463.509 289.604 478.975 305.07 470.046"></polygon>
            <polygon id="two-26338" fill="#CC8BDD" points="296.141 454.58 305.07 439.114 322.929 439.114 331.858 454.58 322.929 470.046 305.07 470.046"></polygon>
            <polygon id="two-26339" fill="#CC8BDD" points="305.07 439.114 305.07 421.256 322.929 421.256 322.929 439.114"></polygon>
            <polygon id="two-26340" fill="#CC8BDD" points="380.648 405.79 389.578 421.256 389.578 439.114 380.648 454.58 365.182 463.509 347.324 463.509 331.858 454.58 322.929 439.114 322.929 421.256 331.858 405.79 347.324 396.861 365.182 396.861"></polygon>
            <polygon id="two-26341" fill="#CC8BDD" points="365.182 463.509 347.324 463.509 338.395 478.975 347.324 494.441 365.182 494.441 374.112 478.975"></polygon>
            <polygon id="two-26342" fill="#CC8BDD" points="380.648 454.58 365.182 463.509 374.112 478.975 389.578 470.046"></polygon>
            <polygon id="two-26343" fill="#CC8BDD" points="380.648 454.58 389.578 439.114 407.436 439.114 416.365 454.58 407.436 470.046 389.578 470.046"></polygon>
            <polygon id="two-26344" fill="#CC8BDD" points="389.578 439.114 389.578 421.256 407.436 421.256 407.436 439.114"></polygon>
            <polygon id="two-26345" fill="#CC8BDD" points="331.858 454.58 347.324 463.509 338.395 478.975 322.929 470.046"></polygon>
            <polygon id="two-26346" fill="#D093DF" points="238.421 390.324 220.563 390.324 205.097 381.395 196.168 365.929 196.168 348.07 205.097 332.604 220.563 323.675 238.421 323.675 253.887 332.604 262.817 348.07 262.817 365.929 253.887 381.395"></polygon>
            <polygon id="two-26347" fill="#D093DF" points="196.168 348.07 205.097 332.604 196.168 317.138 178.309 317.138 169.38 332.604 178.309 348.07"></polygon>
            <polygon id="two-26348" fill="#D093DF" points="196.168 365.929 196.168 348.07 178.309 348.07 178.309 365.929"></polygon>
            <polygon id="two-26349" fill="#D093DF" points="196.168 365.929 205.097 381.395 196.168 396.861 178.309 396.861 169.38 381.395 178.309 365.929"></polygon>
            <polygon id="two-26350" fill="#D093DF" points="205.097 381.395 220.563 390.324 211.634 405.79 196.168 396.861"></polygon>
            <polygon id="two-26351" fill="#D093DF" points="220.563 323.675 205.097 332.604 196.168 317.138 211.634 308.209"></polygon>
            <polygon id="two-26352" fill="#D093DF" points="220.563 323.675 238.421 323.675 247.351 308.209 238.421 292.743 220.563 292.743 211.634 308.209"></polygon>
            <polygon id="two-26353" fill="#D093DF" points="238.421 323.675 253.887 332.604 262.817 317.138 247.351 308.209"></polygon>
            <polygon id="two-26354" fill="#D093DF" points="305.07 274.885 296.141 259.419 280.675 250.49 262.817 250.49 247.351 259.419 238.421 274.885 238.421 292.743 247.351 308.209 262.817 317.138 280.675 317.138 296.141 308.209 305.07 292.743"></polygon>
            <polygon id="two-26355" fill="#D093DF" points="247.351 259.419 238.421 274.885 220.563 274.885 211.634 259.419 220.563 243.953 238.421 243.953"></polygon>
            <polygon id="two-26356" fill="#D093DF" points="262.817 250.49 247.351 259.419 238.421 243.953 253.887 235.024"></polygon>
            <polygon id="two-26357" fill="#D093DF" points="262.817 250.49 280.675 250.49 289.604 235.024 280.675 219.558 262.817 219.558 253.887 235.024"></polygon>
            <polygon id="two-26358" fill="#D093DF" points="280.675 250.49 296.141 259.419 305.07 243.953 289.604 235.024"></polygon>
            <polygon id="two-26359" fill="#D093DF" points="238.421 292.743 238.421 274.885 220.563 274.885 220.563 292.743"></polygon>
            <polygon id="two-26360" fill="#D39CE2" points="422.902 235.024 431.831 219.558 431.831 201.699 422.902 186.233 407.436 177.304 389.578 177.304 374.112 186.233 365.182 201.699 365.182 219.558 374.112 235.024 389.578 243.953 407.436 243.953"></polygon>
            <polygon id="two-26361" fill="#D39CE2" points="422.902 235.024 431.831 219.558 449.69 219.558 458.619 235.024 449.69 250.49 431.831 250.49"></polygon>
            <polygon id="two-26362" fill="#D39CE2" points="407.436 243.953 422.902 235.024 431.831 250.49 416.365 259.419"></polygon>
            <polygon id="two-26366" fill="#D39CE2" points="431.831 201.699 431.831 219.558 449.69 219.558 449.69 201.699"></polygon>
            <polygon id="two-26369" fill="#D39CE2" points="365.182 201.699 365.182 219.558 347.324 219.558 347.324 201.699"></polygon>
            <polygon id="two-26370" fill="#D39CE2" points="289.604 235.024 280.675 219.558 280.675 201.699 289.604 186.233 305.07 177.304 322.929 177.304 338.395 186.233 347.324 201.699 347.324 219.558 338.395 235.024 322.929 243.953 305.07 243.953"></polygon>
            <polygon id="two-26374" fill="#D39CE2" points="280.675 201.699 280.675 219.558 262.817 219.558 262.817 201.699"></polygon>
            <polygon id="two-26376" fill="#D39CE2" points="431.831 250.49 449.69 250.49 465.156 259.419 474.085 274.885 474.085 292.743 465.156 308.209 449.69 317.138 431.831 317.138 416.365 308.209 407.436 292.743 407.436 274.885 416.365 259.419"></polygon>
            <polygon id="two-26377" fill="#D39CE2" points="474.085 292.743 465.156 308.209 474.085 323.675 491.944 323.675 500.873 308.209 491.944 292.743"></polygon>
            <polygon id="two-26379" fill="#D39CE2" points="474.085 274.885 465.156 259.419 474.085 243.953 491.944 243.953 500.873 259.419 491.944 274.885"></polygon>
            <polygon id="two-26380" fill="#D39CE2" points="465.156 259.419 449.69 250.49 458.619 235.024 474.085 243.953"></polygon>
            <polygon id="two-26381" fill="#D39CE2" points="449.69 317.138 465.156 308.209 474.085 323.675 458.619 332.604"></polygon>
            <polygon id="two-26382" fill="#DAADE6" points="474.085 323.675 491.944 323.675 507.409 332.604 516.339 348.07 516.339 365.929 507.409 381.395 491.944 390.324 474.085 390.324 458.619 381.395 449.69 365.929 449.69 348.07 458.619 332.604"></polygon>
            <polygon id="two-26388" fill="#DAADE6" points="491.944 390.324 474.085 390.324 465.156 405.79 474.085 421.256 491.944 421.256 500.873 405.79"></polygon>
            <polygon id="two-26389" fill="#DAADE6" points="474.085 390.324 458.619 381.395 449.69 396.861 465.156 405.79"></polygon>
            <polygon id="two-26390" fill="#DAADE6" points="407.436 439.114 416.365 454.58 431.831 463.509 449.69 463.509 465.156 454.58 474.085 439.114 474.085 421.256 465.156 405.79 449.69 396.861 431.831 396.861 416.365 405.79 407.436 421.256"></polygon>
            <polygon id="two-26391" fill="#DAADE6" points="465.156 454.58 474.085 439.114 491.944 439.114 500.873 454.58 491.944 470.046 474.085 470.046"></polygon>
            <polygon id="two-26392" fill="#DAADE6" points="449.69 463.509 465.156 454.58 474.085 470.046 458.619 478.975"></polygon>
            <polygon id="two-26393" fill="#DAADE6" points="449.69 463.509 431.831 463.509 422.902 478.975 431.831 494.441 449.69 494.441 458.619 478.975"></polygon>
            <polygon id="two-26394" fill="#DAADE6" points="431.831 463.509 416.365 454.58 407.436 470.046 422.902 478.975"></polygon>
            <polygon id="two-26396" fill="#DDB5E8" points="262.817 512.3 253.887 527.766 238.421 536.695 220.563 536.695 205.097 527.766 196.168 512.3 196.168 494.441 205.097 478.975 220.563 470.046 238.421 470.046 253.887 478.975 262.817 494.441"></polygon>
            <polygon id="two-26398" fill="#DDB5E8" points="262.817 494.441 262.817 512.3 280.675 512.3 280.675 494.441"></polygon>
            <polygon id="two-26403" fill="#DDB5E8" points="196.168 494.441 196.168 512.3 178.309 512.3 178.309 494.441"></polygon>
            <polygon id="two-26404" fill="#DDB5E8" points="196.168 494.441 205.097 478.975 196.168 463.509 178.309 463.509 169.38 478.975 178.309 494.441"></polygon>
            <polygon id="two-26405" fill="#DDB5E8" points="205.097 478.975 220.563 470.046 211.634 454.58 196.168 463.509"></polygon>
            <polygon id="two-26406" fill="#DDB5E8" points="196.168 396.861 178.309 396.861 162.843 405.79 153.914 421.256 153.914 439.114 162.843 454.58 178.309 463.509 196.168 463.509 211.634 454.58 220.563 439.114 220.563 421.256 211.634 405.79"></polygon>
            <polygon id="two-26410" fill="#DDB5E8" points="162.843 405.79 178.309 396.861 169.38 381.395 153.914 390.324"></polygon>
            <polygon id="two-26411" fill="#DDB5E8" points="178.309 463.509 162.843 454.58 153.914 470.046 169.38 478.975"></polygon>
            <polygon id="two-26412" fill="#DDB5E8" points="280.675 512.3 289.604 527.766 305.07 536.695 322.929 536.695 338.395 527.766 347.324 512.3 347.324 494.441 338.395 478.975 322.929 470.046 305.07 470.046 289.604 478.975 280.675 494.441"></polygon>
            <polygon id="two-26417" fill="#DDB5E8" points="347.324 494.441 347.324 512.3 365.182 512.3 365.182 494.441"></polygon>
            <polygon id="two-26418" fill="#DDB5E8" points="365.182 512.3 374.112 527.766 389.578 536.695 407.436 536.695 422.902 527.766 431.831 512.3 431.831 494.441 422.902 478.975 407.436 470.046 389.578 470.046 374.112 478.975 365.182 494.441"></polygon>
            <polygon id="two-26423" fill="#DDB5E8" points="431.831 494.441 431.831 512.3 449.69 512.3 449.69 494.441"></polygon>
            <polygon id="two-26424" fill="#E0BEEA" points="153.914 323.675 136.055 323.675 120.59 332.604 111.66 348.07 111.66 365.929 120.59 381.395 136.055 390.324 153.914 390.324 169.38 381.395 178.309 365.929 178.309 348.07 169.38 332.604"></polygon>
            <polygon id="two-26426" fill="#E0BEEA" points="169.38 332.604 153.914 323.675 162.843 308.209 178.309 317.138"></polygon>
            <polygon id="two-26432" fill="#E0BEEA" points="162.843 308.209 153.914 292.743 153.914 274.885 162.843 259.419 178.309 250.49 196.168 250.49 211.634 259.419 220.563 274.885 220.563 292.743 211.634 308.209 196.168 317.138 178.309 317.138"></polygon>
            <polygon id="two-26433" fill="#E0BEEA" points="178.309 250.49 196.168 250.49 205.097 235.024 196.168 219.558 178.309 219.558 169.38 235.024"></polygon>
            <polygon id="two-26434" fill="#E0BEEA" points="162.843 259.419 178.309 250.49 169.38 235.024 153.914 243.953"></polygon>
            <polygon id="two-26437" fill="#E0BEEA" points="211.634 259.419 196.168 250.49 205.097 235.024 220.563 243.953"></polygon>
            <polygon id="two-26438" fill="#E0BEEA" points="205.097 235.024 196.168 219.558 196.168 201.699 205.097 186.233 220.563 177.304 238.421 177.304 253.887 186.233 262.817 201.699 262.817 219.558 253.887 235.024 238.421 243.953 220.563 243.953"></polygon>
            <polygon id="two-26442" fill="#E0BEEA" points="196.168 201.699 196.168 219.558 178.309 219.558 178.309 201.699"></polygon>
            <polygon id="two-26454" fill="#E4C6ED" points="474.085 243.953 491.944 243.953 507.409 235.024 516.339 219.558 516.339 201.699 507.409 186.233 491.944 177.304 474.085 177.304 458.619 186.233 449.69 201.699 449.69 219.558 458.619 235.024"></polygon>
            <polygon id="two-26492" fill="#EBD7F1" points="507.409 478.975 516.339 494.441 516.339 512.3 507.409 527.766 491.944 536.695 474.085 536.695 458.619 527.766 449.69 512.3 449.69 494.441 458.619 478.975 474.085 470.046 491.944 470.046"></polygon>
            <polygon id="two-26514" fill="#EEE0F3" points="153.914 536.695 136.055 536.695 120.59 527.766 111.66 512.3 111.66 494.441 120.59 478.975 136.055 470.046 153.914 470.046 169.38 478.975 178.309 494.441 178.309 512.3 169.38 527.766"></polygon>
            <polygon id="two-26552" fill="#F1E8F6" points="178.309 201.699 169.38 186.233 153.914 177.304 136.055 177.304 120.59 186.233 111.66 201.699 111.66 219.558 120.59 235.024 136.055 243.953 153.914 243.953 169.38 235.024 178.309 219.558"></polygon>
        </g>
    </g>
</svg>