<?xml version="1.0" encoding="UTF-8"?>
<svg width="437px" height="364px" viewBox="0 0 437 364" version="1.1" xmlns="http://www.w3.org/2000/svg" xmlns:xlink="http://www.w3.org/1999/xlink">
    <!-- Generator: Sketch 52.5 (67469) - http://www.bohemiancoding.com/sketch -->
    <title>Artboard Copy</title>
    <desc>Created with Sketch.</desc>
    <g id="Artboard-Copy" stroke="none" stroke-width="1" fill="none" fill-rule="evenodd">
        <g id="Group" transform="translate(22.000000, 5.000000)" font-family="LucidaGrande, Lucida Grande" font-size="14" font-weight="normal" letter-spacing="1.5">
            <text id="v1" fill="#072733">
                <tspan x="314" y="107">v</tspan>
                <tspan x="322.746094" y="107" font-family="NewPeninimMT-Inclined, New Peninim MT" font-size="10" font-style="italic">1</tspan>
            </text>
            <text id="a1" fill="#E9ECEF">
                <tspan x="191" y="14">a</tspan>
                <tspan x="200.231445" y="14" font-family="NewPeninimMT-Inclined, New Peninim MT" font-size="10" font-style="italic">1</tspan>
            </text>
            <text id="a2" fill="#212529">
                <tspan x="298" y="202">a</tspan>
                <tspan x="307.231445" y="202" font-family="NewPeninimMT-Inclined, New Peninim MT" font-size="10" font-style="italic">2</tspan>
            </text>
            <text id="a3" fill="#212529">
                <tspan x="189" y="244">a</tspan>
                <tspan x="198.231445" y="244" font-family="NewPeninimMT-Inclined, New Peninim MT" font-size="10" font-style="italic">3</tspan>
            </text>
            <text id="a7" fill="#E9ECEF">
                <tspan x="158" y="286">a</tspan>
                <tspan x="167.231445" y="286" font-family="NewPeninimMT-Inclined, New Peninim MT" font-size="10" font-style="italic">7</tspan>
            </text>
            <text id="a4" fill="#E9ECEF">
                <tspan x="80" y="213">a</tspan>
                <tspan x="89.2314453" y="213" font-family="NewPeninimMT-Inclined, New Peninim MT" font-size="10" font-style="italic">4</tspan>
            </text>
            <text id="a5" fill="#E9ECEF">
                <tspan x="242" y="104">a</tspan>
                <tspan x="251.231445" y="104" font-family="NewPeninimMT-Inclined, New Peninim MT" font-size="10" font-style="italic">5</tspan>
            </text>
            <text id="a6" fill="#E9ECEF">
                <tspan x="380" y="293">a</tspan>
                <tspan x="389.231445" y="293" font-family="NewPeninimMT-Inclined, New Peninim MT" font-size="10" font-style="italic">6</tspan>
            </text>
            <text id="a8" fill="#E9ECEF">
                <tspan x="153" y="184">a</tspan>
                <tspan x="162.231445" y="184" font-family="NewPeninimMT-Inclined, New Peninim MT" font-size="10" font-style="italic">8</tspan>
            </text>
            <text id="a9" fill="#E9ECEF">
                <tspan x="138" y="104">a</tspan>
                <tspan x="147.231445" y="104" font-family="NewPeninimMT-Inclined, New Peninim MT" font-size="10" font-style="italic">9</tspan>
            </text>
            <text id="a10" fill="#212529">
                <tspan x="228" y="188">a</tspan>
                <tspan x="237.231445" y="188" font-family="NewPeninimMT-Inclined, New Peninim MT" font-size="10" font-style="italic">10</tspan>
            </text>
            <text id="a11" fill="#212529">
                <tspan x="220" y="284">a</tspan>
                <tspan x="229.231445" y="284" font-family="NewPeninimMT-Inclined, New Peninim MT" font-size="10" font-style="italic">11</tspan>
            </text>
            <text id="a12" fill="#E9ECEF">
                <tspan x="0" y="308">a</tspan>
                <tspan x="9.23144531" y="308" font-family="NewPeninimMT-Inclined, New Peninim MT" font-size="10" font-style="italic">12</tspan>
            </text>
            <text id="c1" fill="#E9ECEF">
                <tspan x="189" y="67">c</tspan>
                <tspan x="197.670898" y="67" font-family="NewPeninimMT-Inclined, New Peninim MT" font-size="10" font-style="italic">1</tspan>
            </text>
            <text id="c3" fill="#E9ECEF">
                <tspan x="61" y="266">c</tspan>
                <tspan x="69.6708984" y="266" font-family="NewPeninimMT-Inclined, New Peninim MT" font-size="10" font-style="italic">3</tspan>
            </text>
            <text id="c2" fill="#E9ECEF">
                <tspan x="307" y="255">c</tspan>
                <tspan x="315.670898" y="255" font-family="NewPeninimMT-Inclined, New Peninim MT" font-size="10" font-style="italic">2</tspan>
            </text>
            <text id="v2" fill="#212529">
                <tspan x="144" y="235">v</tspan>
                <tspan x="152.746094" y="235" font-family="NewPeninimMT-Inclined, New Peninim MT" font-size="10" font-style="italic">2</tspan>
            </text>
            <text id="v3" fill="#E9ECEF">
                <tspan x="65" y="107">v</tspan>
                <tspan x="73.7460938" y="107" font-family="NewPeninimMT-Inclined, New Peninim MT" font-size="10" font-style="italic">3</tspan>
            </text>
            <text id="v4" fill="#072733">
                <tspan x="232" y="235">v</tspan>
                <tspan x="240.746094" y="235" font-family="NewPeninimMT-Inclined, New Peninim MT" font-size="10" font-style="italic">4</tspan>
            </text>
            <text id="v5" fill="#212529">
                <tspan x="191" y="133">v</tspan>
                <tspan x="199.746094" y="133" font-family="NewPeninimMT-Inclined, New Peninim MT" font-size="10" font-style="italic">5</tspan>
            </text>
            <text id="v6" fill="#212529">
                <tspan x="189" y="323">v</tspan>
                <tspan x="197.746094" y="323" font-family="NewPeninimMT-Inclined, New Peninim MT" font-size="10" font-style="italic">6</tspan>
            </text>
        </g>
        <circle id="Oval" stroke="#E9ECEF" stroke-width="2" cx="134" cy="227" r="115"></circle>
        <circle id="Oval-Copy" stroke="#E9ECEF" stroke-width="2" cx="302" cy="227" r="115"></circle>
        <circle id="Oval-Copy-2" stroke="#E9ECEF" stroke-width="2" cx="217" cy="141" r="115"></circle>
        <path id="Shape" d="M220.867513,303.716187 L230.193532,300.246162 C230.711147,300.053568 231.286886,300.317049 231.47948,300.834665 C231.672075,301.352281 231.408593,301.928019 230.890978,302.120614 L217.987093,306.921891 L216.320914,307.541843 L216.65633,305.795994 L219.253991,292.275097 C219.358192,291.732731 219.882337,291.377528 220.424703,291.481728 C220.967069,291.585929 221.322272,292.110074 221.218072,292.65244 L219.340541,302.425037 L224.541447,296.279095 C234.671522,283.060146 241.808758,267.779009 245.378943,251.418539 C245.496692,250.878952 246.029568,250.536985 246.569154,250.654734 C247.108741,250.772483 247.450708,251.305358 247.332959,251.844945 C243.699741,268.494267 236.436674,284.044813 226.098606,297.533256 L220.867513,303.716187 Z" fill="#69DB7C" fill-rule="nonzero"></path>
        <path id="Oval" d="M219.180799,151.395261 L221.07872,161.16325 C221.184059,161.705395 220.829957,162.230286 220.287811,162.335625 C219.745665,162.440964 219.220775,162.086862 219.115436,161.544716 L216.489391,148.029303 L216.150309,146.284162 L217.817787,146.900614 L230.731724,151.674786 C231.249743,151.866293 231.514433,152.441478 231.322926,152.959496 C231.131419,153.477515 230.556234,153.742205 230.038216,153.550698 L220.704321,150.100037 L225.980128,156.310642 C241.466221,176.43123 250,201.068232 250,227 C250,235.576869 249.068979,244.033578 247.240342,252.265592 C247.120578,252.804735 246.586429,253.144709 246.047286,253.024946 C245.508143,252.905182 245.168169,252.371033 245.287933,251.83189 C247.084989,243.742042 248,235.430759 248,227 C248,201.51341 239.614464,177.304385 224.425604,157.568067 L219.180799,151.395261 Z" fill="#69DB7C" fill-rule="nonzero"></path>
        <path id="Path" d="M191.229039,252.075139 C199.612716,254.012422 208.241386,255 217,255 C226.704144,255 236.247681,253.787662 245.473249,251.415633 C246.008136,251.278105 246.553236,251.600229 246.690764,252.135117 C246.828291,252.670004 246.506167,253.215104 245.97128,253.352632 C236.583346,255.766408 226.872495,257 217,257 C208.083545,257 199.298003,255.993778 190.761542,254.019812 L189.591833,258.885527 C189.462742,259.422513 188.92278,259.753178 188.385794,259.624087 C187.848808,259.494997 187.518143,258.955035 187.647234,258.418049 L190.452104,246.750457 C190.581194,246.213471 191.121156,245.882806 191.658142,246.011896 C192.195128,246.140987 192.525793,246.680949 192.396702,247.217935 L191.229039,252.075139 Z" fill="#FF6B6B" fill-rule="nonzero"></path>
        <path d="M246.621141,252.149114 C295.778807,239.082468 332,194.27119 332,141 C332,132.168917 331.004581,123.570326 329.119824,115.310309" id="Oval-Copy-2" stroke="#339AF0" stroke-width="2" stroke-linecap="round"></path>
        <circle id="Oval" fill="#339AF0" cx="329" cy="115" r="3"></circle>
    </g>
</svg>
