<?xml version="1.0" encoding="UTF-8"?>
<svg width="437px" height="364px" viewBox="0 0 437 364" version="1.1" xmlns="http://www.w3.org/2000/svg" xmlns:xlink="http://www.w3.org/1999/xlink">
    <!-- Generator: Sketch 52.5 (67469) - http://www.bohemiancoding.com/sketch -->
    <title>Artboard Copy 2</title>
    <desc>Created with Sketch.</desc>
    <g id="Artboard-Copy-2" stroke="none" stroke-width="1" fill="none" fill-rule="evenodd">
        <g id="Group" transform="translate(22.000000, 5.000000)" font-family="LucidaGrande, Lucida Grande" font-size="14" font-weight="normal" letter-spacing="1.5">
            <text id="v1" fill="#072733">
                <tspan x="314" y="107">v</tspan>
                <tspan x="322.746094" y="107" font-family="NewPeninimMT-Inclined, New Peninim MT" font-size="10" font-style="italic">1</tspan>
            </text>
            <text id="a1" fill="#E9ECEF">
                <tspan x="191" y="14">a</tspan>
                <tspan x="200.231445" y="14" font-family="NewPeninimMT-Inclined, New Peninim MT" font-size="10" font-style="italic">1</tspan>
            </text>
            <text id="a2" fill="#212529">
                <tspan x="298" y="202">a</tspan>
                <tspan x="307.231445" y="202" font-family="NewPeninimMT-Inclined, New Peninim MT" font-size="10" font-style="italic">2</tspan>
            </text>
            <text id="a3" fill="#212529">
                <tspan x="189" y="244">a</tspan>
                <tspan x="198.231445" y="244" font-family="NewPeninimMT-Inclined, New Peninim MT" font-size="10" font-style="italic">3</tspan>
            </text>
            <text id="a7" fill="#E9ECEF">
                <tspan x="158" y="286">a</tspan>
                <tspan x="167.231445" y="286" font-family="NewPeninimMT-Inclined, New Peninim MT" font-size="10" font-style="italic">7</tspan>
            </text>
            <text id="a4" fill="#E9ECEF">
                <tspan x="80" y="213">a</tspan>
                <tspan x="89.2314453" y="213" font-family="NewPeninimMT-Inclined, New Peninim MT" font-size="10" font-style="italic">4</tspan>
            </text>
            <text id="a5" fill="#E9ECEF">
                <tspan x="242" y="104">a</tspan>
                <tspan x="251.231445" y="104" font-family="NewPeninimMT-Inclined, New Peninim MT" font-size="10" font-style="italic">5</tspan>
            </text>
            <text id="a6" fill="#E9ECEF">
                <tspan x="380" y="293">a</tspan>
                <tspan x="389.231445" y="293" font-family="NewPeninimMT-Inclined, New Peninim MT" font-size="10" font-style="italic">6</tspan>
            </text>
            <text id="a8" fill="#E9ECEF">
                <tspan x="153" y="184">a</tspan>
                <tspan x="162.231445" y="184" font-family="NewPeninimMT-Inclined, New Peninim MT" font-size="10" font-style="italic">8</tspan>
            </text>
            <text id="a9" fill="#E9ECEF">
                <tspan x="138" y="104">a</tspan>
                <tspan x="147.231445" y="104" font-family="NewPeninimMT-Inclined, New Peninim MT" font-size="10" font-style="italic">9</tspan>
            </text>
            <text id="a10" fill="#212529">
                <tspan x="228" y="188">a</tspan>
                <tspan x="237.231445" y="188" font-family="NewPeninimMT-Inclined, New Peninim MT" font-size="10" font-style="italic">10</tspan>
            </text>
            <text id="a11" fill="#212529">
                <tspan x="220" y="284">a</tspan>
                <tspan x="229.231445" y="284" font-family="NewPeninimMT-Inclined, New Peninim MT" font-size="10" font-style="italic">11</tspan>
            </text>
            <text id="a12" fill="#E9ECEF">
                <tspan x="0" y="308">a</tspan>
                <tspan x="9.23144531" y="308" font-family="NewPeninimMT-Inclined, New Peninim MT" font-size="10" font-style="italic">12</tspan>
            </text>
            <text id="c1" fill="#E9ECEF">
                <tspan x="189" y="67">c</tspan>
                <tspan x="197.670898" y="67" font-family="NewPeninimMT-Inclined, New Peninim MT" font-size="10" font-style="italic">1</tspan>
            </text>
            <text id="c3" fill="#E9ECEF">
                <tspan x="61" y="266">c</tspan>
                <tspan x="69.6708984" y="266" font-family="NewPeninimMT-Inclined, New Peninim MT" font-size="10" font-style="italic">3</tspan>
            </text>
            <text id="c2" fill="#E9ECEF">
                <tspan x="307" y="255">c</tspan>
                <tspan x="315.670898" y="255" font-family="NewPeninimMT-Inclined, New Peninim MT" font-size="10" font-style="italic">2</tspan>
            </text>
            <text id="v2" fill="#212529">
                <tspan x="144" y="235">v</tspan>
                <tspan x="152.746094" y="235" font-family="NewPeninimMT-Inclined, New Peninim MT" font-size="10" font-style="italic">2</tspan>
            </text>
            <text id="v3" fill="#E9ECEF">
                <tspan x="65" y="107">v</tspan>
                <tspan x="73.7460938" y="107" font-family="NewPeninimMT-Inclined, New Peninim MT" font-size="10" font-style="italic">3</tspan>
            </text>
            <text id="v4" fill="#072733">
                <tspan x="232" y="235">v</tspan>
                <tspan x="240.746094" y="235" font-family="NewPeninimMT-Inclined, New Peninim MT" font-size="10" font-style="italic">4</tspan>
            </text>
            <text id="v5" fill="#212529">
                <tspan x="191" y="133">v</tspan>
                <tspan x="199.746094" y="133" font-family="NewPeninimMT-Inclined, New Peninim MT" font-size="10" font-style="italic">5</tspan>
            </text>
            <text id="v6" fill="#212529">
                <tspan x="189" y="323">v</tspan>
                <tspan x="197.746094" y="323" font-family="NewPeninimMT-Inclined, New Peninim MT" font-size="10" font-style="italic">6</tspan>
            </text>
        </g>
        <circle id="Oval" stroke="#E9ECEF" stroke-width="2" cx="134" cy="227" r="115"></circle>
        <circle id="Oval-Copy" stroke="#E9ECEF" stroke-width="2" cx="302" cy="227" r="115"></circle>
        <circle id="Oval-Copy-2" stroke="#E9ECEF" stroke-width="2" cx="217" cy="141" r="115"></circle>
        <path id="Shape" d="M218.07026,303.995777 C231.615882,289.2141 241.080479,271.11637 245.378943,251.418539 C245.496692,250.878952 246.029568,250.536985 246.569154,250.654734 C247.108741,250.772483 247.450708,251.305358 247.332959,251.844945 C242.957389,271.896113 233.322012,290.317071 219.533018,305.35983 L223.192903,308.77275 C223.596817,309.149409 223.618913,309.782188 223.242254,310.186102 C222.865595,310.590017 222.232816,310.612112 221.828902,310.235453 L213.052684,302.051445 C212.648769,301.674786 212.626674,301.042007 213.003333,300.638093 C213.379991,300.234178 214.012771,300.212083 214.416685,300.588742 L218.07026,303.995777 Z" fill="#FF6B6B" fill-rule="nonzero"></path>
        <path id="Path" d="M192.849976,254.371044 L200.464123,260.777326 C200.886726,261.13289 200.941072,261.763718 200.585509,262.186321 C200.229945,262.608924 199.599117,262.66327 199.176514,262.307706 L188.641249,253.443696 C188.044556,252.941659 188.226547,251.980189 188.965442,251.730957 L202.011456,247.330498 C202.534772,247.153982 203.102099,247.435119 203.278615,247.958436 C203.455132,248.481753 203.173994,249.04908 202.650678,249.225596 L193.221305,252.406151 L201.13632,253.90521 C206.36126,254.632581 211.657539,255 217,255 C226.704144,255 236.247681,253.787662 245.473249,251.415633 C246.008136,251.278105 246.553236,251.600229 246.690764,252.135117 C246.828291,252.670004 246.506167,253.215104 245.97128,253.352632 C236.583346,255.766408 226.872495,257 217,257 C211.56522,257 206.1768,256.626188 200.812457,255.878212 L192.849976,254.371044 Z" fill="#69DB7C" fill-rule="nonzero"></path>
        <path id="Oval-Copy-2" d="M330.312998,116.063755 C332.093547,124.191447 333,132.537071 333,141 C333,193.904886 297.280071,239.71814 246.878031,253.115554 C246.344281,253.257431 245.796577,252.939755 245.6547,252.406004 C245.512823,251.872254 245.8305,251.32455 246.36425,251.182673 C295.895315,238.016774 331,192.992613 331,141 C331,132.687125 330.110394,124.490706 328.36304,116.508693 L323.492634,117.620014 C322.954189,117.742876 322.418094,117.405979 322.295232,116.867533 C322.17237,116.329088 322.509268,115.792992 323.047713,115.670131 L334.747013,113.000604 C335.285459,112.877742 335.821554,113.214639 335.944416,113.753085 C336.067277,114.29153 335.73038,114.827625 335.191935,114.950487 L330.312998,116.063755 Z" fill="#FF6B6B" fill-rule="nonzero"></path>
        <path d="M246.264137,252.048741 C248.055356,243.985173 249,235.602903 249,227 C249,196.60873 237.211036,168.970921 217.956657,148.410119" id="Oval" stroke="#339AF0" stroke-width="2" stroke-linecap="round"></path>
        <circle id="Oval" fill="#339AF0" cx="218" cy="148" r="3"></circle>
    </g>
</svg>
