<?xml version="1.0" encoding="UTF-8"?>
<svg width="300px" height="260px" viewBox="0 0 300 260" version="1.1"
    xmlns="http://www.w3.org/2000/svg" xmlns:xlink="http://www.w3.org/1999/xlink">
    <!-- Generator: Sketch 57.1 (83088) - https://sketch.com -->
    <title>writings-circles-3</title>
    <desc>Created with Sketch.</desc>
    <g id="writings-circles-3" stroke="none" stroke-width="1" fill="none" fill-rule="evenodd">
        <rect fill="var(--color-background-shade-1)" x="0" y="0" width="300" height="260"></rect>
        <g id="Group-Copy" transform="translate(3.500000, 7.000000)">
            <path
                d="M84.5,246.6 C109.067501,246.6 131.171677,236.053255 146.531839,219.240455 C160.176963,204.304887 168.5,184.424418 168.5,162.6 C168.5,140.785556 160.184568,120.913285 146.550544,105.980026 C131.189625,89.1553109 109.077475,78.6 84.5,78.6 C38.108081,78.6 0.5,116.208081 0.5,162.6 C0.5,208.991919 38.108081,246.6 84.5,246.6 Z"
                id="Oval" stroke="#DEE2E6" stroke-width="2"></path>
            <circle id="Oval-Copy" stroke="#DEE2E6" stroke-width="2" cx="208.5" cy="162.6" r="84"></circle>
            <path
                d="M228.013271,80.8782329 C221.751378,79.3885844 215.217781,78.6 208.5,78.6 C183.899904,78.6 161.769674,89.1747496 146.40706,106.026497"
                id="Path" stroke="#12B886" stroke-width="2" stroke-linecap="round"
                stroke-dasharray="4"></path>
            <circle id="Oval-Copy-2" stroke="#DEE2E6" stroke-width="2" cx="146.5" cy="100.6" r="84"></circle>
            <path id="Path"
                d="M166.067058,178.0382 C166.169148,177.495433 166.691909,177.138194 167.234676,177.240285 C167.777443,177.342376 168.134681,177.865136 168.03259,178.407903 C167.782866,179.735565 167.501699,181.055392 167.189423,182.36653 C167.061463,182.903786 166.522199,183.235587 165.984942,183.107628 C165.447686,182.979669 165.115885,182.440404 165.243844,181.903148 C165.548726,180.623055 165.823239,179.334463 166.067058,178.0382 Z M168.125596,169.299759 L168.242347,169.303613 C168.792366,169.353594 169.197726,169.83999 169.147745,170.390008 C169.025416,171.736176 168.871388,173.076693 168.685915,174.410771 C168.609864,174.957795 168.104762,175.339593 167.557739,175.263542 C167.010716,175.187491 166.628917,174.682389 166.704968,174.135366 C166.88608,172.832655 167.036491,171.523616 167.155952,170.20901 C167.205933,169.658992 167.692329,169.253631 168.242347,169.303613 Z M168.496022,161.302829 C169.048304,161.300916 169.497567,161.747078 169.499479,162.29936 L169.499479,162.29936 L169.5,162.6 C169.5,163.84668 169.473154,165.090213 169.419608,166.330041 C169.395778,166.881811 168.929162,167.309791 168.377392,167.285961 C167.825621,167.262131 167.397641,166.795515 167.421471,166.243745 C167.473775,165.032663 167.5,163.817902 167.5,162.6 L167.5,162.6 L167.499491,162.306287 C167.497579,161.754005 167.943741,161.304742 168.496022,161.302829 Z M167.998898,153.317474 C168.548554,153.263646 169.037774,153.665594 169.091601,154.215249 C169.222851,155.555485 169.322619,156.90125 169.390683,158.251788 C169.418482,158.803372 168.993869,159.273055 168.442285,159.300854 C167.8907,159.328653 167.421017,158.90404 167.393218,158.352455 C167.326741,157.033397 167.229302,155.71906 167.101123,154.410177 C167.047295,153.860521 167.449243,153.371302 167.998898,153.317474 Z M166.745248,145.407958 C167.287271,145.301986 167.812574,145.655475 167.918546,146.197497 C168.177159,147.520238 168.404458,148.850699 168.600143,150.188052 C168.680104,150.734517 168.301927,151.242336 167.755462,151.322297 C167.208996,151.402258 166.701177,151.024081 166.621216,150.477615 C166.430145,149.171801 166.208212,147.872747 165.955709,146.581256 C165.849737,146.039234 166.203226,145.51393 166.745248,145.407958 Z M164.743603,137.665363 C165.272989,137.507983 165.829723,137.809553 165.987104,138.338939 C166.371414,139.631655 166.724962,140.934418 167.047363,142.246338 C167.179163,142.782665 166.85123,143.32429 166.314902,143.456091 C165.778575,143.587891 165.23695,143.259958 165.105149,142.72363 C164.790391,141.442805 164.445225,140.170929 164.070027,138.908865 C163.912646,138.379478 164.214216,137.822744 164.743603,137.665363 Z M162.00057,130.129435 C162.512386,129.921919 163.09552,130.168603 163.303035,130.68042 C163.809935,131.930636 164.287004,133.193319 164.733762,134.467536 C164.916494,134.988715 164.642129,135.559348 164.12095,135.74208 C163.599771,135.924812 163.029138,135.650447 162.846406,135.129268 C162.410239,133.885256 161.944476,132.652497 161.449585,131.4319 C161.24207,130.920084 161.488754,130.33695 162.00057,130.129435 Z M158.553794,122.903738 C159.043412,122.648213 159.647469,122.837983 159.902994,123.3276 C160.527245,124.52374 161.122936,125.734799 161.689491,126.95982 C161.921322,127.461091 161.702897,128.055388 161.201626,128.287218 C160.700354,128.519049 160.106058,128.300625 159.874227,127.799353 C159.321063,126.603285 158.739443,125.420836 158.129932,124.252939 C157.874407,123.763321 158.064177,123.159264 158.553794,122.903738 Z M146.550544,105.980026 L160.687945,112.698203 L155.891176,116.448087 C156.603478,117.547692 157.290313,118.663633 157.951065,119.795033 C158.229587,120.271944 158.068761,120.884343 157.59185,121.162865 C157.114939,121.441387 156.50254,121.280561 156.224018,120.80365 C155.559515,119.665827 154.867987,118.544002 154.150091,117.43911 L154.308,117.685 L149.658443,121.320853 L146.550544,105.980026 Z"
                fill="#12B886" fill-rule="nonzero"></path>
            <path id="Path"
                d="M177.479058,171.248695 L179.310157,176.863089 C180.167497,176.493743 181.01837,176.109931 181.862445,175.711839 C182.361962,175.476251 182.957881,175.690208 183.193469,176.189725 C183.429056,176.689242 183.215099,177.285162 182.715583,177.520749 C181.494687,178.096561 180.259893,178.64321 179.01215,179.160158 L179.932,178.772 L181.818864,184.55907 L166.338586,182.243688 L177.479058,171.248695 Z M188.838064,172.00489 C189.31285,171.722761 189.926451,171.87894 190.20858,172.353726 C190.490709,172.828512 190.33453,173.442113 189.859744,173.724242 C188.699762,174.413531 187.523447,175.075133 186.331757,175.708414 C185.844059,175.967584 185.238602,175.782325 184.979433,175.294627 C184.720263,174.806928 184.905522,174.201472 185.39322,173.942303 C186.556811,173.323954 187.705405,172.677944 188.838064,172.00489 Z M195.450537,167.635827 C195.896297,167.309765 196.521982,167.4068 196.848044,167.85256 C197.174106,168.29832 197.077071,168.924005 196.631311,169.250067 C195.541689,170.047098 194.433296,170.818144 193.307082,171.562479 C192.846334,171.866995 192.225965,171.740345 191.921449,171.279597 C191.616933,170.81885 191.743583,170.198481 192.204331,169.893965 C193.304099,169.167108 194.386477,168.414159 195.450537,167.635827 Z M201.597907,162.675541 C202.01082,162.30877 202.642879,162.346177 203.00965,162.75909 C203.376421,163.172004 203.339014,163.804063 202.926101,164.170834 C201.917061,165.067114 200.886933,165.939378 199.836633,166.786818 C199.406812,167.133621 198.777234,167.066322 198.430431,166.636501 C198.083627,166.20668 198.150927,165.577102 198.580747,165.230299 C199.606459,164.402698 200.612478,163.550848 201.597907,162.675541 Z M207.271558,157.132064 C207.647814,156.727775 208.280571,156.705049 208.684861,157.081305 C209.08915,157.457562 209.111875,158.090319 208.735619,158.494608 C207.816148,159.482584 206.87338,160.448694 205.908176,161.39206 C205.513209,161.778091 204.880085,161.770846 204.494055,161.375879 C204.108024,160.980912 204.115269,160.347789 204.510235,159.961758 C205.452868,159.040453 206.37359,158.096935 207.271558,157.132064 Z M212.358705,151.120636 C212.695175,150.682678 213.322972,150.600406 213.760929,150.936876 C214.198887,151.273345 214.281159,151.901142 213.944689,152.3391 C213.122967,153.408675 212.275957,154.458686 211.404449,155.488208 C211.047615,155.909738 210.416626,155.962186 209.995095,155.605352 C209.573564,155.248519 209.521117,154.61753 209.87795,154.195999 C210.729056,153.19058 211.556231,152.165157 212.358705,151.120636 Z M216.879658,144.617722 C217.172963,144.149758 217.790094,144.00817 218.258058,144.301475 C218.726022,144.59478 218.867611,145.211911 218.574306,145.679875 C217.857631,146.823317 217.113828,147.949563 216.343599,149.057659 C216.02838,149.511151 215.405216,149.623243 214.951723,149.308024 C214.498231,148.992805 214.386139,148.369641 214.701358,147.916149 C215.4535,146.834074 216.179829,145.734287 216.879658,144.617722 Z M220.762902,137.708956 C221.010161,137.215112 221.610943,137.015215 222.104787,137.262474 C222.59863,137.509733 222.798527,138.110515 222.551268,138.604359 C221.947154,139.810942 221.314357,141.002776 220.653486,142.178903 C220.38294,142.660383 219.773303,142.831379 219.291822,142.560833 C218.810342,142.290287 218.639346,141.680649 218.909892,141.199169 C219.555179,140.050775 220.173047,138.887059 220.762902,137.708956 Z M223.970122,130.451909 C224.168819,129.936605 224.74763,129.679943 225.262934,129.87864 C225.778238,130.077336 226.034899,130.656148 225.836203,131.171452 C225.350425,132.431279 224.83467,133.678795 224.289449,134.913055 C224.066286,135.418246 223.47584,135.646874 222.97065,135.423712 C222.46546,135.20055 222.236831,134.610103 222.459993,134.104913 C222.992309,132.899868 223.495852,131.681894 223.970122,130.451909 Z M226.451512,122.967486 C226.600015,122.435541 227.151626,122.124699 227.683571,122.273202 C228.215516,122.421704 228.526358,122.973316 228.377855,123.505261 C228.014756,124.805902 227.620758,126.096627 227.196276,127.376533 C227.022422,127.90074 226.456532,128.184758 225.932325,128.010904 C225.408118,127.83705 225.1241,127.27116 225.297954,126.746952 C225.712369,125.497399 226.097023,124.237284 226.451512,122.967486 Z M228.202695,115.298573 C228.299844,114.754899 228.819332,114.392919 229.363005,114.490068 C229.906679,114.587216 230.268659,115.106705 230.17151,115.650378 C229.933834,116.98049 229.664667,118.302979 229.364335,119.616995 C229.241278,120.155396 228.70506,120.492099 228.166659,120.369042 C227.628258,120.245985 227.291556,119.709767 227.414613,119.171366 C227.707837,117.88845 227.970637,116.597244 228.202695,115.298573 Z M230.18297,106.528641 L230.299752,106.531424 C230.850206,106.576363 231.260006,107.059024 231.215068,107.609477 C231.105074,108.956792 230.963376,110.298659 230.79022,111.634296 C230.719215,112.181997 230.217654,112.568435 229.669952,112.49743 C229.122251,112.426424 228.735813,111.924863 228.806818,111.377162 C228.975907,110.072896 229.114281,108.762504 229.2217,107.44674 C229.266638,106.896287 229.749299,106.486486 230.299752,106.531424 Z M230.480366,98.5104565 C231.032606,98.5034361 231.485976,98.945424 231.492997,99.4976641 C231.497672,99.8654503 231.5,100.232906 231.5,100.604969 C231.499944,101.588254 231.483187,102.569591 231.4498,103.548707 C231.430979,104.100671 230.968266,104.532869 230.416302,104.514047 C229.864338,104.495226 229.432141,104.032513 229.450962,103.480549 C229.483576,102.524104 229.499945,101.565452 229.5,100.604912 C229.5,100.241366 229.497726,99.8823851 229.493158,99.5230872 C229.486138,98.9708471 229.928126,98.5174769 230.480366,98.5104565 Z M229.90888,90.5324155 C230.458006,90.4734381 230.950972,90.8707826 231.00995,91.4199092 C231.153752,92.758821 231.266079,94.1034694 231.346703,95.4530904 C231.379636,96.0043923 230.959416,96.4780088 230.408114,96.5109424 C229.856812,96.5438759 229.383195,96.1236553 229.350262,95.5723534 C229.27152,94.2542371 229.16182,92.9410351 229.021386,91.6334853 C228.962408,91.0843586 229.359753,90.5913929 229.90888,90.5324155 Z M235.149089,79.9845631 C235.847567,83.5255994 233.742625,86.9693263 230.373624,88.0198725 C230.231836,88.286674 229.96924,88.4863562 229.646284,88.5367364 C229.350514,88.5828756 229.064823,88.4943207 228.851623,88.3166377 C225.348705,88.6078227 222.110242,86.2248614 221.41375,82.6938917 C220.66559,78.9009825 223.133846,75.2197183 226.926755,74.4715579 C230.719664,73.7233975 234.400929,76.191654 235.149089,79.9845631 Z"
                fill="#12B886" fill-rule="nonzero"></path>
            <text id="a1" font-family="Merriweather-BoldItalic, Merriweather" font-size="10"
                font-style="italic" font-weight="bold" fill="#DEE2E6">
                <tspan x="141.805" y="10">a1</tspan>
            </text>
            <text id="v1" font-family="Merriweather-BoldItalic, Merriweather" font-size="10"
                font-style="italic" font-weight="bold" fill="#1E1B18">
                <tspan x="234.115" y="74">v1</tspan>
            </text>
            <text id="v2" font-family="Merriweather-BoldItalic, Merriweather" font-size="10"
                font-style="italic" font-weight="bold" fill="#DEE2E6">
                <tspan x="110.375" y="172">v2</tspan>
            </text>
            <text id="v3" font-family="Merriweather-BoldItalic, Merriweather" font-size="10"
                font-style="italic" font-weight="bold" fill="#DEE2E6">
                <tspan x="49.195" y="76">v3</tspan>
            </text>
            <text id="v4" font-family="Merriweather-BoldItalic, Merriweather" font-size="10"
                font-style="italic" font-weight="bold" fill="#1E1B18">
                <tspan x="173.3" y="169">v4</tspan>
            </text>
            <text id="v5" font-family="Merriweather-BoldItalic, Merriweather" font-size="10"
                font-style="italic" font-weight="bold" fill="#1E1B18">
                <tspan x="141.13" y="93">v5</tspan>
            </text>
            <text id="v6" font-family="Merriweather-BoldItalic, Merriweather" font-size="10"
                font-style="italic" font-weight="bold" fill="#DEE2E6">
                <tspan x="141.89" y="236">v6</tspan>
            </text>
            <text id="c1" font-family="Merriweather-BoldItalic, Merriweather" font-size="10"
                font-style="italic" font-weight="bold" fill="#DEE2E6">
                <tspan x="142.95" y="48">c1</tspan>
            </text>
            <text id="c2" font-family="Merriweather-BoldItalic, Merriweather" font-size="10"
                font-style="italic" font-weight="bold" fill="#DEE2E6">
                <tspan x="229.71" y="199">c2</tspan>
            </text>
            <text id="c3" font-family="Merriweather-BoldItalic, Merriweather" font-size="10"
                font-style="italic" font-weight="bold" fill="#DEE2E6">
                <tspan x="44.03" y="199">c3</tspan>
            </text>
            <text id="a2" font-family="Merriweather-BoldItalic, Merriweather" font-size="10"
                font-style="italic" font-weight="bold" fill="#1E1B18">
                <tspan x="222.065" y="157">a2</tspan>
            </text>
            <text id="a3" font-family="Merriweather-BoldItalic, Merriweather" font-size="10"
                font-style="italic" font-weight="bold" fill="#DEE2E6">
                <tspan x="141.885" y="179">a3</tspan>
            </text>
            <text id="a4" font-family="Merriweather-BoldItalic, Merriweather" font-size="10"
                font-style="italic" font-weight="bold" fill="#DEE2E6">
                <tspan x="60.99" y="157">a4</tspan>
            </text>
            <text id="a5" font-family="Merriweather-BoldItalic, Merriweather" font-size="10"
                font-style="italic" font-weight="bold" fill="#1E1B18">
                <tspan x="170.82" y="76">a5</tspan>
            </text>
            <text id="a6" font-family="Merriweather-BoldItalic, Merriweather" font-size="10"
                font-style="italic" font-weight="bold" fill="#DEE2E6">
                <tspan x="276.08" y="226">a6</tspan>
            </text>
            <text id="a7" font-family="Merriweather-BoldItalic, Merriweather" font-size="10"
                font-style="italic" font-weight="bold" fill="#DEE2E6">
                <tspan x="116.89" y="209">a7</tspan>
            </text>
            <text id="a8" font-family="Merriweather-BoldItalic, Merriweather" font-size="10"
                font-style="italic" font-weight="bold" fill="#DEE2E6">
                <tspan x="110.04" y="142">a8</tspan>
            </text>
            <text id="a9" font-family="Merriweather-BoldItalic, Merriweather" font-size="10"
                font-style="italic" font-weight="bold" fill="#DEE2E6">
                <tspan x="104.02" y="76">a9</tspan>
            </text>
            <text id="a10" font-family="Merriweather-BoldItalic, Merriweather" font-size="10"
                font-style="italic" font-weight="bold" fill="#1E1B18">
                <tspan x="169.685" y="137">a10</tspan>
            </text>
            <text id="a11" font-family="Merriweather-BoldItalic, Merriweather" font-size="10"
                font-style="italic" font-weight="bold" fill="#DEE2E6">
                <tspan x="164.045" y="209">a11</tspan>
            </text>
            <text id="a12" font-family="Merriweather-BoldItalic, Merriweather" font-size="10"
                font-style="italic" font-weight="bold" fill="#DEE2E6">
                <tspan x="0.305" y="226">a12</tspan>
            </text>
        </g>
    </g>
</svg>
