<?xml version="1.0" encoding="UTF-8"?>
<svg width="300px" height="260px" viewBox="0 0 300 260" version="1.1"
    xmlns="http://www.w3.org/2000/svg" xmlns:xlink="http://www.w3.org/1999/xlink">
    <!-- Generator: Sketch 57.1 (83088) - https://sketch.com -->
    <title>writings-circles-5</title>
    <desc>Created with Sketch.</desc>
    <g id="writings-circles-5" stroke="none" stroke-width="1" fill="none" fill-rule="evenodd">
        <rect fill="var(--color-background-shade-1)" x="0" y="0" width="300" height="260"></rect>
        <g id="Group" transform="translate(3.000000, 7.000000)">
            <circle id="Oval" stroke="#DEE2E6" stroke-width="2" cx="85.5" cy="162.6" r="84"></circle>
            <circle id="Oval-Copy" stroke="#DEE2E6" stroke-width="2" cx="209.5" cy="162.6" r="84"></circle>
            <circle id="Oval-Copy-2" stroke="#DEE2E6" stroke-width="2" cx="147.5" cy="100.6" r="84"></circle>
            <path id="Path"
                d="M142.890832,213.794894 C143.324457,213.452859 143.953254,213.527107 144.295289,213.960732 C145.111312,214.995271 145.951798,216.01039 146.815964,217.005191 C147.178152,217.42213 147.133767,218.053737 146.716828,218.415925 C146.299889,218.778113 145.668281,218.733728 145.306093,218.316789 C144.421218,217.298148 143.560585,216.258695 142.724994,215.19935 C142.382959,214.765725 142.457207,214.136929 142.890832,213.794894 Z M138.313398,207.22434 C138.777536,206.925017 139.396444,207.058627 139.695767,207.522765 C140.409832,208.630015 141.150162,209.720173 141.916059,210.792307 C142.237092,211.241702 142.133033,211.866258 141.683638,212.187291 C141.234243,212.508324 140.609687,212.404265 140.288654,211.95487 C139.504349,210.856967 138.746217,209.740596 138.014973,208.606708 C137.71565,208.14257 137.84926,207.523662 138.313398,207.22434 Z M134.377968,200.239898 C134.86855,199.98623 135.471884,200.178287 135.725552,200.668869 C136.330771,201.839333 136.96382,202.995082 137.624092,204.135178 C137.900874,204.613101 137.737818,205.22491 137.259895,205.501692 C136.781973,205.778475 136.170164,205.615419 135.893381,205.137496 C135.217174,203.969884 134.568839,202.786227 133.948997,201.587483 C133.695329,201.096901 133.887385,200.493567 134.377968,200.239898 Z M131.135126,192.92739 C131.647712,192.721783 132.229922,192.970638 132.435529,193.483224 C132.92618,194.706432 133.445936,195.917303 133.994287,197.114916 C134.224206,197.617066 134.003519,198.210527 133.501369,198.440447 C132.999218,198.670366 132.405758,198.44968 132.175838,197.947529 C131.614199,196.720895 131.081842,195.480668 130.579292,194.227793 C130.373685,193.715208 130.62254,193.132997 131.135126,192.92739 Z M128.605634,185.331255 C129.135579,185.175765 129.691234,185.47932 129.846723,186.009265 C130.217822,187.274051 130.618973,188.528843 131.04976,189.772755 C131.230494,190.29463 130.953944,190.864207 130.432069,191.044941 C129.910194,191.225675 129.340616,190.949125 129.159883,190.42725 C128.718632,189.153125 128.307737,187.867853 127.927624,186.572344 C127.772134,186.042399 128.07569,185.486745 128.605634,185.331255 Z M126.819846,177.547175 C127.362229,177.443062 127.886317,177.79835 127.990431,178.340732 C128.239103,179.636204 128.518462,180.923919 128.828176,182.203044 C128.958145,182.739818 128.628364,183.280321 128.09159,183.41029 C127.554816,183.540259 127.014314,183.210478 126.884345,182.673704 C126.567118,181.363552 126.280987,180.044618 126.02629,178.717759 C125.922176,178.175377 126.277464,177.651288 126.819846,177.547175 Z M125.781171,169.595095 C126.331013,169.543208 126.81881,169.946881 126.870696,170.496723 C126.994721,171.811029 127.149702,173.119693 127.335385,174.42195 C127.413344,174.968705 127.03331,175.475136 126.486556,175.553095 C125.939801,175.631055 125.43337,175.251021 125.355411,174.704266 C125.165255,173.370641 125.006546,172.030495 124.879542,170.68462 C124.827656,170.134778 125.231328,169.646981 125.781171,169.595095 Z M131.5,161.6 C132.052285,161.6 132.5,162.047715 132.5,162.6 C132.5,163.152285 132.052285,163.6 131.5,163.6 L131.5,163.6 L126.505894,163.599632 C126.517535,164.586214 126.546408,165.570627 126.592436,166.552584 C126.618295,167.104263 126.192034,167.572451 125.640355,167.59831 C125.088676,167.624169 124.620489,167.197908 124.59463,166.646229 C124.531606,165.301676 124.5,163.952694 124.5,162.6 L124.505,163.599 L119.5,163.6 C118.987164,163.6 118.564493,163.21396 118.506728,162.716621 L118.5,162.6 C118.5,162.047715 118.947715,161.6 119.5,161.6 L119.5,161.6 L125.5,161.599 Z"
                fill="#E64980" fill-rule="nonzero"></path>
            <path id="Shape"
                d="M170.830904,180.276226 C171.361003,180.121262 171.916356,180.425368 172.07132,180.955467 C172.226284,181.485565 171.922178,182.040919 171.392079,182.195883 C170.098967,182.5739 168.795943,182.921182 167.483888,183.23735 C166.946972,183.366731 166.406831,183.036359 166.27745,182.499443 C166.148068,181.962527 166.47844,181.422386 167.015356,181.293005 C168.296317,180.98433 169.568452,180.64528 170.830904,180.276226 Z M178.303131,177.696549 C178.815931,177.491478 179.397881,177.740943 179.602951,178.253744 C179.808022,178.766544 179.558557,179.348494 179.045757,179.553565 C177.793727,180.054255 176.529365,180.525087 175.253598,180.965586 C174.731556,181.145838 174.162234,180.868762 173.981983,180.34672 C173.801731,179.824678 174.078807,179.255357 174.600849,179.075105 C175.846372,178.645048 177.080768,178.185376 178.303131,177.696549 Z M185.509405,174.405165 C186.000192,174.151893 186.60337,174.344438 186.856642,174.835225 C187.109913,175.326012 186.917368,175.929191 186.426581,176.182462 C185.227985,176.801 184.014598,177.390929 182.787374,177.951677 C182.285044,178.181204 181.691756,177.960053 181.462229,177.457722 C181.232702,176.955392 181.453853,176.362104 181.956184,176.132577 C183.154397,175.585085 184.339114,175.009095 185.509405,174.405165 Z M192.347077,170.452987 C192.811539,170.154167 193.430301,170.288447 193.729121,170.75291 C194.027941,171.217372 193.893661,171.836134 193.429198,172.134954 C192.294894,172.864727 191.143362,173.56745 189.975562,174.242453 C189.497406,174.518832 188.885734,174.35526 188.609355,173.877105 C188.332975,173.398949 188.496547,172.787278 188.974702,172.510898 C190.115011,171.851786 191.239448,171.165598 192.347077,170.452987 Z M198.8067,165.847295 C199.240607,165.505618 199.869342,165.580385 200.211019,166.014292 C200.552696,166.448199 200.477929,167.076934 200.044022,167.418611 C198.983948,168.253359 197.90424,169.062857 196.805836,169.846348 C196.356214,170.167063 195.731732,170.062563 195.411017,169.612941 C195.090302,169.163319 195.194801,168.538837 195.644424,168.218122 C196.717068,167.453005 197.771467,166.662482 198.8067,165.847295 Z M204.757927,160.687895 C205.157695,160.306839 205.790678,160.322008 206.171734,160.721776 C206.55279,161.121544 206.537621,161.754528 206.137853,162.135584 C205.160871,163.066836 204.161963,163.974845 203.142028,164.858774 C202.72467,165.220479 202.093114,165.175363 201.731409,164.758005 C201.369705,164.340646 201.414821,163.709091 201.832179,163.347386 C202.828252,162.484136 203.803795,161.597366 204.757927,160.687895 Z M210.223486,154.959744 C210.585373,154.542544 211.216949,154.497703 211.634149,154.859591 C212.051349,155.221478 212.096189,155.853053 211.734302,156.270253 C210.850091,157.289612 209.941819,158.287941 209.010323,159.264343 C208.629096,159.663948 207.996106,159.678847 207.596501,159.297619 C207.196895,158.916392 207.181997,158.283403 207.563224,157.883797 C208.472935,156.930232 209.359961,155.955255 210.223486,154.959744 Z M215.127131,148.73179 C215.447763,148.282109 216.072225,148.177492 216.521907,148.498124 C216.971589,148.818755 217.076205,149.443218 216.755574,149.8929 C215.97237,150.991334 215.163161,152.071081 214.328703,153.131203 C213.987109,153.565175 213.358388,153.640062 212.924416,153.298468 C212.490444,152.956874 212.415556,152.328153 212.757151,151.894181 C213.572054,150.858901 214.362295,149.804465 215.127131,148.73179 Z M219.41851,142.06153 C219.694802,141.583323 220.306444,141.419639 220.78465,141.695931 C221.262856,141.972223 221.42654,142.583865 221.150249,143.062071 C220.475237,144.230381 219.772485,145.382416 219.042661,146.517217 C218.743919,146.981729 218.125179,147.116113 217.660667,146.817371 C217.196154,146.518629 217.061771,145.899889 217.360513,145.435377 C218.073173,144.327264 218.75939,143.202336 219.41851,142.06153 Z M223.046977,135.024651 C223.276293,134.522225 223.869488,134.300825 224.371915,134.530141 C224.874341,134.759457 225.095741,135.352651 224.866425,135.855078 C224.305886,137.083209 223.716128,138.297499 223.097724,139.496993 C222.844646,139.98788 222.241543,140.180661 221.750656,139.927583 C221.259769,139.674504 221.066988,139.071402 221.320066,138.580515 C221.923865,137.409349 222.499688,136.22375 223.046977,135.024651 Z M225.960328,127.743607 C226.140867,127.221664 226.71034,126.944901 227.232283,127.125439 C227.754226,127.305978 228.030989,127.875451 227.850451,128.397394 C227.409138,129.673244 226.937483,130.93767 226.43596,132.189742 C226.230602,132.702427 225.648513,132.951565 225.135827,132.746207 C224.623142,132.540849 224.374004,131.958759 224.579362,131.446074 C225.069001,130.223669 225.529478,128.989211 225.960328,127.743607 Z M228.184358,120.151203 C228.31398,119.614345 228.854269,119.284214 229.391127,119.413836 C229.927985,119.543457 230.258115,120.083746 230.128494,120.620604 C229.811485,121.933569 229.463315,123.237478 229.084364,124.531446 C228.929142,125.061469 228.373641,125.365305 227.843618,125.210083 C227.313595,125.054861 227.009759,124.49936 227.164981,123.969337 C227.534946,122.706049 227.874863,121.433051 228.184358,120.151203 Z M230.685995,111.51234 L230.802404,111.52207 C231.349206,111.599694 231.729551,112.105892 231.651927,112.652694 C231.462003,113.990566 231.240469,115.321648 230.987622,116.645116 C230.883983,117.18759 230.360205,117.543335 229.817732,117.439696 C229.275258,117.336057 228.919513,116.81228 229.023152,116.269806 C229.270027,114.977596 229.486333,113.677926 229.67178,112.371593 C229.749404,111.82479 230.255601,111.444446 230.802404,111.52207 Z M231.455919,103.52461 C232.007621,103.549977 232.4343,104.017783 232.408933,104.569485 C232.346828,105.92023 232.253028,107.266297 232.127753,108.606934 C232.07637,109.156823 231.588941,109.560942 231.039052,109.509558 C230.489163,109.458174 230.085045,108.970746 230.136428,108.420857 C230.258774,107.111561 230.350385,105.796908 230.411044,104.477625 C230.43641,103.925923 230.904217,103.499244 231.455919,103.52461 Z M231.353884,95.5044532 C231.905533,95.4779619 232.374208,95.9036864 232.4007,96.4553354 C232.465257,97.7996547 232.4984,99.1484257 232.499943,100.500932 C232.500574,101.053216 232.053369,101.501442 231.501085,101.502072 C230.948801,101.502702 230.500575,101.055498 230.499945,100.503214 C230.498437,99.181942 230.466061,97.8643968 230.403002,96.5512688 C230.376511,95.9996198 230.802235,95.5309445 231.353884,95.5044532 Z M227.866782,74.2872893 C231.657961,73.5304139 235.344889,75.9902036 236.101764,79.7813832 C236.808589,83.3218627 234.710102,86.7714216 231.34176,87.8285946 C231.492863,87.974833 231.598072,88.1717943 231.630478,88.3971816 C231.822189,89.7305257 231.982458,91.0704166 232.111028,92.4160623 C232.163556,92.9658433 231.760453,93.4541118 231.210672,93.5066404 C230.660891,93.559169 230.172623,93.1560663 230.120094,92.6062853 C229.994541,91.2922082 229.838038,89.9837975 229.650836,88.6818186 C229.623037,88.4884773 229.652533,88.3001128 229.726457,88.1339119 C226.260898,88.3827043 223.070717,86.0186937 222.372688,82.5222715 C221.615812,78.7310918 224.075602,75.0441647 227.866782,74.2872893 Z"
                fill="#12B886" fill-rule="nonzero"></path>
            <path id="Path"
                d="M203.668619,245.405196 L203.785428,245.406394 C205.097247,245.495581 206.413892,245.554051 207.734658,245.581603 C208.286823,245.593121 208.725103,246.050077 208.713585,246.602242 C208.702066,247.154406 208.24511,247.592686 207.692946,247.581168 C206.34083,247.552962 204.992859,247.493101 203.649766,247.401788 C203.098754,247.364326 202.682439,246.887273 202.719901,246.33626 C202.757363,245.785247 203.234416,245.368932 203.785428,245.406394 Z M215.634102,245.376812 C216.184919,245.336582 216.664058,245.750494 216.704289,246.301312 C216.74452,246.852129 216.330607,247.331268 215.77979,247.371499 C214.438056,247.469497 213.091341,247.536079 211.740382,247.571041 C211.188283,247.585329 210.729134,247.149347 210.714846,246.597247 C210.700558,246.045147 211.136541,245.585999 211.688641,245.571711 C213.008246,245.53756 214.323636,245.472526 215.634102,245.376812 Z M195.789282,244.479945 L195.905446,244.492265 C197.20353,244.70612 198.508501,244.889319 199.81958,245.041593 C200.368177,245.105309 200.76125,245.601687 200.697534,246.150284 C200.633818,246.698881 200.13744,247.091954 199.588843,247.028238 C198.246192,246.872298 196.909753,246.684681 195.580334,246.465663 C195.035395,246.375886 194.666414,245.861347 194.756191,245.316408 C194.845968,244.771469 195.360507,244.402488 195.905446,244.492265 Z M223.482548,244.427396 C224.027054,244.33503 224.543341,244.701561 224.635708,245.246067 C224.728075,245.790573 224.361543,246.30686 223.817037,246.399227 C222.489268,246.624462 221.154375,246.818338 219.813168,246.980578 C219.26488,247.046902 218.766639,246.656193 218.700315,246.107905 C218.633991,245.559618 219.024699,245.061376 219.572987,244.995052 C220.882639,244.836629 222.186087,244.64732 223.482548,244.427396 Z M186.930262,243.539482 C187.071919,243.005673 187.619492,242.687772 188.153301,242.829429 C189.425458,243.167022 190.706718,243.474392 191.996236,243.751188 C192.536221,243.867096 192.880003,244.398803 192.764095,244.938788 C192.648187,245.478773 192.11648,245.822555 191.576495,245.706646 C190.255702,245.423137 188.943352,245.108309 187.640314,244.762521 C187.106506,244.620864 186.788604,244.07329 186.930262,243.539482 Z M231.205246,242.733416 C231.73841,242.589354 232.287411,242.904785 232.431472,243.43795 C232.575534,243.971114 232.260103,244.520115 231.726938,244.664176 C230.426337,245.0156 229.116324,245.336136 227.797772,245.625422 C227.258318,245.743776 226.725059,245.402408 226.606705,244.862954 C226.48835,244.3235 226.829719,243.790241 227.369173,243.671886 C228.656497,243.389451 229.935469,243.07651 231.205246,242.733416 Z M179.323469,241.023132 C179.515724,240.50539 180.091291,240.241531 180.609032,240.433786 C181.843342,240.892128 183.089077,241.32104 184.345342,241.720085 C184.87171,241.887283 185.162875,242.449529 184.995677,242.975897 C184.828479,243.502265 184.266233,243.79343 183.739865,243.626233 C182.453087,243.217495 181.177097,242.778166 179.912815,242.308695 C179.395073,242.11644 179.131214,241.540873 179.323469,241.023132 Z M238.744921,240.301427 C239.261776,240.106799 239.838546,240.368015 240.033174,240.884869 C240.227802,241.401724 239.966586,241.978494 239.449731,242.173122 C238.187349,242.648488 236.913138,243.093748 235.62802,243.508448 C235.102423,243.678055 234.538849,243.389468 234.369242,242.863871 C234.199635,242.338275 234.488222,241.774701 235.013819,241.605094 C236.268463,241.200227 237.512463,240.765524 238.744921,240.301427 Z M172.029522,237.806852 C172.270271,237.309802 172.868375,237.102029 173.365424,237.342778 C174.551055,237.917044 175.750488,238.462995 176.962797,238.980097 C177.4708,239.196781 177.706959,239.784256 177.490274,240.292258 C177.27359,240.80026 176.686115,241.03642 176.178113,240.819735 C174.936423,240.290101 173.707934,239.730925 172.493596,239.142754 C171.996546,238.902005 171.788773,238.303902 172.029522,237.806852 Z M246.021385,237.15418 C246.517174,236.910846 247.116352,237.115502 247.359685,237.611292 C247.603019,238.107081 247.398363,238.706259 246.902573,238.949592 C245.692033,239.543725 244.467225,240.108971 243.2291,240.644778 C242.722241,240.864124 242.133536,240.631049 241.914189,240.124191 C241.694843,239.617332 241.927918,239.028627 242.434776,238.80928 C243.643612,238.286149 244.839457,237.73427 246.021385,237.15418 Z M165.027487,233.881757 C165.314676,233.410015 165.929912,233.260406 166.401654,233.547595 C167.527462,234.23297 168.669484,234.891459 169.826779,235.522432 C170.311677,235.786805 170.490447,236.394208 170.226074,236.879106 C169.961702,237.364003 169.354298,237.542774 168.869401,237.278401 C167.684172,236.632198 166.514601,235.957824 165.361649,235.255924 C164.889907,234.968735 164.740297,234.353499 165.027487,233.881757 Z M252.920212,233.350644 C253.390643,233.061313 254.006553,233.208124 254.295884,233.678556 C254.585215,234.148987 254.438404,234.764897 253.967972,235.054228 C252.818743,235.761042 251.652793,236.440433 250.471083,237.091752 C249.987401,237.358342 249.379185,237.182354 249.112596,236.698671 C248.846006,236.214989 249.021994,235.606774 249.505677,235.340184 C250.659542,234.704212 251.798033,234.040821 252.920212,233.350644 Z M158.457483,229.326185 C158.788135,228.883819 159.41479,228.793257 159.857156,229.123909 C160.912215,229.912526 161.985816,230.676002 163.077032,231.413619 C163.534589,231.722908 163.654784,232.34456 163.345495,232.802117 C163.036205,233.259674 162.414553,233.379869 161.956996,233.07058 C160.83955,232.315233 159.740156,231.533414 158.659759,230.725858 C158.217393,230.395206 158.126831,229.768551 158.457483,229.326185 Z M259.461989,228.884166 C259.902766,228.551399 260.529848,228.638958 260.862615,229.079735 C261.195382,229.520512 261.107823,230.147593 260.667046,230.480361 C259.589775,231.293653 258.493361,232.081268 257.378749,232.842462 C256.922671,233.153929 256.300454,233.036698 255.988987,232.58062 C255.677521,232.124542 255.794751,231.502325 256.250829,231.190858 C257.339283,230.447527 258.409978,229.678389 259.461989,228.884166 Z M152.332997,224.154753 C152.70411,223.745738 153.336529,223.715013 153.745544,224.086126 C154.721213,224.971383 155.717698,225.83343 156.734111,226.671468 C157.160233,227.022808 157.220855,227.653064 156.869516,228.079185 C156.518177,228.505306 155.887921,228.565929 155.4618,228.214589 C154.421027,227.356467 153.400665,226.473765 152.401624,225.5673 C151.992609,225.196187 151.961884,224.563768 152.332997,224.154753 Z M265.550774,223.815966 C265.958002,223.442893 266.590562,223.470581 266.963635,223.877809 C267.336708,224.285037 267.30902,224.917597 266.901792,225.29067 C265.906907,226.202111 264.890579,227.089885 263.853716,227.953172 C263.429284,228.306551 262.798745,228.248951 262.445366,227.82452 C262.091987,227.400089 262.149586,226.769549 262.574018,226.416171 C263.586616,225.573088 264.579164,224.706085 265.550774,223.815966 Z M146.734819,218.436139 C147.14295,218.064053 147.77544,218.093274 148.147526,218.501405 C149.035538,219.475444 149.94653,220.428367 150.879663,221.359307 C151.270647,221.749372 151.271392,222.382537 150.881327,222.77352 C150.491263,223.164503 149.858098,223.165248 149.467115,222.775184 C148.511637,221.821952 147.578831,220.846211 146.669552,219.848845 C146.297467,219.440714 146.326688,218.808224 146.734819,218.436139 Z M271.144813,218.179064 C271.514766,217.768999 272.147095,217.736482 272.55716,218.106436 C272.967225,218.476389 272.999741,219.108719 272.629788,219.518783 C271.726066,220.520489 270.798719,221.500711 269.848599,222.458561 C269.45966,222.850664 268.8265,222.85323 268.434397,222.464291 C268.042294,222.075352 268.039729,221.442192 268.428668,221.050089 C269.356569,220.114638 270.262228,219.157341 271.144813,218.179064 Z M276.114305,212.121677 C276.444154,211.678712 277.070644,211.587012 277.513609,211.916861 C277.956574,212.24671 278.048273,212.8732 277.718425,213.316165 C276.912326,214.398703 276.080603,215.462022 275.224033,216.505189 C274.873554,216.932018 274.243421,216.993911 273.816592,216.643432 C273.389764,216.292952 273.32787,215.66282 273.67835,215.235991 C274.514859,214.217254 275.327098,213.178845 276.114305,212.121677 Z M280.535292,205.553964 C280.82152,205.081638 281.43645,204.930776 281.908776,205.217005 C282.381101,205.503234 282.531963,206.118163 282.245734,206.590489 C281.546145,207.744931 280.819145,208.882549 280.065427,210.002387 C279.757049,210.46056 279.135638,210.581992 278.677466,210.273614 C278.219293,209.965237 278.097861,209.343825 278.406239,208.885653 C279.142248,207.792128 279.852156,206.681253 280.535292,205.553964 Z M284.308188,198.599216 C284.548032,198.101729 285.145757,197.892868 285.643244,198.132712 C286.140731,198.372556 286.349591,198.970281 286.109747,199.467768 C285.523635,200.683488 284.908613,201.884836 284.265274,203.070854 C284.001941,203.556318 283.394923,203.73639 282.90946,203.473057 C282.423996,203.209725 282.243924,202.602706 282.507257,202.117243 C283.135416,200.959209 283.735919,199.786222 284.308188,198.599216 Z M287.401382,191.308271 C287.592412,190.790076 288.167353,190.524857 288.685548,190.715887 C289.203743,190.906918 289.468962,191.481858 289.277932,192.000053 C288.810853,193.267065 288.313627,194.522138 287.786749,195.764335 C287.571095,196.272775 286.9841,196.510124 286.475659,196.294469 C285.967219,196.078815 285.72987,195.49182 285.945525,194.983379 C286.459925,193.7706 286.945372,192.545259 287.401382,191.308271 Z M289.781862,183.748117 C289.922188,183.213956 290.468967,182.894691 291.003127,183.035016 C291.537287,183.175342 291.856553,183.722121 291.716227,184.256281 C291.373127,185.562318 290.999014,186.858817 290.59429,188.144882 C290.428501,188.671696 289.867037,188.964365 289.340223,188.798577 C288.813409,188.632788 288.52074,188.071324 288.686528,187.54451 C289.081655,186.288943 289.446896,185.023189 289.781862,183.748117 Z M292.456207,175.154209 L292.5724,175.166242 C293.117559,175.254675 293.487808,175.768303 293.399374,176.313462 C293.18302,177.647198 292.935118,178.973687 292.655981,180.29209 C292.541585,180.832397 292.010843,181.177667 291.470536,181.063271 C290.930229,180.948875 290.584959,180.418133 290.699355,179.877826 C290.971891,178.590601 291.213934,177.29546 291.42518,175.993215 C291.513613,175.448057 292.027242,175.077808 292.5724,175.166242 Z M293.266514,167.176122 L293.383325,167.177033 C293.934428,167.213143 294.351913,167.689173 294.315804,168.240276 C294.227408,169.589369 294.107305,170.933365 293.95573,172.271494 C293.893567,172.82027 293.398305,173.214748 292.84953,173.152585 C292.300754,173.090423 291.906276,172.595161 291.968438,172.046385 C292.116461,170.739624 292.233753,169.427085 292.320083,168.109512 C292.356192,167.558408 292.832222,167.140924 293.383325,167.177033 Z M293.435744,159.136014 C293.987799,159.120109 294.448223,159.554745 294.464128,160.1068 C294.488062,160.937538 294.5,161.768675 294.499999,162.609429 C294.499943,163.128508 294.495233,163.64705 294.485878,164.165015 C294.475905,164.71721 294.020179,165.156767 293.467984,165.146795 C292.915789,165.136822 292.476231,164.681095 292.486204,164.1289 C292.495343,163.6229 292.499944,163.116324 292.499999,162.609319 C292.5,161.78785 292.488338,160.975915 292.464957,160.164399 C292.449052,159.612343 292.883688,159.15192 293.435744,159.136014 Z M292.734922,151.170333 C293.283013,151.102406 293.782395,151.491655 293.850323,152.039747 C294.015864,153.37546 294.14998,154.717267 294.25243,156.064395 C294.29431,156.615089 293.881835,157.095466 293.33114,157.137347 C292.780446,157.179227 292.300069,156.766752 292.258188,156.216057 C292.158136,154.900452 292.027163,153.590095 291.865508,152.285734 C291.79758,151.737643 292.18683,151.238261 292.734922,151.170333 Z M291.276768,143.293227 C291.81586,143.173237 292.350152,143.512987 292.470142,144.052079 C292.762855,145.367182 293.024401,146.690614 293.254458,148.021529 C293.348529,148.565743 292.983616,149.083176 292.439402,149.177247 C291.895187,149.271318 291.377755,148.906404 291.283684,148.36219 C291.059063,147.062723 290.803702,145.770587 290.517915,144.486601 C290.397925,143.947509 290.737675,143.413217 291.276768,143.293227 Z M289.072871,135.599917 C289.597977,135.428796 290.16238,135.715758 290.3335,136.240864 C290.751589,137.523823 291.139105,138.817486 291.495637,140.12095 C291.641349,140.653666 291.32762,141.203641 290.794904,141.349353 C290.262188,141.495065 289.712213,141.181336 289.566501,140.64862 C289.218423,139.376064 288.840097,138.11308 288.431924,136.860546 C288.260803,136.33544 288.547765,135.771037 289.072871,135.599917 Z M286.134259,128.137248 C286.640503,127.916485 287.229857,128.147913 287.45062,128.654156 C287.98965,129.890234 288.499189,131.13943 288.978732,132.400804 C289.174993,132.91704 288.915601,133.494633 288.399364,133.690894 C287.883128,133.887154 287.305535,133.627762 287.109274,133.111525 C286.641092,131.880035 286.14362,130.660424 285.617351,129.453609 C285.396588,128.947366 285.628016,128.358011 286.134259,128.137248 Z M282.515946,121.02954 C282.998871,120.761582 283.607583,120.935848 283.87554,121.418774 C284.529945,122.598172 285.156202,123.793133 285.753711,125.002701 C285.998315,125.497865 285.795195,126.097565 285.300031,126.342169 C284.804867,126.586773 284.205167,126.383654 283.960563,125.88849 C283.377162,124.707479 282.765682,123.540716 282.126712,122.389134 C281.858754,121.906208 282.03302,121.297497 282.515946,121.02954 Z M278.216784,114.265955 C278.671985,113.953209 279.29453,114.068692 279.607276,114.523893 C280.371333,115.635979 281.108872,116.766071 281.819194,117.913215 C282.109946,118.382769 281.964999,118.99912 281.495444,119.289872 C281.02589,119.580625 280.409539,119.435677 280.118787,118.966122 C279.425165,117.845948 278.704957,116.742412 277.958845,115.656447 C277.646099,115.201245 277.761582,114.578701 278.216784,114.265955 Z M273.290645,107.937366 C273.714082,107.582797 274.344781,107.638625 274.699351,108.062062 C275.565589,109.096548 276.407202,110.151406 277.223403,111.225708 C277.557512,111.665469 277.471864,112.292815 277.032103,112.626924 C276.592342,112.961032 275.964996,112.875384 275.630887,112.435623 C274.833808,111.38649 274.011907,110.356337 273.16595,109.346072 C272.81138,108.922635 272.867208,108.291936 273.290645,107.937366 Z M267.779239,102.097608 C268.167112,101.70445 268.800262,101.700165 269.193421,102.088037 C270.15392,103.035624 271.09189,104.005834 272.006472,104.997788 C272.380839,105.403827 272.355165,106.036471 271.949126,106.410838 C271.543088,106.785206 270.910444,106.759532 270.536076,106.353493 C269.642883,105.384738 268.726848,104.437217 267.78881,103.511789 C267.395652,103.123917 267.391367,102.490766 267.779239,102.097608 Z M261.756449,96.8215361 C262.105365,96.3934284 262.735267,96.3292309 263.163375,96.6781468 C264.209449,97.530717 265.235232,98.4080068 266.239811,99.309203 C266.650916,99.6780003 266.685213,100.310236 266.316416,100.72134 C265.947618,101.132445 265.315383,101.166742 264.904278,100.797945 C263.923204,99.9178342 262.921426,99.0610747 261.899839,98.2284616 C261.471731,97.8795457 261.407533,97.2496437 261.756449,96.8215361 Z M255.315631,92.1758052 C255.622714,91.7167645 256.243781,91.5935787 256.702821,91.900662 C257.824264,92.6508706 258.927764,93.4276588 260.012374,94.2302955 C260.456318,94.5588248 260.549881,95.1850388 260.221352,95.6289835 C259.892822,96.0729282 259.266608,96.1664908 258.822663,95.8379614 C257.763494,95.0541514 256.685889,94.2955913 255.590774,93.5629952 C255.131734,93.2559119 255.008548,92.6348458 255.315631,92.1758052 Z M244.758009,78.6153918 L242.875937,84.4033415 C243.973104,84.8722328 245.059968,85.3642061 246.135872,85.8788868 C246.634085,86.1172175 246.844762,86.7143048 246.606431,87.2125185 C246.368101,87.7107322 245.771014,87.921409 245.2728,87.6830782 C244.084486,87.114624 242.882492,86.5745468 241.667745,86.0633748 L242.253,86.314 L240.427865,91.928913 L229.279416,80.9420078 L244.758009,78.6153918 Z M248.40315,88.1256298 C248.665095,87.6394166 249.271597,87.4576114 249.75781,87.7195564 C250.945826,88.3595948 252.118324,89.0278625 253.274344,89.7237204 C253.747518,90.0085444 253.900206,90.6230232 253.615382,91.0961974 C253.330558,91.5693715 252.716079,91.7220595 252.242905,91.4372355 C251.114107,90.7577637 249.969234,90.1052407 248.809223,89.48029 C248.32301,89.218345 248.141204,88.6118429 248.40315,88.1256298 Z"
                fill="#1E1B18" fill-rule="nonzero"></path>
            <path id="Path"
                d="M81.7465537,245.516661 C82.9891261,245.571952 84.2355939,245.599783 85.4852161,245.599999 L85.4852161,245.599999 L85.7154133,245.599726 C86.2676963,245.598324 86.7165472,246.044901 86.7179499,246.597183 C86.7193525,247.149466 86.2727758,247.598317 85.7204928,247.59972 L85.7204928,247.59972 L85.4850291,247.599999 C84.2057148,247.599778 82.9297195,247.571288 81.657648,247.514684 C81.1059092,247.490134 80.6785388,247.022959 80.7030894,246.47122 C80.72764,245.919481 81.1948149,245.492111 81.7465537,245.516661 Z M93.6095271,245.208947 C94.1592343,245.155652 94.6480649,245.558073 94.7013607,246.10778 C94.7546565,246.657487 94.3522356,247.146317 93.8025284,247.199613 C92.4620481,247.329577 91.1160586,247.428054 89.7653163,247.494821 C89.213705,247.522087 88.7444322,247.097021 88.7171661,246.54541 C88.6898999,245.993799 89.1149657,245.524526 89.6665769,245.49726 C90.9858403,245.432049 92.3004005,245.335871 93.6095271,245.208947 Z M73.722131,244.777767 L73.8385531,244.787341 C75.141165,244.970477 76.4501406,245.122907 77.7647167,245.24438 C78.3146585,245.295197 78.719279,245.782209 78.6684619,246.332151 C78.6176447,246.882093 78.1306332,247.286713 77.5806914,247.235896 C76.2345474,247.111506 74.8940897,246.95541 73.5601078,246.767863 C73.0132017,246.690972 72.6321788,246.185285 72.7090693,245.638379 C72.7859599,245.091473 73.2916469,244.71045 73.8385531,244.787341 Z M101.437192,244.071611 C101.979321,243.966184 102.504268,244.320201 102.609695,244.86233 C102.715122,245.404459 102.361105,245.929406 101.818976,246.034833 C100.495814,246.292146 99.1649548,246.518134 97.8272255,246.712497 C97.2806795,246.791906 96.7732422,246.413217 96.6938327,245.866671 C96.6144231,245.320125 96.993112,244.812688 97.5396581,244.733279 C98.845843,244.543498 100.145288,244.322845 101.437192,244.071611 Z M64.8401277,244.046596 C64.969098,243.509581 65.5089857,243.178795 66.0460007,243.307765 C67.3256463,243.615087 68.6138368,243.892044 69.9097422,244.138309 C70.452317,244.241416 70.8085758,244.764845 70.7054687,245.30742 C70.6023615,245.849994 70.0789328,246.206253 69.5363581,246.103146 C68.2090587,245.850915 66.8896399,245.567244 65.5789581,245.252469 C65.0419431,245.123498 64.7111575,244.583611 64.8401277,244.046596 Z M109.114847,242.192666 C109.644385,242.035797 110.200828,242.337906 110.357697,242.867444 C110.514566,243.396982 110.212458,243.953425 109.68292,244.110293 C108.390004,244.493303 107.087068,244.845552 105.775,245.166653 C105.238547,245.29794 104.697237,244.969486 104.565951,244.433033 C104.434665,243.896579 104.763118,243.355269 105.299572,243.223983 C106.580542,242.910492 107.852588,242.566595 109.114847,242.192666 Z M57.1679353,241.708453 C57.3479181,241.186319 57.9170968,240.90895 58.4392315,241.088933 C59.6838273,241.517952 60.9392684,241.917319 62.204671,242.286617 C62.7348393,242.441343 63.0391957,242.996559 62.8844699,243.526727 C62.7297442,244.056896 62.174528,244.361252 61.6443597,244.206526 C60.3482195,243.828257 59.062282,243.419189 57.7874561,242.97975 C57.2653214,242.799767 56.9879525,242.230588 57.1679353,241.708453 Z M116.592443,239.580217 C117.104464,239.373208 117.687353,239.62047 117.894362,240.132491 C118.101371,240.644512 117.85411,241.227401 117.342088,241.43441 C116.091646,241.93996 114.828769,242.415681 113.554387,242.861093 C113.033029,243.043314 112.462666,242.76839 112.280445,242.247032 C112.098224,241.725674 112.373148,241.155311 112.894506,240.97309 C114.138679,240.538236 115.371627,240.073789 116.592443,239.580217 Z M49.7561421,238.644187 C49.98542,238.141743 50.5785979,237.920298 51.081042,238.149576 C52.2794513,238.69644 53.4910896,239.214688 54.7150355,239.703811 C55.2278848,239.90876 55.4774875,240.49065 55.2725386,241.0035 C55.0675898,241.516349 54.4856995,241.765952 53.9728501,241.561003 C52.719219,241.060017 51.478205,240.529204 50.2507533,239.969087 C49.7483092,239.739809 49.5268642,239.146631 49.7561421,238.644187 Z M123.776603,236.266661 C124.266466,236.011606 124.870341,236.201955 125.125396,236.691818 C125.380451,237.18168 125.190101,237.785555 124.700239,238.04061 C123.503298,238.663817 122.291459,239.25844 121.065677,239.823904 C120.564181,240.055248 119.970097,239.836247 119.738752,239.334751 C119.507408,238.833255 119.726409,238.23917 120.227905,238.007826 C121.424715,237.455728 122.607925,236.875152 123.776603,236.266661 Z M42.6749012,234.885635 C42.9511761,234.407419 43.5628118,234.243713 44.0410279,234.519988 C45.1820751,235.179193 46.3387554,235.811147 47.510131,236.415243 C48.0009854,236.668384 48.1936903,237.271511 47.9405494,237.762366 C47.6874084,238.25322 47.084281,238.445925 46.5934265,238.192784 C45.3937482,237.574092 44.2091354,236.926878 43.0405482,236.251762 C42.5623321,235.975487 42.3986263,235.363851 42.6749012,234.885635 Z M130.593689,232.293708 C131.057093,231.993249 131.676325,232.125342 131.976784,232.588746 C132.277243,233.05215 132.14515,233.671383 131.681746,233.971841 C130.549545,234.70593 129.400014,235.413008 128.234109,236.092401 C127.756929,236.370462 127.144686,236.209045 126.866624,235.731865 C126.588563,235.254686 126.749981,234.642442 127.22716,234.364381 C128.365622,233.700979 129.48811,233.010536 130.593689,232.293708 Z M35.9915557,230.474043 C36.3120674,230.024275 36.936502,229.919493 37.3862694,230.240005 C38.4595975,231.004876 39.5509305,231.744145 40.6593373,232.457113 C41.1238271,232.75589 41.2581639,233.37464 40.9593869,233.83913 C40.66061,234.303619 40.04186,234.437956 39.5773702,234.139179 C38.4422964,233.409058 37.3247201,232.652012 36.2255938,231.868756 C35.7758265,231.548245 35.671044,230.92381 35.9915557,230.474043 Z M137.028352,227.672147 C137.461099,227.329002 138.090084,227.401639 138.433229,227.834386 C138.776374,228.267133 138.703737,228.896117 138.27099,229.239262 C137.213733,230.077611 136.136758,230.890778 135.041002,231.678002 C134.59247,232.000241 133.967637,231.89786 133.645399,231.449328 C133.32316,231.000797 133.42554,230.375964 133.874072,230.053725 C134.944134,229.28496 135.995867,228.490853 137.028352,227.672147 Z M29.7871294,225.474706 C30.1486366,225.057176 30.7801707,225.011761 31.1977003,225.373268 C32.1936546,226.235589 33.2098795,227.074208 34.2454743,227.888345 C34.6796532,228.229677 34.754921,228.858352 34.4135896,229.292531 C34.0722581,229.72671 33.4435828,229.801978 33.0094039,229.460646 C31.9489761,228.626987 30.9083903,227.768264 29.888567,226.885277 C29.4710374,226.52377 29.4256222,225.892236 29.7871294,225.474706 Z M142.999388,222.456811 C143.397629,222.074159 144.030668,222.086795 144.41332,222.485035 C144.795973,222.883275 144.783337,223.516314 144.385097,223.898967 C143.412185,224.833798 142.417269,225.745492 141.401244,226.63321 C140.985343,226.996589 140.353612,226.954013 139.990232,226.538112 C139.626852,226.122211 139.669429,225.490479 140.08533,225.127099 C141.077586,224.260148 142.049231,223.369779 142.999388,222.456811 Z M24.0720962,219.903223 C24.4713763,219.521655 25.1043784,219.536014 25.4859461,219.935294 C26.3959601,220.887551 27.3284055,221.818182 28.2824323,222.726339 C28.6824548,223.107128 28.6980465,223.740101 28.3172573,224.140124 C27.9364681,224.540146 27.3034951,224.555738 26.9034726,224.174949 C25.9266015,223.245046 24.9718295,222.292132 24.0400252,221.317073 C23.6584575,220.917793 23.6728162,220.284791 24.0720962,219.903223 Z M146.75512,218.608006 C147.12791,218.200519 147.76045,218.172391 148.167937,218.545182 C148.575424,218.917972 148.603552,219.550512 148.230761,219.957999 C147.910679,220.307873 147.587688,220.655081 147.261827,220.999585 C146.882309,221.400814 146.249389,221.418415 145.84816,221.038898 C145.44693,220.659381 145.429329,220.02646 145.808847,219.625231 C146.127087,219.288784 146.442524,218.949696 146.75512,218.608006 Z M18.877376,213.777407 C19.3110903,213.435486 19.9398674,213.509899 20.2817889,213.943613 C21.0973456,214.978115 21.9373577,215.993214 22.801044,216.98801 C23.1631182,217.405048 23.1185614,218.036644 22.7015234,218.398718 C22.2844854,218.760792 21.6528901,218.716235 21.2908159,218.299197 C20.4064311,217.280561 19.5462829,216.241128 18.7111704,215.18182 C18.3692489,214.748106 18.4436617,214.119329 18.877376,213.777407 Z M14.2965533,207.197514 C14.7608043,206.898366 15.3796613,207.032208 15.6788092,207.49646 C16.3926646,208.6043 17.1328068,209.695047 17.8985369,210.767769 C18.2194071,211.217281 18.1151225,211.841799 17.6656108,212.162669 C17.2160991,212.483539 16.5915812,212.379255 16.270711,211.929743 C15.4865767,210.831238 14.7286369,209.714263 13.9976075,208.57977 C13.6984596,208.115519 13.8323022,207.496662 14.2965533,207.197514 Z M10.3632835,200.210635 C10.8539647,199.957158 11.4572238,200.149451 11.7107003,200.640132 C12.3156823,201.81126 12.9485199,202.967671 13.608606,204.108427 C13.8852103,204.586453 13.721926,205.198202 13.2439004,205.474806 C12.7658747,205.75141 12.1541263,205.588126 11.877522,205.1101 C11.2015047,203.941812 10.5533853,202.757475 9.93378617,201.558052 C9.68030969,201.06737 9.87260217,200.464111 10.3632835,200.210635 Z M7.13330152,192.922679 C7.64589971,192.717103 8.22809502,192.965993 8.43367113,193.478591 C8.92445458,194.702346 9.44436915,195.913754 9.99290305,197.111894 C10.2228026,197.614054 10.0020919,198.207505 9.49993194,198.437405 C8.99777197,198.667305 8.40432046,198.446594 8.17442091,197.944434 C7.61259438,196.71726 7.08007519,195.476482 6.57738887,194.223048 C6.37181275,193.71045 6.62070333,193.128255 7.13330152,192.922679 Z M4.59931953,185.308724 C5.12930781,185.153383 5.68487708,185.457094 5.84021823,185.987082 C6.21078523,187.251372 6.61137885,188.505683 7.04158287,189.749132 C7.2221583,190.271062 6.94543572,190.840555 6.42350569,191.021131 C5.90157566,191.201706 5.33208246,190.924983 5.15150703,190.403053 C4.71085382,189.129402 4.30052926,187.844622 3.9209609,186.549622 C3.76561975,186.019634 4.06933126,185.464065 4.59931953,185.308724 Z M2.81411467,177.515222 C3.35653765,177.41132 3.88048806,177.766811 3.98439066,178.309234 C4.23273073,179.605692 4.51180042,180.89439 4.82126933,182.174496 C4.95104703,182.711317 4.62107368,183.251702 4.08425324,183.381479 C3.54743279,183.511257 3.00704822,183.181284 2.87727052,182.644463 C2.56029535,181.333308 2.27446,180.013366 2.02010326,178.685498 C1.91620067,178.143075 2.27169168,177.619125 2.81411467,177.515222 Z M1.77891086,169.567625 C2.32876981,169.515918 2.81643509,169.919751 2.86814174,170.46961 C2.9918146,171.784772 3.14648094,173.094292 3.33188855,174.397404 C3.40968447,174.944182 3.02949933,175.450499 2.48272128,175.528295 C1.93594323,175.606091 1.42962598,175.225906 1.35183006,174.679128 C1.16195661,173.344628 1.00356967,172.003607 0.876926335,170.656856 C0.825219681,170.106997 1.22905191,169.619332 1.77891086,169.567625 Z M1.50038666,161.567344 C2.05267137,161.567554 2.50021625,162.015439 2.50000614,162.567724 L2.50000614,162.567724 L2.50000002,162.598183 C2.5,163.910133 2.53034693,165.216851 2.59089086,166.519476 C2.61653251,167.071165 2.19008672,167.539184 1.63839754,167.564826 C1.08670836,167.590467 0.618689257,167.164022 0.59304761,166.612332 C0.531065946,165.278775 0.5,163.941095 0.500000019,162.598162 L0.500000019,162.598162 L0.500006284,162.566963 C0.500216399,162.014678 0.948101948,161.567133 1.50038666,161.567344 Z M1.85792798,153.556954 L1.97466268,153.561285 C2.52447217,153.613515 2.92784006,154.101565 2.87561009,154.651374 C2.75125234,155.960451 2.65762801,157.274918 2.59495481,158.594047 C2.56874476,159.14571 2.10028651,159.571673 1.54862405,159.545463 C0.99696158,159.519253 0.570998241,159.050795 0.5972083,158.499132 C0.661376444,157.148538 0.757238526,155.802653 0.884573798,154.462233 C0.936803772,153.912423 1.42485319,153.509055 1.97466268,153.561285 Z M2.03713145,146.425862 C2.14161268,145.88355 2.66594205,145.528619 3.20825388,145.6331 C3.75056571,145.737581 4.10549753,146.26191 4.0010163,146.804222 C3.75212422,148.096101 3.53379839,149.395477 3.34632903,150.701549 C3.2678601,151.248231 2.76107524,151.627793 2.21439337,151.549324 C1.66771149,151.470855 1.28814991,150.96407 1.36661883,150.417388 C1.55861489,149.079779 1.78221807,147.748995 2.03713145,146.425862 Z M3.95279595,138.542033 C4.1088466,138.012253 4.66482203,137.709285 5.19460183,137.865336 C5.72438164,138.021387 6.02734898,138.577362 5.87129833,139.107142 C5.49937571,140.36979 5.15748712,141.642185 4.84600605,142.923466 C4.71554457,143.46012 4.17474006,143.789405 3.63808538,143.658943 C3.1014307,143.528482 2.77214605,142.987677 2.90260754,142.451023 C3.22164996,141.138638 3.5718406,139.835346 3.95279595,138.542033 Z M6.6135219,130.887004 C6.81968635,130.374643 7.402167,130.126421 7.91452885,130.332585 C8.4268907,130.538749 8.67511274,131.12123 8.46894828,131.633592 C7.97727326,132.855507 7.51475676,134.08952 7.08186382,135.334722 C6.90050946,135.856382 6.3306038,136.132254 5.80894392,135.9509 C5.28728403,135.769545 5.01141189,135.199639 5.19276625,134.67798 C5.63617024,133.402543 6.1099147,132.138574 6.6135219,130.887004 Z M9.96066032,123.589969 C10.2144756,123.099463 10.8178673,122.907587 11.3083734,123.161403 C11.7988795,123.415218 11.9907554,124.01861 11.7369401,124.509116 C11.1316517,125.678855 10.5542928,126.863051 10.0054224,128.060774 C9.77534001,128.56285 9.18180819,128.783345 8.67973195,128.553262 C8.17765572,128.32318 7.95716113,127.729648 8.1872435,127.227572 C8.74940231,126.000852 9.34073246,124.788 9.96066032,123.589969 Z M14.0271755,116.574376 C14.326621,116.110316 14.9455637,115.976871 15.4096229,116.276316 C15.873682,116.575762 16.0071277,117.194704 15.7076823,117.658763 C14.9934851,118.765575 14.305695,119.889233 13.6449656,121.0288 C13.3679432,121.506583 12.7560521,121.669332 12.2782687,121.39231 C11.8004852,121.115287 11.6377362,120.503396 11.9147586,120.025613 C12.5914168,118.858573 13.295779,117.707842 14.0271755,116.574376 Z M18.752388,109.965939 C19.0946474,109.532491 19.7234823,109.458568 20.1569301,109.800828 C20.5903778,110.143087 20.6643005,110.771922 20.3220411,111.20537 C19.5056914,112.23922 18.7139658,113.292257 17.9476061,114.363562 C17.6262804,114.812749 17.0016571,114.9164 16.5524709,114.595074 C16.1032847,114.273749 15.9996334,113.649125 16.3209591,113.199939 C17.1057213,112.102908 17.9164506,111.024595 18.752388,109.965939 Z M24.0770239,103.844235 C24.4588415,103.445194 25.0918525,103.431231 25.4908936,103.813049 C25.8899347,104.194867 25.9038971,104.827878 25.5220796,105.226919 C24.6108923,106.179209 23.7223596,107.152949 22.8573012,108.14726 C22.4947986,108.563925 21.8631579,108.607833 21.4464922,108.245331 C21.0298264,107.882828 20.9859184,107.251188 21.348421,106.834522 C22.2342017,105.816392 23.1440154,104.819331 24.0770239,103.844235 Z M29.9554629,98.2568635 C30.3733664,97.8957886 31.0048532,97.9418573 31.3659281,98.3597608 C31.7270031,98.7776643 31.6809344,99.4091511 31.2630309,99.770226 C30.2659925,100.631682 29.2894358,101.516675 28.3342399,102.424387 C27.9338916,102.804833 27.3009322,102.7887 26.9204856,102.388352 C26.5400389,101.988003 26.5561724,101.355044 26.9565208,100.974597 C27.9345925,100.045146 28.9345394,99.1389568 29.9554629,98.2568635 Z M36.3013393,93.2773285 C36.751456,92.9573075 37.3757759,93.0627709 37.6957969,93.5128876 C38.0158179,93.9630043 37.9103545,94.5873242 37.4602378,94.9073452 C36.385885,95.6711814 35.3297587,96.4604778 34.2927792,97.2744934 C33.8583541,97.6155114 33.2297333,97.5397901 32.8887152,97.1053651 C32.5476971,96.6709401 32.6234184,96.0423192 33.0578434,95.7013011 C34.1197067,94.8677522 35.2011855,94.0595085 36.3013393,93.2773285 Z M43.1350291,88.8937356 C43.6135997,88.6180753 44.2250247,88.7825666 44.500685,89.2611373 C44.7763453,89.7397079 44.611854,90.3511329 44.1332834,90.6267932 C42.9917652,91.2843162 41.8660878,91.9689498 40.7571875,92.680043 C40.29228,92.9781695 39.6737186,92.8429668 39.3755921,92.3780593 C39.0774656,91.9131517 39.2126683,91.2945904 39.6775758,90.9964639 C40.8131842,90.2682439 41.9659879,89.5671122 43.1350291,88.8937356 Z M50.3316578,85.194046 C50.8343427,84.9652965 51.4272875,85.187365 51.656037,85.6900499 C51.8847865,86.1927348 51.662718,86.7856795 51.1600331,87.014429 C49.9609683,87.56007 48.7753608,88.1342293 47.6041416,88.7363505 C47.1129639,88.9888638 46.5100833,88.7953882 46.25757,88.3042106 C46.0050566,87.813033 46.1985323,87.2101523 46.6897099,86.957639 C47.8892595,86.3409532 49.1035601,85.7528986 50.3316578,85.194046 Z M64.247006,74.0968367 C64.7841223,73.9682889 65.3237496,74.2994992 65.4522973,74.8366155 L65.4522973,74.8366155 L68.2453724,86.5070367 C68.3739202,87.044153 68.0427099,87.5837804 67.5055936,87.7123281 C66.9684773,87.8408758 66.42885,87.5096656 66.3003022,86.9725493 L66.3003022,86.9725493 L65.1383314,82.115674 C64.1826826,82.3566814 63.2320779,82.6146544 62.2868763,82.8894383 C61.7565474,83.0436126 61.2016479,82.7386791 61.0474736,82.2083502 C60.8932993,81.6780213 61.1982328,81.1231218 61.7285617,80.9689475 C63.0239486,80.5923597 64.3292377,80.2465993 65.6435435,79.9320473 L64.672,80.17 L63.5072271,75.302128 C63.3878614,74.8033772 63.6649196,74.3024612 64.1351538,74.1305239 Z M57.866801,82.1929439 C58.3891144,82.0134806 58.9580169,82.2914156 59.1374802,82.8137291 C59.3169435,83.3360426 59.0390085,83.9049451 58.516695,84.0844084 C57.2708186,84.5124829 56.0360281,84.9701742 54.8132265,85.457022 C54.3001148,85.6613129 53.718545,85.4109642 53.514254,84.8978524 C53.3099631,84.3847407 53.5603118,83.8031709 54.0734236,83.59888 C55.3259033,83.1002162 56.5906716,82.6314131 57.866801,82.1929439 Z"
                fill="#E64980" fill-rule="nonzero"></path>
            <path
                d="M147.498739,219.276663 C156.932813,208.962422 163.827201,196.286253 167.191974,182.238082"
                id="Path" stroke="#12B886" stroke-width="2" stroke-linecap="round"
                stroke-dasharray="4"></path>
            <text id="a1" font-family="Merriweather-BoldItalic, Merriweather" font-size="10"
                font-style="italic" font-weight="bold" fill="#DEE2E6">
                <tspan x="142.805" y="10">a1</tspan>
            </text>
            <text id="v1" font-family="Merriweather-BoldItalic, Merriweather" font-size="10"
                font-style="italic" font-weight="bold" fill="#1E1B18">
                <tspan x="235.115" y="73">v1</tspan>
            </text>
            <text id="v2" font-family="Merriweather-BoldItalic, Merriweather" font-size="10"
                font-style="italic" font-weight="bold" fill="#1E1B18">
                <tspan x="108.375" y="172">v2</tspan>
            </text>
            <text id="v3" font-family="Merriweather-BoldItalic, Merriweather" font-size="10"
                font-style="italic" font-weight="bold" fill="#1E1B18">
                <tspan x="49.195" y="74">v3</tspan>
            </text>
            <text id="v4" font-family="Merriweather-BoldItalic, Merriweather" font-size="10"
                font-style="italic" font-weight="bold" fill="#1E1B18">
                <tspan x="174.3" y="169">v4</tspan>
            </text>
            <text id="v5" font-family="Merriweather-BoldItalic, Merriweather" font-size="10"
                font-style="italic" font-weight="bold" fill="#DEE2E6">
                <tspan x="143.13" y="95">v5</tspan>
            </text>
            <text id="v6" font-family="Merriweather-BoldItalic, Merriweather" font-size="10"
                font-style="italic" font-weight="bold" fill="#1E1B18">
                <tspan x="141.89" y="238">v6</tspan>
            </text>
            <text id="c1" font-family="Merriweather-BoldItalic, Merriweather" font-size="10"
                font-style="italic" font-weight="bold" fill="#DEE2E6">
                <tspan x="143.95" y="48">c1</tspan>
            </text>
            <text id="c2" font-family="Merriweather-BoldItalic, Merriweather" font-size="10"
                font-style="italic" font-weight="bold" fill="#DEE2E6">
                <tspan x="230.71" y="199">c2</tspan>
            </text>
            <text id="c3" font-family="Merriweather-BoldItalic, Merriweather" font-size="10"
                font-style="italic" font-weight="bold" fill="#DEE2E6">
                <tspan x="45.03" y="199">c3</tspan>
            </text>
            <text id="a2" font-family="Merriweather-BoldItalic, Merriweather" font-size="10"
                font-style="italic" font-weight="bold" fill="#1E1B18">
                <tspan x="223.065" y="157">a2</tspan>
            </text>
            <text id="a3" font-family="Merriweather-BoldItalic, Merriweather" font-size="10"
                font-style="italic" font-weight="bold" fill="#DEE2E6">
                <tspan x="142.885" y="179">a3</tspan>
            </text>
            <text id="a4" font-family="Merriweather-BoldItalic, Merriweather" font-size="10"
                font-style="italic" font-weight="bold" fill="#DEE2E6">
                <tspan x="61.99" y="157">a4</tspan>
            </text>
            <text id="a5" font-family="Merriweather-BoldItalic, Merriweather" font-size="10"
                font-style="italic" font-weight="bold" fill="#DEE2E6">
                <tspan x="171.82" y="76">a5</tspan>
            </text>
            <text id="a6" font-family="Merriweather-BoldItalic, Merriweather" font-size="10"
                font-style="italic" font-weight="bold" fill="#1E1B18">
                <tspan x="277.08" y="226">a6</tspan>
            </text>
            <text id="a7" font-family="Merriweather-BoldItalic, Merriweather" font-size="10"
                font-style="italic" font-weight="bold" fill="#1E1B18">
                <tspan x="114.89" y="205">a7</tspan>
            </text>
            <text id="a8" font-family="Merriweather-BoldItalic, Merriweather" font-size="10"
                font-style="italic" font-weight="bold" fill="#DEE2E6">
                <tspan x="111.04" y="142">a8</tspan>
            </text>
            <text id="a9" font-family="Merriweather-BoldItalic, Merriweather" font-size="10"
                font-style="italic" font-weight="bold" fill="#DEE2E6">
                <tspan x="105.02" y="76">a9</tspan>
            </text>
            <text id="a10" font-family="Merriweather-BoldItalic, Merriweather" font-size="10"
                font-style="italic" font-weight="bold" fill="#DEE2E6">
                <tspan x="171.685" y="141">a10</tspan>
            </text>
            <text id="a11" font-family="Merriweather-BoldItalic, Merriweather" font-size="10"
                font-style="italic" font-weight="bold" fill="#1E1B18">
                <tspan x="166.045" y="209">a11</tspan>
            </text>
            <text id="a12" font-family="Merriweather-BoldItalic, Merriweather" font-size="10"
                font-style="italic" font-weight="bold" fill="#1E1B18">
                <tspan x="0.305" y="227">a12</tspan>
            </text>
        </g>
    </g>
</svg>
