<?xml version="1.0" encoding="UTF-8"?>
<svg width="300px" height="260px" viewBox="0 0 300 260" version="1.1"
    xmlns="http://www.w3.org/2000/svg" xmlns:xlink="http://www.w3.org/1999/xlink">
    <!-- Generator: Sketch 57.1 (83088) - https://sketch.com -->
    <title>writings-circles-4</title>
    <desc>Created with Sketch.</desc>
    <g id="writings-circles-4" stroke="none" stroke-width="1" fill="none" fill-rule="evenodd">
        <rect fill="var(--color-background-shade-1)" x="0" y="0" width="300" height="260"></rect>
        <g id="Group-Copy-2" transform="translate(3.000000, 7.000000)">
            <path
                d="M84.5,246.6 C109.067501,246.6 131.171677,236.053255 146.531839,219.240455 C160.176963,204.304887 168.5,184.424418 168.5,162.6 C168.5,140.785556 160.184568,120.913285 146.550544,105.980026 C131.189625,89.1553109 109.077475,78.6 84.5,78.6 C38.108081,78.6 0.5,116.208081 0.5,162.6 C0.5,208.991919 38.108081,246.6 84.5,246.6 Z"
                id="Oval" stroke="#DEE2E6" stroke-width="2"></path>
            <circle id="Oval-Copy" stroke="#DEE2E6" stroke-width="2" cx="208.5" cy="162.6" r="84"></circle>
            <circle id="Oval-Copy-2" stroke="#DEE2E6" stroke-width="2" cx="146.5" cy="100.6" r="84"></circle>
            <path id="Path"
                d="M166.031779,178.224579 C166.135116,177.682048 166.658695,177.32601 167.201226,177.429347 C167.743757,177.532684 168.099795,178.056263 167.996458,178.598794 C167.745476,179.916484 167.463504,181.226396 167.150871,182.527693 C167.021857,183.064698 166.481943,183.39544 165.944938,183.266426 C165.407934,183.137412 165.077192,182.597498 165.206205,182.060493 C165.511435,180.79001 165.786734,179.511102 166.031779,178.224579 Z M168.111692,169.47346 L168.228435,169.477556 C168.778349,169.528674 169.182703,170.015906 169.131585,170.56582 C169.00646,171.911886 168.849629,173.252253 168.661349,174.586133 C168.584158,175.132996 168.078261,175.513741 167.531397,175.43655 C166.984534,175.359359 166.603789,174.853462 166.68098,174.306598 C166.864833,173.004089 167.01798,171.695203 167.14017,170.380706 C167.191288,169.830792 167.678521,169.426438 168.228435,169.477556 Z M168.498556,161.482946 C169.050841,161.482193 169.499166,161.929297 169.499919,162.481581 L169.499919,162.481581 L169.5,162.6 C169.5,163.912218 169.470258,165.220945 169.410943,166.525529 C169.385858,167.077244 168.91827,167.504162 168.366556,167.479077 C167.814841,167.453993 167.387922,166.986405 167.413007,166.43469 C167.470946,165.160364 167.5,163.881924 167.5,162.6 L167.5,162.6 L167.499921,162.484309 C167.499168,161.932025 167.946272,161.483699 168.498556,161.482946 Z M168.015881,153.473314 C168.565635,153.420507 169.054107,153.823363 169.106913,154.373118 C169.235655,155.713418 169.332924,157.059206 169.398497,158.409726 C169.425281,158.961361 168.999806,159.430262 168.448171,159.457046 C167.896536,159.483831 167.427635,159.058355 167.400851,158.50672 C167.336805,157.187669 167.241808,155.873302 167.116077,154.564347 C167.06327,154.014592 167.466126,153.52612 168.015881,153.473314 Z M166.776094,145.556963 C167.318309,145.451978 167.842968,145.806422 167.947953,146.348636 C168.204135,147.671729 168.429001,149.002498 168.622253,150.340114 C168.701225,150.886724 168.322129,151.393858 167.77552,151.472829 C167.22891,151.551801 166.721777,151.172705 166.642805,150.626096 C166.454109,149.320018 166.234551,148.02066 165.984421,146.728822 C165.879435,146.186608 166.23388,145.661949 166.776094,145.556963 Z M164.795851,137.834326 C165.32557,137.678069 165.881664,137.98082 166.037921,138.510539 C166.419473,139.804021 166.770249,141.107497 167.089864,142.420078 C167.220528,142.956684 166.891447,143.497612 166.354842,143.628276 C165.818236,143.75894 165.277307,143.42986 165.146644,142.893254 C164.834604,141.611782 164.492144,140.339208 164.119638,139.076395 C163.963382,138.546676 164.266132,137.990583 164.795851,137.834326 Z M162.065399,130.28442 C162.577632,130.077935 163.160267,130.325793 163.366752,130.838026 C163.870985,132.088891 164.345381,133.352163 164.789462,134.626913 C164.971151,135.148457 164.695644,135.718539 164.174101,135.900228 C163.652557,136.081916 163.082475,135.80641 162.900786,135.284866 C162.467232,134.040334 162.004079,132.807001 161.511793,131.585773 C161.305308,131.07354 161.553166,130.490905 162.065399,130.28442 Z M158.638809,123.06241 C159.128975,122.807938 159.732623,122.999005 159.987095,123.489171 C160.608873,124.686842 161.202051,125.899381 161.766052,127.125833 C161.996799,127.627604 161.77709,128.221427 161.275319,128.452174 C160.773548,128.682921 160.179724,128.463212 159.948978,127.961441 C159.398307,126.763979 158.819144,125.580086 158.212048,124.410696 C157.957576,123.920531 158.148643,123.316882 158.638809,123.06241 Z M154.525622,116.178683 C154.989263,115.878591 155.608391,116.011174 155.908483,116.474816 C156.641669,117.607588 157.34783,118.757672 158.026294,119.924108 C158.303977,120.401508 158.142074,121.013623 157.664674,121.291306 C157.187274,121.568988 156.575158,121.407085 156.297476,120.929685 C155.634982,119.790706 154.945434,118.66768 154.229488,117.561544 C153.929397,117.097902 154.06198,116.478774 154.525622,116.178683 Z M142.015972,100.647329 C144.961139,98.1429542 149.378865,98.5002867 151.883241,101.445454 C154.176375,104.142199 154.070204,108.073564 151.774981,110.640192 C152.407548,111.458552 153.026213,112.289187 153.629582,113.130872 C153.951355,113.579738 153.848326,114.204464 153.39946,114.526237 C152.950595,114.848011 152.325868,114.744982 152.004095,114.296116 C151.430795,113.496376 150.843349,112.706844 150.242067,111.927905 C147.347652,113.730058 143.49311,113.190327 141.217847,110.514598 C138.713472,107.569431 139.070805,103.151704 142.015972,100.647329 Z"
                fill="#20C997" fill-rule="nonzero"></path>
            <path id="Path"
                d="M141.363871,214.519003 C141.736383,214.111262 142.368904,214.082703 142.776645,214.455215 L142.776645,214.455215 L146.463802,217.823449 C146.716849,217.539718 146.967957,217.254261 147.217105,216.967099 C147.579041,216.549941 148.210622,216.505175 148.62778,216.867111 C149.044938,217.229046 149.089704,217.860627 148.727768,218.277785 C148.250064,218.828375 147.765325,219.372843 147.273684,219.911046 L147.939,219.172 L151.636019,222.549132 C152.012395,222.89299 152.065682,223.458393 151.778662,223.864043 L151.699807,223.961906 C151.327295,224.369648 150.694774,224.398207 150.287033,224.025695 L150.287033,224.025695 L141.427659,215.931777 C141.019917,215.559265 140.991359,214.926744 141.363871,214.519003 Z M152.092171,210.780784 C152.413127,210.331334 153.037665,210.22717 153.487115,210.548126 C153.936565,210.869083 154.04073,211.493621 153.719773,211.943071 C152.935672,213.041084 152.125571,214.120389 151.29023,215.180044 C150.94832,215.613768 150.319544,215.688197 149.885821,215.346287 C149.452098,215.004377 149.377668,214.375602 149.719578,213.941879 C150.535345,212.907053 151.326457,211.853049 152.092171,210.780784 Z M156.38776,204.114707 C156.664406,203.636706 157.276169,203.473475 157.75417,203.750121 C158.232171,204.026768 158.395402,204.63853 158.118756,205.116532 C157.442754,206.284558 156.739013,207.436284 156.008204,208.57075 C155.709114,209.035039 155.090274,209.16896 154.625985,208.86987 C154.161697,208.570781 154.027776,207.951941 154.326865,207.487652 C155.040489,206.379864 155.727672,205.255237 156.38776,204.114707 Z M160.012692,197.09967 C160.24251,196.597473 160.835925,196.376665 161.338123,196.606483 C161.84032,196.836301 162.061128,197.429717 161.83131,197.931914 C161.269632,199.159291 160.678759,200.372806 160.059263,201.571503 C159.805699,202.062139 159.202406,202.254324 158.71177,202.00076 C158.221134,201.747195 158.028949,201.143902 158.282513,200.653266 C158.887379,199.482876 159.464292,198.298034 160.012692,197.09967 Z M162.959916,189.744799 C163.140462,189.222859 163.70994,188.946105 164.23188,189.126651 C164.75382,189.307198 165.030575,189.876675 164.850028,190.398615 C164.408623,191.674669 163.936866,192.939295 163.435231,194.191562 C163.229861,194.704243 162.647766,194.953367 162.135085,194.747997 C161.622404,194.542627 161.37328,193.960532 161.57865,193.447851 C162.068399,192.225255 162.528975,190.990603 162.959916,189.744799 Z M165.182234,182.160001 C165.311914,181.623157 165.852239,181.293086 166.389083,181.422767 C166.925927,181.552447 167.255998,182.092772 167.126317,182.629616 C166.809255,183.942171 166.46105,185.245673 166.082082,186.539238 C165.926809,187.069246 165.371279,187.373029 164.841271,187.217755 C164.311262,187.062482 164.00748,186.506952 164.162753,185.976944 C164.532735,184.71405 164.872686,183.441449 165.182234,182.160001 Z"
                fill="#E64980" fill-rule="nonzero"></path>
            <path id="Path"
                d="M141.78274,177.581112 L140.853599,183.411001 C141.772036,183.47269 142.692863,183.519327 143.615836,183.550839 C144.167799,183.569684 144.599977,184.032415 144.581132,184.584378 C144.562287,185.136341 144.099555,185.568519 143.547592,185.549674 C142.541685,185.51533 141.538229,185.463438 140.53753,185.394083 L139.579309,191.406628 L126.855509,182.290439 L141.78274,177.581112 Z M151.520518,183.450687 C152.071823,183.417801 152.545403,183.838062 152.57829,184.389366 C152.611177,184.940671 152.190916,185.414252 151.639611,185.447138 C150.295964,185.52729 148.947618,185.576004 147.595298,185.593086 C147.043057,185.600061 146.589723,185.158037 146.582748,184.605796 C146.575772,184.053555 147.017797,183.600221 147.570038,183.593245 C148.891053,183.576559 150.208113,183.528975 151.520518,183.450687 Z M159.382109,182.606451 C159.92781,182.521426 160.439114,182.894878 160.524138,183.440579 C160.609163,183.98628 160.235711,184.497584 159.69001,184.582608 C158.358815,184.790019 157.020802,184.966007 155.676772,185.110306 C155.127643,185.169262 154.634693,184.771898 154.575737,184.222769 C154.516781,183.67364 154.914145,183.18069 155.463274,183.121734 C156.775729,182.980825 158.082266,182.808977 159.382109,182.606451 Z M166.300347,181.223793 C166.836799,181.092502 167.378112,181.42095 167.509404,181.957402 C167.640695,182.493855 167.312247,183.035168 166.775795,183.166459 C165.754841,183.416327 164.728494,183.647303 163.697163,183.859223 C163.156181,183.970385 162.627514,183.621948 162.516352,183.080966 C162.40519,182.539984 162.753627,182.011317 163.294609,181.900154 C164.301531,181.69325 165.303576,181.467743 166.300347,181.223793 Z"
                fill="#1E1B18" fill-rule="nonzero"></path>
            <path id="Path"
                d="M169.920649,180.249936 C170.450571,180.094369 171.006269,180.397845 171.161836,180.927767 C171.317402,181.457689 171.013926,182.013387 170.484004,182.168954 C169.190303,182.548738 167.886646,182.897749 166.573918,183.215603 C166.037144,183.345574 165.496641,183.015794 165.366671,182.47902 C165.2367,181.942247 165.566479,181.401744 166.103253,181.271773 C167.38487,180.961452 168.657622,180.620715 169.920649,180.249936 Z M177.388778,177.662243 C177.901349,177.456599 178.483577,177.705412 178.689221,178.217982 C178.894866,178.730553 178.646053,179.312782 178.133482,179.518426 C176.881243,180.020827 175.616627,180.493345 174.340566,180.935505 C173.818721,181.116326 173.249097,180.839871 173.068276,180.318026 C172.887455,179.796181 173.16391,179.226558 173.685755,179.045737 C174.931566,178.614059 176.166209,178.15274 177.388778,177.662243 Z M184.590379,174.363321 C185.080887,174.109509 185.684278,174.301389 185.938089,174.791897 C186.191901,175.282405 186.000021,175.885795 185.509513,176.139607 C184.31108,176.759733 183.097814,177.351243 181.870673,177.913561 C181.368591,178.143632 180.775065,177.923124 180.544994,177.421042 C180.314923,176.918961 180.535431,176.325434 181.037512,176.095363 C182.235647,175.546337 183.420246,174.968803 184.590379,174.363321 Z M191.422885,170.404156 C191.887023,170.104832 192.505931,170.238441 192.805254,170.702579 C193.104578,171.166716 192.970969,171.785624 192.506832,172.084947 C191.37305,172.816126 190.222006,173.520259 189.054658,174.196677 C188.5768,174.473571 187.964953,174.310658 187.688058,173.8328 C187.411164,173.354942 187.574078,172.743095 188.051935,172.466201 C189.191804,171.805706 190.315766,171.118139 191.422885,170.404156 Z M197.876792,165.792041 C198.310333,165.4499 198.939147,165.523994 199.281289,165.957535 C199.62343,166.391076 199.549336,167.01989 199.115795,167.362032 C198.056591,168.197933 196.977726,169.008605 195.880138,169.793289 C195.430859,170.114485 194.806266,170.010654 194.485069,169.561376 C194.163873,169.112097 194.267703,168.487504 194.716982,168.166307 C195.788831,167.400024 196.842407,166.608355 197.876792,165.792041 Z M203.821901,160.62685 C204.221266,160.245371 204.854265,160.25987 205.235744,160.659234 C205.617223,161.058599 205.602724,161.691598 205.20336,162.073077 C204.227575,163.005162 203.229849,163.914037 202.211079,164.798866 C201.794108,165.161017 201.162505,165.116576 200.800354,164.699605 C200.438203,164.282634 200.482643,163.65103 200.899615,163.288879 C201.89455,162.42475 202.868938,161.537134 203.821901,160.62685 Z M209.287365,154.886014 C209.648764,154.468392 210.280287,154.422813 210.69791,154.784213 C211.115532,155.145612 211.161111,155.777135 210.799711,156.194758 C209.916376,157.215515 209.008937,158.215255 208.078231,159.193079 C207.697464,159.593123 207.064492,159.60875 206.664448,159.227983 C206.264404,158.847216 206.248778,158.214244 206.629544,157.8142 C207.538483,156.859246 208.424696,155.88289 209.287365,154.886014 Z M214.179324,148.658507 C214.499469,148.208479 215.123818,148.103188 215.573846,148.423333 C216.023875,148.743479 216.129165,149.367828 215.80902,149.817856 C215.026984,150.917164 214.218919,151.997812 213.385583,153.05886 C213.044457,153.4932 212.415818,153.568765 211.981477,153.227639 C211.547137,152.886513 211.471572,152.257873 211.812698,151.823533 C212.626506,150.787349 213.415628,149.732034 214.179324,148.658507 Z M218.464143,141.982448 C218.739908,141.503938 219.351369,141.33958 219.829879,141.615345 C220.30839,141.891111 220.472747,142.502572 220.196982,142.981082 C219.523104,144.150402 218.821454,145.303467 218.0927,146.439318 C217.794464,146.904155 217.175871,147.039212 216.711033,146.740976 C216.246196,146.44274 216.111139,145.824146 216.409376,145.359309 C217.12099,144.250172 217.80613,143.124239 218.464143,141.982448 Z M222.084908,134.941423 C222.313667,134.438743 222.906617,134.216686 223.409297,134.445445 C223.911977,134.674204 224.134034,135.267153 223.905275,135.769834 C223.346053,136.998681 222.757592,138.213714 222.140466,139.413976 C221.887929,139.905141 221.285039,140.098587 220.793873,139.84605 C220.302708,139.593512 220.109262,138.990622 220.361799,138.499457 C220.964351,137.327542 221.538906,136.14122 222.084908,134.941423 Z M224.988467,127.66212 C225.168459,127.139988 225.737642,126.862629 226.259774,127.042621 C226.781905,127.222613 227.059264,127.791797 226.879272,128.313928 C226.439215,129.590475 225.968792,130.85562 225.46848,132.108434 C225.263653,132.621332 224.681823,132.871073 224.168924,132.666247 C223.656026,132.461421 223.406285,131.87959 223.611111,131.366692 C224.099568,130.143564 224.558841,128.908405 224.988467,127.66212 Z M227.206305,120.060077 C227.335316,119.523072 227.875229,119.192327 228.412234,119.321338 C228.94924,119.450349 229.279984,119.990262 229.150973,120.527267 C228.835444,121.840649 228.488744,123.145002 228.111252,124.439442 C227.956632,124.969641 227.401477,125.274109 226.871278,125.119489 C226.341078,124.964869 226.036611,124.409714 226.191231,123.879515 C226.559772,122.615766 226.898254,121.342334 227.206305,120.060077 Z M229.698351,111.41678 L229.814772,111.426376 C230.361663,111.503371 230.742589,112.009131 230.665593,112.556023 C230.477205,113.894131 230.257203,115.225476 230.005883,116.549233 C229.90287,117.091826 229.379503,117.448176 228.83691,117.345162 C228.294318,117.242149 227.937968,116.718782 228.040981,116.17619 C228.286366,114.883694 228.501177,113.583765 228.685125,112.277198 C228.76212,111.730306 229.26788,111.349381 229.814772,111.426376 Z M230.458996,103.433215 C231.010724,103.457988 231.437906,103.925336 231.413133,104.477064 C231.352481,105.827849 231.260137,107.17398 231.136321,108.514705 C231.085534,109.064649 230.598544,109.469296 230.0486,109.418509 C229.498655,109.367721 229.094008,108.880732 229.144796,108.330787 C229.265717,107.021401 229.355906,105.706681 229.415146,104.387352 C229.439919,103.835623 229.907267,103.408441 230.458996,103.433215 Z M230.348347,95.4127187 C230.899967,95.3856311 231.369102,95.8108486 231.39619,96.3624686 C231.4622,97.7067163 231.496795,99.0554385 231.499788,100.407918 C231.501009,100.960201 231.054286,101.408906 230.502002,101.410128 C229.949719,101.41135 229.501014,100.964626 229.499792,100.412343 C229.496869,99.0911043 229.463075,97.7736134 229.398597,96.4605618 C229.371509,95.9089417 229.796727,95.4398064 230.348347,95.4127187 Z M229.48413,87.4589024 C230.030706,87.3797036 230.537998,87.7585881 230.617196,88.3051647 C230.81038,89.6383891 230.972121,90.9781859 231.102158,92.3237626 C231.155284,92.8734862 230.752712,93.3621922 230.202988,93.4153179 C229.653264,93.4684437 229.164558,93.0658715 229.111433,92.5161479 C228.984446,91.2021425 228.826507,89.8938275 228.637868,88.5919692 C228.558669,88.0453926 228.937553,87.5381013 229.48413,87.4589024 Z M233.894409,78.9952246 C234.432095,78.8690794 234.970236,79.2026988 235.096381,79.7403844 C235.222526,80.2780701 234.888907,80.8162113 234.351221,80.9423565 L234.351221,80.9423565 L229.477683,82.085992 C229.640564,82.8192062 229.793764,83.5550333 229.937224,84.2933256 C230.042571,84.83547 229.688476,85.3603651 229.146332,85.4657116 C228.604187,85.5710581 228.079292,85.2169634 227.973946,84.674819 C227.771683,83.6339147 227.549596,82.5980425 227.307854,81.5676335 L227.53,82.542 L222.66843,83.6832302 C222.169151,83.800365 221.669478,83.5210702 221.499645,83.0500721 L221.466458,82.9380704 C221.340313,82.4003847 221.673932,81.8622435 222.211618,81.7360983 L222.211618,81.7360983 L228.047,80.367 C228.055017,80.3651914 228.057021,80.3647276 228.059025,80.3642703 Z"
                fill="#E64980" fill-rule="nonzero"></path>
            <text id="a1" font-family="Merriweather-BoldItalic, Merriweather" font-size="10"
                font-style="italic" font-weight="bold" fill="#DEE2E6">
                <tspan x="141.805" y="10">a1</tspan>
            </text>
            <text id="v1" font-family="Merriweather-BoldItalic, Merriweather" font-size="10"
                font-style="italic" font-weight="bold" fill="#1E1B18">
                <tspan x="234.115" y="75">v1</tspan>
            </text>
            <text id="v2" font-family="Merriweather-BoldItalic, Merriweather" font-size="10"
                font-style="italic" font-weight="bold" fill="#1E1B18">
                <tspan x="110.375" y="172">v2</tspan>
            </text>
            <text id="v3" font-family="Merriweather-BoldItalic, Merriweather" font-size="10"
                font-style="italic" font-weight="bold" fill="#DEE2E6">
                <tspan x="49.195" y="76">v3</tspan>
            </text>
            <text id="v4" font-family="Merriweather-BoldItalic, Merriweather" font-size="10"
                font-style="italic" font-weight="bold" fill="#1E1B18">
                <tspan x="172.3" y="169">v4</tspan>
            </text>
            <text id="v5" font-family="Merriweather-BoldItalic, Merriweather" font-size="10"
                font-style="italic" font-weight="bold" fill="#1E1B18">
                <tspan x="142.13" y="95">v5</tspan>
            </text>
            <text id="v6" font-family="Merriweather-BoldItalic, Merriweather" font-size="10"
                font-style="italic" font-weight="bold" fill="#1E1B18">
                <tspan x="139.89" y="237">v6</tspan>
            </text>
            <text id="c1" font-family="Merriweather-BoldItalic, Merriweather" font-size="10"
                font-style="italic" font-weight="bold" fill="#DEE2E6">
                <tspan x="142.95" y="48">c1</tspan>
            </text>
            <text id="c2" font-family="Merriweather-BoldItalic, Merriweather" font-size="10"
                font-style="italic" font-weight="bold" fill="#DEE2E6">
                <tspan x="229.71" y="199">c2</tspan>
            </text>
            <text id="c3" font-family="Merriweather-BoldItalic, Merriweather" font-size="10"
                font-style="italic" font-weight="bold" fill="#DEE2E6">
                <tspan x="44.03" y="199">c3</tspan>
            </text>
            <text id="a2" font-family="Merriweather-BoldItalic, Merriweather" font-size="10"
                font-style="italic" font-weight="bold" fill="#1E1B18">
                <tspan x="222.065" y="157">a2</tspan>
            </text>
            <text id="a3" font-family="Merriweather-BoldItalic, Merriweather" font-size="10"
                font-style="italic" font-weight="bold" fill="#1E1B18">
                <tspan x="145.885" y="177">a3</tspan>
            </text>
            <text id="a4" font-family="Merriweather-BoldItalic, Merriweather" font-size="10"
                font-style="italic" font-weight="bold" fill="#DEE2E6">
                <tspan x="60.99" y="157">a4</tspan>
            </text>
            <text id="a5" font-family="Merriweather-BoldItalic, Merriweather" font-size="10"
                font-style="italic" font-weight="bold" fill="#DEE2E6">
                <tspan x="170.82" y="76">a5</tspan>
            </text>
            <text id="a6" font-family="Merriweather-BoldItalic, Merriweather" font-size="10"
                font-style="italic" font-weight="bold" fill="#DEE2E6">
                <tspan x="276.08" y="226">a6</tspan>
            </text>
            <text id="a7" font-family="Merriweather-BoldItalic, Merriweather" font-size="10"
                font-style="italic" font-weight="bold" fill="#DEE2E6">
                <tspan x="116.89" y="209">a7</tspan>
            </text>
            <text id="a8" font-family="Merriweather-BoldItalic, Merriweather" font-size="10"
                font-style="italic" font-weight="bold" fill="#DEE2E6">
                <tspan x="110.04" y="142">a8</tspan>
            </text>
            <text id="a9" font-family="Merriweather-BoldItalic, Merriweather" font-size="10"
                font-style="italic" font-weight="bold" fill="#DEE2E6">
                <tspan x="104.02" y="76">a9</tspan>
            </text>
            <text id="a10" font-family="Merriweather-BoldItalic, Merriweather" font-size="10"
                font-style="italic" font-weight="bold" fill="#1E1B18">
                <tspan x="170.685" y="141">a10</tspan>
            </text>
            <text id="a11" font-family="Merriweather-BoldItalic, Merriweather" font-size="10"
                font-style="italic" font-weight="bold" fill="#1E1B18">
                <tspan x="164.045" y="207">a11</tspan>
            </text>
            <text id="a12" font-family="Merriweather-BoldItalic, Merriweather" font-size="10"
                font-style="italic" font-weight="bold" fill="#DEE2E6">
                <tspan x="0.305" y="226">a12</tspan>
            </text>
        </g>
    </g>
</svg>
