<?xml version="1.0" encoding="UTF-8"?>
<svg width="300px" height="260px" viewBox="0 0 300 260" version="1.1"
    xmlns="http://www.w3.org/2000/svg" xmlns:xlink="http://www.w3.org/1999/xlink">
    <!-- Generator: Sketch 57.1 (83088) - https://sketch.com -->
    <title>writings-circles-2</title>
    <desc>Created with Sketch.</desc>
    <g id="writings-circles-2" stroke="none" stroke-width="1" fill="none" fill-rule="evenodd">
        <rect fill="var(--color-background-shade-1)" x="0" y="0" width="300" height="260"></rect>
        <g id="Group-Copy" transform="translate(3.500000, 7.000000)">
            <path
                d="M84.5,246.6 C109.067501,246.6 131.171677,236.053255 146.531839,219.240455 C160.176963,204.304887 168.5,184.424418 168.5,162.6 C168.5,140.785556 160.184568,120.913285 146.550544,105.980026 C131.189625,89.1553109 109.077475,78.6 84.5,78.6 C38.108081,78.6 0.5,116.208081 0.5,162.6 C0.5,208.991919 38.108081,246.6 84.5,246.6 Z"
                id="Oval" stroke="#DEE2E6" stroke-width="2"></path>
            <circle id="Oval-Copy" stroke="#DEE2E6" stroke-width="2" cx="208.5" cy="162.6" r="84"></circle>
            <circle id="Oval-Copy-2" stroke="#DEE2E6" stroke-width="2" cx="146.5" cy="100.6" r="84"></circle>
            <path id="Path"
                d="M149.644778,203.90065 L154.294251,207.53824 C154.7932,206.764931 155.279283,205.983364 155.752271,205.193855 C156.036103,204.720085 156.650261,204.56611 157.124031,204.849942 C157.597801,205.133774 157.751776,205.747931 157.467944,206.221701 C156.95241,207.082226 156.421692,207.933531 155.87607,208.775224 L160.671446,212.526923 L146.531839,219.240455 L149.644778,203.90065 Z M159.486965,198.226009 C159.724314,197.727327 160.320985,197.515475 160.819667,197.752825 C161.318349,197.990174 161.530201,198.586846 161.292852,199.085528 C160.712937,200.303954 160.104052,201.508142 159.466784,202.697134 C159.205886,203.183909 158.599776,203.367019 158.113001,203.10612 C157.626225,202.845222 157.443116,202.239112 157.704014,201.752337 C158.326242,200.591405 158.92075,199.415651 159.486965,198.226009 Z M162.544326,190.91748 C162.732736,190.398326 163.306329,190.130206 163.825482,190.318616 C164.344636,190.507026 164.612756,191.08062 164.424346,191.599773 C163.963659,192.869168 163.472769,194.12675 162.952166,195.371585 C162.739079,195.881107 162.153289,196.121415 161.643767,195.908328 C161.134246,195.695241 160.893938,195.10945 161.107025,194.599929 C161.615297,193.384578 162.094557,192.156791 162.544326,190.91748 Z M164.879116,183.374348 C165.016936,182.839536 165.562212,182.51771 166.097024,182.65553 C166.631837,182.79335 166.953663,183.338626 166.815843,183.873438 C166.478831,185.181218 166.110767,186.479572 165.712047,187.767608 C165.548729,188.295193 164.988642,188.59049 164.461057,188.427172 C163.933472,188.263855 163.638175,187.703768 163.801493,187.176183 C164.190757,185.918692 164.550094,184.651124 164.879116,183.374348 Z M167.513524,174.766036 L167.629773,174.777524 C168.175341,174.8634 168.547993,175.375287 168.462117,175.920854 C168.252007,177.255669 168.01033,178.583344 167.737396,179.903045 C167.625542,180.443885 167.096429,180.791646 166.55559,180.679792 C166.014751,180.567938 165.666989,180.038826 165.778843,179.497987 C166.045325,178.209486 166.281292,176.913176 166.486443,175.609868 C166.57232,175.0643 167.084206,174.691647 167.629773,174.777524 Z M168.283812,166.841976 L168.400626,166.842426 C168.951867,166.876357 169.37123,167.350734 169.337299,167.901975 C169.254233,169.25144 169.139461,170.595894 168.993216,171.93457 C168.933237,172.483588 168.439548,172.880034 167.89053,172.820055 C167.341512,172.760077 166.945066,172.266388 167.005045,171.71737 C167.147864,170.410057 167.25995,169.097054 167.341077,167.779098 C167.375008,167.227857 167.849385,166.808494 168.400626,166.842426 Z M168.422449,158.822409 C168.974442,158.804473 169.436462,159.237411 169.454399,159.789404 C169.484797,160.724872 169.5,161.661822 169.5,162.604288 C169.49998,163.017027 169.497017,163.429426 169.491116,163.841467 C169.483208,164.393695 169.029128,164.834954 168.4769,164.827046 C167.924672,164.819138 167.483413,164.365058 167.491321,163.81283 C167.497085,163.410301 167.49998,163.007415 167.5,162.604239 C167.5,161.683467 167.485148,160.768172 167.455454,159.854359 C167.437517,159.302366 167.870455,158.840346 168.422449,158.822409 Z M167.691798,150.857711 C168.23963,150.787726 168.74047,151.175099 168.810454,151.722931 C168.981166,153.059251 169.120401,154.401761 169.227912,155.749681 C169.271823,156.300217 168.861122,156.782112 168.310586,156.826024 C167.76005,156.869935 167.278155,156.459234 167.234243,155.908698 C167.129249,154.592334 166.99328,153.281306 166.826577,151.976367 C166.756592,151.428535 167.143965,150.927695 167.691798,150.857711 Z M166.203001,142.982246 C166.74163,142.860193 167.277219,143.197894 167.399272,143.736524 C167.697072,145.050736 167.963715,146.373371 168.198875,147.703582 C168.295019,148.247434 167.93208,148.766253 167.388228,148.862397 C166.844377,148.958542 166.325557,148.595603 166.229413,148.051751 C165.999811,146.752979 165.739476,145.461627 165.448723,144.178517 C165.32667,143.639888 165.664372,143.104299 166.203001,142.982246 Z M163.971666,135.30339 C164.496125,135.130296 165.061603,135.415135 165.234696,135.939593 C165.657366,137.22025 166.049533,138.511691 166.410781,139.813015 C166.558509,140.345175 166.246865,140.896334 165.714705,141.044062 C165.182544,141.19179 164.631386,140.880146 164.483657,140.347986 C164.130975,139.07752 163.748109,137.816706 163.335462,136.56642 C163.162369,136.041961 163.447207,135.476483 163.971666,135.30339 Z M161.003919,127.849321 C161.509324,127.626644 162.09955,127.85584 162.322227,128.361244 C162.86622,129.595932 163.38074,130.843849 163.865275,132.104051 C164.063477,132.619545 163.806261,133.19811 163.290767,133.396313 C162.775273,133.594515 162.196707,133.337299 161.998505,132.821805 C161.525448,131.591455 161.023112,130.37309 160.491996,129.167628 C160.269319,128.662224 160.498515,128.071998 161.003919,127.849321 Z M157.358233,120.754335 C157.840142,120.484553 158.449508,120.656515 158.71929,121.138424 C159.378411,122.315803 160.009423,123.508854 160.611719,124.716619 C160.858189,125.210857 160.657333,125.81132 160.163095,126.057789 C159.668857,126.304259 159.068395,126.103403 158.821925,125.609165 C158.233847,124.42991 157.617723,123.265007 156.974145,122.115392 C156.704362,121.633484 156.876325,121.024118 157.358233,120.754335 Z M146.550544,105.980026 L160.687945,112.698203 L155.891018,116.447844 C156.14738,116.843596 156.400452,117.241477 156.650204,117.641446 C156.942722,118.109903 156.800095,118.726795 156.331638,119.019313 C155.863181,119.31183 155.246289,119.169203 154.953771,118.700746 C154.741371,118.360593 154.52651,118.021986 154.309209,117.684951 L149.658443,121.320853 L146.550544,105.980026 Z"
                fill="#1E1B18" fill-rule="nonzero"></path>
            <path id="Path"
                d="M127.281066,176.222581 C127.409752,175.685498 127.949464,175.354426 128.486547,175.483111 C129.02363,175.611796 129.354702,176.151509 129.226017,176.688592 L129.226017,176.688592 L128.06282,181.545165 C129.021445,181.762586 129.984708,181.963035 130.952264,182.146378 C131.494893,182.249201 131.851426,182.772443 131.748603,183.315072 C131.64578,183.8577 131.122538,184.214233 130.579909,184.11141 C129.252622,183.859902 127.933202,183.576958 126.622503,183.262914 L127.596,183.489 L126.429951,188.358297 C126.310458,188.857017 125.836558,189.178105 125.339449,189.118398 L125.22447,189.097767 C124.687387,188.969081 124.356315,188.429369 124.485,187.892286 L124.485,187.892286 Z M142.744297,183.516561 C143.992464,183.572134 145.244562,183.6 146.5,183.6 C146.53072,183.599989 146.5512,183.599981 146.568266,183.59997 L146.684289,183.5998 C147.236572,183.5986 147.685259,184.045341 147.686459,184.597625 C147.687659,185.149908 147.240918,185.598595 146.688634,185.599795 C146.594333,185.599966 146.594333,185.599966 146.5,185.6 C145.214895,185.6 143.933137,185.571474 142.655337,185.514582 C142.103599,185.490016 141.676241,185.02283 141.700807,184.471092 C141.725372,183.919353 142.192559,183.491995 142.744297,183.516561 Z M154.578508,183.211949 C155.128235,183.158859 155.616916,183.561462 155.670006,184.111189 C155.723096,184.660916 155.320493,185.149597 154.770765,185.202687 C153.430471,185.332127 152.084678,185.430091 150.734141,185.496356 C150.18252,185.523422 149.713401,185.098186 149.686335,184.546565 C149.659269,183.994944 150.084505,183.525825 150.636127,183.498759 C151.955191,183.434038 153.269562,183.338362 154.578508,183.211949 Z M134.738661,182.780113 L134.855085,182.789663 C136.157758,182.972541 137.466791,183.124711 138.78142,183.245922 C139.331372,183.296629 139.73609,183.783559 139.685384,184.333511 C139.634677,184.883463 139.147747,185.288181 138.597795,185.237475 C137.251598,185.113353 135.911082,184.957523 134.577038,184.770241 C134.030117,184.693461 133.648992,184.187851 133.725772,183.640929 C133.802553,183.094007 134.308163,182.712883 134.855085,182.789663 Z M162.408086,182.077266 C162.950252,181.972034 163.475073,182.326239 163.580305,182.868406 C163.685537,183.410572 163.331332,183.935393 162.789165,184.040625 C161.466211,184.297405 160.13557,184.522872 158.798071,184.716728 C158.251498,184.795947 157.744192,184.417082 157.664972,183.870509 C157.585752,183.323935 157.964617,182.81663 158.511191,182.73741 C159.817152,182.548125 161.116384,182.32798 162.408086,182.077266 Z M166.300347,181.223793 C166.836799,181.092502 167.378112,181.42095 167.509404,181.957402 C167.640695,182.493855 167.312247,183.035168 166.775795,183.166459 L166.775795,183.166459 L166.744261,183.17417 C166.207758,183.305255 165.666571,182.976599 165.535486,182.440096 C165.404401,181.903594 165.733057,181.362407 166.26956,181.231322 L166.26956,181.231322 Z"
                fill="#E64980" fill-rule="nonzero"></path>
            <path id="Path"
                d="M177.479058,171.248695 L179.310157,176.863089 C180.167497,176.493743 181.01837,176.109931 181.862445,175.711839 C182.361962,175.476251 182.957881,175.690208 183.193469,176.189725 C183.429056,176.689242 183.215099,177.285162 182.715583,177.520749 C181.494687,178.096561 180.259893,178.64321 179.01215,179.160158 L179.932,178.772 L181.818864,184.55907 L166.338586,182.243688 L177.479058,171.248695 Z M188.838064,172.00489 C189.31285,171.722761 189.926451,171.87894 190.20858,172.353726 C190.490709,172.828512 190.33453,173.442113 189.859744,173.724242 C188.699762,174.413531 187.523447,175.075133 186.331757,175.708414 C185.844059,175.967584 185.238602,175.782325 184.979433,175.294627 C184.720263,174.806928 184.905522,174.201472 185.39322,173.942303 C186.556811,173.323954 187.705405,172.677944 188.838064,172.00489 Z M195.450537,167.635827 C195.896297,167.309765 196.521982,167.4068 196.848044,167.85256 C197.174106,168.29832 197.077071,168.924005 196.631311,169.250067 C195.541689,170.047098 194.433296,170.818144 193.307082,171.562479 C192.846334,171.866995 192.225965,171.740345 191.921449,171.279597 C191.616933,170.81885 191.743583,170.198481 192.204331,169.893965 C193.304099,169.167108 194.386477,168.414159 195.450537,167.635827 Z M201.597907,162.675541 C202.01082,162.30877 202.642879,162.346177 203.00965,162.75909 C203.376421,163.172004 203.339014,163.804063 202.926101,164.170834 C201.917061,165.067114 200.886933,165.939378 199.836633,166.786818 C199.406812,167.133621 198.777234,167.066322 198.430431,166.636501 C198.083627,166.20668 198.150927,165.577102 198.580747,165.230299 C199.606459,164.402698 200.612478,163.550848 201.597907,162.675541 Z M207.271558,157.132064 C207.647814,156.727775 208.280571,156.705049 208.684861,157.081305 C209.08915,157.457562 209.111875,158.090319 208.735619,158.494608 C207.816148,159.482584 206.87338,160.448694 205.908176,161.39206 C205.513209,161.778091 204.880085,161.770846 204.494055,161.375879 C204.108024,160.980912 204.115269,160.347789 204.510235,159.961758 C205.452868,159.040453 206.37359,158.096935 207.271558,157.132064 Z M212.358705,151.120636 C212.695175,150.682678 213.322972,150.600406 213.760929,150.936876 C214.198887,151.273345 214.281159,151.901142 213.944689,152.3391 C213.122967,153.408675 212.275957,154.458686 211.404449,155.488208 C211.047615,155.909738 210.416626,155.962186 209.995095,155.605352 C209.573564,155.248519 209.521117,154.61753 209.87795,154.195999 C210.729056,153.19058 211.556231,152.165157 212.358705,151.120636 Z M216.879658,144.617722 C217.172963,144.149758 217.790094,144.00817 218.258058,144.301475 C218.726022,144.59478 218.867611,145.211911 218.574306,145.679875 C217.857631,146.823317 217.113828,147.949563 216.343599,149.057659 C216.02838,149.511151 215.405216,149.623243 214.951723,149.308024 C214.498231,148.992805 214.386139,148.369641 214.701358,147.916149 C215.4535,146.834074 216.179829,145.734287 216.879658,144.617722 Z M220.762902,137.708956 C221.010161,137.215112 221.610943,137.015215 222.104787,137.262474 C222.59863,137.509733 222.798527,138.110515 222.551268,138.604359 C221.947154,139.810942 221.314357,141.002776 220.653486,142.178903 C220.38294,142.660383 219.773303,142.831379 219.291822,142.560833 C218.810342,142.290287 218.639346,141.680649 218.909892,141.199169 C219.555179,140.050775 220.173047,138.887059 220.762902,137.708956 Z M223.970122,130.451909 C224.168819,129.936605 224.74763,129.679943 225.262934,129.87864 C225.778238,130.077336 226.034899,130.656148 225.836203,131.171452 C225.350425,132.431279 224.83467,133.678795 224.289449,134.913055 C224.066286,135.418246 223.47584,135.646874 222.97065,135.423712 C222.46546,135.20055 222.236831,134.610103 222.459993,134.104913 C222.992309,132.899868 223.495852,131.681894 223.970122,130.451909 Z M226.451512,122.967486 C226.600015,122.435541 227.151626,122.124699 227.683571,122.273202 C228.215516,122.421704 228.526358,122.973316 228.377855,123.505261 C228.014756,124.805902 227.620758,126.096627 227.196276,127.376533 C227.022422,127.90074 226.456532,128.184758 225.932325,128.010904 C225.408118,127.83705 225.1241,127.27116 225.297954,126.746952 C225.712369,125.497399 226.097023,124.237284 226.451512,122.967486 Z M228.202695,115.298573 C228.299844,114.754899 228.819332,114.392919 229.363005,114.490068 C229.906679,114.587216 230.268659,115.106705 230.17151,115.650378 C229.933834,116.98049 229.664667,118.302979 229.364335,119.616995 C229.241278,120.155396 228.70506,120.492099 228.166659,120.369042 C227.628258,120.245985 227.291556,119.709767 227.414613,119.171366 C227.707837,117.88845 227.970637,116.597244 228.202695,115.298573 Z M230.18297,106.528641 L230.299752,106.531424 C230.850206,106.576363 231.260006,107.059024 231.215068,107.609477 C231.105074,108.956792 230.963376,110.298659 230.79022,111.634296 C230.719215,112.181997 230.217654,112.568435 229.669952,112.49743 C229.122251,112.426424 228.735813,111.924863 228.806818,111.377162 C228.975907,110.072896 229.114281,108.762504 229.2217,107.44674 C229.266638,106.896287 229.749299,106.486486 230.299752,106.531424 Z M230.480366,98.5104565 C231.032606,98.5034361 231.485976,98.945424 231.492997,99.4976641 C231.497672,99.8654503 231.5,100.232906 231.5,100.604969 C231.499944,101.588254 231.483187,102.569591 231.4498,103.548707 C231.430979,104.100671 230.968266,104.532869 230.416302,104.514047 C229.864338,104.495226 229.432141,104.032513 229.450962,103.480549 C229.483576,102.524104 229.499945,101.565452 229.5,100.604912 C229.5,100.241366 229.497726,99.8823851 229.493158,99.5230872 C229.486138,98.9708471 229.928126,98.5174769 230.480366,98.5104565 Z M229.90888,90.5324155 C230.458006,90.4734381 230.950972,90.8707826 231.00995,91.4199092 C231.153752,92.758821 231.266079,94.1034694 231.346703,95.4530904 C231.379636,96.0043923 230.959416,96.4780088 230.408114,96.5109424 C229.856812,96.5438759 229.383195,96.1236553 229.350262,95.5723534 C229.27152,94.2542371 229.16182,92.9410351 229.021386,91.6334853 C228.962408,91.0843586 229.359753,90.5913929 229.90888,90.5324155 Z M235.149089,79.9845631 C235.847567,83.5255994 233.742625,86.9693263 230.373624,88.0198725 C230.231836,88.286674 229.96924,88.4863562 229.646284,88.5367364 C229.350514,88.5828756 229.064823,88.4943207 228.851623,88.3166377 C225.348705,88.6078227 222.110242,86.2248614 221.41375,82.6938917 C220.66559,78.9009825 223.133846,75.2197183 226.926755,74.4715579 C230.719664,73.7233975 234.400929,76.191654 235.149089,79.9845631 Z"
                fill="#20C997" fill-rule="nonzero"></path>
            <text id="a1" font-family="Merriweather-BoldItalic, Merriweather" font-size="10"
                font-style="italic" font-weight="bold" fill="#DEE2E6">
                <tspan x="141.805" y="10">a1</tspan>
            </text>
            <text id="v1" font-family="Merriweather-BoldItalic, Merriweather" font-size="10"
                font-style="italic" font-weight="bold" fill="#1E1B18">
                <tspan x="233.115" y="76">v1</tspan>
            </text>
            <text id="v2" font-family="Merriweather-BoldItalic, Merriweather" font-size="10"
                font-style="italic" font-weight="bold" fill="#1E1B18">
                <tspan x="110.375" y="172">v2</tspan>
            </text>
            <text id="v3" font-family="Merriweather-BoldItalic, Merriweather" font-size="10"
                font-style="italic" font-weight="bold" fill="#DEE2E6">
                <tspan x="49.195" y="76">v3</tspan>
            </text>
            <text id="v4" font-family="Merriweather-BoldItalic, Merriweather" font-size="10"
                font-style="italic" font-weight="bold" fill="#1E1B18">
                <tspan x="173.3" y="168">v4</tspan>
            </text>
            <text id="v5" font-family="Merriweather-BoldItalic, Merriweather" font-size="10"
                font-style="italic" font-weight="bold" fill="#1E1B18">
                <tspan x="142.13" y="95">v5</tspan>
            </text>
            <text id="v6" font-family="Merriweather-BoldItalic, Merriweather" font-size="10"
                font-style="italic" font-weight="bold" fill="#1E1B18">
                <tspan x="141.89" y="236">v6</tspan>
            </text>
            <text id="c1" font-family="Merriweather-BoldItalic, Merriweather" font-size="10"
                font-style="italic" font-weight="bold" fill="#DEE2E6">
                <tspan x="142.95" y="48">c1</tspan>
            </text>
            <text id="c2" font-family="Merriweather-BoldItalic, Merriweather" font-size="10"
                font-style="italic" font-weight="bold" fill="#DEE2E6">
                <tspan x="229.71" y="199">c2</tspan>
            </text>
            <text id="c3" font-family="Merriweather-BoldItalic, Merriweather" font-size="10"
                font-style="italic" font-weight="bold" fill="#DEE2E6">
                <tspan x="44.03" y="199">c3</tspan>
            </text>
            <text id="a2" font-family="Merriweather-BoldItalic, Merriweather" font-size="10"
                font-style="italic" font-weight="bold" fill="#1E1B18">
                <tspan x="222.065" y="157">a2</tspan>
            </text>
            <text id="a3" font-family="Merriweather-BoldItalic, Merriweather" font-size="10"
                font-style="italic" font-weight="bold" fill="#1E1B18">
                <tspan x="141.885" y="175">a3</tspan>
            </text>
            <text id="a4" font-family="Merriweather-BoldItalic, Merriweather" font-size="10"
                font-style="italic" font-weight="bold" fill="#DEE2E6">
                <tspan x="60.99" y="157">a4</tspan>
            </text>
            <text id="a5" font-family="Merriweather-BoldItalic, Merriweather" font-size="10"
                font-style="italic" font-weight="bold" fill="#DEE2E6">
                <tspan x="170.82" y="76">a5</tspan>
            </text>
            <text id="a6" font-family="Merriweather-BoldItalic, Merriweather" font-size="10"
                font-style="italic" font-weight="bold" fill="#DEE2E6">
                <tspan x="276.08" y="226">a6</tspan>
            </text>
            <text id="a7" font-family="Merriweather-BoldItalic, Merriweather" font-size="10"
                font-style="italic" font-weight="bold" fill="#DEE2E6">
                <tspan x="116.89" y="209">a7</tspan>
            </text>
            <text id="a8" font-family="Merriweather-BoldItalic, Merriweather" font-size="10"
                font-style="italic" font-weight="bold" fill="#DEE2E6">
                <tspan x="110.04" y="142">a8</tspan>
            </text>
            <text id="a9" font-family="Merriweather-BoldItalic, Merriweather" font-size="10"
                font-style="italic" font-weight="bold" fill="#DEE2E6">
                <tspan x="104.02" y="76">a9</tspan>
            </text>
            <text id="a10" font-family="Merriweather-BoldItalic, Merriweather" font-size="10"
                font-style="italic" font-weight="bold" fill="#1E1B18">
                <tspan x="170.685" y="141">a10</tspan>
            </text>
            <text id="a11" font-family="Merriweather-BoldItalic, Merriweather" font-size="10"
                font-style="italic" font-weight="bold" fill="#1E1B18">
                <tspan x="167.045" y="204">a11</tspan>
            </text>
            <text id="a12" font-family="Merriweather-BoldItalic, Merriweather" font-size="10"
                font-style="italic" font-weight="bold" fill="#DEE2E6">
                <tspan x="0.305" y="226">a12</tspan>
            </text>
        </g>
    </g>
</svg>
