<?xml version="1.0" encoding="UTF-8"?>
<svg width="24px" height="24px" viewBox="0 0 24 24" version="1.1" xmlns="http://www.w3.org/2000/svg" xmlns:xlink="http://www.w3.org/1999/xlink">
    <!-- Generator: Sketch 57.1 (83088) - https://sketch.com -->
    <title>H-night</title>
    <desc>Created with Sketch.</desc>
    <g id="H-night" stroke="none" stroke-width="1" fill="none" fill-rule="evenodd">
        <g id="Group" transform="translate(3.000000, 2.000000)">
            <polygon id="Path-24" fill="#BE4BDB" points="1.42108547e-14 19.9156935 12.0570854 1.77635684e-15 4.20198956 4.2925073"></polygon>
            <polygon id="Path-25" fill="#CC5DE8" points="1.42108547e-14 19.9156935 1.42108547e-14 1.77635684e-15 4.20198956 4.2925073"></polygon>
            <polygon id="Path-26" fill="#DA77F2" points="1.42108547e-14 4.17443857e-14 12.0570854 4.17443857e-14 4.20198956 4.2925073"></polygon>
            <polygon id="Path-27" fill="#BE4BDB" points="18 2.14660406e-14 18 20 12.4869067 16.1361856"></polygon>
            <polygon id="Path-28" fill="#AE3EC9" points="12.4869067 16.1361856 5.45326365 19.9156935 18 0"></polygon>
            <polygon id="Path-29" fill="#9C36B5" points="5.45326365 19.9156935 12.4869067 16.1361856 18 19.9156935"></polygon>
            <polygon id="Path-30" fill="#9C36B5" points="4.20198956 12.7091039 10.0319044 12.7091039 12.7885753 8.36454434"></polygon>
            <polygon id="Path-31" fill="#AE3EC9" points="4.20198956 12.7091039 6.84764277 8.36454434 12.7885753 8.36454434"></polygon>
        </g>
    </g>
</svg>