<?xml version="1.0" encoding="UTF-8"?>
<svg width="24px" height="24px" viewBox="0 0 24 24" version="1.1" xmlns="http://www.w3.org/2000/svg" xmlns:xlink="http://www.w3.org/1999/xlink">
    <!-- Generator: Sketch 57.1 (83088) - https://sketch.com -->
    <title>H-outline</title>
    <desc>Created with Sketch.</desc>
    <g id="H-outline" stroke="none" stroke-width="1" fill="none" fill-rule="evenodd">
        <g id="Group-Copy" transform="translate(3.000000, 2.000000)" fill="#1E1B18" fill-rule="nonzero">
            <path d="M1.29792993,19.2496724 L12.2589167,1.14449649 C12.4994256,0.747227893 12.0596297,0.287521569 11.6521081,0.510216429 L4.51111188,4.4124958 C4.40220553,4.47200892 4.32236915,4.57346462 4.29013519,4.69331193 L0.470144674,18.8962084 C0.333474421,19.4043546 1.02541265,19.6998119 1.29792993,19.2496724 Z M5.11756047,5.11706787 L10.6073959,2.1170843 L2.1808387,16.0359315 L5.11756047,5.11706787 Z" id="Path-24"></path>
            <path d="M1.34803714,19.1323251 C1.21005682,19.6453422 0.454545455,19.5455154 0.454545455,19.0142668 L0.454545455,0.909090909 C0.454545455,0.501794688 0.948992841,0.300067414 1.23390962,0.591121771 L5.05390014,4.49340114 C5.16639676,4.60832113 5.20979638,4.77413062 5.16802766,4.92942862 L1.34803714,19.1323251 Z M4.22273659,4.94390293 L1.36363636,2.023213 L1.36363636,15.5741662 L4.22273659,4.94390293 Z" id="Path-25"></path>
            <path d="M0.584272195,1.22706005 C0.302622666,0.939343327 0.506465316,0.454545455 0.909090909,0.454545455 L11.8700777,0.454545455 C12.3408013,0.454545455 12.5011184,1.08223787 12.0880472,1.30796539 L4.94705096,5.21024476 C4.76841708,5.30786129 4.54666354,5.2748078 4.40426271,5.12933941 L0.584272195,1.22706005 Z M1.99013391,1.36363636 L4.81313645,4.24745101 L10.0903879,1.36363636 L1.99013391,1.36363636 Z" id="Path-26"></path>
            <path d="M16.8425941,0.762131515 C17.0086754,0.276031042 17.7272727,0.395401666 17.7272727,0.909090909 L17.7303246,18.9522798 C17.7303246,19.3201348 17.3314179,19.5886469 17.0301787,19.3775254 L11.9999489,15.9505812 C11.8342748,15.8344695 11.7652818,15.6228368 11.8306911,15.4313911 L16.8425941,0.762131515 Z M16.8181818,3.64540205 L12.8013755,15.4021289 L16.8181818,18.2172806 L16.8181818,3.64540205 Z" id="Path-27"></path>
            <path d="M12.6909574,15.7253099 C12.6538573,15.8338976 12.5770597,15.9244349 12.4759782,15.9787508 L6.08175725,19.414667 C5.67039474,19.6357115 5.23309378,19.1670967 5.48201496,18.771979 L16.8881389,0.666803146 C17.1755939,0.210519933 17.8772159,0.545731887 17.7028604,1.0560503 L12.6909574,15.7253099 Z M15.5866094,4.4382534 L7.17022231,17.7977583 L11.8884104,15.2624534 L15.5866094,4.4382534 Z" id="Path-28"></path>
            <path d="M5.86660332,19.4688122 C5.39416588,19.4688122 5.23528844,18.8374894 5.6514494,18.6138665 L12.0456704,15.1779503 C12.1954417,15.0974711 12.3776062,15.1073071 12.517841,15.2034453 L17.529744,18.6393615 C17.8981728,18.8919383 17.7194205,19.4688122 17.2727273,19.4688122 L5.86660332,19.4688122 Z M15.8058072,18.5597213 L12.2321295,16.1097822 L7.67280643,18.5597213 L15.8058072,18.5597213 Z" id="Path-29"></path>
            <path d="M4.91065644,12.9173672 L10.029004,12.9173672 C10.1846264,12.9173672 10.3294317,12.8377525 10.4128082,12.7063497 L12.9188726,8.75675013 C13.1663062,8.36679078 12.7419436,7.89913265 12.3298546,8.10763755 L4.91065644,11.878912 C4.48372041,12.094929 4.43218204,12.9173672 4.91065644,12.9173672 Z M11.2661264,9.66468618 L9.77909265,12.0082763 L6.6342559,12.0082763 L11.2661264,9.66468618 Z" id="Path-30"></path>
            <path d="M4.93429527,12.8684063 C4.5261309,13.0749255 4.21839568,12.6598717 4.4563132,12.2691754 L6.86145247,8.31957584 C6.9439432,8.18411369 7.09107697,8.10144415 7.24967934,8.10144415 L12.5350684,8.05867667 C13.0135428,8.05867667 13.1672183,8.70278963 12.7402823,8.9188067 L4.93429527,12.8684063 Z M10.629894,8.96776758 L7.38961459,8.96776758 L5.94663312,11.3373597 L10.629894,8.96776758 Z" id="Path-31"></path>
        </g>
    </g>
</svg>