<?xml version="1.0" encoding="UTF-8"?>
<svg width="300px" height="300px" viewBox="0 0 300 300" version="1.1" xmlns="http://www.w3.org/2000/svg" xmlns:xlink="http://www.w3.org/1999/xlink">
    <!-- Generator: Sketch 57.1 (83088) - https://sketch.com -->
    <title>writings-tiling-9</title>
    <desc>Created with Sketch.</desc>
    <g id="writings-tiling-9" stroke="none" stroke-width="1" fill="none" fill-rule="evenodd">
        <rect fill="#F8F9FA" x="0" y="0" width="300" height="300"></rect>
        <g id="4-3,3-4,3_r90_m60(2c)_1581681204087" transform="translate(-58.000000, -350.000000)" fill-rule="nonzero">
            <g id="two-27126" transform="translate(155.000000, 395.500000)" stroke="#212529">
                <polygon id="two-27127" fill="#AE3EC9" points="76.622 120.622 44.3775 120.622 44.3775 88.3775 76.622 88.3775"></polygon>
                <polygon id="two-27128" fill="#BA5DD1" points="76.622 88.3775 44.3775 88.3775 60.4995 60.4535"></polygon>
                <polygon id="two-27129" fill="#BA5DD1" points="76.622 120.622 76.622 88.3775 104.546 104.4995"></polygon>
                <polygon id="two-27130" fill="#C77CD9" points="76.622 88.3775 60.4995 60.4535 88.424 44.3315 104.546 72.2555"></polygon>
                <polygon id="two-27131" fill="#C77CD9" points="104.546 104.4995 76.622 88.3775 104.546 72.2555"></polygon>
                <polygon id="two-27132" fill="#D39CE2" points="44.3775 120.622 76.622 120.622 60.5 148.546"></polygon>
                <polygon id="two-27133" fill="#D39CE2" points="76.622 120.622 104.546 104.4995 120.668 132.424 92.744 148.546"></polygon>
                <polygon id="two-27134" fill="#D39CE2" points="60.5 148.546 76.622 120.622 92.744 148.546"></polygon>
                <polygon id="two-27135" fill="#DFBBEA" points="44.3775 88.3775 44.3775 120.622 16.4535 104.5"></polygon>
                <polygon id="two-27136" fill="#DFBBEA" points="44.3775 120.622 60.5 148.546 32.5755 164.668 16.4535 136.744"></polygon>
                <polygon id="two-27137" fill="#DFBBEA" points="16.4535 104.5 44.3775 120.622 16.4535 136.744"></polygon>
                <polygon id="two-27138" fill="#DFBBEA" points="44.3775 88.3775 16.4535 104.5 0.3315 76.5755 28.2555 60.4535"></polygon>
                <polygon id="two-27139" fill="#DFBBEA" points="60.4995 60.4535 44.3775 88.3775 28.2555 60.4535"></polygon>
                <polygon id="two-27140" fill="#ECDAF2" points="132.47 88.3775 148.592 60.4535 120.668 44.3315 104.546 72.2555"></polygon>
                <polygon id="two-27141" fill="#ECDAF2" points="104.546 72.2555 120.668 44.3315 88.424 44.3315"></polygon>
                <polygon id="two-27142" fill="#ECDAF2" points="132.47 88.3775 104.546 72.2555 104.546 104.4995"></polygon>
                <polygon id="two-27143" fill="#ECDAF2" points="148.592 60.4535 132.47 88.3775 164.714 88.3775"></polygon>
                <polygon id="two-27144" fill="#ECDAF2" points="132.47 88.3775 104.546 104.4995 120.668 132.424 148.592 116.302"></polygon>
                <polygon id="two-27145" fill="#ECDAF2" points="164.714 88.3775 132.47 88.3775 148.592 116.302"></polygon>
                <polygon id="two-27146" fill="#ECDAF2" points="120.668 44.3315 148.592 60.4535 148.592 28.2095"></polygon>
                <polygon id="two-27147" fill="#ECDAF2" points="148.592 60.4535 164.714 88.3775 192.6385 72.2555 176.5165 44.3315"></polygon>
                <polygon id="two-27148" fill="#ECDAF2" points="148.592 28.2095 148.592 60.4535 176.5165 44.3315"></polygon>
                <polygon id="two-27149" fill="#ECDAF2" points="120.668 44.3315 148.592 28.2095 132.47 0.2855 104.546 16.4075"></polygon>
                <polygon id="two-27150" fill="#ECDAF2" points="88.424 44.3315 120.668 44.3315 104.546 16.4075"></polygon>
            </g>
            <g id="two-27151" transform="translate(2.500000, 369.500000)" fill="#000000" stroke="#5C7CFA">
                <path d="M213.25,0 L213.25,261" id="two-27152"></path>
                <path d="M0,130.75 L426,130.75" id="two-27153"></path>
            </g>
            <g id="two-27154">
                <path d="M215.5,500 L715.0965,500" id="two-27155" stroke="#FF0000" fill="#000000"></path>
                <path d="M337.6805,508.839 C337.6805,508.839 337.393,512.2745 337.219,513.8095 C337.0445,515.3445 336.7915,517.2305 336.555,518.757 C336.3185,520.284 335.989,522.158 335.6905,523.6735 C335.392,525.1895 334.986,527.0485 334.626,528.5505 C334.266,530.053 333.785,531.894 333.364,533.3805 C332.943,534.867 332.3875,536.6865 331.906,538.1545 C331.425,539.623 330.7955,541.4185 330.255,542.8655 C329.7145,544.313 329.0125,546.0815 328.4135,547.5055 C327.814,548.9295 327.0405,550.668 326.384,552.066 C325.7275,553.4645 324.884,555.17 324.1705,556.5405 C323.4575,557.911 322.5455,559.581 321.777,560.921 C321.0085,562.2615 320.029,563.8925 319.2065,565.2005 C318.3845,566.5085 317.339,568.098 316.464,569.3715 C315.5895,570.645 314.48,572.1905 313.554,573.4275 C312.628,574.664 311.4565,576.1635 310.481,577.3615 C309.5055,578.559 308.274,580.0095 307.2505,581.167 C306.2265,582.324 304.937,583.723 303.8675,584.8375 C302.7975,585.952 301.452,587.2975 300.3375,588.3675 C299.223,589.437 297.824,590.7265 296.667,591.7505 C295.5095,592.774 294.059,594.0055 292.8615,594.981 C291.6635,595.9565 290.164,597.128 288.9275,598.054 C287.6905,598.98 286.145,600.0895 284.8715,600.964 C283.598,601.839 282.0085,602.8845 280.7005,603.7065 C279.3925,604.529 277.7615,605.5085 276.421,606.277 C275.081,607.0455 273.411,607.9575 272.0405,608.6705 C270.67,609.384 268.9645,610.2275 267.566,610.884 C266.168,611.5405 264.4295,612.314 263.0055,612.9135 C261.5815,613.5125 259.813,614.2145 258.3655,614.755 C256.9185,615.2955 255.123,615.925 253.6545,616.406 C252.1865,616.8875 250.367,617.443 248.8805,617.864 C247.394,618.285 245.553,618.766 244.0505,619.126 C242.5485,619.486 240.6895,619.892 239.1735,620.1905 C237.658,620.489 235.784,620.8185 234.257,621.055 C232.7305,621.2915 230.8445,621.5445 229.3095,621.719 C227.7745,621.893 225.88,622.069 224.339,622.1805" id="two-27156" stroke="#FF0000"></path>
                <polyline id="two-27157" stroke="#FF0000" points="228.312 617.805 224.339 622.1805 229.177 625.758"></polyline>
                <path d="M215.5,500 L215.5,999.5965" id="two-27158" stroke="#FF0000" fill="#000000"></path>
                <path d="M206.6605,622.1805 C206.6605,622.1805 199.449,621.487 196.243,620.9765 C193.037,620.4665 189.117,619.669 185.9665,618.8865 C182.816,618.104 178.9785,616.974 175.9065,615.925 C172.8345,614.8755 169.108,613.422 166.137,612.1135 C163.1655,610.8055 159.577,609.0385 156.7285,607.481 C153.8805,605.9235 150.456,603.856 147.7515,602.0605 C145.0465,600.265 141.812,597.9125 139.2705,595.892 C136.7295,593.872 133.7075,591.251 131.3485,589.021 C128.989,586.791 126.2025,583.921 124.043,581.4975 C121.883,579.074 119.352,575.9765 117.4075,573.377 C115.463,570.7775 113.2065,567.4745 111.4915,564.718 C109.776,561.962 107.81,558.4785 106.337,555.5855 C104.864,552.6925 103.203,549.0535 101.983,546.0455 C100.7625,543.037 99.419,539.269 98.4605,536.1675 C97.5025,533.066 96.486,529.197 95.796,526.025 C95.1065,522.8525 94.425,518.911 94.009,515.6915 C93.593,512.472 93.251,508.4865 93.112,505.243 C92.973,502 92.973,497.9995 93.112,494.7565 C93.251,491.513 93.593,487.5275 94.009,484.308 C94.425,481.0885 95.1065,477.147 95.796,473.9745 C96.486,470.8025 97.5025,466.9335 98.4605,463.832 C99.419,460.7305 100.7625,456.9625 101.983,453.954 C103.203,450.946 104.864,447.307 106.337,444.414 C107.81,441.521 109.776,438.0375 111.4915,435.2815 C113.2065,432.525 115.463,429.222 117.4075,426.6225 C119.352,424.023 121.883,420.9255 124.043,418.502 C126.2025,416.0785 128.989,413.2085 131.3485,410.9785 C133.7075,408.7485 136.7295,406.1275 139.2705,404.1075 C141.812,402.087 145.0465,399.7345 147.7515,397.939 C150.456,396.1435 153.8805,394.076 156.7285,392.5185 C159.577,390.961 163.1655,389.194 166.137,387.886 C169.108,386.5775 172.8345,385.124 175.9065,384.0745 C178.9785,383.0255 182.816,381.8955 185.9665,381.113 C189.117,380.3305 193.037,379.533 196.243,379.023 C199.449,378.5125 203.4225,378.0535 206.6605,377.819" id="two-27159" stroke="#FF0000"></path>
                <polyline id="two-27160" stroke="#FF0000" points="202.6875 382.1945 206.6605 377.819 201.8225 374.2415"></polyline>
                <path d="M215.5,500 L215.4995,0.403" id="two-27161" stroke="#FF0000" fill="#000000"></path>
                <path d="M224.339,377.819 C224.339,377.819 227.7745,378.1065 229.3095,378.2805 C230.8445,378.455 232.7305,378.708 234.257,378.9445 C235.784,379.181 237.658,379.5105 239.1735,379.809 C240.6895,380.1075 242.5485,380.5135 244.0505,380.8735 C245.553,381.2335 247.394,381.7145 248.8805,382.1355 C250.367,382.5565 252.1865,383.112 253.6545,383.5935 C255.123,384.0745 256.9185,384.704 258.3655,385.2445 C259.813,385.785 261.5815,386.487 263.0055,387.086 C264.4295,387.6855 266.168,388.459 267.566,389.1155 C268.9645,389.772 270.67,390.6155 272.0405,391.329 C273.411,392.042 275.081,392.954 276.421,393.7225 C277.7615,394.491 279.3925,395.4705 280.7005,396.293 C282.0085,397.115 283.598,398.1605 284.8715,399.0355 C286.145,399.91 287.6905,401.0195 288.9275,401.9455 C290.164,402.8715 291.6635,404.043 292.8615,405.0185 C294.059,405.994 295.5095,407.2255 296.667,408.249 C297.824,409.273 299.223,410.5625 300.3375,411.632 C301.452,412.702 302.7975,414.0475 303.8675,415.162 C304.937,416.2765 306.2265,417.6755 307.2505,418.8325 C308.274,419.99 309.5055,421.4405 310.481,422.638 C311.4565,423.836 312.628,425.3355 313.554,426.572 C314.48,427.809 315.5895,429.3545 316.464,430.628 C317.339,431.9015 318.3845,433.491 319.2065,434.799 C320.029,436.107 321.0085,437.738 321.777,439.0785 C322.5455,440.4185 323.4575,442.0885 324.1705,443.459 C324.884,444.8295 325.7275,446.535 326.384,447.9335 C327.0405,449.3315 327.814,451.07 328.4135,452.494 C329.0125,453.918 329.7145,455.6865 330.255,457.134 C330.7955,458.581 331.425,460.3765 331.906,461.845 C332.3875,463.313 332.943,465.1325 333.364,466.619 C333.785,468.1055 334.266,469.9465 334.626,471.449 C334.986,472.951 335.392,474.81 335.6905,476.326 C335.989,477.8415 336.3185,479.7155 336.555,481.2425 C336.7915,482.769 337.0445,484.655 337.219,486.19 C337.393,487.725 337.569,489.6195 337.6805,491.1605" id="two-27162" stroke="#FF0000"></path>
                <polyline id="two-27163" stroke="#FF0000" points="333.305 487.1875 337.6805 491.1605 341.258 486.3225"></polyline>
                <path d="M0.4395,51.214 L500.0365,916.5415" id="two-27164" stroke="#00FF00" fill="#000000"></path>
                <path d="M252.238,483.8775 C252.238,484.982 251.3425,485.8775 250.238,485.8775 C249.133,485.8775 248.238,484.982 248.238,483.8775 C248.238,482.7725 249.133,481.8775 250.2375,481.8775 C251.3425,481.877 252.238,482.7725 252.238,483.8775 Z" id="two-27165" fill="#00FF00"></path>
            </g>
        </g>
    </g>
</svg>