<?xml version="1.0" encoding="UTF-8"?>
<svg width="640px" height="300px" viewBox="0 0 640 300" version="1.1" xmlns="http://www.w3.org/2000/svg" xmlns:xlink="http://www.w3.org/1999/xlink">
    <!-- Generator: Sketch 57.1 (83088) - https://sketch.com -->
    <title>writings-tiling-6</title>
    <desc>Created with Sketch.</desc>
    <defs>
        <rect id="path-1" x="0" y="0" width="200" height="300"></rect>
        <rect id="path-3" x="0" y="0" width="200" height="300"></rect>
        <rect id="path-5" x="0" y="0" width="200" height="300"></rect>
    </defs>
    <g id="writings-tiling-6" stroke="none" stroke-width="1" fill="none" fill-rule="evenodd">
        <rect fill="#F8F9FA" x="0" y="0" width="640" height="300"></rect>
        <g id="6_1581678821619">
            <mask id="mask-2" fill="white">
                <use xlink:href="#path-1"></use>
            </mask>
            <g id="Mask"></g>
            <g mask="url(#mask-2)">
                <g transform="translate(-649.000000, -485.000000)">
                    <g id="two-53225" transform="translate(710.250000, 589.000000)">
                        <polygon id="two-53226" stroke="#212529" stroke-width="1.5" fill="#AE3EC9" fill-rule="nonzero" points="77.97 67.9985 39 90.5 0.0285 68 0.0285 23 38.9985 0.4985 77.97 22.9985"></polygon>
                    </g>
                    <g id="two-53227">
                        <path d="M750,0 L750,1269" id="two-53228" stroke="#5C7CFA" stroke-width="1.5" fill="#000000" fill-rule="nonzero"></path>
                        <path d="M0,635.25 L1498.5,635.25" id="two-53229" stroke="#5C7CFA" stroke-width="1.5" fill="#000000" fill-rule="nonzero"></path>
                    </g>
                </g>
            </g>
        </g>
        <g id="6-3_1581678961665" transform="translate(220.000000, 0.000000)">
            <mask id="mask-4" fill="white">
                <use xlink:href="#path-3"></use>
            </mask>
            <g id="Mask"></g>
            <g mask="url(#mask-4)">
                <g transform="translate(-649.000000, -485.000000)">
                    <g id="two-53354" transform="translate(710.250000, 566.500000)">
                        <polygon id="two-53355" stroke="#212529" stroke-width="1.5" fill="#AE3EC9" fill-rule="nonzero" points="77.97 90.4985 39 113 0.0285 90.5 0.0285 45.5 38.9985 22.9985 77.97 45.4985"></polygon>
                        <polygon id="two-53356" stroke="#212529" stroke-width="1.5" fill="#D39CE2" fill-rule="nonzero" points="77.97 45.4985 38.9985 22.9985 77.97 0.4985"></polygon>
                    </g>
                    <g id="two-53357">
                        <path d="M750,0 L750,1269" id="two-53358" stroke="#5C7CFA" stroke-width="1.5" fill="#000000" fill-rule="nonzero"></path>
                        <path d="M0,635.25 L1498.5,635.25" id="two-53359" stroke="#5C7CFA" stroke-width="1.5" fill="#000000" fill-rule="nonzero"></path>
                    </g>
                </g>
            </g>
        </g>
        <g id="6-3-3,3_1581679037300" transform="translate(440.000000, 0.000000)">
            <mask id="mask-6" fill="white">
                <use xlink:href="#path-5"></use>
            </mask>
            <g id="Mask"></g>
            <g mask="url(#mask-6)">
                <g transform="translate(-649.000000, -447.000000)">
                    <g id="two-53420" transform="translate(710.250000, 507.750000)">
                        <polygon id="two-53421" stroke="#212529" stroke-width="1.5" fill="#AE3EC9" fill-rule="nonzero" points="77.97 112.4985 39 135 0.0285 112.5 0.0285 67.5 38.9985 44.9985 77.97 67.4985"></polygon>
                        <polygon id="two-53422" stroke="#212529" stroke-width="1.5" fill="#C77CD9" fill-rule="nonzero" points="77.97 67.4985 38.9985 44.9985 77.97 22.4985"></polygon>
                        <polygon id="two-53423" stroke="#212529" stroke-width="1.5" fill="#DFBBEA" fill-rule="nonzero" points="77.97 22.4985 38.9985 44.9985 38.9985 0"></polygon>
                        <polygon id="two-53424" stroke="#212529" stroke-width="1.5" fill="#DFBBEA" fill-rule="nonzero" points="77.97 67.4985 77.97 22.4985 116.9415 44.9985"></polygon>
                    </g>
                    <g id="two-53425">
                        <path d="M750,0 L750,1195.5" id="two-53426" stroke="#5C7CFA" stroke-width="1.5" fill="#000000" fill-rule="nonzero"></path>
                        <path d="M0,598.5 L1498.5,598.5" id="two-53427" stroke="#5C7CFA" stroke-width="1.5" fill="#000000" fill-rule="nonzero"></path>
                    </g>
                </g>
            </g>
        </g>
    </g>
</svg>