<?xml version="1.0" encoding="UTF-8"?>
<svg width="300px" height="300px" viewBox="0 0 300 300" version="1.1" xmlns="http://www.w3.org/2000/svg" xmlns:xlink="http://www.w3.org/1999/xlink">
    <!-- Generator: Sketch 57.1 (83088) - https://sketch.com -->
    <title>writings-tiling-2</title>
    <desc>Created with Sketch.</desc>
    <g id="writings-tiling-2" stroke="none" stroke-width="1" fill="none" fill-rule="evenodd">
        <g id="6-4-3,4-6_m30_r30(2c)_1581673534707" transform="translate(-381.000000, -447.000000)" fill-rule="nonzero" stroke="#212529">
            <polygon id="two-16219" fill="#AE3EC9" points="552.98 614.999 527 630 501.019 615 501.019 585 526.999 569.999 552.98 584.999"></polygon>
            <polygon id="two-16220" fill="#B146CB" points="552.98 584.999 526.999 569.999 541.999 544.019 567.98 559.019"></polygon>
            <polygon id="two-16221" fill="#B44ECD" points="541.999 544.019 526.999 569.999 511.999 544.019"></polygon>
            <polygon id="two-16222" fill="#B44ECD" points="567.98 559.019 541.999 544.019 556.999 518.038 582.98 533.038"></polygon>
            <polygon id="two-16223" fill="#B755CF" points="541.999 544.019 511.999 544.019 496.999 518.038 511.999 492.057 541.999 492.057 556.999 518.038"></polygon>
            <polygon id="two-16224" fill="#BA5DD1" points="567.98 559.019 552.98 585 582.98 585"></polygon>
            <polygon id="two-16225" fill="#BA5DD1" points="567.98 559.019 582.98 585 612.98 585 627.98 559.019 612.98 533.038 582.98 533.038"></polygon>
            <polygon id="two-16226" fill="#BD65D3" points="552.98 585 552.98 615 582.98 615 582.98 585"></polygon>
            <polygon id="two-16227" fill="#BD65D3" points="582.98 615 552.98 615 567.98 640.98"></polygon>
            <polygon id="two-16228" fill="#BD65D3" points="582.98 585 582.98 615 612.98 615 612.98 585"></polygon>
            <polygon id="two-16229" fill="#BD65D3" points="582.98 615 567.98 640.98 582.98 666.961 612.98 666.961 627.98 640.98 612.98 615"></polygon>
            <polygon id="two-16230" fill="#C16DD5" points="526.999 629.999 501.019 614.999 486.019 640.98 511.999 655.98"></polygon>
            <polygon id="two-16231" fill="#C16DD5" points="486.019 640.98 501.019 614.999 471.019 614.999"></polygon>
            <polygon id="two-16232" fill="#C16DD5" points="511.999 655.98 486.019 640.98 471.019 666.961 496.999 681.961"></polygon>
            <polygon id="two-16233" fill="#C16DD5" points="486.019 640.98 471.019 614.999 441.019 614.999 426.019 640.98 441.019 666.961 471.019 666.961"></polygon>
            <polygon id="two-16234" fill="#C16DD5" points="512 655.98 527 630 542 655.98"></polygon>
            <polygon id="two-16235" fill="#C16DD5" points="512 655.98 542 655.98 557 681.961 542 707.942 512 707.942 497 681.961"></polygon>
            <polygon id="two-16236" fill="#C16DD5" points="527 629.999 552.98 614.999 567.98 640.98 542 655.98"></polygon>
            <polygon id="two-16237" fill="#C16DD5" points="542 655.98 567.98 640.98 582.98 666.961 557 681.961"></polygon>
            <polygon id="two-16238" fill="#C475D7" points="501.019 585 501.019 615 471.019 615 471.019 585"></polygon>
            <polygon id="two-16239" fill="#C475D7" points="471.019 585 471.019 615 441.019 615 441.019 585"></polygon>
            <polygon id="two-16240" fill="#C475D7" points="471.019 585 501.019 585 486.019 559.019"></polygon>
            <polygon id="two-16241" fill="#C475D7" points="471.019 585 486.019 559.019 471.019 533.038 441.019 533.038 426.019 559.019 441.019 584.999"></polygon>
            <polygon id="two-16242" fill="#C475D7" points="501.019 584.999 527 569.999 512 544.019 486.019 559.019"></polygon>
            <polygon id="two-16243" fill="#C475D7" points="486.019 559.019 512 544.019 497 518.038 471.019 533.038"></polygon>
            <polygon id="two-16244" fill="#C77CD9" points="571.999 462.057 597.98 447.057 623.961 462.057 623.961 492.057 597.98 507.057 571.999 492.057"></polygon>
            <polygon id="two-16245" fill="#C77CD9" points="571.999 492.057 597.98 507.057 582.98 533.038 556.999 518.038"></polygon>
            <polygon id="two-16246" fill="#C77CD9" points="582.98 533.038 597.98 507.057 612.98 533.038"></polygon>
            <polygon id="two-16247" fill="#C77CD9" points="556.999 518.038 571.999 492.057 541.999 492.057"></polygon>
            <polygon id="two-16248" fill="#C77CD9" points="571.999 492.057 571.999 462.057 541.999 462.057 541.999 492.057"></polygon>
            <polygon id="two-16249" fill="#C77CD9" points="541.999 462.057 571.999 462.057 556.999 436.076"></polygon>
            <polygon id="two-16250" fill="#C77CD9" points="541.999 492.057 541.999 462.057 511.999 462.057 511.999 492.057"></polygon>
            <polygon id="two-16251" fill="#C77CD9" points="541.999 462.057 556.999 436.076 541.999 410.096 511.999 410.096 496.999 436.076 511.999 462.057"></polygon>
            <polygon id="two-16252" fill="#C77CD9" points="597.98 447.057 623.961 462.057 638.961 436.076 612.98 421.076"></polygon>
            <polygon id="two-16253" fill="#C77CD9" points="638.961 436.076 623.961 462.057 653.961 462.057"></polygon>
            <polygon id="two-16255" fill="#C77CD9" points="638.961 436.076 653.961 462.057 683.961 462.057 698.961 436.076 683.961 410.096 653.961 410.096"></polygon>
            <polygon id="two-16256" fill="#C77CD9" points="612.98 421.076 597.98 447.057 582.98 421.076"></polygon>
            <polygon id="two-16258" fill="#C77CD9" points="597.98 447.057 571.999 462.057 556.999 436.076 582.98 421.076"></polygon>
            <polygon id="two-16260" fill="#C77CD9" points="623.961 492.057 623.961 462.057 653.961 462.057 653.961 492.057"></polygon>
            <polygon id="two-16261" fill="#C77CD9" points="653.961 492.057 653.961 462.057 683.961 462.057 683.961 492.057"></polygon>
            <polygon id="two-16262" fill="#C77CD9" points="653.961 492.057 623.961 492.057 638.961 518.038"></polygon>
            <polygon id="two-16263" fill="#C77CD9" points="653.961 492.057 638.961 518.038 653.961 544.019 683.961 544.019 698.961 518.038 683.961 492.057"></polygon>
            <polygon id="two-16264" fill="#C77CD9" points="623.961 492.057 597.98 507.057 612.98 533.038 638.961 518.038"></polygon>
            <polygon id="two-16265" fill="#C77CD9" points="638.961 518.038 612.98 533.038 627.98 559.019 653.961 544.019"></polygon>
            <polygon id="two-16266" fill="#CD8CDD" points="668.961 630 694.942 615 694.942 585 668.961 570 642.98 585 642.98 615"></polygon>
            <polygon id="two-16267" fill="#CD8CDD" points="642.98 615 642.98 585 612.98 585 612.98 615"></polygon>
            <polygon id="two-16268" fill="#CD8CDD" points="612.98 585 642.98 585 627.98 559.019"></polygon>
            <polygon id="two-16269" fill="#CD8CDD" points="612.98 615 642.98 615 627.98 640.98"></polygon>
            <polygon id="two-16270" fill="#CD8CDD" points="642.98 615 668.961 630 653.961 655.98 627.98 640.98"></polygon>
            <polygon id="two-16271" fill="#CD8CDD" points="653.961 655.98 668.961 630 683.961 655.98"></polygon>
            <polygon id="two-16272" fill="#CD8CDD" points="627.98 640.98 653.961 655.98 638.961 681.961 612.98 666.961"></polygon>
            <polygon id="two-16273" fill="#CD8CDD" points="653.961 655.98 683.961 655.98 698.961 681.961 683.961 707.942 653.961 707.942 638.961 681.961"></polygon>
            <polygon id="two-16280" fill="#CD8CDD" points="694.942 615 668.961 630 683.961 655.98 709.942 640.98"></polygon>
            <polygon id="two-16282" fill="#CD8CDD" points="668.961 570 694.942 585 709.942 559.019 683.961 544.019"></polygon>
            <polygon id="two-16284" fill="#CD8CDD" points="683.961 544.019 668.961 570 653.961 544.019"></polygon>
            <polygon id="two-16285" fill="#CD8CDD" points="668.961 570 642.98 585 627.98 559.019 653.961 544.019"></polygon>
            <polygon id="two-16286" fill="#D094DF" points="430.038 707.942 430.038 737.942 456.019 752.942 481.999 737.942 481.999 707.942 456.019 692.942"></polygon>
            <polygon id="two-16287" fill="#D094DF" points="456.019 692.942 481.999 707.942 496.999 681.961 471.019 666.961"></polygon>
            <polygon id="two-16288" fill="#D094DF" points="496.999 681.961 481.999 707.942 511.999 707.942"></polygon>
            <polygon id="two-16289" fill="#D094DF" points="471.019 666.961 456.019 692.942 441.019 666.961"></polygon>
            <polygon id="two-16290" fill="#D094DF" points="456.019 692.942 430.038 707.942 415.038 681.961 441.019 666.961"></polygon>
            <polygon id="two-16291" fill="#D094DF" points="415.038 681.961 430.038 707.942 400.038 707.942"></polygon>
            <polygon id="two-16292" fill="#D094DF" points="441.019 666.961 415.038 681.961 400.038 655.98 426.019 640.98"></polygon>
            <polygon id="two-16293" fill="#D094DF" points="415.038 681.961 400.038 707.942 370.038 707.942 355.038 681.961 370.038 655.98 400.038 655.98"></polygon>
            <polygon id="two-16294" fill="#D094DF" points="430.038 737.942 456.019 752.942 441.019 778.923 415.038 763.923"></polygon>
            <polygon id="two-16298" fill="#D094DF" points="415.038 763.923 430.038 737.942 400.038 737.942"></polygon>
            <polygon id="two-16299" fill="#D094DF" points="415.038 763.923 400.038 737.942 370.038 737.942 355.038 763.923 370.038 789.903 400.038 789.903"></polygon>
            <polygon id="two-16300" fill="#D094DF" points="430.038 737.942 430.038 707.942 400.038 707.942 400.038 737.942"></polygon>
            <polygon id="two-16301" fill="#D094DF" points="400.038 737.942 400.038 707.942 370.038 707.942 370.038 737.942"></polygon>
            <polygon id="two-16302" fill="#D094DF" points="481.999 737.942 456.019 752.942 471.019 778.923 496.999 763.923"></polygon>
            <polygon id="two-16304" fill="#D094DF" points="496.999 763.923 481.999 737.942 511.999 737.942"></polygon>
            <polygon id="two-16305" fill="#D094DF" points="496.999 763.923 511.999 737.942 541.999 737.942 556.999 763.923 542 789.903 512 789.903"></polygon>
            <polygon id="two-16306" fill="#D094DF" points="481.999 737.942 481.999 707.942 511.999 707.942 511.999 737.942"></polygon>
            <polygon id="two-16307" fill="#D094DF" points="511.999 737.942 511.999 707.942 541.999 707.942 541.999 737.942"></polygon>
            <polygon id="two-16308" fill="#D094DF" points="623.961 707.942 623.961 737.942 597.98 752.942 572 737.942 572 707.942 597.98 692.942"></polygon>
            <polygon id="two-16309" fill="#D094DF" points="597.98 692.942 572 707.942 557 681.961 582.98 666.961"></polygon>
            <polygon id="two-16310" fill="#D094DF" points="557 681.961 572 707.942 542 707.942"></polygon>
            <polygon id="two-16311" fill="#D094DF" points="582.98 666.961 597.98 692.942 612.98 666.961"></polygon>
            <polygon id="two-16312" fill="#D094DF" points="597.98 692.942 623.961 707.942 638.961 681.961 612.98 666.961"></polygon>
            <polygon id="two-16313" fill="#D094DF" points="638.961 681.961 623.961 707.942 653.961 707.942"></polygon>
            <polygon id="two-16314" fill="#D094DF" points="623.961 737.942 597.98 752.942 612.98 778.923 638.961 763.923"></polygon>
            <polygon id="two-16318" fill="#D094DF" points="638.961 763.923 623.961 737.942 653.961 737.942"></polygon>
            <polygon id="two-16319" fill="#D094DF" points="638.961 763.923 653.961 737.942 683.961 737.942 698.961 763.923 683.961 789.903 653.961 789.903"></polygon>
            <polygon id="two-16320" fill="#D094DF" points="623.961 737.942 623.961 707.942 653.961 707.942 653.961 737.942"></polygon>
            <polygon id="two-16321" fill="#D094DF" points="653.961 737.942 653.961 707.942 683.961 707.942 683.961 737.942"></polygon>
            <polygon id="two-16322" fill="#D094DF" points="572 737.942 597.98 752.942 582.98 778.923 557 763.923"></polygon>
            <polygon id="two-16324" fill="#D094DF" points="557 763.923 572 737.942 542 737.942"></polygon>
            <polygon id="two-16325" fill="#D094DF" points="572 737.942 572 707.942 542 707.942 542 737.942"></polygon>
            <polygon id="two-16326" fill="#D39CE2" points="385.038 630 359.057 615 359.057 585 385.038 570 411.019 585 411.019 615"></polygon>
            <polygon id="two-16327" fill="#D39CE2" points="411.019 615 411.019 585 441.019 585 441.019 615"></polygon>
            <polygon id="two-16328" fill="#D39CE2" points="441.019 585 411.019 585 426.019 559.019"></polygon>
            <polygon id="two-16329" fill="#D39CE2" points="441.019 615 411.019 615 426.019 640.98"></polygon>
            <polygon id="two-16330" fill="#D39CE2" points="411.019 615 385.038 630 400.038 655.98 426.019 640.98"></polygon>
            <polygon id="two-16331" fill="#D39CE2" points="400.038 655.98 385.038 630 370.038 655.98"></polygon>
            <polygon id="two-16338" fill="#D39CE2" points="359.057 615 385.038 630 370.038 655.98 344.057 640.98"></polygon>
            <polygon id="two-16340" fill="#D39CE2" points="385.038 570 359.057 585 344.057 559.019 370.038 544.019"></polygon>
            <polygon id="two-16342" fill="#D39CE2" points="370.038 544.019 385.038 570 400.038 544.019"></polygon>
            <polygon id="two-16343" fill="#D39CE2" points="370.038 544.019 400.038 544.019 415.038 518.038 400.038 492.057 370.038 492.057 355.038 518.038"></polygon>
            <polygon id="two-16344" fill="#D39CE2" points="385.038 570 411.019 585 426.019 559.019 400.038 544.019"></polygon>
            <polygon id="two-16345" fill="#D39CE2" points="400.038 544.019 426.019 559.019 441.019 533.038 415.038 518.038"></polygon>
            <polygon id="two-16346" fill="#D39CE2" points="482 462.057 456.019 447.057 430.038 462.057 430.038 492.057 456.019 507.057 482 492.057"></polygon>
            <polygon id="two-16347" fill="#D39CE2" points="482 492.057 456.019 507.057 471.019 533.038 497 518.038"></polygon>
            <polygon id="two-16348" fill="#D39CE2" points="471.019 533.038 456.019 507.057 441.019 533.038"></polygon>
            <polygon id="two-16349" fill="#D39CE2" points="497 518.038 482 492.057 512 492.057"></polygon>
            <polygon id="two-16350" fill="#D39CE2" points="482 492.057 482 462.057 512 462.057 512 492.057"></polygon>
            <polygon id="two-16351" fill="#D39CE2" points="512 462.057 482 462.057 496.999 436.076"></polygon>
            <polygon id="two-16352" fill="#D39CE2" points="456.019 447.057 430.038 462.057 415.038 436.076 441.019 421.076"></polygon>
            <polygon id="two-16353" fill="#D39CE2" points="415.038 436.076 430.038 462.057 400.038 462.057"></polygon>
            <polygon id="two-16355" fill="#D39CE2" points="415.038 436.076 400.038 462.057 370.038 462.057 355.038 436.076 370.038 410.096 400.038 410.096"></polygon>
            <polygon id="two-16356" fill="#D39CE2" points="441.019 421.076 456.019 447.057 471.019 421.076"></polygon>
            <polygon id="two-16358" fill="#D39CE2" points="456.019 447.057 482 462.057 497 436.076 471.019 421.076"></polygon>
            <polygon id="two-16360" fill="#D39CE2" points="430.038 492.057 430.038 462.057 400.038 462.057 400.038 492.057"></polygon>
            <polygon id="two-16361" fill="#D39CE2" points="400.038 492.057 400.038 462.057 370.038 462.057 370.038 492.057"></polygon>
            <polygon id="two-16362" fill="#D39CE2" points="400.038 492.057 430.038 492.057 415.038 518.038"></polygon>
            <polygon id="two-16363" fill="#D39CE2" points="430.038 492.057 456.019 507.057 441.019 533.038 415.038 518.038"></polygon>
        </g>
    </g>
</svg>