<?xml version="1.0" encoding="UTF-8"?>
<svg width="300px" height="300px" viewBox="0 0 300 300" version="1.1" xmlns="http://www.w3.org/2000/svg" xmlns:xlink="http://www.w3.org/1999/xlink">
    <!-- Generator: Sketch 57.1 (83088) - https://sketch.com -->
    <title>writings-tiling-1</title>
    <desc>Created with Sketch.</desc>
    <g id="writings-tiling-1" stroke="none" stroke-width="1" fill="none" fill-rule="evenodd">
        <g id="4-3-3,4_r90_r15(2e)_1581673421303" transform="translate(-156.000000, -222.000000)" fill-rule="nonzero" stroke="#212529">
            <polygon id="two-10372" fill="#AE3EC9" points="321.152 397.152 280.847 397.152 280.847 356.847 321.152 356.847"></polygon>
            <polygon id="two-10373" fill="#B34ACC" points="321.152 356.847 280.847 356.847 300.999 321.942"></polygon>
            <polygon id="two-10374" fill="#B857D0" points="321.152 356.847 300.999 321.942 341.305 321.942"></polygon>
            <polygon id="two-10375" fill="#B857D0" points="300.999 321.942 280.847 356.847 245.942 336.694 266.094 301.789"></polygon>
            <polygon id="two-10376" fill="#BD63D3" points="321.152 397.152 321.152 356.847 356.057 376.999"></polygon>
            <polygon id="two-10377" fill="#BD63D3" points="321.152 397.152 356.057 376.999 356.057 417.305"></polygon>
            <polygon id="two-10378" fill="#BD63D3" points="356.057 376.999 321.152 356.847 341.305 321.942 376.21 342.094"></polygon>
            <polygon id="two-10379" fill="#C270D6" points="280.847 397.152 321.152 397.152 301 432.057"></polygon>
            <polygon id="two-10380" fill="#C270D6" points="280.847 397.152 301 432.057 260.694 432.057"></polygon>
            <polygon id="two-10381" fill="#C270D6" points="301 432.057 321.152 397.152 356.057 417.305 335.905 452.21"></polygon>
            <polygon id="two-10382" fill="#C270D6" points="280.847 356.847 280.847 397.152 245.942 377"></polygon>
            <polygon id="two-10383" fill="#C270D6" points="280.847 356.847 245.942 377 245.942 336.694"></polygon>
            <polygon id="two-10384" fill="#C270D6" points="245.942 377 280.847 397.152 260.694 432.057 225.789 411.905"></polygon>
            <polygon id="two-10385" fill="#C77CD9" points="300.999 281.637 341.305 281.637 341.305 321.942 300.999 321.942"></polygon>
            <polygon id="two-10386" fill="#C77CD9" points="300.999 281.637 300.999 321.942 266.094 301.789"></polygon>
            <polygon id="two-10387" fill="#C77CD9" points="300.999 281.637 266.094 301.789 266.094 261.484"></polygon>
            <polygon id="two-10388" fill="#C77CD9" points="341.305 281.637 300.999 281.637 321.152 246.731"></polygon>
            <polygon id="two-10389" fill="#C77CD9" points="341.305 281.637 321.152 246.731 361.457 246.731"></polygon>
            <polygon id="two-10390" fill="#C77CD9" points="321.152 246.731 300.999 281.637 266.094 261.484 286.247 226.579"></polygon>
            <polygon id="two-10391" fill="#C77CD9" points="341.305 321.942 341.305 281.637 376.21 301.789"></polygon>
            <polygon id="two-10392" fill="#C77CD9" points="341.305 321.942 376.21 301.789 376.21 342.094"></polygon>
            <polygon id="two-10393" fill="#C77CD9" points="376.21 301.789 341.305 281.637 361.457 246.731 396.362 266.884"></polygon>
            <polygon id="two-10394" fill="#CC89DD" points="396.362 376.999 396.362 417.305 356.057 417.305 356.057 376.999"></polygon>
            <polygon id="two-10395" fill="#CC89DD" points="396.362 376.999 356.057 376.999 376.21 342.094"></polygon>
            <polygon id="two-10396" fill="#CC89DD" points="396.362 376.999 376.21 342.094 416.515 342.094"></polygon>
            <polygon id="two-10397" fill="#CC89DD" points="396.362 417.305 396.362 376.999 431.268 397.152"></polygon>
            <polygon id="two-10398" fill="#CC89DD" points="396.362 417.305 431.268 397.152 431.268 437.457"></polygon>
            <polygon id="two-10399" fill="#CC89DD" points="431.268 397.152 396.362 376.999 416.515 342.094 451.42 362.247"></polygon>
            <polygon id="two-10400" fill="#CC89DD" points="356.057 417.305 396.362 417.305 376.21 452.21"></polygon>
            <polygon id="two-10401" fill="#CC89DD" points="356.057 417.305 376.21 452.21 335.905 452.21"></polygon>
            <polygon id="two-10402" fill="#CC89DD" points="376.21 452.21 396.362 417.305 431.268 437.457 411.115 472.362"></polygon>
            <polygon id="two-10403" fill="#D195E0" points="301 472.362 260.694 472.362 260.694 432.057 301 432.057"></polygon>
            <polygon id="two-10404" fill="#D195E0" points="301 472.362 301 432.057 335.905 452.21"></polygon>
            <polygon id="two-10405" fill="#D195E0" points="301 472.362 335.905 452.21 335.905 492.515"></polygon>
            <polygon id="two-10406" fill="#D195E0" points="260.694 472.362 301 472.362 280.847 507.268"></polygon>
            <polygon id="two-10407" fill="#D195E0" points="260.694 472.362 280.847 507.268 240.542 507.268"></polygon>
            <polygon id="two-10408" fill="#D195E0" points="280.847 507.268 301 472.362 335.905 492.515 315.752 527.42"></polygon>
            <polygon id="two-10409" fill="#D195E0" points="260.694 432.057 260.694 472.362 225.789 452.21"></polygon>
            <polygon id="two-10410" fill="#D195E0" points="260.694 432.057 225.789 452.21 225.789 411.905"></polygon>
            <polygon id="two-10411" fill="#D195E0" points="225.789 452.21 260.694 472.362 240.542 507.268 205.637 487.115"></polygon>
            <polygon id="two-10412" fill="#D195E0" points="205.637 377 205.637 336.694 245.942 336.694 245.942 377"></polygon>
            <polygon id="two-10413" fill="#D195E0" points="205.637 377 245.942 377 225.789 411.905"></polygon>
            <polygon id="two-10414" fill="#D195E0" points="205.637 377 225.789 411.905 185.484 411.905"></polygon>
            <polygon id="two-10415" fill="#D195E0" points="205.637 336.694 205.637 377 170.731 356.847"></polygon>
            <polygon id="two-10416" fill="#D195E0" points="205.637 336.694 170.731 356.847 170.731 316.542"></polygon>
            <polygon id="two-10417" fill="#D195E0" points="170.731 356.847 205.637 377 185.484 411.905 150.579 391.752"></polygon>
            <polygon id="two-10418" fill="#D195E0" points="245.942 336.694 205.637 336.694 225.789 301.789"></polygon>
            <polygon id="two-10419" fill="#D195E0" points="245.942 336.694 225.789 301.789 266.094 301.789"></polygon>
            <polygon id="two-10420" fill="#D195E0" points="225.789 301.789 205.637 336.694 170.731 316.542 190.884 281.637"></polygon>
            <polygon id="two-10421" fill="#D5A2E3" points="225.789 301.789 225.789 261.484 266.094 261.484 266.094 301.789"></polygon>
            <polygon id="two-10422" fill="#D5A2E3" points="225.789 261.484 225.789 301.789 190.884 281.637"></polygon>
            <polygon id="two-10423" fill="#D5A2E3" points="225.789 261.484 190.884 281.637 190.884 241.332"></polygon>
            <polygon id="two-10424" fill="#D5A2E3" points="266.094 261.484 225.789 261.484 245.942 226.579"></polygon>
            <polygon id="two-10425" fill="#D5A2E3" points="266.094 261.484 245.942 226.579 286.247 226.579"></polygon>
            <polygon id="two-10426" fill="#D5A2E3" points="245.942 226.579 225.789 261.484 190.884 241.332 211.036 206.426"></polygon>
            <polygon id="two-10427" fill="#D5A2E3" points="321.152 206.426 361.457 206.426 361.457 246.731 321.152 246.731"></polygon>
            <polygon id="two-10428" fill="#D5A2E3" points="321.152 206.426 321.152 246.731 286.247 226.579"></polygon>
            <polygon id="two-10429" fill="#D5A2E3" points="321.152 206.426 286.247 226.579 286.247 186.274"></polygon>
            <polygon id="two-10433" fill="#D5A2E3" points="361.457 246.731 361.457 206.426 396.362 226.579"></polygon>
            <polygon id="two-10434" fill="#D5A2E3" points="361.457 246.731 396.362 226.579 396.362 266.884"></polygon>
            <polygon id="two-10435" fill="#D5A2E3" points="396.362 226.579 361.457 206.426 381.61 171.521 416.515 191.674"></polygon>
            <polygon id="two-10436" fill="#D5A2E3" points="416.515 301.789 416.515 342.094 376.21 342.094 376.21 301.789"></polygon>
            <polygon id="two-10437" fill="#D5A2E3" points="416.515 301.789 376.21 301.789 396.362 266.884"></polygon>
            <polygon id="two-10438" fill="#D5A2E3" points="416.515 301.789 396.362 266.884 436.667 266.884"></polygon>
            <polygon id="two-10439" fill="#D5A2E3" points="416.515 342.094 416.515 301.789 451.42 321.942"></polygon>
            <polygon id="two-10440" fill="#D5A2E3" points="416.515 342.094 451.42 321.942 451.42 362.247"></polygon>
            <polygon id="two-10441" fill="#D5A2E3" points="451.42 321.942 416.515 301.789 436.667 266.884 471.573 287.036"></polygon>
            <polygon id="two-10442" fill="#DAAEE6" points="471.573 397.152 471.573 437.457 431.268 437.457 431.268 397.152"></polygon>
            <polygon id="two-10443" fill="#DAAEE6" points="471.573 397.152 431.268 397.152 451.42 362.247"></polygon>
            <polygon id="two-10444" fill="#DAAEE6" points="471.573 397.152 451.42 362.247 491.725 362.247"></polygon>
            <polygon id="two-10448" fill="#DAAEE6" points="431.268 437.457 471.573 437.457 451.42 472.362"></polygon>
            <polygon id="two-10449" fill="#DAAEE6" points="431.268 437.457 451.42 472.362 411.115 472.362"></polygon>
            <polygon id="two-10450" fill="#DAAEE6" points="451.42 472.362 471.573 437.457 506.478 457.61 486.325 492.515"></polygon>
            <polygon id="two-10451" fill="#DAAEE6" points="376.21 492.515 335.905 492.515 335.905 452.21 376.21 452.21"></polygon>
            <polygon id="two-10452" fill="#DAAEE6" points="376.21 492.515 376.21 452.21 411.115 472.362"></polygon>
            <polygon id="two-10453" fill="#DAAEE6" points="376.21 492.515 411.115 472.362 411.115 512.667"></polygon>
            <polygon id="two-10454" fill="#DAAEE6" points="335.905 492.515 376.21 492.515 356.057 527.42"></polygon>
            <polygon id="two-10455" fill="#DAAEE6" points="335.905 492.515 356.057 527.42 315.752 527.42"></polygon>
            <polygon id="two-10456" fill="#DAAEE6" points="356.057 527.42 376.21 492.515 411.115 512.667 390.963 547.573"></polygon>
            <polygon id="two-10457" fill="#DFBBEA" points="280.847 547.573 240.542 547.573 240.542 507.268 280.847 507.268"></polygon>
            <polygon id="two-10458" fill="#DFBBEA" points="280.847 547.573 280.847 507.268 315.752 527.42"></polygon>
            <polygon id="two-10463" fill="#DFBBEA" points="240.542 507.268 240.542 547.573 205.637 527.42"></polygon>
            <polygon id="two-10464" fill="#DFBBEA" points="240.542 507.268 205.637 527.42 205.637 487.115"></polygon>
            <polygon id="two-10466" fill="#DFBBEA" points="185.484 452.21 185.484 411.905 225.789 411.905 225.789 452.21"></polygon>
            <polygon id="two-10467" fill="#DFBBEA" points="185.484 452.21 225.789 452.21 205.637 487.115"></polygon>
            <polygon id="two-10468" fill="#DFBBEA" points="185.484 452.21 205.637 487.115 165.332 487.115"></polygon>
            <polygon id="two-10469" fill="#DFBBEA" points="185.484 411.905 185.484 452.21 150.579 432.057"></polygon>
            <polygon id="two-10470" fill="#DFBBEA" points="185.484 411.905 150.579 432.057 150.579 391.752"></polygon>
            <polygon id="two-10471" fill="#DFBBEA" points="150.579 432.057 185.484 452.21 165.332 487.115 130.426 466.963"></polygon>
            <polygon id="two-10472" fill="#DFBBEA" points="130.426 356.847 130.426 316.542 170.731 316.542 170.731 356.847"></polygon>
            <polygon id="two-10473" fill="#DFBBEA" points="130.426 356.847 170.731 356.847 150.579 391.752"></polygon>
            <polygon id="two-10478" fill="#DFBBEA" points="170.731 316.542 130.426 316.542 150.579 281.637"></polygon>
            <polygon id="two-10479" fill="#DFBBEA" points="170.731 316.542 150.579 281.637 190.884 281.637"></polygon>
            <polygon id="two-10481" fill="#E4C7ED" points="150.579 281.637 150.579 241.332 190.884 241.332 190.884 281.637"></polygon>
            <polygon id="two-10484" fill="#E4C7ED" points="190.884 241.332 150.579 241.332 170.731 206.426"></polygon>
            <polygon id="two-10485" fill="#E4C7ED" points="190.884 241.332 170.731 206.426 211.036 206.426"></polygon>
            <polygon id="two-10486" fill="#E4C7ED" points="170.731 206.426 150.579 241.332 115.674 221.179 135.826 186.274"></polygon>
            <polygon id="two-10487" fill="#E4C7ED" points="245.942 186.274 286.247 186.274 286.247 226.579 245.942 226.579"></polygon>
            <polygon id="two-10488" fill="#E4C7ED" points="245.942 186.274 245.942 226.579 211.036 206.426"></polygon>
            <polygon id="two-10502" fill="#E4C7ED" points="436.667 226.579 436.667 266.884 396.362 266.884 396.362 226.579"></polygon>
            <polygon id="two-10503" fill="#E4C7ED" points="436.667 226.579 396.362 226.579 416.515 191.674"></polygon>
            <polygon id="two-10504" fill="#E4C7ED" points="436.667 226.579 416.515 191.674 456.82 191.674"></polygon>
            <polygon id="two-10505" fill="#E4C7ED" points="436.667 266.884 436.667 226.579 471.573 246.731"></polygon>
            <polygon id="two-10506" fill="#E4C7ED" points="436.667 266.884 471.573 246.731 471.573 287.036"></polygon>
            <polygon id="two-10507" fill="#E4C7ED" points="471.573 246.731 436.667 226.579 456.82 191.674 491.725 211.826"></polygon>
            <polygon id="two-10508" fill="#E4C7ED" points="491.725 321.942 491.725 362.247 451.42 362.247 451.42 321.942"></polygon>
            <polygon id="two-10509" fill="#E4C7ED" points="491.725 321.942 451.42 321.942 471.573 287.036"></polygon>
            <polygon id="two-10523" fill="#E9D4F0" points="451.42 512.667 411.115 512.667 411.115 472.362 451.42 472.362"></polygon>
            <polygon id="two-10524" fill="#E9D4F0" points="451.42 512.667 451.42 472.362 486.325 492.515"></polygon>
            <polygon id="two-10525" fill="#E9D4F0" points="451.42 512.667 486.325 492.515 486.325 532.82"></polygon>
            <polygon id="two-10526" fill="#E9D4F0" points="411.115 512.667 451.42 512.667 431.268 547.573"></polygon>
            <polygon id="two-10527" fill="#E9D4F0" points="411.115 512.667 431.268 547.573 390.963 547.573"></polygon>
            <polygon id="two-10528" fill="#E9D4F0" points="431.268 547.573 451.42 512.667 486.325 532.82 466.173 567.725"></polygon>
            <polygon id="two-10544" fill="#EEE0F3" points="165.332 527.42 165.332 487.115 205.637 487.115 205.637 527.42"></polygon>
            <polygon id="two-10547" fill="#EEE0F3" points="165.332 487.115 165.332 527.42 130.426 507.268"></polygon>
            <polygon id="two-10548" fill="#EEE0F3" points="165.332 487.115 130.426 507.268 130.426 466.963"></polygon>
            <polygon id="two-10549" fill="#EEE0F3" points="130.426 507.268 165.332 527.42 145.179 562.325 110.274 542.173"></polygon>
        </g>
    </g>
</svg>