<?xml version="1.0" encoding="UTF-8"?>
<svg width="300px" height="300px" viewBox="0 0 300 300" version="1.1" xmlns="http://www.w3.org/2000/svg" xmlns:xlink="http://www.w3.org/1999/xlink">
    <!-- Generator: Sketch 57.1 (83088) - https://sketch.com -->
    <title>writings-tiling-8</title>
    <desc>Created with Sketch.</desc>
    <g id="writings-tiling-8" stroke="none" stroke-width="1" fill="none" fill-rule="evenodd">
        <rect fill="#F8F9FA" x="0" y="0" width="300" height="300"></rect>
        <g id="6-3-3_m30_r30(2e)_1581680801203" transform="translate(-860.000000, -806.000000)" fill-rule="nonzero">
            <g id="two-21747" transform="translate(948.434622, 852.056476)" stroke="#212529">
                <polygon id="two-21748" fill="#AE3EC9" points="77.0834868 162.675875 51.5653775 177.409454 26.0466544 162.676489 26.0466544 133.210559 51.5647637 118.47698 77.0834868 133.209945"></polygon>
                <polygon id="two-21749" fill="#B755CF" points="77.0834868 133.209945 51.5647637 118.47698 77.0834868 103.744015"></polygon>
                <polygon id="two-21750" fill="#C16DD5" points="77.0834868 103.744015 51.5647637 118.47698 51.5647637 89.0116636"></polygon>
                <polygon id="two-21751" fill="#CA84DB" points="77.0834868 103.744629 77.0834868 133.210559 102.601596 118.477594"></polygon>
                <polygon id="two-21752" fill="#D39CE2" points="77.0834868 133.210559 77.0834868 162.676489 102.601596 147.943524"></polygon>
                <polygon id="two-21753" fill="#D39CE2" points="102.601596 147.943524 77.0834868 162.676489 102.601596 177.409454"></polygon>
                <polygon id="two-21754" fill="#D39CE2" points="102.601596 147.94291 77.0834868 133.209945 102.601596 118.47698"></polygon>
                <polygon id="two-21755" fill="#DCB3E8" points="51.5647637 177.40884 26.0466544 162.675875 26.0466544 192.141805"></polygon>
                <polygon id="two-21756" fill="#DCB3E8" points="26.0466544 192.141805 26.0466544 162.675875 0.52854512 177.40884"></polygon>
                <polygon id="two-21757" fill="#DCB3E8" points="26.0466544 192.142419 51.5653775 177.409454 51.5653775 206.875384"></polygon>
                <polygon id="two-21758" fill="#DCB3E8" points="51.5653775 177.40884 77.0834868 162.675875 77.0834868 192.141805"></polygon>
                <polygon id="two-21759" fill="#DCB3E8" points="77.0834868 192.141805 77.0834868 162.675875 102.601596 177.40884"></polygon>
                <polygon id="two-21760" fill="#DCB3E8" points="77.0834868 192.142419 51.5653775 177.409454 51.5653775 206.87477"></polygon>
                <polygon id="two-21761" fill="#E6CAEE" points="26.0466544 133.210559 26.0466544 162.676489 0.52854512 147.943524"></polygon>
                <polygon id="two-21762" fill="#E6CAEE" points="0.52854512 147.943524 26.0466544 162.676489 0.52854512 177.409454"></polygon>
                <polygon id="two-21763" fill="#E6CAEE" points="0.52854512 147.943524 26.0466544 133.210559 0.52854512 118.477594"></polygon>
                <polygon id="two-21764" fill="#E6CAEE" points="26.0466544 133.209945 51.5647637 118.477594 26.0466544 103.744629"></polygon>
                <polygon id="two-21765" fill="#E6CAEE" points="26.0466544 103.744629 51.5647637 118.477594 51.5647637 89.0116636"></polygon>
                <polygon id="two-21766" fill="#E6CAEE" points="26.0466544 103.744629 26.0466544 133.210559 0.52854512 118.477594"></polygon>
                <polygon id="two-21767" fill="#EFE2F4" points="77.0834868 44.8121547 102.601596 30.0791897 128.119705 44.8121547 128.119705 74.2780847 102.601596 89.0110497 77.0834868 74.2780847"></polygon>
                <polygon id="two-21768" fill="#EFE2F4" points="77.0834868 74.2780847 102.601596 89.0110497 77.0834868 103.744015"></polygon>
                <polygon id="two-21769" fill="#EFE2F4" points="77.0834868 103.744015 102.601596 89.0110497 102.601596 118.47698"></polygon>
                <polygon id="two-21770" fill="#EFE2F4" points="77.0834868 103.744015 77.0834868 74.2780847 51.5647637 89.0110497"></polygon>
                <polygon id="two-21771" fill="#EFE2F4" points="77.0834868 74.2780847 77.0834868 44.8121547 51.5647637 59.5451197"></polygon>
                <polygon id="two-21772" fill="#EFE2F4" points="51.5647637 59.5451197 77.0834868 44.8121547 51.5647637 30.0791897"></polygon>
                <polygon id="two-21773" fill="#EFE2F4" points="51.5647637 59.5457336 77.0834868 74.2780847 51.5647637 89.0110497"></polygon>
                <polygon id="two-21774" fill="#EFE2F4" points="102.601596 30.0791897 128.119705 44.8121547 128.119705 15.3462247"></polygon>
                <polygon id="two-21775" fill="#EFE2F4" points="128.119705 15.3462247 128.119705 44.8121547 153.637815 30.0791897"></polygon>
                <polygon id="two-21776" fill="#EFE2F4" points="128.119705 15.3462247 102.601596 30.0791897 102.601596 0.613259669"></polygon>
                <polygon id="two-21777" fill="#EFE2F4" points="102.601596 30.0791897 77.0834868 44.8121547 77.0834868 15.3462247"></polygon>
                <polygon id="two-21778" fill="#EFE2F4" points="77.0834868 15.3462247 77.0834868 44.8121547 51.5647637 30.0798036"></polygon>
                <polygon id="two-21779" fill="#EFE2F4" points="77.0834868 15.3462247 102.601596 30.0791897 102.601596 0.613259669"></polygon>
                <polygon id="two-21780" fill="#EFE2F4" points="128.119705 74.2780847 128.119705 44.8121547 153.637815 59.5451197"></polygon>
                <polygon id="two-21781" fill="#EFE2F4" points="153.637815 59.5451197 128.119705 44.8121547 153.637815 30.0791897"></polygon>
                <polygon id="two-21782" fill="#EFE2F4" points="153.637815 59.5451197 128.119705 74.2780847 153.637815 89.0110497"></polygon>
                <polygon id="two-21783" fill="#EFE2F4" points="128.119705 74.2780847 102.601596 89.0110497 128.119705 103.744015"></polygon>
                <polygon id="two-21784" fill="#EFE2F4" points="128.119705 103.744015 102.601596 89.0110497 102.601596 118.47698"></polygon>
                <polygon id="two-21785" fill="#EFE2F4" points="128.119705 103.744015 128.119705 74.2780847 153.637815 89.0110497"></polygon>
            </g>
            <g id="two-21786" transform="translate(484.346225, 740.331492)" fill="#000000" stroke="#5C7CFA">
                <path d="M516.153775,0 L516.153775,519.337017" id="two-21787"></path>
                <path d="M0,260.168508 L1031.30755,260.168508" id="two-21788"></path>
            </g>
            <g id="two-21789">
                <path d="M1000,1000 L1577.34438,0.00982197667" id="two-21790" stroke="#00FFFF" fill="#000000"></path>
                <path d="M1000,1000 L1999.98956,422.655003" id="two-21791" stroke="#00FFFF" fill="#000000"></path>
                <path d="M1000,1000 L1999.98956,1577.34438" id="two-21792" stroke="#00FFFF" fill="#000000"></path>
                <path d="M1000,1000 L0.00982197667,1577.34438" id="two-21793" stroke="#00FFFF" fill="#000000"></path>
                <path d="M1027.9736,955.801105 C1027.9736,957.157152 1026.87416,958.256599 1025.51811,958.256599 C1024.16145,958.256599 1023.06262,957.157152 1023.06262,955.801105 C1023.06262,954.444444 1024.16145,953.345611 1025.5175,953.345611 C1026.87416,953.344997 1027.9736,954.444444 1027.9736,955.801105 Z" id="two-21794" fill="#0000FF"></path>
                <path d="M1000,1000 L1051.03622,911.601596" id="two-21795" stroke="#0000FF" fill="#000000"></path>
                <path d="M997.414979,985.947821 C997.414979,985.947821 995.847759,984.423573 995.184776,983.702885 C994.521179,982.981584 993.739104,982.062615 993.133211,981.292818 C992.527317,980.52302 991.81768,979.546961 991.27256,978.732965 C990.72744,977.918969 990.09515,976.891344 989.613874,976.03806 C989.133211,975.184162 988.581338,974.111111 988.166974,973.22345 C987.752609,972.335789 987.284837,971.222836 986.940454,970.306323 C986.595457,969.389196 986.214242,968.243708 985.941068,967.303254 C985.667894,966.362799 985.375691,965.191529 985.174954,964.232658 C984.974831,963.273788 984.773481,962.084101 984.647023,961.112339 C984.521179,960.141191 984.411295,958.939227 984.360344,957.960712 C984.308778,956.982198 984.29159,955.775936 984.315531,954.796194 C984.339472,953.817066 984.414979,952.612646 984.514426,951.637815 C984.61326,950.663597 984.780847,949.468386 984.954573,948.50399 C985.127686,947.540209 985.38674,946.360958 985.634131,945.413137 C985.880909,944.465316 986.229589,943.310006 986.548803,942.383671 C986.867403,941.457336 987.303867,940.332106 987.693063,939.432781 C988.081645,938.53407 988.603438,937.445672 989.06016,936.578883 C989.516882,935.712707 990.120319,934.667281 990.642726,933.838551 C991.164518,933.009208 991.846532,932.013505 992.430325,931.227133 C993.014733,930.440761 993.771025,929.500307 994.413751,928.761203 C995.056476,928.021486 995.88275,927.141805 996.58011,926.454266 C997.277471,925.766114 998.168815,924.952732 998.917127,924.320442 C999.665439,923.688152 1000.61633,922.944751 1001.41068,922.372007 C1002.20565,921.798649 1003.21056,921.131369 1004.04727,920.620626 C1004.88336,920.110497 1005.93677,919.521793 1006.8097,919.077348 C1007.68263,918.63229 1008.77839,918.126458 1009.68263,917.750153 C1010.58686,917.373235 1011.71823,916.952732 1012.64886,916.647023 C1013.5795,916.341314 1014.73972,916.008594 1015.69122,915.774708 C1016.64211,915.541436 1017.82443,915.298956 1018.79128,915.138735 C1019.75752,914.979128 1020.95519,914.828115 1021.93063,914.742787 C1022.90669,914.657459 1024.11234,914.598527 1025.09147,914.588705 C1026.07121,914.578269 1027.27747,914.612032 1028.25537,914.677103 C1029.23266,914.742173 1030.43278,914.868631 1031.40209,915.008594 C1032.37201,915.148557 1033.55924,915.366483 1034.51504,915.58011 C1035.47084,915.794352 1036.63781,916.102517 1037.57459,916.389196" id="two-21796" stroke="#0000FF"></path>
                <polyline id="two-21797" stroke="#0000FF" points="1032.14242 920.106814 1037.57459 916.389196 1033.93493 910.449969"></polyline>
            </g>
        </g>
    </g>
</svg>