<?xml version="1.0" encoding="UTF-8"?>
<svg width="300px" height="300px" viewBox="0 0 300 300" version="1.1" xmlns="http://www.w3.org/2000/svg" xmlns:xlink="http://www.w3.org/1999/xlink">
    <!-- Generator: Sketch 57.1 (83088) - https://sketch.com -->
    <title>writings-tiling-4</title>
    <desc>Created with Sketch.</desc>
    <g id="writings-tiling-4" stroke="none" stroke-width="1" fill="none" fill-rule="evenodd">
        <g id="3-uniform_58" transform="translate(-150.000000, -144.000000)" fill-rule="nonzero" stroke="#212529">
            <g id="Group" fill="#E9D4F0">
                <polygon id="Path" points="300 293.64496 313.018548 271.095968 326.037097 293.64496"></polygon>
                <polygon id="Path" points="300 293.64496 286.981452 316.193347 273.962903 293.64496"></polygon>
                <polygon id="Path" points="300 293.64496 273.962903 293.64496 286.981452 271.095968"></polygon>
                <polygon id="Path" points="300 293.64496 286.981452 271.095968 313.018548 271.095968"></polygon>
                <polygon id="Path" points="326.037097 293.64496 352.074194 293.64496 339.055645 316.193347"></polygon>
                <polygon id="Path" points="326.037097 293.64496 313.018548 271.095968 339.055645 271.095968"></polygon>
                <polygon id="Path" points="326.037097 293.64496 339.055645 271.095968 352.074194 293.64496"></polygon>
                <polygon id="Path" points="286.981452 316.193347 300 338.742339 273.962903 338.742339"></polygon>
                <polygon id="Path" points="286.981452 316.193347 273.962903 338.742339 260.944355 316.193347"></polygon>
                <polygon id="Path" points="286.981452 316.193347 260.944355 316.193347 273.962903 293.64496"></polygon>
                <polygon id="Path" points="273.962903 293.64496 260.944355 271.095968 286.981452 271.095968"></polygon>
                <polygon id="Path" points="273.962903 293.64496 260.944355 316.193347 247.925806 293.64496"></polygon>
                <polygon id="Path" points="273.962903 293.64496 247.925806 293.64496 260.944355 271.095968"></polygon>
                <polygon id="Path" points="286.981452 271.095968 300 248.547581 313.018548 271.095968"></polygon>
                <polygon id="Path" points="286.981452 271.095968 260.944355 271.095968 273.962903 248.547581"></polygon>
                <polygon id="Path" points="286.981452 271.095968 273.962903 248.547581 300 248.547581"></polygon>
                <polygon id="Path" points="313.018548 271.095968 326.037097 248.547581 339.055645 271.095968"></polygon>
                <polygon id="Path" points="313.018548 271.095968 300 248.547581 326.037097 248.547581"></polygon>
                <polygon id="Path" points="339.055645 316.193347 352.074194 338.742339 326.037097 338.742339"></polygon>
                <polygon id="Path" points="339.055645 316.193347 352.074194 293.64496 365.092137 316.193347"></polygon>
                <polygon id="Path" points="339.055645 316.193347 365.092137 316.193347 352.074194 338.742339"></polygon>
                <polygon id="Path" points="339.055645 271.095968 365.092137 271.095968 352.074194 293.64496"></polygon>
                <polygon id="Path" points="339.055645 271.095968 326.037097 248.547581 352.074194 248.547581"></polygon>
                <polygon id="Path" points="339.055645 271.095968 352.074194 248.547581 365.092137 271.095968"></polygon>
                <polygon id="Path" points="352.074194 293.64496 378.110685 293.64496 365.092137 316.193347"></polygon>
                <polygon id="Path" points="352.074194 293.64496 365.092137 271.095968 378.110685 293.64496"></polygon>
                <polygon id="Path" points="300 338.742339 326.037097 338.742339 313.018548 361.290726"></polygon>
                <polygon id="Path" points="300 338.742339 313.018548 361.290726 286.981452 361.290726"></polygon>
                <polygon id="Path" points="300 338.742339 286.981452 361.290726 273.962903 338.742339"></polygon>
                <polygon id="Path" points="273.962903 338.742339 247.925806 338.742339 260.944355 316.193347"></polygon>
                <polygon id="Path" points="273.962903 338.742339 286.981452 361.290726 260.944355 361.290726"></polygon>
                <polygon id="Path" points="273.962903 338.742339 260.944355 361.290726 247.925806 338.742339"></polygon>
                <polygon id="Path" points="260.944355 316.193347 247.925806 338.742339 234.907863 316.193347"></polygon>
                <polygon id="Path" points="260.944355 316.193347 234.907863 316.193347 247.925806 293.64496"></polygon>
                <polygon id="Path" points="247.925806 293.64496 234.907863 316.193347 221.889315 293.64496"></polygon>
                <polygon id="Path" points="260.944355 271.095968 247.925806 248.547581 273.962903 248.547581"></polygon>
                <polygon id="Path" points="273.962903 248.547581 260.944355 225.998589 286.981452 225.998589"></polygon>
                <polygon id="Path" points="273.962903 248.547581 247.925806 248.547581 260.944355 225.998589"></polygon>
                <polygon id="Path" points="273.962903 248.547581 286.981452 225.998589 300 248.547581"></polygon>
                <polygon id="Path" points="326.037097 248.547581 339.055645 225.998589 352.074194 248.547581"></polygon>
                <polygon id="Path" points="326.037097 338.742339 352.074194 338.742339 339.055645 361.290726"></polygon>
                <polygon id="Path" points="326.037097 338.742339 339.055645 361.290726 313.018548 361.290726"></polygon>
                <polygon id="Path" points="365.092137 316.193347 378.110685 338.742339 352.074194 338.742339"></polygon>
                <polygon id="Path" points="365.092137 316.193347 378.110685 293.64496 391.129234 316.193347"></polygon>
                <polygon id="Path" points="365.092137 316.193347 391.129234 316.193347 378.110685 338.742339"></polygon>
                <polygon id="Path" points="352.074194 338.742339 365.092137 361.290726 339.055645 361.290726"></polygon>
                <polygon id="Path" points="352.074194 338.742339 378.110685 338.742339 365.092137 361.290726"></polygon>
                <polygon id="Path" points="352.074194 248.547581 365.092137 225.998589 378.110685 248.547581"></polygon>
                <polygon id="Path" points="352.074194 248.547581 339.055645 225.998589 365.092137 225.998589"></polygon>
                <polygon id="Path" points="352.074194 248.547581 378.110685 248.547581 365.092137 271.095968"></polygon>
                <polygon id="Path" points="378.110685 293.64496 404.147782 293.64496 391.129234 316.193347"></polygon>
                <polygon id="Path" points="313.018548 361.290726 300 383.839718 286.981452 361.290726"></polygon>
                <polygon id="Path" points="313.018548 361.290726 339.055645 361.290726 326.037097 383.839718"></polygon>
                <polygon id="Path" points="313.018548 361.290726 326.037097 383.839718 300 383.839718"></polygon>
                <polygon id="Path" points="286.981452 361.290726 300 383.839718 273.962903 383.839718"></polygon>
                <polygon id="Path" points="286.981452 361.290726 273.962903 383.839718 260.944355 361.290726"></polygon>
                <polygon id="Path" points="260.944355 361.290726 273.962903 383.839718 247.925806 383.839718"></polygon>
                <polygon id="Path" points="247.925806 338.742339 221.889315 338.742339 234.907863 316.193347"></polygon>
                <polygon id="Path" points="234.907863 316.193347 208.870766 316.193347 221.889315 293.64496"></polygon>
                <polygon id="Path" points="234.907863 316.193347 221.889315 338.742339 208.870766 316.193347"></polygon>
                <polygon id="Path" points="221.889315 293.64496 195.852218 293.64496 208.870766 271.095968"></polygon>
                <polygon id="Path" points="221.889315 293.64496 208.870766 316.193347 195.852218 293.64496"></polygon>
                <polygon id="Path" points="247.925806 248.547581 221.889315 248.547581 234.907863 225.998589"></polygon>
                <polygon id="Path" points="247.925806 248.547581 234.907863 225.998589 260.944355 225.998589"></polygon>
                <polygon id="Path" points="260.944355 225.998589 273.962903 203.450202 286.981452 225.998589"></polygon>
                <polygon id="Path" points="260.944355 225.998589 247.925806 203.450202 273.962903 203.450202"></polygon>
                <polygon id="Path" points="260.944355 225.998589 234.907863 225.998589 247.925806 203.450202"></polygon>
                <polygon id="Path" points="286.981452 225.998589 273.962903 203.450202 300 203.450202"></polygon>
                <polygon id="Path" points="339.055645 225.998589 326.037097 203.450202 352.074194 203.450202"></polygon>
                <polygon id="Path" points="339.055645 225.998589 352.074194 203.450202 365.092137 225.998589"></polygon>
                <polygon id="Path" points="339.055645 361.290726 365.092137 361.290726 352.074194 383.839718"></polygon>
                <polygon id="Path" points="339.055645 361.290726 352.074194 383.839718 326.037097 383.839718"></polygon>
                <polygon id="Path" points="391.129234 316.193347 417.166331 316.193347 404.147782 338.742339"></polygon>
                <polygon id="Path" points="391.129234 316.193347 404.147782 293.64496 417.166331 316.193347"></polygon>
                <polygon id="Path" points="391.129234 316.193347 404.147782 338.742339 378.110685 338.742339"></polygon>
                <polygon id="Path" points="365.092137 361.290726 378.110685 383.839718 352.074194 383.839718"></polygon>
                <polygon id="Path" points="365.092137 225.998589 391.129234 225.998589 378.110685 248.547581"></polygon>
                <polygon id="Path" points="365.092137 225.998589 378.110685 203.450202 391.129234 225.998589"></polygon>
                <polygon id="Path" points="365.092137 225.998589 352.074194 203.450202 378.110685 203.450202"></polygon>
                <polygon id="Path" points="378.110685 248.547581 391.129234 225.998589 404.147782 248.547581"></polygon>
                <polygon id="Path" points="404.147782 293.64496 417.166331 271.095968 430.184879 293.64496"></polygon>
                <polygon id="Path" points="404.147782 293.64496 430.184879 293.64496 417.166331 316.193347"></polygon>
                <polygon id="Path" points="326.037097 383.839718 352.074194 383.839718 339.055645 406.388105"></polygon>
                <polygon id="Path" points="300 383.839718 286.981452 406.388105 273.962903 383.839718"></polygon>
                <polygon id="Path" points="273.962903 383.839718 260.944355 406.388105 247.925806 383.839718"></polygon>
                <polygon id="Path" points="273.962903 383.839718 286.981452 406.388105 260.944355 406.388105"></polygon>
                <polygon id="Path" points="247.925806 383.839718 234.907863 406.388105 221.889315 383.839718"></polygon>
                <polygon id="Path" points="247.925806 383.839718 260.944355 406.388105 234.907863 406.388105"></polygon>
                <polygon id="Path" points="221.889315 338.742339 208.870766 361.290726 195.852218 338.742339"></polygon>
                <polygon id="Path" points="221.889315 338.742339 195.852218 338.742339 208.870766 316.193347"></polygon>
                <polygon id="Path" points="208.870766 316.193347 182.833669 316.193347 195.852218 293.64496"></polygon>
                <polygon id="Path" points="208.870766 316.193347 195.852218 338.742339 182.833669 316.193347"></polygon>
                <polygon id="Path" points="208.870766 271.095968 195.852218 248.547581 221.889315 248.547581"></polygon>
                <polygon id="Path" points="208.870766 271.095968 195.852218 293.64496 182.833669 271.095968"></polygon>
                <polygon id="Path" points="208.870766 271.095968 182.833669 271.095968 195.852218 248.547581"></polygon>
                <polygon id="Path" points="195.852218 293.64496 169.815121 293.64496 182.833669 271.095968"></polygon>
                <polygon id="Path" points="195.852218 293.64496 182.833669 316.193347 169.815121 293.64496"></polygon>
                <polygon id="Path" points="221.889315 248.547581 195.852218 248.547581 208.870766 225.998589"></polygon>
                <polygon id="Path" points="221.889315 248.547581 208.870766 225.998589 234.907863 225.998589"></polygon>
                <polygon id="Path" points="234.907863 225.998589 208.870766 225.998589 221.889315 203.450202"></polygon>
                <polygon id="Path" points="234.907863 225.998589 221.889315 203.450202 247.925806 203.450202"></polygon>
                <polygon id="Path" points="273.962903 203.450202 286.981452 180.90121 300 203.450202"></polygon>
                <polygon id="Path" points="273.962903 203.450202 260.944355 180.90121 286.981452 180.90121"></polygon>
                <polygon id="Path" points="273.962903 203.450202 247.925806 203.450202 260.944355 180.90121"></polygon>
                <polygon id="Path" points="300 203.450202 313.018548 180.90121 326.037097 203.450202"></polygon>
                <polygon id="Path" points="300 203.450202 286.981452 180.90121 313.018548 180.90121"></polygon>
                <polygon id="Path" points="326.037097 203.450202 313.018548 180.90121 339.055645 180.90121"></polygon>
                <polygon id="Path" points="326.037097 203.450202 339.055645 180.90121 352.074194 203.450202"></polygon>
                <polygon id="Path" points="352.074194 203.450202 339.055645 180.90121 365.092137 180.90121"></polygon>
                <polygon id="Path" points="352.074194 203.450202 365.092137 180.90121 378.110685 203.450202"></polygon>
                <polygon id="Path" points="352.074194 383.839718 365.092137 406.388105 339.055645 406.388105"></polygon>
                <polygon id="Path" points="352.074194 383.839718 378.110685 383.839718 365.092137 406.388105"></polygon>
                <polygon id="Path" points="417.166331 316.193347 430.184879 338.742339 404.147782 338.742339"></polygon>
                <polygon id="Path" points="417.166331 316.193347 443.203427 316.193347 430.184879 338.742339"></polygon>
                <polygon id="Path" points="417.166331 316.193347 430.184879 293.64496 443.203427 316.193347"></polygon>
                <polygon id="Path" points="404.147782 338.742339 430.184879 338.742339 417.166331 361.290726"></polygon>
                <polygon id="Path" points="378.110685 383.839718 404.147782 383.839718 391.129234 406.388105"></polygon>
                <polygon id="Path" points="378.110685 383.839718 391.129234 406.388105 365.092137 406.388105"></polygon>
                <polygon id="Path" points="391.129234 225.998589 417.166331 225.998589 404.147782 248.547581"></polygon>
                <polygon id="Path" points="391.129234 225.998589 404.147782 203.450202 417.166331 225.998589"></polygon>
                <polygon id="Path" points="391.129234 225.998589 378.110685 203.450202 404.147782 203.450202"></polygon>
                <polygon id="Path" points="404.147782 248.547581 430.184879 248.547581 417.166331 271.095968"></polygon>
                <polygon id="Path" points="404.147782 248.547581 417.166331 225.998589 430.184879 248.547581"></polygon>
                <polygon id="Path" points="417.166331 271.095968 430.184879 248.547581 443.203427 271.095968"></polygon>
                <polygon id="Path" points="417.166331 271.095968 443.203427 271.095968 430.184879 293.64496"></polygon>
                <polygon id="Path" points="430.184879 293.64496 443.203427 271.095968 456.221976 293.64496"></polygon>
                <polygon id="Path" points="430.184879 293.64496 456.221976 293.64496 443.203427 316.193347"></polygon>
                <polygon id="Path" points="339.055645 406.388105 352.074194 428.936492 326.037097 428.936492"></polygon>
                <polygon id="Path" points="339.055645 406.388105 365.092137 406.388105 352.074194 428.936492"></polygon>
                <polygon id="Path" points="286.981452 406.388105 300 428.936492 273.962903 428.936492"></polygon>
                <polygon id="Path" points="286.981452 406.388105 273.962903 428.936492 260.944355 406.388105"></polygon>
                <polygon id="Path" points="260.944355 406.388105 247.925806 428.936492 234.907863 406.388105"></polygon>
                <polygon id="Path" points="260.944355 406.388105 273.962903 428.936492 247.925806 428.936492"></polygon>
                <polygon id="Path" points="221.889315 383.839718 195.852218 383.839718 208.870766 361.290726"></polygon>
                <polygon id="Path" points="221.889315 383.839718 234.907863 406.388105 208.870766 406.388105"></polygon>
                <polygon id="Path" points="221.889315 383.839718 208.870766 406.388105 195.852218 383.839718"></polygon>
                <polygon id="Path" points="234.907863 406.388105 221.889315 428.936492 208.870766 406.388105"></polygon>
                <polygon id="Path" points="234.907863 406.388105 247.925806 428.936492 221.889315 428.936492"></polygon>
                <polygon id="Path" points="208.870766 361.290726 195.852218 383.839718 182.833669 361.290726"></polygon>
                <polygon id="Path" points="208.870766 361.290726 182.833669 361.290726 195.852218 338.742339"></polygon>
                <polygon id="Path" points="195.852218 338.742339 182.833669 361.290726 169.815121 338.742339"></polygon>
                <polygon id="Path" points="195.852218 338.742339 169.815121 338.742339 182.833669 316.193347"></polygon>
                <polygon id="Path" points="182.833669 271.095968 169.815121 248.547581 195.852218 248.547581"></polygon>
                <polygon id="Path" points="182.833669 271.095968 169.815121 293.64496 156.796573 271.095968"></polygon>
                <polygon id="Path" points="182.833669 271.095968 156.796573 271.095968 169.815121 248.547581"></polygon>
                <polygon id="Path" points="195.852218 248.547581 182.833669 225.998589 208.870766 225.998589"></polygon>
                <polygon id="Path" points="195.852218 248.547581 169.815121 248.547581 182.833669 225.998589"></polygon>
                <polygon id="Path" points="169.815121 293.64496 143.778024 293.64496 156.796573 271.095968"></polygon>
                <polygon id="Path" points="208.870766 225.998589 182.833669 225.998589 195.852218 203.450202"></polygon>
                <polygon id="Path" points="208.870766 225.998589 195.852218 203.450202 221.889315 203.450202"></polygon>
                <polygon id="Path" points="221.889315 203.450202 195.852218 203.450202 208.870766 180.90121"></polygon>
                <polygon id="Path" points="286.981452 180.90121 300 158.352823 313.018548 180.90121"></polygon>
                <polygon id="Path" points="286.981452 180.90121 260.944355 180.90121 273.962903 158.352823"></polygon>
                <polygon id="Path" points="286.981452 180.90121 273.962903 158.352823 300 158.352823"></polygon>
                <polygon id="Path" points="260.944355 180.90121 247.925806 158.352823 273.962903 158.352823"></polygon>
                <polygon id="Path" points="313.018548 180.90121 326.037097 158.352823 339.055645 180.90121"></polygon>
                <polygon id="Path" points="313.018548 180.90121 300 158.352823 326.037097 158.352823"></polygon>
                <polygon id="Path" points="339.055645 180.90121 326.037097 158.352823 352.074194 158.352823"></polygon>
                <polygon id="Path" points="339.055645 180.90121 352.074194 158.352823 365.092137 180.90121"></polygon>
                <polygon id="Path" points="365.092137 180.90121 352.074194 158.352823 378.110685 158.352823"></polygon>
                <polygon id="Path" points="365.092137 406.388105 378.110685 428.936492 352.074194 428.936492"></polygon>
                <polygon id="Path" points="365.092137 406.388105 391.129234 406.388105 378.110685 428.936492"></polygon>
                <polygon id="Path" points="430.184879 338.742339 443.203427 361.290726 417.166331 361.290726"></polygon>
                <polygon id="Path" points="430.184879 338.742339 456.221976 338.742339 443.203427 361.290726"></polygon>
                <polygon id="Path" points="430.184879 338.742339 443.203427 316.193347 456.221976 338.742339"></polygon>
                <polygon id="Path" points="417.166331 361.290726 430.184879 383.839718 404.147782 383.839718"></polygon>
                <polygon id="Path" points="417.166331 361.290726 443.203427 361.290726 430.184879 383.839718"></polygon>
                <polygon id="Path" points="404.147782 383.839718 430.184879 383.839718 417.166331 406.388105"></polygon>
                <polygon id="Path" points="404.147782 383.839718 417.166331 406.388105 391.129234 406.388105"></polygon>
                <polygon id="Path" points="391.129234 406.388105 417.166331 406.388105 404.147782 428.936492"></polygon>
                <polygon id="Path" points="391.129234 406.388105 404.147782 428.936492 378.110685 428.936492"></polygon>
                <polygon id="Path" points="417.166331 225.998589 443.203427 225.998589 430.184879 248.547581"></polygon>
                <polygon id="Path" points="417.166331 225.998589 404.147782 203.450202 430.184879 203.450202"></polygon>
                <polygon id="Path" points="417.166331 225.998589 430.184879 203.450202 443.203427 225.998589"></polygon>
                <polygon id="Path" points="404.147782 203.450202 417.166331 180.90121 430.184879 203.450202"></polygon>
                <polygon id="Path" points="430.184879 248.547581 456.221976 248.547581 443.203427 271.095968"></polygon>
                <polygon id="Path" points="430.184879 248.547581 443.203427 225.998589 456.221976 248.547581"></polygon>
                <polygon id="Path" points="443.203427 271.095968 456.221976 248.547581 469.240524 271.095968"></polygon>
                <polygon id="Path" points="443.203427 271.095968 469.240524 271.095968 456.221976 293.64496"></polygon>
                <polygon id="Path" points="326.037097 428.936492 313.018548 451.485484 300 428.936492"></polygon>
                <polygon id="Path" points="326.037097 428.936492 352.074194 428.936492 339.055645 451.485484"></polygon>
                <polygon id="Path" points="326.037097 428.936492 339.055645 451.485484 313.018548 451.485484"></polygon>
                <polygon id="Path" points="365.092137 451.485484 339.055645 451.485484 352.074194 428.936492"></polygon>
                <polygon id="Path" points="365.092137 451.485484 352.074194 428.936492 378.110685 428.936492"></polygon>
                <polygon id="Path" points="286.981452 451.485484 300 428.936492 313.018548 451.485484"></polygon>
                <polygon id="Path" points="286.981452 451.485484 273.962903 428.936492 300 428.936492"></polygon>
                <polygon id="Path" points="260.944355 451.485484 273.962903 428.936492 286.981452 451.485484"></polygon>
                <polygon id="Path" points="260.944355 451.485484 247.925806 428.936492 273.962903 428.936492"></polygon>
                <polygon id="Path" points="182.833669 406.388105 195.852218 383.839718 208.870766 406.388105"></polygon>
                <polygon id="Path" points="195.852218 428.936492 208.870766 406.388105 221.889315 428.936492"></polygon>
                <polygon id="Path" points="182.833669 406.388105 208.870766 406.388105 195.852218 428.936492"></polygon>
                <polygon id="Path" points="169.815121 383.839718 182.833669 361.290726 195.852218 383.839718"></polygon>
                <polygon id="Path" points="169.815121 383.839718 195.852218 383.839718 182.833669 406.388105"></polygon>
                <polygon id="Path" points="208.870766 451.485484 195.852218 428.936492 221.889315 428.936492"></polygon>
                <polygon id="Path" points="169.815121 383.839718 156.796573 361.290726 182.833669 361.290726"></polygon>
                <polygon id="Path" points="156.796573 361.290726 169.815121 338.742339 182.833669 361.290726"></polygon>
                <polygon id="Path" points="156.796573 361.290726 143.778024 338.742339 169.815121 338.742339"></polygon>
                <polygon id="Path" points="130.759476 271.095968 143.778024 248.547581 156.796573 271.095968"></polygon>
                <polygon id="Path" points="130.759476 271.095968 156.796573 271.095968 143.778024 293.64496"></polygon>
                <polygon id="Path" points="143.778024 248.547581 169.815121 248.547581 156.796573 271.095968"></polygon>
                <polygon id="Path" points="169.815121 203.450202 195.852218 203.450202 182.833669 225.998589"></polygon>
                <polygon id="Path" points="182.833669 180.90121 208.870766 180.90121 195.852218 203.450202"></polygon>
                <polygon id="Path" points="169.815121 203.450202 182.833669 180.90121 195.852218 203.450202"></polygon>
                <polygon id="Path" points="221.889315 158.352823 208.870766 180.90121 195.852218 158.352823"></polygon>
                <polygon id="Path" points="182.833669 180.90121 195.852218 158.352823 208.870766 180.90121"></polygon>
                <polygon id="Path" points="260.944355 135.803831 286.981452 135.803831 273.962903 158.352823"></polygon>
                <polygon id="Path" points="260.944355 135.803831 273.962903 158.352823 247.925806 158.352823"></polygon>
                <polygon id="Path" points="286.981452 135.803831 300 158.352823 273.962903 158.352823"></polygon>
                <polygon id="Path" points="221.889315 158.352823 234.907863 135.803831 247.925806 158.352823"></polygon>
                <polygon id="Path" points="260.944355 135.803831 247.925806 158.352823 234.907863 135.803831"></polygon>
                <polygon id="Path" points="339.055645 135.803831 352.074194 158.352823 326.037097 158.352823"></polygon>
                <polygon id="Path" points="365.092137 135.803831 378.110685 158.352823 352.074194 158.352823"></polygon>
                <polygon id="Path" points="339.055645 135.803831 365.092137 135.803831 352.074194 158.352823"></polygon>
                <polygon id="Path" points="404.147782 158.352823 378.110685 158.352823 391.129234 135.803831"></polygon>
                <polygon id="Path" points="365.092137 135.803831 391.129234 135.803831 378.110685 158.352823"></polygon>
                <polygon id="Path" points="456.221976 383.839718 430.184879 383.839718 443.203427 361.290726"></polygon>
                <polygon id="Path" points="469.240524 361.290726 443.203427 361.290726 456.221976 338.742339"></polygon>
                <polygon id="Path" points="469.240524 361.290726 456.221976 383.839718 443.203427 361.290726"></polygon>
                <polygon id="Path" points="443.203427 406.388105 417.166331 406.388105 430.184879 383.839718"></polygon>
                <polygon id="Path" points="456.221976 383.839718 443.203427 406.388105 430.184879 383.839718"></polygon>
                <polygon id="Path" points="443.203427 406.388105 430.184879 428.936492 417.166331 406.388105"></polygon>
                <polygon id="Path" points="430.184879 428.936492 404.147782 428.936492 417.166331 406.388105"></polygon>
                <polygon id="Path" points="430.184879 428.936492 417.166331 451.485484 404.147782 428.936492"></polygon>
                <polygon id="Path" points="430.184879 203.450202 443.203427 180.90121 456.221976 203.450202"></polygon>
                <polygon id="Path" points="430.184879 203.450202 417.166331 180.90121 443.203427 180.90121"></polygon>
                <polygon id="Path" points="430.184879 203.450202 456.221976 203.450202 443.203427 225.998589"></polygon>
                <polygon id="Path" points="404.147782 158.352823 430.184879 158.352823 417.166331 180.90121"></polygon>
                <polygon id="Path" points="417.166331 180.90121 430.184879 158.352823 443.203427 180.90121"></polygon>
                <polygon id="Path" points="195.852218 428.936492 182.833669 451.485484 169.815121 428.936492"></polygon>
                <polygon id="Path" points="208.870766 451.485484 182.833669 451.485484 195.852218 428.936492"></polygon>
                <polygon id="Path" points="182.833669 406.388105 195.852218 428.936492 169.815121 428.936492"></polygon>
                <polygon id="Path" points="169.815121 383.839718 143.778024 383.839718 156.796573 361.290726"></polygon>
                <polygon id="Path" points="156.796573 361.290726 130.759476 361.290726 143.778024 338.742339"></polygon>
                <polygon id="Path" points="156.796573 361.290726 143.778024 383.839718 130.759476 361.290726"></polygon>
                <polygon id="Path" points="169.815121 203.450202 143.778024 203.450202 156.796573 180.90121"></polygon>
                <polygon id="Path" points="169.815121 203.450202 156.796573 180.90121 182.833669 180.90121"></polygon>
                <polygon id="Path" points="182.833669 180.90121 169.815121 158.352823 195.852218 158.352823"></polygon>
                <polygon id="Path" points="182.833669 180.90121 156.796573 180.90121 169.815121 158.352823"></polygon>
                <polygon id="Path" points="221.889315 158.352823 195.852218 158.352823 208.870766 135.803831"></polygon>
                <polygon id="Path" points="221.889315 158.352823 208.870766 135.803831 234.907863 135.803831"></polygon>
                <polygon id="Path" points="195.852218 158.352823 182.833669 135.803831 208.870766 135.803831"></polygon>
                <polygon id="Path" points="195.852218 158.352823 169.815121 158.352823 182.833669 135.803831"></polygon>
                <polygon id="Path" points="404.147782 158.352823 391.129234 135.803831 417.166331 135.803831"></polygon>
                <polygon id="Path" points="404.147782 158.352823 417.166331 135.803831 430.184879 158.352823"></polygon>
                <polygon id="Path" points="443.203427 406.388105 456.221976 428.936492 430.184879 428.936492"></polygon>
                <polygon id="Path" points="430.184879 428.936492 443.203427 451.485484 417.166331 451.485484"></polygon>
                <polygon id="Path" points="430.184879 428.936492 456.221976 428.936492 443.203427 451.485484"></polygon>
                <polygon id="Path" points="469.240524 180.90121 456.221976 203.450202 443.203427 180.90121"></polygon>
                <polygon id="Path" points="456.221976 158.352823 469.240524 180.90121 443.203427 180.90121"></polygon>
                <polygon id="Path" points="456.221976 158.352823 443.203427 180.90121 430.184879 158.352823"></polygon>
                <polygon id="Path" points="443.203427 135.803831 430.184879 158.352823 417.166331 135.803831"></polygon>
                <polygon id="Path" points="443.203427 135.803831 456.221976 158.352823 430.184879 158.352823"></polygon>
                <polygon id="Path" points="156.796573 451.485484 169.815121 428.936492 182.833669 451.485484"></polygon>
                <polygon id="Path" points="143.778024 428.936492 169.815121 428.936492 156.796573 451.485484"></polygon>
                <polygon id="Path" points="130.759476 180.90121 156.796573 180.90121 143.778024 203.450202"></polygon>
                <polygon id="Path" points="143.778024 158.352823 156.796573 180.90121 130.759476 180.90121"></polygon>
                <polygon id="Path" points="143.778024 158.352823 169.815121 158.352823 156.796573 180.90121"></polygon>
                <polygon id="Path" points="469.240524 451.485484 443.203427 451.485484 456.221976 428.936492"></polygon>
                <polygon id="Path" points="130.759476 451.485484 143.778024 428.936492 156.796573 451.485484"></polygon>
            </g>
            <g id="Group" transform="translate(52.620968, 22.983871)" fill="#BD65D3">
                <polygon id="Path" points="195.304839 270.661089 169.268347 270.661089 156.249798 248.112097 169.268347 225.56371 195.304839 225.56371 208.323387 248.112097"></polygon>
                <polygon id="Path" points="247.379032 225.56371 234.360484 203.014718 247.379032 180.466331 273.416129 180.466331 286.434677 203.014718 273.416129 225.56371"></polygon>
                <polygon id="Path" points="312.471169 248.112097 325.489718 225.56371 351.526815 225.56371 364.545363 248.112097 351.526815 270.661089 325.489718 270.661089"></polygon>
                <polygon id="Path" points="208.323387 338.306855 195.304839 360.855847 169.268347 360.855847 156.249798 338.306855 169.268347 315.758468 195.304839 315.758468"></polygon>
                <polygon id="Path" points="325.489718 315.758468 351.526815 315.758468 364.545363 338.306855 351.526815 360.855847 325.489718 360.855847 312.471169 338.306855"></polygon>
                <polygon id="Path" points="273.416129 360.855847 286.434677 383.404234 273.416129 405.952621 247.379032 405.952621 234.360484 383.404234 247.379032 360.855847"></polygon>
                <polygon id="Path" points="169.268347 135.368952 195.304839 135.368952 208.323387 157.917339 195.304839 180.466331 169.268347 180.466331 156.249798 157.917339"></polygon>
                <polygon id="Path" points="351.526815 135.368952 364.545363 157.917339 351.526815 180.466331 325.489718 180.466331 312.471169 157.917339 325.489718 135.368952"></polygon>
                <polygon id="Path" points="91.1570565 315.758468 78.1385081 293.209476 91.1570565 270.661089 117.194153 270.661089 130.212702 293.209476 117.194153 315.758468"></polygon>
                <polygon id="Path" points="429.6375 315.758468 403.601008 315.758468 390.58246 293.209476 403.601008 270.661089 429.6375 270.661089 442.656048 293.209476"></polygon>
                <polygon id="Path" points="156.249798 428.501613 169.268347 405.952621 195.304839 405.952621 208.323387 428.501613 195.304839 451.05 169.268347 451.05"></polygon>
                <polygon id="Path" points="91.1570565 225.56371 78.1385081 203.014718 91.1570565 180.466331 117.194153 180.466331 130.212702 203.014718 117.194153 225.56371"></polygon>
                <polygon id="Path" points="234.360484 112.81996 247.379032 90.2715726 273.416129 90.2715726 286.434677 112.81996 273.416129 135.368952 247.379032 135.368952"></polygon>
                <polygon id="Path" points="312.471169 428.501613 325.489718 405.952621 351.526815 405.952621 364.545363 428.501613 351.526815 451.05 325.489718 451.05"></polygon>
                <polygon id="Path" points="442.656048 203.014718 429.6375 225.56371 403.601008 225.56371 390.58246 203.014718 403.601008 180.466331 429.6375 180.466331"></polygon>
                <polygon id="Path" points="117.194153 360.855847 130.212702 383.404234 117.194153 405.952621 91.1570565 405.952621 78.1385081 383.404234 91.1570565 360.855847"></polygon>
                <polygon id="Path" points="403.601008 360.855847 429.6375 360.855847 442.656048 383.404234 429.6375 405.952621 403.601008 405.952621 390.58246 383.404234"></polygon>
                <polygon id="Path" points="91.1570565 90.2715726 117.194153 90.2715726 130.212702 112.81996 117.194153 135.368952 91.1570565 135.368952 78.1385081 112.81996"></polygon>
                <polygon id="Path" points="429.6375 90.2715726 442.656048 112.81996 429.6375 135.368952 403.601008 135.368952 390.58246 112.81996 403.601008 90.2715726"></polygon>
                <polygon id="Path" points="247.379032 270.661089 273.416129 270.661089 286.434677 293.209476 273.416129 315.758468 247.379032 315.758468 234.360484 293.209476"></polygon>
            </g>
        </g>
    </g>
</svg>