<?xml version="1.0" encoding="UTF-8"?>
<svg width="300px" height="300px" viewBox="0 0 300 300" version="1.1" xmlns="http://www.w3.org/2000/svg" xmlns:xlink="http://www.w3.org/1999/xlink">
    <!-- Generator: Sketch 57.1 (83088) - https://sketch.com -->
    <title>writings-tiling-5</title>
    <desc>Created with Sketch.</desc>
    <g id="writings-tiling-5" stroke="none" stroke-width="1" fill="none" fill-rule="evenodd">
        <g id="3-uniform_59" transform="translate(-150.000000, -144.000000)" fill-rule="nonzero" stroke="#212529">
            <g id="Group" fill="#E9D4F0">
                <polygon id="Path" points="300 293.64496 313.018548 271.095968 326.037097 293.64496"></polygon>
                <polygon id="Path" points="300 293.64496 286.981452 316.193347 273.962903 293.64496"></polygon>
                <polygon id="Path" points="300 293.64496 273.962903 293.64496 286.981452 271.095968"></polygon>
                <polygon id="Path" points="300 293.64496 286.981452 271.095968 313.018548 271.095968"></polygon>
                <polygon id="Path" points="326.037097 293.64496 352.074194 293.64496 339.055645 316.193347"></polygon>
                <polygon id="Path" points="326.037097 293.64496 313.018548 271.095968 339.055645 271.095968"></polygon>
                <polygon id="Path" points="326.037097 293.64496 339.055645 271.095968 352.074194 293.64496"></polygon>
                <polygon id="Path" points="286.981452 316.193347 300 338.742339 273.962903 338.742339"></polygon>
                <polygon id="Path" points="286.981452 316.193347 273.962903 338.742339 260.944355 316.193347"></polygon>
                <polygon id="Path" points="286.981452 316.193347 260.944355 316.193347 273.962903 293.64496"></polygon>
                <polygon id="Path" points="273.962903 293.64496 260.944355 271.095968 286.981452 271.095968"></polygon>
                <polygon id="Path" points="273.962903 293.64496 260.944355 316.193347 247.925806 293.64496"></polygon>
                <polygon id="Path" points="273.962903 293.64496 247.925806 293.64496 260.944355 271.095968"></polygon>
                <polygon id="Path" points="286.981452 271.095968 300 248.547581 313.018548 271.095968"></polygon>
                <polygon id="Path" points="286.981452 271.095968 260.944355 271.095968 273.962903 248.547581"></polygon>
                <polygon id="Path" points="286.981452 271.095968 273.962903 248.547581 300 248.547581"></polygon>
                <polygon id="Path" points="313.018548 271.095968 326.037097 248.547581 339.055645 271.095968"></polygon>
                <polygon id="Path" points="313.018548 271.095968 300 248.547581 326.037097 248.547581"></polygon>
                <polygon id="Path" points="339.055645 316.193347 352.074194 338.742339 326.037097 338.742339"></polygon>
                <polygon id="Path" points="339.055645 316.193347 352.074194 293.64496 365.092137 316.193347"></polygon>
                <polygon id="Path" points="339.055645 316.193347 365.092137 316.193347 352.074194 338.742339"></polygon>
                <polygon id="Path" points="339.055645 271.095968 365.092137 271.095968 352.074194 293.64496"></polygon>
                <polygon id="Path" points="339.055645 271.095968 326.037097 248.547581 352.074194 248.547581"></polygon>
                <polygon id="Path" points="339.055645 271.095968 352.074194 248.547581 365.092137 271.095968"></polygon>
                <polygon id="Path" points="352.074194 293.64496 378.110685 293.64496 365.092137 316.193347"></polygon>
                <polygon id="Path" points="352.074194 293.64496 365.092137 271.095968 378.110685 293.64496"></polygon>
                <polygon id="Path" points="300 338.742339 326.037097 338.742339 313.018548 361.290726"></polygon>
                <polygon id="Path" points="300 338.742339 313.018548 361.290726 286.981452 361.290726"></polygon>
                <polygon id="Path" points="300 338.742339 286.981452 361.290726 273.962903 338.742339"></polygon>
                <polygon id="Path" points="273.962903 338.742339 247.925806 338.742339 260.944355 316.193347"></polygon>
                <polygon id="Path" points="273.962903 338.742339 286.981452 361.290726 260.944355 361.290726"></polygon>
                <polygon id="Path" points="273.962903 338.742339 260.944355 361.290726 247.925806 338.742339"></polygon>
                <polygon id="Path" points="260.944355 316.193347 247.925806 338.742339 234.907863 316.193347"></polygon>
                <polygon id="Path" points="260.944355 316.193347 234.907863 316.193347 247.925806 293.64496"></polygon>
                <polygon id="Path" points="247.925806 293.64496 234.907863 316.193347 221.889315 293.64496"></polygon>
                <polygon id="Path" points="247.925806 293.64496 221.889315 293.64496 234.907863 271.095968"></polygon>
                <polygon id="Path" points="247.925806 293.64496 234.907863 271.095968 260.944355 271.095968"></polygon>
                <polygon id="Path" points="260.944355 271.095968 234.907863 271.095968 247.925806 248.547581"></polygon>
                <polygon id="Path" points="260.944355 271.095968 247.925806 248.547581 273.962903 248.547581"></polygon>
                <polygon id="Path" points="273.962903 248.547581 286.981452 225.998589 300 248.547581"></polygon>
                <polygon id="Path" points="300 248.547581 286.981452 225.998589 313.018548 225.998589"></polygon>
                <polygon id="Path" points="300 248.547581 313.018548 225.998589 326.037097 248.547581"></polygon>
                <polygon id="Path" points="326.037097 248.547581 313.018548 225.998589 339.055645 225.998589"></polygon>
                <polygon id="Path" points="326.037097 248.547581 339.055645 225.998589 352.074194 248.547581"></polygon>
                <polygon id="Path" points="326.037097 338.742339 352.074194 338.742339 339.055645 361.290726"></polygon>
                <polygon id="Path" points="326.037097 338.742339 339.055645 361.290726 313.018548 361.290726"></polygon>
                <polygon id="Path" points="365.092137 316.193347 378.110685 338.742339 352.074194 338.742339"></polygon>
                <polygon id="Path" points="365.092137 316.193347 378.110685 293.64496 391.129234 316.193347"></polygon>
                <polygon id="Path" points="365.092137 316.193347 391.129234 316.193347 378.110685 338.742339"></polygon>
                <polygon id="Path" points="352.074194 338.742339 365.092137 361.290726 339.055645 361.290726"></polygon>
                <polygon id="Path" points="352.074194 338.742339 378.110685 338.742339 365.092137 361.290726"></polygon>
                <polygon id="Path" points="352.074194 248.547581 378.110685 248.547581 365.092137 271.095968"></polygon>
                <polygon id="Path" points="365.092137 271.095968 378.110685 248.547581 391.129234 271.095968"></polygon>
                <polygon id="Path" points="365.092137 271.095968 391.129234 271.095968 378.110685 293.64496"></polygon>
                <polygon id="Path" points="378.110685 293.64496 391.129234 271.095968 404.147782 293.64496"></polygon>
                <polygon id="Path" points="378.110685 293.64496 404.147782 293.64496 391.129234 316.193347"></polygon>
                <polygon id="Path" points="313.018548 361.290726 300 383.839718 286.981452 361.290726"></polygon>
                <polygon id="Path" points="313.018548 361.290726 339.055645 361.290726 326.037097 383.839718"></polygon>
                <polygon id="Path" points="313.018548 361.290726 326.037097 383.839718 300 383.839718"></polygon>
                <polygon id="Path" points="286.981452 361.290726 300 383.839718 273.962903 383.839718"></polygon>
                <polygon id="Path" points="286.981452 361.290726 273.962903 383.839718 260.944355 361.290726"></polygon>
                <polygon id="Path" points="260.944355 361.290726 273.962903 383.839718 247.925806 383.839718"></polygon>
                <polygon id="Path" points="260.944355 361.290726 247.925806 383.839718 234.907863 361.290726"></polygon>
                <polygon id="Path" points="260.944355 361.290726 234.907863 361.290726 247.925806 338.742339"></polygon>
                <polygon id="Path" points="247.925806 338.742339 234.907863 361.290726 221.889315 338.742339"></polygon>
                <polygon id="Path" points="247.925806 338.742339 221.889315 338.742339 234.907863 316.193347"></polygon>
                <polygon id="Path" points="221.889315 293.64496 195.852218 293.64496 208.870766 271.095968"></polygon>
                <polygon id="Path" points="221.889315 293.64496 208.870766 271.095968 234.907863 271.095968"></polygon>
                <polygon id="Path" points="234.907863 271.095968 208.870766 271.095968 221.889315 248.547581"></polygon>
                <polygon id="Path" points="234.907863 271.095968 221.889315 248.547581 247.925806 248.547581"></polygon>
                <polygon id="Path" points="247.925806 248.547581 221.889315 248.547581 234.907863 225.998589"></polygon>
                <polygon id="Path" points="286.981452 225.998589 273.962903 203.450202 300 203.450202"></polygon>
                <polygon id="Path" points="286.981452 225.998589 300 203.450202 313.018548 225.998589"></polygon>
                <polygon id="Path" points="313.018548 225.998589 300 203.450202 326.037097 203.450202"></polygon>
                <polygon id="Path" points="313.018548 225.998589 326.037097 203.450202 339.055645 225.998589"></polygon>
                <polygon id="Path" points="339.055645 225.998589 326.037097 203.450202 352.074194 203.450202"></polygon>
                <polygon id="Path" points="339.055645 361.290726 365.092137 361.290726 352.074194 383.839718"></polygon>
                <polygon id="Path" points="339.055645 361.290726 352.074194 383.839718 326.037097 383.839718"></polygon>
                <polygon id="Path" points="391.129234 316.193347 404.147782 338.742339 378.110685 338.742339"></polygon>
                <polygon id="Path" points="378.110685 338.742339 404.147782 338.742339 391.129234 361.290726"></polygon>
                <polygon id="Path" points="378.110685 338.742339 391.129234 361.290726 365.092137 361.290726"></polygon>
                <polygon id="Path" points="365.092137 361.290726 391.129234 361.290726 378.110685 383.839718"></polygon>
                <polygon id="Path" points="365.092137 361.290726 378.110685 383.839718 352.074194 383.839718"></polygon>
                <polygon id="Path" points="378.110685 248.547581 391.129234 225.998589 404.147782 248.547581"></polygon>
                <polygon id="Path" points="378.110685 248.547581 404.147782 248.547581 391.129234 271.095968"></polygon>
                <polygon id="Path" points="391.129234 271.095968 404.147782 248.547581 417.166331 271.095968"></polygon>
                <polygon id="Path" points="391.129234 271.095968 417.166331 271.095968 404.147782 293.64496"></polygon>
                <polygon id="Path" points="404.147782 293.64496 417.166331 271.095968 430.184879 293.64496"></polygon>
                <polygon id="Path" points="326.037097 383.839718 352.074194 383.839718 339.055645 406.388105"></polygon>
                <polygon id="Path" points="326.037097 383.839718 339.055645 406.388105 313.018548 406.388105"></polygon>
                <polygon id="Path" points="326.037097 383.839718 313.018548 406.388105 300 383.839718"></polygon>
                <polygon id="Path" points="300 383.839718 313.018548 406.388105 286.981452 406.388105"></polygon>
                <polygon id="Path" points="300 383.839718 286.981452 406.388105 273.962903 383.839718"></polygon>
                <polygon id="Path" points="247.925806 383.839718 234.907863 406.388105 221.889315 383.839718"></polygon>
                <polygon id="Path" points="247.925806 383.839718 221.889315 383.839718 234.907863 361.290726"></polygon>
                <polygon id="Path" points="234.907863 361.290726 221.889315 383.839718 208.870766 361.290726"></polygon>
                <polygon id="Path" points="234.907863 361.290726 208.870766 361.290726 221.889315 338.742339"></polygon>
                <polygon id="Path" points="221.889315 338.742339 208.870766 361.290726 195.852218 338.742339"></polygon>
                <polygon id="Path" points="195.852218 293.64496 182.833669 316.193347 169.815121 293.64496"></polygon>
                <polygon id="Path" points="195.852218 293.64496 169.815121 293.64496 182.833669 271.095968"></polygon>
                <polygon id="Path" points="195.852218 293.64496 182.833669 271.095968 208.870766 271.095968"></polygon>
                <polygon id="Path" points="208.870766 271.095968 182.833669 271.095968 195.852218 248.547581"></polygon>
                <polygon id="Path" points="208.870766 271.095968 195.852218 248.547581 221.889315 248.547581"></polygon>
                <polygon id="Path" points="221.889315 248.547581 208.870766 225.998589 234.907863 225.998589"></polygon>
                <polygon id="Path" points="221.889315 248.547581 195.852218 248.547581 208.870766 225.998589"></polygon>
                <polygon id="Path" points="234.907863 225.998589 221.889315 203.450202 247.925806 203.450202"></polygon>
                <polygon id="Path" points="234.907863 225.998589 208.870766 225.998589 221.889315 203.450202"></polygon>
                <polygon id="Path" points="273.962903 203.450202 247.925806 203.450202 260.944355 180.90121"></polygon>
                <polygon id="Path" points="273.962903 203.450202 260.944355 180.90121 286.981452 180.90121"></polygon>
                <polygon id="Path" points="273.962903 203.450202 286.981452 180.90121 300 203.450202"></polygon>
                <polygon id="Path" points="300 203.450202 286.981452 180.90121 313.018548 180.90121"></polygon>
                <polygon id="Path" points="300 203.450202 313.018548 180.90121 326.037097 203.450202"></polygon>
                <polygon id="Path" points="326.037097 203.450202 339.055645 180.90121 352.074194 203.450202"></polygon>
                <polygon id="Path" points="326.037097 203.450202 313.018548 180.90121 339.055645 180.90121"></polygon>
                <polygon id="Path" points="352.074194 203.450202 365.092137 180.90121 378.110685 203.450202"></polygon>
                <polygon id="Path" points="352.074194 203.450202 339.055645 180.90121 365.092137 180.90121"></polygon>
                <polygon id="Path" points="404.147782 338.742339 430.184879 338.742339 417.166331 361.290726"></polygon>
                <polygon id="Path" points="404.147782 338.742339 417.166331 361.290726 391.129234 361.290726"></polygon>
                <polygon id="Path" points="391.129234 361.290726 417.166331 361.290726 404.147782 383.839718"></polygon>
                <polygon id="Path" points="391.129234 361.290726 404.147782 383.839718 378.110685 383.839718"></polygon>
                <polygon id="Path" points="378.110685 383.839718 404.147782 383.839718 391.129234 406.388105"></polygon>
                <polygon id="Path" points="391.129234 225.998589 378.110685 203.450202 404.147782 203.450202"></polygon>
                <polygon id="Path" points="391.129234 225.998589 404.147782 203.450202 417.166331 225.998589"></polygon>
                <polygon id="Path" points="391.129234 225.998589 417.166331 225.998589 404.147782 248.547581"></polygon>
                <polygon id="Path" points="404.147782 248.547581 417.166331 225.998589 430.184879 248.547581"></polygon>
                <polygon id="Path" points="404.147782 248.547581 430.184879 248.547581 417.166331 271.095968"></polygon>
                <polygon id="Path" points="417.166331 271.095968 443.203427 271.095968 430.184879 293.64496"></polygon>
                <polygon id="Path" points="417.166331 271.095968 430.184879 248.547581 443.203427 271.095968"></polygon>
                <polygon id="Path" points="430.184879 293.64496 456.221976 293.64496 443.203427 316.193347"></polygon>
                <polygon id="Path" points="430.184879 293.64496 443.203427 271.095968 456.221976 293.64496"></polygon>
                <polygon id="Path" points="339.055645 406.388105 352.074194 428.936492 326.037097 428.936492"></polygon>
                <polygon id="Path" points="339.055645 406.388105 326.037097 428.936492 313.018548 406.388105"></polygon>
                <polygon id="Path" points="313.018548 406.388105 326.037097 428.936492 300 428.936492"></polygon>
                <polygon id="Path" points="313.018548 406.388105 300 428.936492 286.981452 406.388105"></polygon>
                <polygon id="Path" points="286.981452 406.388105 300 428.936492 273.962903 428.936492"></polygon>
                <polygon id="Path" points="234.907863 406.388105 247.925806 428.936492 221.889315 428.936492"></polygon>
                <polygon id="Path" points="234.907863 406.388105 221.889315 428.936492 208.870766 406.388105"></polygon>
                <polygon id="Path" points="234.907863 406.388105 208.870766 406.388105 221.889315 383.839718"></polygon>
                <polygon id="Path" points="221.889315 383.839718 208.870766 406.388105 195.852218 383.839718"></polygon>
                <polygon id="Path" points="221.889315 383.839718 195.852218 383.839718 208.870766 361.290726"></polygon>
                <polygon id="Path" points="208.870766 361.290726 182.833669 361.290726 195.852218 338.742339"></polygon>
                <polygon id="Path" points="208.870766 361.290726 195.852218 383.839718 182.833669 361.290726"></polygon>
                <polygon id="Path" points="195.852218 338.742339 169.815121 338.742339 182.833669 316.193347"></polygon>
                <polygon id="Path" points="195.852218 338.742339 182.833669 361.290726 169.815121 338.742339"></polygon>
                <polygon id="Path" points="182.833669 316.193347 169.815121 338.742339 156.796573 316.193347"></polygon>
                <polygon id="Path" points="182.833669 316.193347 156.796573 316.193347 169.815121 293.64496"></polygon>
                <polygon id="Path" points="169.815121 293.64496 156.796573 271.095968 182.833669 271.095968"></polygon>
                <polygon id="Path" points="169.815121 293.64496 156.796573 316.193347 143.778024 293.64496"></polygon>
                <polygon id="Path" points="169.815121 293.64496 143.778024 293.64496 156.796573 271.095968"></polygon>
                <polygon id="Path" points="182.833669 271.095968 156.796573 271.095968 169.815121 248.547581"></polygon>
                <polygon id="Path" points="182.833669 271.095968 169.815121 248.547581 195.852218 248.547581"></polygon>
                <polygon id="Path" points="195.852218 248.547581 169.815121 248.547581 182.833669 225.998589"></polygon>
                <polygon id="Path" points="195.852218 248.547581 182.833669 225.998589 208.870766 225.998589"></polygon>
                <polygon id="Path" points="208.870766 225.998589 195.852218 203.450202 221.889315 203.450202"></polygon>
                <polygon id="Path" points="208.870766 225.998589 182.833669 225.998589 195.852218 203.450202"></polygon>
                <polygon id="Path" points="247.925806 203.450202 221.889315 203.450202 234.907863 180.90121"></polygon>
                <polygon id="Path" points="247.925806 203.450202 234.907863 180.90121 260.944355 180.90121"></polygon>
                <polygon id="Path" points="221.889315 203.450202 208.870766 180.90121 234.907863 180.90121"></polygon>
                <polygon id="Path" points="221.889315 203.450202 195.852218 203.450202 208.870766 180.90121"></polygon>
                <polygon id="Path" points="260.944355 180.90121 273.962903 158.352823 286.981452 180.90121"></polygon>
                <polygon id="Path" points="260.944355 180.90121 234.907863 180.90121 247.925806 158.352823"></polygon>
                <polygon id="Path" points="260.944355 180.90121 247.925806 158.352823 273.962903 158.352823"></polygon>
                <polygon id="Path" points="286.981452 180.90121 273.962903 158.352823 300 158.352823"></polygon>
                <polygon id="Path" points="286.981452 180.90121 300 158.352823 313.018548 180.90121"></polygon>
                <polygon id="Path" points="313.018548 180.90121 300 158.352823 326.037097 158.352823"></polygon>
                <polygon id="Path" points="313.018548 180.90121 326.037097 158.352823 339.055645 180.90121"></polygon>
                <polygon id="Path" points="339.055645 180.90121 352.074194 158.352823 365.092137 180.90121"></polygon>
                <polygon id="Path" points="339.055645 180.90121 326.037097 158.352823 352.074194 158.352823"></polygon>
                <polygon id="Path" points="378.110685 203.450202 365.092137 180.90121 391.129234 180.90121"></polygon>
                <polygon id="Path" points="378.110685 203.450202 391.129234 180.90121 404.147782 203.450202"></polygon>
                <polygon id="Path" points="365.092137 180.90121 378.110685 158.352823 391.129234 180.90121"></polygon>
                <polygon id="Path" points="365.092137 180.90121 352.074194 158.352823 378.110685 158.352823"></polygon>
                <polygon id="Path" points="430.184879 338.742339 443.203427 316.193347 456.221976 338.742339"></polygon>
                <polygon id="Path" points="430.184879 338.742339 456.221976 338.742339 443.203427 361.290726"></polygon>
                <polygon id="Path" points="430.184879 338.742339 443.203427 361.290726 417.166331 361.290726"></polygon>
                <polygon id="Path" points="417.166331 361.290726 443.203427 361.290726 430.184879 383.839718"></polygon>
                <polygon id="Path" points="417.166331 361.290726 430.184879 383.839718 404.147782 383.839718"></polygon>
                <polygon id="Path" points="404.147782 383.839718 417.166331 406.388105 391.129234 406.388105"></polygon>
                <polygon id="Path" points="404.147782 383.839718 430.184879 383.839718 417.166331 406.388105"></polygon>
                <polygon id="Path" points="391.129234 406.388105 404.147782 428.936492 378.110685 428.936492"></polygon>
                <polygon id="Path" points="391.129234 406.388105 417.166331 406.388105 404.147782 428.936492"></polygon>
                <polygon id="Path" points="404.147782 203.450202 430.184879 203.450202 417.166331 225.998589"></polygon>
                <polygon id="Path" points="404.147782 203.450202 391.129234 180.90121 417.166331 180.90121"></polygon>
                <polygon id="Path" points="404.147782 203.450202 417.166331 180.90121 430.184879 203.450202"></polygon>
                <polygon id="Path" points="417.166331 225.998589 430.184879 203.450202 443.203427 225.998589"></polygon>
                <polygon id="Path" points="417.166331 225.998589 443.203427 225.998589 430.184879 248.547581"></polygon>
                <polygon id="Path" points="430.184879 248.547581 443.203427 225.998589 456.221976 248.547581"></polygon>
                <polygon id="Path" points="430.184879 248.547581 456.221976 248.547581 443.203427 271.095968"></polygon>
                <polygon id="Path" points="443.203427 271.095968 469.240524 271.095968 456.221976 293.64496"></polygon>
                <polygon id="Path" points="443.203427 271.095968 456.221976 248.547581 469.240524 271.095968"></polygon>
                <polygon id="Path" points="443.203427 316.193347 456.221976 293.64496 469.240524 316.193347"></polygon>
                <polygon id="Path" points="443.203427 316.193347 469.240524 316.193347 456.221976 338.742339"></polygon>
                <polygon id="Path" points="365.092137 451.485484 352.074194 428.936492 378.110685 428.936492"></polygon>
                <polygon id="Path" points="339.055645 451.485484 352.074194 428.936492 365.092137 451.485484"></polygon>
                <polygon id="Path" points="339.055645 451.485484 326.037097 428.936492 352.074194 428.936492"></polygon>
                <polygon id="Path" points="313.018548 451.485484 326.037097 428.936492 339.055645 451.485484"></polygon>
                <polygon id="Path" points="313.018548 451.485484 300 428.936492 326.037097 428.936492"></polygon>
                <polygon id="Path" points="286.981452 451.485484 273.962903 428.936492 300 428.936492"></polygon>
                <polygon id="Path" points="286.981452 451.485484 300 428.936492 313.018548 451.485484"></polygon>
                <polygon id="Path" points="260.944355 451.485484 247.925806 428.936492 273.962903 428.936492"></polygon>
                <polygon id="Path" points="260.944355 451.485484 273.962903 428.936492 286.981452 451.485484"></polygon>
                <polygon id="Path" points="234.907863 451.485484 247.925806 428.936492 260.944355 451.485484"></polygon>
                <polygon id="Path" points="234.907863 451.485484 221.889315 428.936492 247.925806 428.936492"></polygon>
                <polygon id="Path" points="195.852218 428.936492 208.870766 406.388105 221.889315 428.936492"></polygon>
                <polygon id="Path" points="208.870766 451.485484 221.889315 428.936492 234.907863 451.485484"></polygon>
                <polygon id="Path" points="208.870766 451.485484 195.852218 428.936492 221.889315 428.936492"></polygon>
                <polygon id="Path" points="195.852218 428.936492 182.833669 406.388105 208.870766 406.388105"></polygon>
                <polygon id="Path" points="182.833669 406.388105 195.852218 383.839718 208.870766 406.388105"></polygon>
                <polygon id="Path" points="182.833669 406.388105 169.815121 383.839718 195.852218 383.839718"></polygon>
                <polygon id="Path" points="169.815121 383.839718 182.833669 361.290726 195.852218 383.839718"></polygon>
                <polygon id="Path" points="156.796573 361.290726 169.815121 338.742339 182.833669 361.290726"></polygon>
                <polygon id="Path" points="169.815121 383.839718 156.796573 361.290726 182.833669 361.290726"></polygon>
                <polygon id="Path" points="143.778024 338.742339 156.796573 316.193347 169.815121 338.742339"></polygon>
                <polygon id="Path" points="156.796573 361.290726 143.778024 338.742339 169.815121 338.742339"></polygon>
                <polygon id="Path" points="143.778024 338.742339 130.759476 316.193347 156.796573 316.193347"></polygon>
                <polygon id="Path" points="130.759476 316.193347 143.778024 293.64496 156.796573 316.193347"></polygon>
                <polygon id="Path" points="130.759476 271.095968 156.796573 271.095968 143.778024 293.64496"></polygon>
                <polygon id="Path" points="130.759476 271.095968 143.778024 248.547581 156.796573 271.095968"></polygon>
                <polygon id="Path" points="143.778024 248.547581 169.815121 248.547581 156.796573 271.095968"></polygon>
                <polygon id="Path" points="169.815121 203.450202 195.852218 203.450202 182.833669 225.998589"></polygon>
                <polygon id="Path" points="169.815121 203.450202 182.833669 180.90121 195.852218 203.450202"></polygon>
                <polygon id="Path" points="182.833669 180.90121 208.870766 180.90121 195.852218 203.450202"></polygon>
                <polygon id="Path" points="221.889315 158.352823 234.907863 180.90121 208.870766 180.90121"></polygon>
                <polygon id="Path" points="221.889315 158.352823 247.925806 158.352823 234.907863 180.90121"></polygon>
                <polygon id="Path" points="182.833669 180.90121 195.852218 158.352823 208.870766 180.90121"></polygon>
                <polygon id="Path" points="221.889315 158.352823 208.870766 180.90121 195.852218 158.352823"></polygon>
                <polygon id="Path" points="221.889315 158.352823 234.907863 135.803831 247.925806 158.352823"></polygon>
                <polygon id="Path" points="234.907863 135.803831 260.944355 135.803831 247.925806 158.352823"></polygon>
                <polygon id="Path" points="260.944355 135.803831 273.962903 158.352823 247.925806 158.352823"></polygon>
                <polygon id="Path" points="260.944355 135.803831 286.981452 135.803831 273.962903 158.352823"></polygon>
                <polygon id="Path" points="286.981452 135.803831 300 158.352823 273.962903 158.352823"></polygon>
                <polygon id="Path" points="339.055645 135.803831 352.074194 158.352823 326.037097 158.352823"></polygon>
                <polygon id="Path" points="339.055645 135.803831 365.092137 135.803831 352.074194 158.352823"></polygon>
                <polygon id="Path" points="365.092137 135.803831 378.110685 158.352823 352.074194 158.352823"></polygon>
                <polygon id="Path" points="404.147782 158.352823 391.129234 180.90121 378.110685 158.352823"></polygon>
                <polygon id="Path" points="404.147782 158.352823 417.166331 180.90121 391.129234 180.90121"></polygon>
                <polygon id="Path" points="365.092137 135.803831 391.129234 135.803831 378.110685 158.352823"></polygon>
                <polygon id="Path" points="404.147782 158.352823 378.110685 158.352823 391.129234 135.803831"></polygon>
                <polygon id="Path" points="469.240524 361.290726 443.203427 361.290726 456.221976 338.742339"></polygon>
                <polygon id="Path" points="469.240524 361.290726 456.221976 383.839718 443.203427 361.290726"></polygon>
                <polygon id="Path" points="456.221976 383.839718 430.184879 383.839718 443.203427 361.290726"></polygon>
                <polygon id="Path" points="456.221976 383.839718 443.203427 406.388105 430.184879 383.839718"></polygon>
                <polygon id="Path" points="430.184879 383.839718 443.203427 406.388105 417.166331 406.388105"></polygon>
                <polygon id="Path" points="417.166331 406.388105 430.184879 428.936492 404.147782 428.936492"></polygon>
                <polygon id="Path" points="417.166331 406.388105 443.203427 406.388105 430.184879 428.936492"></polygon>
                <polygon id="Path" points="378.110685 428.936492 404.147782 428.936492 391.129234 451.485484"></polygon>
                <polygon id="Path" points="365.092137 451.485484 378.110685 428.936492 391.129234 451.485484"></polygon>
                <polygon id="Path" points="404.147782 428.936492 417.166331 451.485484 391.129234 451.485484"></polygon>
                <polygon id="Path" points="404.147782 428.936492 430.184879 428.936492 417.166331 451.485484"></polygon>
                <polygon id="Path" points="404.147782 158.352823 430.184879 158.352823 417.166331 180.90121"></polygon>
                <polygon id="Path" points="417.166331 180.90121 430.184879 158.352823 443.203427 180.90121"></polygon>
                <polygon id="Path" points="417.166331 180.90121 443.203427 180.90121 430.184879 203.450202"></polygon>
                <polygon id="Path" points="430.184879 203.450202 443.203427 180.90121 456.221976 203.450202"></polygon>
                <polygon id="Path" points="430.184879 203.450202 456.221976 203.450202 443.203427 225.998589"></polygon>
                <polygon id="Path" points="208.870766 451.485484 182.833669 451.485484 195.852218 428.936492"></polygon>
                <polygon id="Path" points="195.852218 428.936492 182.833669 451.485484 169.815121 428.936492"></polygon>
                <polygon id="Path" points="195.852218 428.936492 169.815121 428.936492 182.833669 406.388105"></polygon>
                <polygon id="Path" points="169.815121 383.839718 143.778024 383.839718 156.796573 361.290726"></polygon>
                <polygon id="Path" points="156.796573 361.290726 143.778024 383.839718 130.759476 361.290726"></polygon>
                <polygon id="Path" points="156.796573 361.290726 130.759476 361.290726 143.778024 338.742339"></polygon>
                <polygon id="Path" points="169.815121 203.450202 143.778024 203.450202 156.796573 180.90121"></polygon>
                <polygon id="Path" points="169.815121 203.450202 156.796573 180.90121 182.833669 180.90121"></polygon>
                <polygon id="Path" points="182.833669 180.90121 156.796573 180.90121 169.815121 158.352823"></polygon>
                <polygon id="Path" points="182.833669 180.90121 169.815121 158.352823 195.852218 158.352823"></polygon>
                <polygon id="Path" points="195.852218 158.352823 169.815121 158.352823 182.833669 135.803831"></polygon>
                <polygon id="Path" points="456.221976 428.936492 430.184879 428.936492 443.203427 406.388105"></polygon>
                <polygon id="Path" points="443.203427 451.485484 430.184879 428.936492 456.221976 428.936492"></polygon>
                <polygon id="Path" points="443.203427 451.485484 417.166331 451.485484 430.184879 428.936492"></polygon>
                <polygon id="Path" points="456.221976 158.352823 430.184879 158.352823 443.203427 135.803831"></polygon>
                <polygon id="Path" points="456.221976 158.352823 443.203427 180.90121 430.184879 158.352823"></polygon>
                <polygon id="Path" points="469.240524 180.90121 443.203427 180.90121 456.221976 158.352823"></polygon>
                <polygon id="Path" points="469.240524 180.90121 456.221976 203.450202 443.203427 180.90121"></polygon>
                <polygon id="Path" points="156.796573 451.485484 169.815121 428.936492 182.833669 451.485484"></polygon>
                <polygon id="Path" points="143.778024 428.936492 169.815121 428.936492 156.796573 451.485484"></polygon>
                <polygon id="Path" points="130.759476 180.90121 156.796573 180.90121 143.778024 203.450202"></polygon>
                <polygon id="Path" points="143.778024 158.352823 156.796573 180.90121 130.759476 180.90121"></polygon>
                <polygon id="Path" points="143.778024 158.352823 169.815121 158.352823 156.796573 180.90121"></polygon>
                <polygon id="Path" points="156.796573 135.803831 182.833669 135.803831 169.815121 158.352823"></polygon>
                <polygon id="Path" points="156.796573 135.803831 169.815121 158.352823 143.778024 158.352823"></polygon>
                <polygon id="Path" points="469.240524 451.485484 443.203427 451.485484 456.221976 428.936492"></polygon>
                <polygon id="Path" points="469.240524 135.803831 456.221976 158.352823 443.203427 135.803831"></polygon>
                <polygon id="Path" points="130.759476 451.485484 143.778024 428.936492 156.796573 451.485484"></polygon>
                <polygon id="Path" points="130.759476 135.803831 156.796573 135.803831 143.778024 158.352823"></polygon>
            </g>
            <g id="Group" transform="translate(26.008065, 22.983871)" fill="#BD65D3">
                <polygon id="Path" points="247.954839 225.56371 221.917742 225.56371 208.899798 203.014718 221.917742 180.466331 247.954839 180.466331 260.973387 203.014718"></polygon>
                <polygon id="Path" points="326.066129 225.56371 313.047581 203.014718 326.066129 180.466331 352.102621 180.466331 365.121169 203.014718 352.102621 225.56371"></polygon>
                <polygon id="Path" points="208.899798 293.209476 195.88125 315.758468 169.844153 315.758468 156.825605 293.209476 169.844153 270.661089 195.88125 270.661089"></polygon>
                <polygon id="Path" points="365.121169 293.209476 378.139718 270.661089 404.176815 270.661089 417.195363 293.209476 404.176815 315.758468 378.139718 315.758468"></polygon>
                <polygon id="Path" points="247.954839 360.855847 260.973387 383.404234 247.954839 405.952621 221.917742 405.952621 208.899798 383.404234 221.917742 360.855847"></polygon>
                <polygon id="Path" points="326.066129 360.855847 352.102621 360.855847 365.121169 383.404234 352.102621 405.952621 326.066129 405.952621 313.047581 383.404234"></polygon>
                <polygon id="Path" points="117.76996 225.56371 104.751411 203.014718 117.76996 180.466331 143.807056 180.466331 156.825605 203.014718 143.807056 225.56371"></polygon>
                <polygon id="Path" points="260.973387 112.81996 273.991935 90.2715726 300.029032 90.2715726 313.047581 112.81996 300.029032 135.368952 273.991935 135.368952"></polygon>
                <polygon id="Path" points="469.268952 203.014718 456.250403 225.56371 430.213911 225.56371 417.195363 203.014718 430.213911 180.466331 456.250403 180.466331"></polygon>
                <polygon id="Path" points="156.825605 383.404234 143.807056 405.952621 117.76996 405.952621 104.751411 383.404234 117.76996 360.855847 143.807056 360.855847"></polygon>
                <polygon id="Path" points="195.88125 135.368952 169.844153 135.368952 156.825605 112.81996 169.844153 90.2715726 195.88125 90.2715726 208.899798 112.81996"></polygon>
                <polygon id="Path" points="378.139718 135.368952 365.121169 112.81996 378.139718 90.2715726 404.176815 90.2715726 417.195363 112.81996 404.176815 135.368952"></polygon>
                <polygon id="Path" points="430.213911 360.855847 456.250403 360.855847 469.268952 383.404234 456.250403 405.952621 430.213911 405.952621 417.195363 383.404234"></polygon>
                <polygon id="Path" points="273.991935 270.661089 300.029032 270.661089 313.047581 293.209476 300.029032 315.758468 273.991935 315.758468 260.973387 293.209476"></polygon>
            </g>
        </g>
    </g>
</svg>