<?xml version="1.0" encoding="UTF-8"?>
<svg width="880px" height="200px" viewBox="0 0 880 200" version="1.1" xmlns="http://www.w3.org/2000/svg" xmlns:xlink="http://www.w3.org/1999/xlink">
    <!-- Generator: Sketch 57.1 (83088) - https://sketch.com -->
    <title>writings-tiling-7</title>
    <desc>Created with Sketch.</desc>
    <defs>
        <rect id="path-1" x="0" y="50" width="160" height="200"></rect>
        <rect id="path-3" x="0" y="0" width="160" height="200"></rect>
        <rect id="path-5" x="0" y="0" width="160" height="200"></rect>
        <rect id="path-7" x="0" y="0" width="160" height="200"></rect>
        <rect id="path-9" x="0" y="0" width="160" height="200"></rect>
    </defs>
    <g id="writings-tiling-7" stroke="none" stroke-width="1" fill="none" fill-rule="evenodd">
        <rect fill="#F8F9FA" x="0" y="0" width="880" height="200"></rect>
        <g id="6-3-3_m30_1581679504104-copy-4" transform="translate(0.000000, -50.000000)">
            <mask id="mask-2" fill="white">
                <use xlink:href="#path-1"></use>
            </mask>
            <g id="Mask"></g>
            <g mask="url(#mask-2)">
                <g transform="translate(-1055.000000, -984.000000)">
                    <g id="two-2548" transform="translate(1108.500000, 1074.000000)">
                        <polygon id="two-2549" stroke="#212529" fill="#AE3EC9" fill-rule="nonzero" points="51.98 74.999 26 90 0.019 75 0.019 45 25.999 29.999 51.98 44.999"></polygon>
                        <polygon id="two-2550" stroke="#212529" fill="#B959D0" fill-rule="nonzero" points="51.98 44.999 25.999 29.999 51.98 14.999"></polygon>
                        <polygon id="two-2551" stroke="#212529" fill="#C373D7" fill-rule="nonzero" points="51.98 14.999 25.999 29.999 25.999 0"></polygon>
                    </g>
                    <g id="two-2568" transform="translate(635.000000, 711.000000)">
                        <path d="M500,0 L500,846" id="two-2569" stroke="#5C7CFA" fill="#000000" fill-rule="nonzero"></path>
                        <path d="M0,423.5 L999,423.5" id="two-2570" stroke="#5C7CFA" fill="#000000" fill-rule="nonzero"></path>
                    </g>
                    <g id="two-2571" transform="translate(0.500000, 0.000000)">
                        <path d="M1134,1134 L1788.545,0.294" id="two-2572" stroke="#00FFFF" fill="#000000" fill-rule="nonzero"></path>
                        <path d="M1134,1134 L2267.705,479.454" id="two-2573" stroke="#00FFFF" fill="#000000" fill-rule="nonzero"></path>
                        <path d="M1134,1134 L2267.705,1788.545" id="two-2574" stroke="#00FFFF" fill="#000000" fill-rule="nonzero"></path>
                        <path d="M1134,1134 L0.294,1788.545" id="two-2575" stroke="#00FFFF" fill="#000000" fill-rule="nonzero"></path>
                    </g>
                </g>
            </g>
        </g>
        <g id="6-3-3_m30_1581679504104-copy-3" transform="translate(180.000000, 0.000000)">
            <mask id="mask-4" fill="white">
                <use xlink:href="#path-3"></use>
            </mask>
            <g id="Mask"></g>
            <g mask="url(#mask-4)">
                <g transform="translate(-1054.000000, -1034.000000)">
                    <g id="two-2548" transform="translate(1108.500000, 1074.000000)">
                        <polygon id="two-2549" stroke="#212529" fill="#AE3EC9" fill-rule="nonzero" points="51.98 74.999 26 90 0.019 75 0.019 45 25.999 29.999 51.98 44.999"></polygon>
                        <polygon id="two-2550" stroke="#212529" fill="#B959D0" fill-rule="nonzero" points="51.98 44.999 25.999 29.999 51.98 14.999"></polygon>
                        <polygon id="two-2551" stroke="#212529" fill="#C373D7" fill-rule="nonzero" points="51.98 14.999 25.999 29.999 25.999 0"></polygon>
                        <polygon id="two-2552" stroke="#212529" fill="#CE8EDE" fill-rule="nonzero" points="51.98 15 51.98 45 77.961 30"></polygon>
                    </g>
                    <g id="two-2568" transform="translate(635.000000, 711.000000)">
                        <path d="M500,0 L500,846" id="two-2569" stroke="#5C7CFA" fill="#000000" fill-rule="nonzero"></path>
                        <path d="M0,423.5 L999,423.5" id="two-2570" stroke="#5C7CFA" fill="#000000" fill-rule="nonzero"></path>
                    </g>
                    <g id="two-2571" transform="translate(0.500000, 0.000000)">
                        <path d="M1134,1134 L1788.545,0.294" id="two-2572" stroke="#00FFFF" fill="#000000" fill-rule="nonzero"></path>
                        <path d="M1134,1134 L2267.705,479.454" id="two-2573" stroke="#00FFFF" fill="#000000" fill-rule="nonzero"></path>
                        <path d="M1134,1134 L2267.705,1788.545" id="two-2574" stroke="#00FFFF" fill="#000000" fill-rule="nonzero"></path>
                        <path d="M1134,1134 L0.294,1788.545" id="two-2575" stroke="#00FFFF" fill="#000000" fill-rule="nonzero"></path>
                    </g>
                </g>
            </g>
        </g>
        <g id="6-3-3_m30_1581679504104-copy-2" transform="translate(360.000000, 0.000000)">
            <mask id="mask-6" fill="white">
                <use xlink:href="#path-5"></use>
            </mask>
            <g id="Mask"></g>
            <g mask="url(#mask-6)">
                <g transform="translate(-1054.000000, -1034.000000)">
                    <g id="two-2548" transform="translate(1108.500000, 1074.000000)">
                        <polygon id="two-2549" stroke="#212529" fill="#AE3EC9" fill-rule="nonzero" points="51.98 74.999 26 90 0.019 75 0.019 45 25.999 29.999 51.98 44.999"></polygon>
                        <polygon id="two-2550" stroke="#212529" fill="#B959D0" fill-rule="nonzero" points="51.98 44.999 25.999 29.999 51.98 14.999"></polygon>
                        <polygon id="two-2551" stroke="#212529" fill="#C373D7" fill-rule="nonzero" points="51.98 14.999 25.999 29.999 25.999 0"></polygon>
                        <polygon id="two-2552" stroke="#212529" fill="#CE8EDE" fill-rule="nonzero" points="51.98 15 51.98 45 77.961 30"></polygon>
                        <polygon id="two-2553" stroke="#212529" fill="#D8A9E5" fill-rule="nonzero" points="51.98 45 51.98 75 77.961 60"></polygon>
                        <polygon id="two-2554" stroke="#212529" fill="#D8A9E5" fill-rule="nonzero" points="77.961 60 51.98 75 77.961 90"></polygon>
                        <polygon id="two-2555" stroke="#212529" fill="#D8A9E5" fill-rule="nonzero" points="77.961 59.999 51.98 44.999 77.961 29.999"></polygon>
                    </g>
                    <g id="two-2568" transform="translate(635.000000, 711.000000)">
                        <path d="M500,0 L500,846" id="two-2569" stroke="#5C7CFA" fill="#000000" fill-rule="nonzero"></path>
                        <path d="M0,423.5 L999,423.5" id="two-2570" stroke="#5C7CFA" fill="#000000" fill-rule="nonzero"></path>
                    </g>
                    <g id="two-2571" transform="translate(0.500000, 0.000000)">
                        <path d="M1134,1134 L1788.545,0.294" id="two-2572" stroke="#00FFFF" fill="#000000" fill-rule="nonzero"></path>
                        <path d="M1134,1134 L2267.705,479.454" id="two-2573" stroke="#00FFFF" fill="#000000" fill-rule="nonzero"></path>
                        <path d="M1134,1134 L2267.705,1788.545" id="two-2574" stroke="#00FFFF" fill="#000000" fill-rule="nonzero"></path>
                        <path d="M1134,1134 L0.294,1788.545" id="two-2575" stroke="#00FFFF" fill="#000000" fill-rule="nonzero"></path>
                    </g>
                </g>
            </g>
        </g>
        <g id="6-3-3_m30_1581679504104-copy" transform="translate(540.000000, 0.000000)">
            <mask id="mask-8" fill="white">
                <use xlink:href="#path-7"></use>
            </mask>
            <g id="Mask"></g>
            <g mask="url(#mask-8)">
                <g transform="translate(-1054.000000, -1034.000000)">
                    <g id="two-2548" transform="translate(1082.500000, 1074.000000)">
                        <polygon id="two-2549" stroke="#212529" fill="#AE3EC9" fill-rule="nonzero" points="77.98 74.999 52 90 26.019 75 26.019 45 51.999 29.999 77.98 44.999"></polygon>
                        <polygon id="two-2550" stroke="#212529" fill="#B959D0" fill-rule="nonzero" points="77.98 44.999 51.999 29.999 77.98 14.999"></polygon>
                        <polygon id="two-2551" stroke="#212529" fill="#C373D7" fill-rule="nonzero" points="77.98 14.999 51.999 29.999 51.999 0"></polygon>
                        <polygon id="two-2552" stroke="#212529" fill="#CE8EDE" fill-rule="nonzero" points="77.98 15 77.98 45 103.961 30"></polygon>
                        <polygon id="two-2553" stroke="#212529" fill="#D8A9E5" fill-rule="nonzero" points="77.98 45 77.98 75 103.961 60"></polygon>
                        <polygon id="two-2554" stroke="#212529" fill="#D8A9E5" fill-rule="nonzero" points="103.961 60 77.98 75 103.961 90"></polygon>
                        <polygon id="two-2555" stroke="#212529" fill="#D8A9E5" fill-rule="nonzero" points="103.961 59.999 77.98 44.999 103.961 29.999"></polygon>
                        <polygon id="two-2556" stroke="#212529" fill="#E3C4EC" fill-rule="nonzero" points="51.999 89.999 26.019 74.999 26.019 104.999"></polygon>
                        <polygon id="two-2557" stroke="#212529" fill="#E3C4EC" fill-rule="nonzero" points="26.019 104.999 26.019 74.999 0.038 89.999"></polygon>
                        <polygon id="two-2558" stroke="#212529" fill="#E3C4EC" fill-rule="nonzero" points="26.019 105 52 90 52 119.999"></polygon>
                        <polygon id="two-2559" stroke="#212529" fill="#E3C4EC" fill-rule="nonzero" points="52 89.999 77.98 74.999 77.98 104.999"></polygon>
                        <polygon id="two-2560" stroke="#212529" fill="#E3C4EC" fill-rule="nonzero" points="77.98 104.999 77.98 74.999 103.961 89.999"></polygon>
                        <polygon id="two-2561" stroke="#212529" fill="#E3C4EC" fill-rule="nonzero" points="77.98 105 51.999 90 51.999 119.999"></polygon>
                    </g>
                    <g id="two-2568" transform="translate(635.000000, 711.000000)">
                        <path d="M500,0 L500,846" id="two-2569" stroke="#5C7CFA" fill="#000000" fill-rule="nonzero"></path>
                        <path d="M0,423.5 L999,423.5" id="two-2570" stroke="#5C7CFA" fill="#000000" fill-rule="nonzero"></path>
                    </g>
                    <g id="two-2571" transform="translate(0.500000, 0.000000)">
                        <path d="M1134,1134 L1788.545,0.294" id="two-2572" stroke="#00FFFF" fill="#000000" fill-rule="nonzero"></path>
                        <path d="M1134,1134 L2267.705,479.454" id="two-2573" stroke="#00FFFF" fill="#000000" fill-rule="nonzero"></path>
                        <path d="M1134,1134 L2267.705,1788.545" id="two-2574" stroke="#00FFFF" fill="#000000" fill-rule="nonzero"></path>
                        <path d="M1134,1134 L0.294,1788.545" id="two-2575" stroke="#00FFFF" fill="#000000" fill-rule="nonzero"></path>
                    </g>
                </g>
            </g>
        </g>
        <g id="6-3-3_m30_1581679504104" transform="translate(720.000000, 0.000000)">
            <mask id="mask-10" fill="white">
                <use xlink:href="#path-9"></use>
            </mask>
            <g id="Mask"></g>
            <g mask="url(#mask-10)">
                <g transform="translate(-1054.000000, -1034.000000)">
                    <g id="two-2548" transform="translate(1082.500000, 1074.000000)">
                        <polygon id="two-2549" stroke="#212529" fill="#AE3EC9" fill-rule="nonzero" points="77.98 74.999 52 90 26.019 75 26.019 45 51.999 29.999 77.98 44.999"></polygon>
                        <polygon id="two-2550" stroke="#212529" fill="#B959D0" fill-rule="nonzero" points="77.98 44.999 51.999 29.999 77.98 14.999"></polygon>
                        <polygon id="two-2551" stroke="#212529" fill="#C373D7" fill-rule="nonzero" points="77.98 14.999 51.999 29.999 51.999 0"></polygon>
                        <polygon id="two-2552" stroke="#212529" fill="#CE8EDE" fill-rule="nonzero" points="77.98 15 77.98 45 103.961 30"></polygon>
                        <polygon id="two-2553" stroke="#212529" fill="#D8A9E5" fill-rule="nonzero" points="77.98 45 77.98 75 103.961 60"></polygon>
                        <polygon id="two-2554" stroke="#212529" fill="#D8A9E5" fill-rule="nonzero" points="103.961 60 77.98 75 103.961 90"></polygon>
                        <polygon id="two-2555" stroke="#212529" fill="#D8A9E5" fill-rule="nonzero" points="103.961 59.999 77.98 44.999 103.961 29.999"></polygon>
                        <polygon id="two-2556" stroke="#212529" fill="#E3C4EC" fill-rule="nonzero" points="51.999 89.999 26.019 74.999 26.019 104.999"></polygon>
                        <polygon id="two-2557" stroke="#212529" fill="#E3C4EC" fill-rule="nonzero" points="26.019 104.999 26.019 74.999 0.038 89.999"></polygon>
                        <polygon id="two-2558" stroke="#212529" fill="#E3C4EC" fill-rule="nonzero" points="26.019 105 52 90 52 119.999"></polygon>
                        <polygon id="two-2559" stroke="#212529" fill="#E3C4EC" fill-rule="nonzero" points="52 89.999 77.98 74.999 77.98 104.999"></polygon>
                        <polygon id="two-2560" stroke="#212529" fill="#E3C4EC" fill-rule="nonzero" points="77.98 104.999 77.98 74.999 103.961 89.999"></polygon>
                        <polygon id="two-2561" stroke="#212529" fill="#E3C4EC" fill-rule="nonzero" points="77.98 105 51.999 90 51.999 119.999"></polygon>
                        <polygon id="two-2562" stroke="#212529" fill="#EDDEF3" fill-rule="nonzero" points="26.019 45 26.019 75 0.038 60"></polygon>
                        <polygon id="two-2563" stroke="#212529" fill="#EDDEF3" fill-rule="nonzero" points="0.038 60 26.019 75 0.038 90"></polygon>
                        <polygon id="two-2564" stroke="#212529" fill="#EDDEF3" fill-rule="nonzero" points="0.038 59.999 26.019 45 0.038 30"></polygon>
                        <polygon id="two-2565" stroke="#212529" fill="#EDDEF3" fill-rule="nonzero" points="26.019 44.999 52 29.999 26.019 15"></polygon>
                        <polygon id="two-2566" stroke="#212529" fill="#EDDEF3" fill-rule="nonzero" points="26.019 15 52 29.999 52 0"></polygon>
                        <polygon id="two-2567" stroke="#212529" fill="#EDDEF3" fill-rule="nonzero" points="26.019 15 26.019 45 0.038 30"></polygon>
                    </g>
                    <g id="two-2568" transform="translate(635.000000, 711.000000)">
                        <path d="M500,0 L500,846" id="two-2569" stroke="#5C7CFA" fill="#000000" fill-rule="nonzero"></path>
                        <path d="M0,423.5 L999,423.5" id="two-2570" stroke="#5C7CFA" fill="#000000" fill-rule="nonzero"></path>
                    </g>
                    <g id="two-2571" transform="translate(0.500000, 0.000000)">
                        <path d="M1134,1134 L1788.545,0.294" id="two-2572" stroke="#00FFFF" fill="#000000" fill-rule="nonzero"></path>
                        <path d="M1134,1134 L2267.705,479.454" id="two-2573" stroke="#00FFFF" fill="#000000" fill-rule="nonzero"></path>
                        <path d="M1134,1134 L2267.705,1788.545" id="two-2574" stroke="#00FFFF" fill="#000000" fill-rule="nonzero"></path>
                        <path d="M1134,1134 L0.294,1788.545" id="two-2575" stroke="#00FFFF" fill="#000000" fill-rule="nonzero"></path>
                    </g>
                </g>
            </g>
        </g>
    </g>
</svg>