<?xml version="1.0" encoding="UTF-8"?>
<svg xmlns="http://www.w3.org/2000/svg" preserveAspectRatio="xMidYMid meet" viewBox="0 0 1360 710" class="Box Box--position-absolute Box--position-center" style="height: 710px; width: 1360px;"><g><path fill="#f8f9fa" stroke="#868e96" d="M 651.6735972909321 373.435927904447 A 173.9599258616338 173.9599258616338 0 0 0 651.746987554135 373.3592622267584  A 113.16801303174726 113.16801303174726 0 0 0 651.7823653027939 373.40042955778836  A 123.06557288522414 123.06557288522414 0 0 1 651.6735972909321 373.435927904447  " id="100000000000000000100000000000001000000000000000000000001000000000101" class="Box CircleArt__intersection"/><path fill="#f8f9fa" stroke="#868e96" d="M 651.6735972909321 373.435927904447 A 123.06557288522414 123.06557288522414 0 1 1 660.4378395575529 142.6442148834319  A 173.9599258616338 173.9599258616338 0 1 0 651.6735972909321 373.435927904447  " id="1000000000000010000000000000000000000000000000000011" class="Box CircleArt__intersection"/><path fill="#f8f9fa" stroke="#868e96" d="M 660.4378395575529 142.6442148834319 A 173.9599258616338 173.9599258616338 0 0 1 690.5996825988262 196.67200619018666  A 113.16801303174726 113.16801303174726 0 0 0 651.746987554135 373.3592622267584  A 173.9599258616338 173.9599258616338 0 0 1 651.6735972909321 373.435927904447  A 123.06557288522414 123.06557288522414 0 1 1 660.4378395575529 142.6442148834319  " id="1000000000000000001000000000000101000000000000000000000000000000001111" class="Box CircleArt__intersection"/><path fill="#f8f9fa" stroke="#868e96" d="M 651.746987554135 373.3592622267584 A 173.9599258616338 173.9599258616338 0 0 0 690.5996825988262 196.67200619018666  A 113.16801303174726 113.16801303174726 0 0 0 651.746987554135 373.3592622267584  " id="1000000000000000000000000000001000000000000000000000000000000000001100" class="Box CircleArt__intersection"/><path fill="#212529" stroke="#f8f9fa" d="M 690.5996825988262 196.67200619018666 A 113.16801303174726 113.16801303174726 0 0 1 716.1672961176672 188.5001154227674  A 123.06557288522414 123.06557288522414 0 0 0 660.4378395575529 142.6442148834319  A 173.9599258616338 173.9599258616338 0 0 1 690.5996825988262 196.67200619018666  " id="10000000000000000010000000000000100000000000000000000000010000000001010" class="Box CircleArt__intersection"/><path fill="#212529" stroke="#f8f9fa" d="M 651.746987554135 373.3592622267584 A 173.9599258616338 173.9599258616338 0 0 0 690.5996825988262 196.67200619018666  A 113.16801303174726 113.16801303174726 0 0 1 716.1672961176672 188.5001154227674  A 123.06557288522414 123.06557288522414 0 0 1 727.8857386896973 210.9127412904989  A 63.93312571601688 63.93312571601688 0 0 0 731.1708684308803 220.2401632342149  A 123.06557288522414 123.06557288522414 0 0 1 709.9433090175539 332.92797246359186  A 159.60239685026332 159.60239685026332 0 0 0 655.7345809342876 372.0337713296297  A 123.06557288522414 123.06557288522414 0 0 1 651.7823653027939 373.40042955778836  A 113.16801303174726 113.16801303174726 0 0 1 651.746987554135 373.3592622267584  " id="100000010100000000000010100010000010001000000000000000000000001111000000111100" class="Box CircleArt__intersection"/><path fill="#212529" stroke="#f8f9fa" d="M 709.9433090175539 332.92797246359186 A 159.60239685026332 159.60239685026332 0 0 1 765.6056384668024 319.67463976207614  A 16.650514625137266 16.650514625137266 0 0 0 784.6764697315542 332.65173055300176  A 11.563430390929717 11.563430390929717 0 0 0 798.4456492290925 351.21750677308705  A 18.958643127066544 18.958643127066544 0 0 0 801.4854028060427 363.18105521437684  A 18.828787878787878 18.828787878787878 0 1 0 793.2766081049099 398.1424767232158  A 113.16801303174726 113.16801303174726 0 0 1 779.7160809495452 404.6579883680258  A 118.87750484017062 118.87750484017062 0 0 0 742.9736852193972 412.66128248746406  A 113.16801303174726 113.16801303174726 0 0 1 653.1513128810104 374.96337827769923  A 159.60239685026332 159.60239685026332 0 0 1 655.7345809342876 372.0337713296297  A 123.06557288522414 123.06557288522414 0 0 0 709.9433090175539 332.92797246359186  " id="100000001000000001000100000000000000001010000010000000001000101000000010000100100010000110000101000110000" class="Box CircleArt__intersection"/><path fill="#f8f9fa" stroke="#868e96" d="M 655.7345809342876 372.0337713296297 A 123.06557288522414 123.06557288522414 0 0 1 651.7823653027939 373.40042955778836  A 113.16801303174726 113.16801303174726 0 0 0 653.1513128810104 374.96337827769923  A 159.60239685026332 159.60239685026332 0 0 1 655.7345809342876 372.0337713296297  " id="10000000000000000010000001000000000000000000000000000001001000100000" class="Box CircleArt__intersection"/><path fill="#212529" stroke="#f8f9fa" d="M 653.1513128810104 374.96337827769923 A 113.16801303174726 113.16801303174726 0 0 0 742.9736852193972 412.66128248746406  A 118.87750484017062 118.87750484017062 0 0 0 751.6438956762121 637.0569438405569  A 159.60239685026332 159.60239685026332 0 0 1 653.1513128810104 374.96337827769923  " id="1000000001000000000000000100000000000000000000000100000001001000000" class="Box CircleArt__intersection"/><path fill="#f8f9fa" stroke="#868e96" d="M 751.6438956762121 637.0569438405569 A 118.87750484017062 118.87750484017062 0 0 0 874.274682317555 603.3334775141875  A 159.60239685026332 159.60239685026332 0 0 1 751.6438956762121 637.0569438405569  " id="100000000000000010000000000000000000000000000000011000000" class="Box CircleArt__intersection"/><path fill="#f8f9fa" stroke="#868e96" d="M 874.274682317555 603.3334775141875 A 159.60239685026332 159.60239685026332 0 0 0 844.779857898234 335.92793392233875  A 113.16801303174726 113.16801303174726 0 0 1 836.1344833788196 355.2697553610636  A 18.958643127066544 18.958643127066544 0 0 1 826.8620346864484 369.17842839962026  A 113.16801303174726 113.16801303174726 0 0 1 808.8136066331097 387.56868605819096  A 18.828787878787878 18.828787878787878 0 0 1 793.2766081049099 398.1424767232158  A 113.16801303174726 113.16801303174726 0 0 1 779.7160809495452 404.6579883680258  A 118.87750484017062 118.87750484017062 0 0 1 874.274682317555 603.3334775141875  " id="100000100000000000000010101100000000000100000000000000000000000111100010000000110000000" class="Box CircleArt__intersection"/><path fill="#f8f9fa" stroke="#868e96" d="M 779.7160809495452 404.6579883680258 A 113.16801303174726 113.16801303174726 0 0 1 742.9736852193972 412.66128248746406  A 118.87750484017062 118.87750484017062 0 0 0 751.6438956762121 637.0569438405569  A 159.60239685026332 159.60239685026332 0 0 0 874.274682317555 603.3334775141875  A 118.87750484017062 118.87750484017062 0 0 0 779.7160809495452 404.6579883680258  " id="100000101000000000000000010000000000000000000000110000000011000000" class="Box CircleArt__intersection"/><path fill="#212529" stroke="#f8f9fa" d="M 709.9433090175539 332.92797246359186 A 159.60239685026332 159.60239685026332 0 0 0 655.7345809342876 372.0337713296297  A 123.06557288522414 123.06557288522414 0 0 0 709.9433090175539 332.92797246359186  " id="1000010000000000000000000000000000000000000110000" class="Box CircleArt__intersection"/><path fill="#f8f9fa" stroke="#868e96" d="M 844.779857898234 335.92793392233875 A 159.60239685026332 159.60239685026332 0 0 0 797.7877265015626 321.2071201446838  A 16.650514625137266 16.650514625137266 0 0 1 790.9975814358576 330.17825206001356  A 11.563430390929717 11.563430390929717 0 0 1 803.3069715735281 340.03646538088515  A 18.958643127066544 18.958643127066544 0 0 1 836.1344833788196 355.2697553610636  A 113.16801303174726 113.16801303174726 0 0 0 844.779857898234 335.92793392233875  " id="10000000000010000000010000000000000000000000001000000000000010000000000100000010000001000000000010100000000" class="Box CircleArt__intersection"/><path fill="#f8f9fa" stroke="#868e96" d="M 836.1344833788196 355.2697553610636 A 113.16801303174726 113.16801303174726 0 0 1 826.8620346864484 369.17842839962026  A 18.958643127066544 18.958643127066544 0 0 0 836.1344833788196 355.2697553610636  " id="100000000000000000010000000000000000000000000000000000000001100000000000000000000" class="Box CircleArt__intersection"/><path fill="#f8f9fa" stroke="#868e96" d="M 826.8620346864484 369.17842839962026 A 18.958643127066544 18.958643127066544 0 0 1 807.6269281962882 369.066683713362  A 18.828787878787878 18.828787878787878 0 0 0 801.4854028060427 363.18105521437684  A 18.958643127066544 18.958643127066544 0 0 1 798.4456492290925 351.21750677308705  A 11.563430390929717 11.563430390929717 0 0 0 803.3069715735281 340.03646538088515  A 18.958643127066544 18.958643127066544 0 0 1 836.1344833788196 355.2697553610636  A 113.16801303174726 113.16801303174726 0 0 1 826.8620346864484 369.17842839962026  " id="100000000000000000010010101000000000000000000010000000000000000000000000000000111100001100000000000000000000" class="Box CircleArt__intersection"/><path fill="#212529" stroke="#f8f9fa" d="M 797.7877265015626 321.2071201446838 A 159.60239685026332 159.60239685026332 0 0 0 765.6056384668024 319.67463976207614  A 16.650514625137266 16.650514625137266 0 0 0 784.6764697315542 332.65173055300176  A 11.563430390929717 11.563430390929717 0 0 1 790.9975814358576 330.17825206001356  A 16.650514625137266 16.650514625137266 0 0 0 797.7877265015626 321.2071201446838  " id="1000000001010000000000000000000000000000000000000000000000001000000000110000000000000000000000110000000000" class="Box CircleArt__intersection"/><path fill="#212529" stroke="#f8f9fa" d="M 790.9975814358576 330.17825206001356 A 16.650514625137266 16.650514625137266 0 0 1 784.6764697315542 332.65173055300176  A 11.563430390929717 11.563430390929717 0 0 0 798.4456492290925 351.21750677308705  A 18.958643127066544 18.958643127066544 0 0 1 803.3069715735281 340.03646538088515  A 11.563430390929717 11.563430390929717 0 0 0 790.9975814358576 330.17825206001356  " id="10100000000100000000001000000000000000000000000000000000000000000000000110000110000000000000000000000000000" class="Box CircleArt__intersection"/><path fill="#f8f9fa" stroke="#868e96" d="M 803.3069715735281 340.03646538088515 A 11.563430390929717 11.563430390929717 0 0 1 798.4456492290925 351.21750677308705  A 18.958643127066544 18.958643127066544 0 0 1 803.3069715735281 340.03646538088515  " id="100000000000000000000001000000000000000000000000000000000000000000000000000000110000000000000000000000000000" class="Box CircleArt__intersection"/><path fill="#f8f9fa" stroke="#868e96" d="M 716.1672961176672 188.5001154227674 A 123.06557288522414 123.06557288522414 0 0 1 727.8857386896973 210.9127412904989  A 63.93312571601688 63.93312571601688 0 0 1 726.1427962499026 187.03404369492785  A 113.16801303174726 113.16801303174726 0 0 0 716.1672961176672 188.5001154227674  " id="1000000100000000000000000100000000000000000000000000000000010001010000000000000" class="Box CircleArt__intersection"/><path fill="#f8f9fa" stroke="#868e96" d="M 726.1427962499026 187.03404369492785 A 113.16801303174726 113.16801303174726 0 0 1 834.0381627975778 240.41385661851467  A 63.93312571601688 63.93312571601688 0 0 1 782.6350999615809 257.94862949411146  A 13.33697823802601 13.33697823802601 0 0 0 774.4901555295721 256.5112863590511  A 63.93312571601688 63.93312571601688 0 0 1 731.1708684308803 220.2401632342149  A 123.06557288522414 123.06557288522414 0 0 0 727.8857386896973 210.9127412904989  A 63.93312571601688 63.93312571601688 0 0 1 726.1427962499026 187.03404369492785  " id="1000000000000000000000001010101000000000000000001000000000000000000000000000011000011001100000000000000" class="Box CircleArt__intersection"/><path fill="#212529" stroke="#f8f9fa" d="M 731.1708684308803 220.2401632342149 A 123.06557288522414 123.06557288522414 0 0 1 709.9433090175539 332.92797246359186  A 159.60239685026332 159.60239685026332 0 0 1 765.6056384668024 319.67463976207614  A 16.650514625137266 16.650514625137266 0 0 1 780.7893939393939 299.62121212121207  A 17.336302789191553 17.336302789191553 0 0 1 782.276843426588 281.66887121910116  A 13.33697823802601 13.33697823802601 0 1 1 774.4901555295721 256.5112863590511  A 63.93312571601688 63.93312571601688 0 0 1 731.1708684308803 220.2401632342149  " id="100010000010000000000000010000000000000000000010000000000100000000001001000001000000000100100000010000" class="Box CircleArt__intersection"/><path fill="#212529" stroke="#f8f9fa" d="M 774.4901555295721 256.5112863590511 A 13.33697823802601 13.33697823802601 0 1 0 782.276843426588 281.66887121910116  A 17.336302789191553 17.336302789191553 0 0 1 787.6240606417194 276.8563757254829  A 13.33697823802601 13.33697823802601 0 0 0 782.6350999615809 257.94862949411146  A 63.93312571601688 63.93312571601688 0 0 1 774.4901555295721 256.5112863590511  " id="10100000000100000000000000001000000000000000000000000000000000000000001100000011000000000000000000000000" class="Box CircleArt__intersection"/><path fill="#f8f9fa" stroke="#868e96" d="M 782.6350999615809 257.94862949411146 A 13.33697823802601 13.33697823802601 0 0 0 774.4901555295721 256.5112863590511  A 63.93312571601688 63.93312571601688 0 0 0 782.6350999615809 257.94862949411146  " id="1000000000000000000000000001000000000000000000000000000000000000000000000000011000000000000000000000000" class="Box CircleArt__intersection"/><path fill="#f8f9fa" stroke="#868e96" d="M 727.8857386896973 210.9127412904989 A 123.06557288522414 123.06557288522414 0 0 1 731.1708684308803 220.2401632342149  A 63.93312571601688 63.93312571601688 0 0 1 727.8857386896973 210.9127412904989  " id="100000000000000000000001000000000000000000000000000000000000001100000000000000" class="Box CircleArt__intersection"/><path fill="#212529" stroke="#f8f9fa" d="M 742.9736852193972 412.66128248746406 A 118.87750484017062 118.87750484017062 0 0 1 779.7160809495452 404.6579883680258  A 113.16801303174726 113.16801303174726 0 0 1 742.9736852193972 412.66128248746406  " id="100000010000000000000000000000000000000000000000110000000000000000" class="Box CircleArt__intersection"/><path fill="#f8f9fa" stroke="#868e96" d="M 726.1427962499026 187.03404369492785 A 113.16801303174726 113.16801303174726 0 0 1 834.0381627975778 240.41385661851467  A 63.93312571601688 63.93312571601688 0 1 0 726.1427962499026 187.03404369492785  " id="10000001000000000000000000000000000000000000000000000000000011000000000000000000" class="Box CircleArt__intersection"/><path fill="#f8f9fa" stroke="#868e96" d="M 793.2766081049099 398.1424767232158 A 113.16801303174726 113.16801303174726 0 0 0 808.8136066331097 387.56868605819096  A 18.828787878787878 18.828787878787878 0 0 1 793.2766081049099 398.1424767232158  " id="100000000000000000000001000000000000000000000000000000000000000110000000000000000000000" class="Box CircleArt__intersection"/><path fill="#f8f9fa" stroke="#868e96" d="M 808.8136066331097 387.56868605819096 A 18.828787878787878 18.828787878787878 0 0 0 807.6269281962882 369.066683713362  A 18.958643127066544 18.958643127066544 0 0 0 826.8620346864484 369.17842839962026  A 113.16801303174726 113.16801303174726 0 0 1 808.8136066331097 387.56868605819096  " id="100000001000000000000000000100000000000000000000000000000000001000100100000000000000000000" class="Box CircleArt__intersection"/><path fill="#f8f9fa" stroke="#868e96" d="M 782.6350999615809 257.94862949411146 A 63.93312571601688 63.93312571601688 0 0 0 834.0381627975778 240.41385661851467  A 113.16801303174726 113.16801303174726 0 0 1 844.779857898234 335.92793392233875  A 159.60239685026332 159.60239685026332 0 0 0 797.7877265015626 321.2071201446838  A 16.650514625137266 16.650514625137266 0 0 0 796.9840851083577 309.190802357418  A 17.336302789191553 17.336302789191553 0 1 0 787.6240606417194 276.8563757254829  A 13.33697823802601 13.33697823802601 0 0 0 782.6350999615809 257.94862949411146  " id="10001000001000000000000000000110000000000000000000000000010000000000000110000010000001000000010100000000" class="Box CircleArt__intersection"/><path fill="#f8f9fa" stroke="#868e96" d="M 796.9840851083577 309.190802357418 A 16.650514625137266 16.650514625137266 0 0 0 780.7893939393939 299.62121212121207  A 17.336302789191553 17.336302789191553 0 0 0 796.9840851083577 309.190802357418  " id="100000001000000000000000000000000000000000000000000000000000000000011000000000000000000000000000000" class="Box CircleArt__intersection"/><path fill="#f8f9fa" stroke="#868e96" d="M 780.7893939393939 299.62121212121207 A 17.336302789191553 17.336302789191553 0 0 1 782.276843426588 281.66887121910116  A 13.33697823802601 13.33697823802601 0 0 0 787.6240606417194 276.8563757254829  A 17.336302789191553 17.336302789191553 0 1 1 796.9840851083577 309.190802357418  A 16.650514625137266 16.650514625137266 0 0 0 780.7893939393939 299.62121212121207  " id="10100001010000000000000000000000000000000000000000000000000000000001111000000000000000000000000000000" class="Box CircleArt__intersection"/><path fill="#212529" stroke="#f8f9fa" d="M 796.9840851083577 309.190802357418 A 16.650514625137266 16.650514625137266 0 0 1 797.7877265015626 321.2071201446838  A 159.60239685026332 159.60239685026332 0 0 0 765.6056384668024 319.67463976207614  A 16.650514625137266 16.650514625137266 0 0 1 780.7893939393939 299.62121212121207  A 17.336302789191553 17.336302789191553 0 0 0 796.9840851083577 309.190802357418  " id="1010000001000000000000000000000000000000000000000000001000000000000011000000000000000000110000000000" class="Box CircleArt__intersection"/><path fill="#212529" stroke="#f8f9fa" d="M 807.6269281962882 369.066683713362 A 18.958643127066544 18.958643127066544 0 0 1 801.4854028060427 363.18105521437684  A 18.828787878787878 18.828787878787878 0 1 0 793.2766081049099 398.1424767232158  A 113.16801303174726 113.16801303174726 0 0 0 808.8136066331097 387.56868605819096  A 18.828787878787878 18.828787878787878 0 0 0 807.6269281962882 369.066683713362  " id="101000010000000000000000001000000000000000000000000000000000001100110000000000000000000000" class="Box CircleArt__intersection"/><path fill="#f8f9fa" stroke="#868e96" d="M 787.6240606417194 276.8563757254829 A 17.336302789191553 17.336302789191553 0 0 0 782.276843426588 281.66887121910116  A 13.33697823802601 13.33697823802601 0 0 0 787.6240606417194 276.8563757254829  " id="10000000100000000000000000000000000000000000000000000000000000000001100000000000000000000000000000000" class="Box CircleArt__intersection"/><path fill="#f8f9fa" stroke="#868e96" d="M 784.6764697315542 332.65173055300176 A 16.650514625137266 16.650514625137266 0 0 0 790.9975814358576 330.17825206001356  A 11.563430390929717 11.563430390929717 0 0 0 784.6764697315542 332.65173055300176  " id="1000000000100000000000000000000000000000000000000000000000000000000000110000000000000000000000000000000000" class="Box CircleArt__intersection"/></g></svg>
