<?xml version="1.0" encoding="UTF-8"?>
<svg xmlns="http://www.w3.org/2000/svg" preserveAspectRatio="xMidYMid meet" viewBox="0 0 1360 710" class="Box Box--position-absolute Box--position-center" style="height: 710px; width: 1360px;"><g><path fill="#f8f9fa" stroke="#868e96" d="M 532.2793706663927 288.79627054609995 A 495.00582864735816 495.00582864735816 0 0 0 535.163836767654 289.8091272338179  A 44.094870825864525 44.094870825864525 0 0 0 532.1717932917439 288.3037327624429  A 192.07100931524144 192.07100931524144 0 0 0 532.2793706663927 288.79627054609995  " id="1000000000000000000000000000000000000000001000000000000000000100000000000000000000000000010000000000000010000001" class="Box CircleArt__intersection"/><path fill="#f8f9fa" stroke="#868e96" d="M 532.1717932917439 288.3037327624429 A 192.07100931524144 192.07100931524144 0 0 1 528.5587797778591 230.52854054622867  A 30.853490395823005 30.853490395823005 0 0 0 552.8803171314814 238.33818349057518  A 44.094870825864525 44.094870825864525 0 0 0 535.4007524540626 289.89143006425604  A 495.00582864735816 495.00582864735816 0 0 1 535.163836767654 289.8091272338179  A 44.094870825864525 44.094870825864525 0 0 0 532.1717932917439 288.3037327624429  " id="1000001000000001000000000000000000000000000000010000000000000000000010000000100000000000000010010000000000000010010000" class="Box CircleArt__intersection"/><path fill="#212529" stroke="#f8f9fa" d="M 535.163836767654 289.8091272338179 A 44.094870825864525 44.094870825864525 0 0 1 535.4224460789698 289.95293312786754  A 44.094870825864525 44.094870825864525 0 0 0 555.436644830121 313.7197941448597  A 44.094870825864525 44.094870825864525 0 0 1 557.4633228590585 321.82841925413  A 92.67305506696843 92.67305506696843 0 0 1 546.1029153477878 329.3901176498634  A 192.07100931524144 192.07100931524144 0 0 1 532.2793706663927 288.79627054609995  A 495.00582864735816 495.00582864735816 0 0 0 535.163836767654 289.8091272338179  " id="1010000000000010000000000000000000100000000000100000000000000000100000000001100000010000000000000100000000010000001" class="Box CircleArt__intersection"/><path fill="#212529" stroke="#f8f9fa" d="M 532.2793706663927 288.79627054609995 A 495.00582864735816 495.00582864735816 0 0 1 522.3082249548779 285.13947392764544  A 44.094870825864525 44.094870825864525 0 0 0 480.39525746518484 299.7088584708898  A 29.92504908770819 29.92504908770819 0 0 1 472.9520581890273 311.96824551397276  A 44.094870825864525 44.094870825864525 0 0 0 470.4834693877337 336.32506149935085  A 92.67305506696843 92.67305506696843 0 0 0 546.1029153477878 329.3901176498634  A 192.07100931524144 192.07100931524144 0 0 1 532.2793706663927 288.79627054609995  " id="100000000000010100000000000000000000000001000000000000100000000000000001000000011000000000001000000000000100000000001000001" class="Box CircleArt__intersection"/><path fill="#212529" stroke="#f8f9fa" d="M 546.1029153477878 329.3901176498634 A 92.67305506696843 92.67305506696843 0 0 0 557.4633228590585 321.82841925413  A 44.094870825864525 44.094870825864525 0 0 1 554.5692796290733 345.3713006904327  A 192.07100931524144 192.07100931524144 0 0 1 546.1029153477878 329.3901176498634  " id="10000000000000000000000000000000000100000000000010000000000000000000000000000000000010000000100000100000000000000000" class="Box CircleArt__intersection"/><path fill="#f8f9fa" stroke="#868e96" d="M 554.5692796290733 345.3713006904327 A 44.094870825864525 44.094870825864525 0 0 1 470.4834693877337 336.32506149935085  A 92.67305506696843 92.67305506696843 0 0 0 546.1029153477878 329.3901176498634  A 192.07100931524144 192.07100931524144 0 0 0 554.5692796290733 345.3713006904327  " id="10000000000000000000000001000000000000010000000000000000000000000000000000001000000100000100000000000000000" class="Box CircleArt__intersection"/><path fill="#f8f9fa" stroke="#868e96" d="M 410.8095014409812 225.63236217743594 A 495.00582864735816 495.00582864735816 0 0 0 522.3082249548779 285.13947392764544  A 44.094870825864525 44.094870825864525 0 0 0 480.39525746518484 299.7088584708898  A 29.92504908770819 29.92504908770819 0 1 0 423.342951923507 299.8963247152569  A 92.67305506696843 92.67305506696843 0 0 1 410.8095014409812 225.63236217743594  " id="100000000000000010000000000000000000000001000000000000000000000000000000010000000001000000010000000000000000000000000001000100" class="Box CircleArt__intersection"/><path fill="#f8f9fa" stroke="#868e96" d="M 410.8095014409812 225.63236217743594 A 92.67305506696843 92.67305506696843 0 0 1 545.2852862962511 167.49956544559836  A 192.07100931524144 192.07100931524144 0 0 0 540.8322408958537 178.0254013192516  A 30.853490395823005 30.853490395823005 0 0 0 528.5587797778591 230.52854054622867  A 192.07100931524144 192.07100931524144 0 0 0 532.1717932917439 288.3037327624429  A 44.094870825864525 44.094870825864525 0 0 0 522.3082249548779 285.13947392764544  A 495.00582864735816 495.00582864735816 0 0 1 410.8095014409812 225.63236217743594  " id="10000000100000000000000000000000010000000000001010000000000000000010000000000000000000000000011010000010000000001000100" class="Box CircleArt__intersection"/><path fill="#f8f9fa" stroke="#868e96" d="M 522.3082249548779 285.13947392764544 A 44.094870825864525 44.094870825864525 0 0 1 532.1717932917439 288.3037327624429  A 192.07100931524144 192.07100931524144 0 0 0 532.2793706663927 288.79627054609995  A 495.00582864735816 495.00582864735816 0 0 1 522.3082249548779 285.13947392764544  " id="100000000000000000000000000000000000000001000000000000000001000000000000000000000000000010000000000000001000001" class="Box CircleArt__intersection"/><path fill="#212529" stroke="#f8f9fa" d="M 535.4007524540626 289.89143006425604 A 495.00582864735816 495.00582864735816 0 0 0 576.2721561040706 302.1319791385526  A 92.67305506696843 92.67305506696843 0 0 1 563.0763329934234 317.0949050176451  A 44.094870825864525 44.094870825864525 0 0 1 555.436644830121 313.7197941448597  A 44.094870825864525 44.094870825864525 0 0 0 535.4224460789698 289.95293312786754  A 44.094870825864525 44.094870825864525 0 0 1 535.4007524540626 289.89143006425604  " id="100000000000101000000000000000000001000000000000000000000000000001000000001100000000010000000000000000000000011000" class="Box CircleArt__intersection"/><path fill="#f8f9fa" stroke="#868e96" d="M 535.4224460789698 289.95293312786754 A 44.094870825864525 44.094870825864525 0 0 0 535.163836767654 289.8091272338179  A 495.00582864735816 495.00582864735816 0 0 0 535.4007524540626 289.89143006425604  A 44.094870825864525 44.094870825864525 0 0 0 535.4224460789698 289.95293312786754  " id="10000000000100000000000000000000000000000000000000000000000000010000000000100000000000000000000000000000010010000" class="Box CircleArt__intersection"/><path fill="#212529" stroke="#f8f9fa" d="M 535.4007524540626 289.89143006425604 A 44.094870825864525 44.094870825864525 0 0 1 552.8803171314814 238.33818349057518  A 30.853490395823005 30.853490395823005 0 0 0 568.2668676709841 232.03222015471343  A 44.094870825864525 44.094870825864525 0 0 1 592.0458100218898 233.8076585608038  A 92.67305506696843 92.67305506696843 0 0 1 576.2721561040706 302.1319791385526  A 495.00582864735816 495.00582864735816 0 0 1 535.4007524540626 289.89143006425604  " id="100000000000101000000000000100000000000000000000000000000000000000001000000110000000000100000000000000000000000011000" class="Box CircleArt__intersection"/><path fill="#212529" stroke="#f8f9fa" d="M 576.2721561040706 302.1319791385526 A 92.67305506696843 92.67305506696843 0 0 1 563.0763329934234 317.0949050176451  A 44.094870825864525 44.094870825864525 0 0 0 605.789299219165 308.65023592586033  A 495.00582864735816 495.00582864735816 0 0 1 576.2721561040706 302.1319791385526  " id="100000000000000000001000000000000000000000000000000100000000000000000010000000000000000000000101000" class="Box CircleArt__intersection"/><path fill="#212529" stroke="#f8f9fa" d="M 605.789299219165 308.65023592586033 A 44.094870825864525 44.094870825864525 0 0 1 563.0763329934234 317.0949050176451  A 92.67305506696843 92.67305506696843 0 0 1 557.4633228590585 321.82841925413  A 44.094870825864525 44.094870825864525 0 0 1 554.5692796290733 345.3713006904327  A 192.07100931524144 192.07100931524144 0 0 0 559.6332396597811 353.46406193880085  A 71.03179607555344 71.03179607555344 0 0 1 617.7158344483666 339.66074504780556  A 71.03179607555344 71.03179607555344 0 0 1 713.8079330398868 439.5403866114755  A 192.07100931524144 192.07100931524144 0 0 0 741.3351326692168 438.4332676948118  A 193.32194695500039 193.32194695500039 0 0 1 860.1432800881536 310.9421165688143  A 21.844808510521226 21.844808510521226 0 0 1 864.1232268625938 288.4546662291005  A 495.00582864735816 495.00582864735816 0 0 1 605.789299219165 308.65023592586033  " id="100000000000010000000000000000101001000000000000010000000000001000100000001000000010000000001000010010000100110000010100100100000" class="Box CircleArt__intersection"/><path fill="#212529" stroke="#f8f9fa" d="M 864.1232268625938 288.4546662291005 A 21.844808510521226 21.844808510521226 0 0 0 860.1432800881536 310.9421165688143  A 193.32194695500039 193.32194695500039 0 0 1 902.1914638680997 300.61449248251176  A 21.844808510521226 21.844808510521226 0 0 0 883.0642676782334 281.2535792830624  A 495.00582864735816 495.00582864735816 0 0 1 864.1232268625938 288.4546662291005  " id="10100000000000000000000000000000000000000000000000000000000000000000000000010000000001000000000000000000000000000000011001100000000" class="Box CircleArt__intersection"/><path fill="#f8f9fa" stroke="#868e96" d="M 883.0642676782334 281.2535792830624 A 21.844808510521226 21.844808510521226 0 0 0 864.1232268625938 288.4546662291005  A 495.00582864735816 495.00582864735816 0 0 0 883.0642676782334 281.2535792830624  " id="1000000000000000000000000000000000000000000000000000000000000000000000000000000000001000000000000000000000000000000000001100000000" class="Box CircleArt__intersection"/><path fill="#f8f9fa" stroke="#868e96" d="M 864.1232268625938 288.4546662291005 A 495.00582864735816 495.00582864735816 0 0 1 605.789299219165 308.65023592586033  A 44.094870825864525 44.094870825864525 0 0 0 592.0458100218898 233.8076585608038  A 92.67305506696843 92.67305506696843 0 0 0 578.9942052548489 199.2929042015075  A 30.853490395823005 30.853490395823005 0 0 0 562.674295180671 179.8854435727555  A 92.67305506696843 92.67305506696843 0 0 0 545.2852862962511 167.49956544559836  A 192.07100931524144 192.07100931524144 0 0 1 910.7343672292827 269.0850728084495  A 495.00582864735816 495.00582864735816 0 0 1 883.0642676782334 281.2535792830624  A 21.844808510521226 21.844808510521226 0 0 0 864.1232268625938 288.4546662291005  " id="1000000001000000000000001000000000000000010100000000000010000000000000000000000000010100000000001100100000000000010000001100100010" class="Box CircleArt__intersection"/><path fill="#f8f9fa" stroke="#868e96" d="M 883.0642676782334 281.2535792830624 A 21.844808510521226 21.844808510521226 0 0 1 902.1914638680997 300.61449248251176  A 193.32194695500039 193.32194695500039 0 0 1 904.5557816463524 300.3234877910817  A 192.07100931524144 192.07100931524144 0 0 0 910.7343672292827 269.0850728084495  A 495.00582864735816 495.00582864735816 0 0 1 883.0642676782334 281.2535792830624  " id="10000000000000000000000000000000000000000000000000000000000000000000000010100000000000100000000000000000000000000000001011000000010" class="Box CircleArt__intersection"/><path fill="#f8f9fa" stroke="#868e96" d="M 910.7343672292827 269.0850728084495 A 495.00582864735816 495.00582864735816 0 1 0 410.8095014409812 225.63236217743594  A 92.67305506696843 92.67305506696843 0 0 1 545.2852862962511 167.49956544559836  A 192.07100931524144 192.07100931524144 0 0 1 910.7343672292827 269.0850728084495  " id="10000000000010000000000000000000100000000000000000000000000000000000010000000000000110" class="Box CircleArt__intersection"/><path fill="#f8f9fa" stroke="#868e96" d="M 545.2852862962511 167.49956544559836 A 92.67305506696843 92.67305506696843 0 0 1 562.674295180671 179.8854435727555  A 30.853490395823005 30.853490395823005 0 0 0 540.8322408958537 178.0254013192516  A 192.07100931524144 192.07100931524144 0 0 1 545.2852862962511 167.49956544559836  " id="100000000000000000000000000000000100000000000001000000000000000000000000000000000000001000000001000000010000000000000000" class="Box CircleArt__intersection"/><path fill="#f8f9fa" stroke="#868e96" d="M 540.8322408958537 178.0254013192516 A 30.853490395823005 30.853490395823005 0 0 0 528.5587797778591 230.52854054622867  A 192.07100931524144 192.07100931524144 0 0 1 540.8322408958537 178.0254013192516  " id="10000000000000000000000000000000000000000000000100000000000000000000000000000000000000000000011000000000000000000000000" class="Box CircleArt__intersection"/><path fill="#f8f9fa" stroke="#868e96" d="M 528.5587797778591 230.52854054622867 A 30.853490395823005 30.853490395823005 0 0 0 552.8803171314814 238.33818349057518  A 44.094870825864525 44.094870825864525 0 0 1 568.2668676709841 232.03222015471343  A 30.853490395823005 30.853490395823005 0 0 0 578.9942052548489 199.2929042015075  A 92.67305506696843 92.67305506696843 0 0 0 562.674295180671 179.8854435727555  A 30.853490395823005 30.853490395823005 0 0 0 540.8322408958537 178.0254013192516  A 192.07100931524144 192.07100931524144 0 0 0 528.5587797778591 230.52854054622867  " id="10101000000000000010000000000000001000000000000000100000000000000000000000000000110000001100000011000000000000000000000000" class="Box CircleArt__intersection"/><path fill="#f8f9fa" stroke="#868e96" d="M 904.5557816463524 300.3234877910817 A 193.32194695500039 193.32194695500039 0 0 0 902.1914638680997 300.61449248251176  A 21.844808510521226 21.844808510521226 0 0 1 902.1394242696874 305.7159857770319  A 178.0994216374756 178.0994216374756 0 0 1 902.9622618850645 305.6125023144197  A 192.07100931524144 192.07100931524144 0 0 0 904.5557816463524 300.3234877910817  " id="100000000000000000000000000000000000000000000000000000010000000000000000100100000000000000000000000000000100000000001001010000000000" class="Box CircleArt__intersection"/><path fill="#212529" stroke="#f8f9fa" d="M 902.9622618850645 305.6125023144197 A 192.07100931524144 192.07100931524144 0 0 1 752.5963624731838 436.8280277445986  A 178.0994216374756 178.0994216374756 0 0 1 862.5834912814569 315.4828828111628  A 21.844808510521226 21.844808510521226 0 0 0 902.1394242696874 305.7159857770319  A 178.0994216374756 178.0994216374756 0 0 1 902.9622618850645 305.6125023144197  " id="1000000000000000000000000000000000000000000000000010100000000000001000000000000000000000000000000001100000000001100000000000000" class="Box CircleArt__intersection"/><path fill="#212529" stroke="#f8f9fa" d="M 902.1394242696874 305.7159857770319 A 21.844808510521226 21.844808510521226 0 0 1 862.5834912814569 315.4828828111628  A 178.0994216374756 178.0994216374756 0 0 1 902.1394242696874 305.7159857770319  " id="1000000000000000000000000000000000000000000000000001000000000000000000000000000000000000000000000001100000000000000000000000000" class="Box CircleArt__intersection"/><path fill="#f8f9fa" stroke="#868e96" d="M 862.5834912814569 315.4828828111628 A 21.844808510521226 21.844808510521226 0 0 1 860.1432800881536 310.9421165688143  A 193.32194695500039 193.32194695500039 0 0 0 741.3351326692168 438.4332676948118  A 192.07100931524144 192.07100931524144 0 0 0 752.5963624731838 436.8280277445986  A 178.0994216374756 178.0994216374756 0 0 1 862.5834912814569 315.4828828111628  " id="10000000000000000000000000000000000000000000000000000100000000000010000001000000000000000000000000001000000000000110100000000000" class="Box CircleArt__intersection"/><path fill="#f8f9fa" stroke="#868e96" d="M 752.5963624731838 436.8280277445986 A 178.0994216374756 178.0994216374756 0 1 0 902.9622618850645 305.6125023144197  A 192.07100931524144 192.07100931524144 0 0 0 904.5557816463524 300.3234877910817  A 193.32194695500039 193.32194695500039 0 1 1 741.3351326692168 438.4332676948118  A 192.07100931524144 192.07100931524144 0 0 0 752.5963624731838 436.8280277445986  " id="100000000000000010101000000000000000000000000000000000000000001100110000000000" class="Box CircleArt__intersection"/><path fill="#f8f9fa" stroke="#868e96" d="M 902.1914638680997 300.61449248251176 A 193.32194695500039 193.32194695500039 0 0 0 860.1432800881536 310.9421165688143  A 21.844808510521226 21.844808510521226 0 0 0 862.5834912814569 315.4828828111628  A 178.0994216374756 178.0994216374756 0 0 1 902.1394242696874 305.7159857770319  A 21.844808510521226 21.844808510521226 0 0 0 902.1914638680997 300.61449248251176  " id="100010000000000000000000000000000000000000000000000000001000000000000000000010000000000000000000000000001100000000000011000000000000" class="Box CircleArt__intersection"/><path fill="#f8f9fa" stroke="#868e96" d="M 752.5963624731838 436.8280277445986 A 192.07100931524144 192.07100931524144 0 0 0 902.9622618850645 305.6125023144197  A 178.0994216374756 178.0994216374756 0 1 1 752.5963624731838 436.8280277445986  " id="100000000000000001000000000000000000000000000000000000000000001100000000000000" class="Box CircleArt__intersection"/><path fill="#f8f9fa" stroke="#868e96" d="M 585.2783505507364 384.5893332284331 A 192.07100931524144 192.07100931524144 0 0 0 670.4668330034017 433.1731530420895  A 71.03179607555344 71.03179607555344 0 0 1 640.3871958546636 470.0210731340127  A 71.03179607555344 71.03179607555344 0 0 1 585.2783505507364 384.5893332284331  " id="10010000000000000000000000000010000000000000000000000000010000000000000001001000000000000000000" class="Box CircleArt__intersection"/><path fill="#212529" stroke="#f8f9fa" d="M 640.3871958546636 470.0210731340127 A 71.03179607555344 71.03179607555344 0 0 0 670.4668330034017 433.1731530420895  A 192.07100931524144 192.07100931524144 0 0 0 713.8079330398868 439.5403866114755  A 71.03179607555344 71.03179607555344 0 0 1 640.3871958546636 470.0210731340127  " id="10001000000000000000000000000001000000000000000000000000010000000000000001010000000000000000000" class="Box CircleArt__intersection"/><path fill="#212529" stroke="#f8f9fa" d="M 713.8079330398868 439.5403866114755 A 71.03179607555344 71.03179607555344 0 0 0 617.7158344483666 339.66074504780556  A 71.03179607555344 71.03179607555344 0 0 1 670.4668330034017 433.1731530420895  A 192.07100931524144 192.07100931524144 0 0 0 713.8079330398868 439.5403866114755  " id="10001000000000000000000000000000001000000000000000000000000001000000000000001010000000000000000000" class="Box CircleArt__intersection"/><path fill="#212529" stroke="#f8f9fa" d="M 670.4668330034017 433.1731530420895 A 192.07100931524144 192.07100931524144 0 0 1 585.2783505507364 384.5893332284331  A 71.03179607555344 71.03179607555344 0 0 1 617.7158344483666 339.66074504780556  A 71.03179607555344 71.03179607555344 0 0 1 670.4668330034017 433.1731530420895  " id="10000100000000000000000000000000010000000000000000000000000001000000000000001001000000000000000000" class="Box CircleArt__intersection"/><path fill="#f8f9fa" stroke="#868e96" d="M 559.6332396597811 353.46406193880085 A 192.07100931524144 192.07100931524144 0 0 0 585.2783505507364 384.5893332284331  A 71.03179607555344 71.03179607555344 0 0 0 640.3871958546636 470.0210731340127  A 71.03179607555344 71.03179607555344 0 0 1 559.6332396597811 353.46406193880085  " id="100010000000000000000000000000100000000000000000000000000010000000000000000101000000000000000000" class="Box CircleArt__intersection"/><path fill="#212529" stroke="#f8f9fa" d="M 585.2783505507364 384.5893332284331 A 71.03179607555344 71.03179607555344 0 0 1 617.7158344483666 339.66074504780556  A 71.03179607555344 71.03179607555344 0 0 0 559.6332396597811 353.46406193880085  A 192.07100931524144 192.07100931524144 0 0 0 585.2783505507364 384.5893332284331  " id="1000100000000000000000000000000100000000000000000000000000001000000000000000101000000000000000000" class="Box CircleArt__intersection"/><path fill="#212529" stroke="#f8f9fa" d="M 563.0763329934234 317.0949050176451 A 92.67305506696843 92.67305506696843 0 0 1 557.4633228590585 321.82841925413  A 44.094870825864525 44.094870825864525 0 0 0 555.436644830121 313.7197941448597  A 44.094870825864525 44.094870825864525 0 0 0 563.0763329934234 317.0949050176451  " id="1000000000000001000000000000000000010000000000000000000000000000000000000001000000010010000000000000000000000000000" class="Box CircleArt__intersection"/><path fill="#212529" stroke="#f8f9fa" d="M 555.436644830121 313.7197941448597 A 44.094870825864525 44.094870825864525 0 0 1 535.4224460789698 289.95293312786754  A 44.094870825864525 44.094870825864525 0 0 1 555.436644830121 313.7197941448597  " id="100000000000010000000000000000000000000000000000000000000000000000000000001100000000000000000000000000000000000000" class="Box CircleArt__intersection"/><path fill="#212529" stroke="#f8f9fa" d="M 470.4834693877337 336.32506149935085 A 92.67305506696843 92.67305506696843 0 0 1 438.6529759947286 317.6237210082504  A 29.92504908770819 29.92504908770819 0 0 0 472.9520581890273 311.96824551397276  A 44.094870825864525 44.094870825864525 0 0 0 470.4834693877337 336.32506149935085  " id="1000000000000000100000000000000000000000010000000000000000000000000000000000000010000000100001000000000000000000000000000000" class="Box CircleArt__intersection"/><path fill="#212529" stroke="#f8f9fa" d="M 472.9520581890273 311.96824551397276 A 44.094870825864525 44.094870825864525 0 0 1 480.39525746518484 299.7088584708898  A 29.92504908770819 29.92504908770819 0 0 1 472.9520581890273 311.96824551397276  " id="100000000000001000000000000000000000000000000000000000000000000000000000000000011000000000000000000000000000000000000000000" class="Box CircleArt__intersection"/><path fill="#f8f9fa" stroke="#868e96" d="M 480.39525746518484 299.7088584708898 A 29.92504908770819 29.92504908770819 0 1 0 423.342951923507 299.8963247152569  A 92.67305506696843 92.67305506696843 0 0 0 438.6529759947286 317.6237210082504  A 29.92504908770819 29.92504908770819 0 0 0 472.9520581890273 311.96824551397276  A 44.094870825864525 44.094870825864525 0 0 1 480.39525746518484 299.7088584708898  " id="101000000000000001000000000000000000000000100000000000000000000000000000000000000011000000110000000000000000000000000000000000" class="Box CircleArt__intersection"/><path fill="#f8f9fa" stroke="#868e96" d="M 578.9942052548489 199.2929042015075 A 92.67305506696843 92.67305506696843 0 0 0 562.674295180671 179.8854435727555  A 30.853490395823005 30.853490395823005 0 0 1 578.9942052548489 199.2929042015075  " id="1000000000000000000000000000000001000000000000000000000000000000000000000000000000000001100000000000000000000000000000000" class="Box CircleArt__intersection"/><path fill="#212529" stroke="#f8f9fa" d="M 578.9942052548489 199.2929042015075 A 92.67305506696843 92.67305506696843 0 0 1 592.0458100218898 233.8076585608038  A 44.094870825864525 44.094870825864525 0 0 0 568.2668676709841 232.03222015471343  A 30.853490395823005 30.853490395823005 0 0 0 578.9942052548489 199.2929042015075  " id="10000000000000000100000000000000010000000000000000000000000000000000000000000000010000000100100000000000000000000000000000" class="Box CircleArt__intersection"/><path fill="#f8f9fa" stroke="#868e96" d="M 592.0458100218898 233.8076585608038 A 44.094870825864525 44.094870825864525 0 0 1 605.789299219165 308.65023592586033  A 495.00582864735816 495.00582864735816 0 0 1 576.2721561040706 302.1319791385526  A 92.67305506696843 92.67305506696843 0 0 0 592.0458100218898 233.8076585608038  " id="1000000000000000100000000000000000000000000000000000000000100000000000000000100000000000000000000000101000" class="Box CircleArt__intersection"/><path fill="#f8f9fa" stroke="#868e96" d="M 423.342951923507 299.8963247152569 A 92.67305506696843 92.67305506696843 0 0 0 438.6529759947286 317.6237210082504  A 29.92504908770819 29.92504908770819 0 0 1 423.342951923507 299.8963247152569  " id="10000000000000000000000000000000000000000100000000000000000000000000000000000000000000000110000000000000000000000000000000000" class="Box CircleArt__intersection"/><path fill="#212529" stroke="#f8f9fa" d="M 568.2668676709841 232.03222015471343 A 44.094870825864525 44.094870825864525 0 0 0 552.8803171314814 238.33818349057518  A 30.853490395823005 30.853490395823005 0 0 0 568.2668676709841 232.03222015471343  " id="100000000000010000000000000000000000000000000000000000000000000000000000000110000000000000000000000000000000000000000" class="Box CircleArt__intersection"/><circle fill="#f8f9fa" stroke="#868e96" cx="769.7136363636364" cy="349.4621212121212" id="1379d512-bfce-4745-b282-66f7a136704e" r="4.699045973157876" class="Box CircleArt__circle"/></g></svg>
